<svg width="80" height="80" viewBox="0 0 80 80" fill="none" xmlns="http://www.w3.org/2000/svg">
<path d="M76.6716 52.352C74.5929 47.5107 69.5929 47.3332 62.8354 48.3007C62.8866 37.0157 64.7879 26.2382 68.4004 14.4607C70.0804 10.2432 57.5629 2.58445 40.0004 2.50195C22.4379 2.58445 9.91911 10.242 11.5991 14.4595C15.1904 26.1657 17.0791 37.0182 17.1466 48.297C10.3979 47.3332 5.40411 47.5132 3.32536 52.3507C-1.20214 61.347 13.1079 77.5007 39.9991 77.5007C66.8916 77.5007 81.2004 61.347 76.6716 52.352ZM15.6016 59.8045C15.6016 59.8045 17.2979 53.8732 17.0266 50.737C31.7816 64.017 48.2191 64.017 62.9729 50.737C63.0291 53.937 64.3966 59.8045 64.3966 59.8045C49.8716 73.6257 30.1279 73.6257 15.6016 59.8045Z" fill="#555555"/>
</svg>
