<svg width="80" height="80" viewBox="0 0 80 80" fill="none" xmlns="http://www.w3.org/2000/svg">
<path d="M39.8 5.15C39.0467 5.05 38.28 5 37.5 5C34.8965 4.99952 32.3258 5.57993 29.975 6.69894C27.6243 7.81794 25.5529 9.44734 23.9117 11.4684C22.2705 13.4894 21.101 15.8512 20.4883 18.3815C19.8756 20.9119 19.8352 23.5471 20.37 26.095L5.73 40.73C5.498 40.9626 5.3141 41.2386 5.18885 41.5424C5.06359 41.8461 4.99942 42.1715 5 42.5V57.5C5 58.163 5.2634 58.7989 5.73224 59.2678C6.20108 59.7366 6.83696 60 7.5 60H17.5C18.163 60 18.7989 59.7366 19.2678 59.2678C19.7366 58.7989 20 58.163 20 57.5V52.5H27.5C28.163 52.5 28.7989 52.2366 29.2678 51.7678C29.7366 51.2989 30 50.663 30 50V43.535L34.385 39.15C31.5274 34.9847 29.9986 30.0514 30 25C29.996 21.1603 30.8782 17.3715 32.578 13.9286C34.2778 10.4857 36.7492 7.4815 39.8 5.15ZM35 25C35.0008 21.4895 35.9256 18.041 37.6815 15.0011C39.4373 11.9612 41.9624 9.43706 45.0029 7.6823C48.0434 5.92754 51.4923 5.004 55.0028 5.00449C58.5134 5.00499 61.9619 5.92949 65.0019 7.68511C68.042 9.44072 70.5663 11.9656 72.3214 15.006C74.0764 18.0463 75.0002 21.4951 75 25.0056C74.9998 28.5162 74.0756 31.9648 72.3202 35.005C70.5649 38.0451 68.0402 40.5697 65 42.325V51.465L69.27 55.73C69.5028 55.9622 69.6875 56.2381 69.8136 56.5418C69.9396 56.8456 70.0045 57.1712 70.0045 57.5C70.0045 57.8288 69.9396 58.1544 69.8136 58.4582C69.6875 58.7619 69.5028 59.0378 69.27 59.27L66.035 62.5L69.27 65.73C69.5235 65.9834 69.7196 66.2884 69.8449 66.6243C69.9702 66.9602 70.0218 67.3191 69.9962 67.6767C69.9706 68.0342 69.8684 68.3821 69.6965 68.6967C69.5246 69.0113 69.2871 69.2853 69 69.5L59 77C58.5673 77.3246 58.0409 77.5 57.5 77.5C56.9591 77.5 56.4327 77.3246 56 77L46 69.5C45.6895 69.2671 45.4375 68.9652 45.2639 68.618C45.0904 68.2709 45 67.8881 45 67.5V42.325C41.959 40.5693 39.4338 38.0438 37.6784 35.0025C35.923 31.9613 34.9992 28.5115 35 25ZM58.75 20C58.75 19.0054 58.3549 18.0516 57.6517 17.3483C56.9484 16.6451 55.9946 16.25 55 16.25C54.0054 16.25 53.0516 16.6451 52.3484 17.3483C51.6451 18.0516 51.25 19.0054 51.25 20C51.25 20.9946 51.6451 21.9484 52.3484 22.6517C53.0516 23.3549 54.0054 23.75 55 23.75C55.9946 23.75 56.9484 23.3549 57.6517 22.6517C58.3549 21.9484 58.75 20.9946 58.75 20Z" fill="#555555"/>
</svg>
