<svg width="80" height="80" viewBox="0 0 80 80" fill="none" xmlns="http://www.w3.org/2000/svg">
<mask id="mask0_867_27821" style="mask-type:luminance" maskUnits="userSpaceOnUse" x="14" y="4" width="52" height="72">
<path d="M39.9993 73.3327C52.886 73.3327 63.3327 62.886 63.3327 49.9993C63.3327 37.1127 52.886 26.666 39.9993 26.666C27.1127 26.666 16.666 37.1127 16.666 49.9993C16.666 62.886 27.1127 73.3327 39.9993 73.3327Z" fill="white" stroke="white" stroke-width="4"/>
<path d="M51.6654 29.9994V18.3327C51.6654 16.8006 51.3636 15.2835 50.7773 13.868C50.191 12.4526 49.3316 11.1665 48.2483 10.0831C47.1649 8.99975 45.8788 8.14039 44.4633 7.55409C43.0479 6.96778 41.5308 6.66602 39.9987 6.66602C38.4666 6.66602 36.9495 6.96778 35.5341 7.55409C34.1186 8.14039 32.8325 8.99975 31.7491 10.0831C30.6658 11.1665 29.8064 12.4526 29.2201 13.868C28.6338 15.2835 28.332 16.8006 28.332 18.3327V29.9994" stroke="white" stroke-width="4" stroke-linejoin="round"/>
<path d="M40 43.332V56.6654" stroke="black" stroke-width="4" stroke-linecap="round" stroke-linejoin="round"/>
</mask>
<g mask="url(#mask0_867_27821)">
<path d="M0 0H80V80H0V0Z" fill="#555555"/>
</g>
</svg>
