<svg width="80" height="80" viewBox="0 0 80 80" fill="none" xmlns="http://www.w3.org/2000/svg">
<g clip-path="url(#clip0_867_27816)">
<path fill-rule="evenodd" clip-rule="evenodd" d="M56.4971 0C58.4686 0 60.0686 1.6 60.0686 3.57143V8.25714C60.0686 9.20434 59.6923 10.1128 59.0225 10.7825C58.3527 11.4523 57.4443 11.8286 56.4971 11.8286C55.5499 11.8286 54.6415 11.4523 53.9718 10.7825C53.302 10.1128 52.9257 9.20434 52.9257 8.25714V3.57143C52.9257 1.6 54.5257 0 56.4971 0ZM23.1257 49.9314C24.9718 49.9689 26.8068 49.6376 28.5232 48.9571C30.2397 48.2765 31.8031 47.2603 33.1219 45.968C34.4407 44.6757 35.4884 43.1332 36.2037 41.4309C36.9189 39.7286 37.2873 37.9007 37.2873 36.0543C37.2873 34.2078 36.9189 32.3799 36.2037 30.6777C35.4884 28.9754 34.4407 27.4329 33.1219 26.1406C31.8031 24.8483 30.2397 23.8321 28.5232 23.1515C26.8068 22.4709 24.9718 22.1397 23.1257 22.1771C19.494 22.2508 16.0359 23.7453 13.4936 26.3397C10.9513 28.9342 9.52733 32.4219 9.52733 36.0543C9.52733 39.6867 10.9513 43.1744 13.4936 45.7689C16.0359 48.3633 19.494 49.8577 23.1257 49.9314ZM0 77.6857C0.0954308 71.6146 2.57416 65.8244 6.90123 61.5648C11.2283 57.3053 17.0567 54.9178 23.1286 54.9178C29.2004 54.9178 35.0288 57.3053 39.3559 61.5648C43.683 65.8244 46.1617 71.6146 46.2571 77.6857C46.2571 78.2995 46.0133 78.8882 45.5793 79.3222C45.1453 79.7562 44.5566 80 43.9429 80H2.31429C1.7005 80 1.11185 79.7562 0.677839 79.3222C0.243826 78.8882 0 78.2995 0 77.6857ZM78.3771 14.2457C78.7697 13.98 79.1055 13.6387 79.3648 13.2418C79.6242 12.845 79.8019 12.4004 79.8877 11.9342C79.9734 11.4679 79.9655 10.9892 79.8643 10.526C79.7632 10.0629 79.5708 9.62448 79.2984 9.23643C79.0261 8.84838 78.6792 8.51844 78.278 8.26585C77.8768 8.01326 77.4293 7.84307 76.9617 7.76521C76.494 7.68736 76.0155 7.70339 75.5541 7.81238C75.0928 7.92136 74.6577 8.12112 74.2743 8.4L70.44 11.0914C69.6825 11.6425 69.1718 12.4691 69.0179 13.3931C68.8641 14.3171 69.0795 15.2646 69.6176 16.0313C70.1557 16.798 70.9736 17.3227 71.8949 17.4921C72.8161 17.6615 73.7671 17.4622 74.5429 16.9371L78.3771 14.2457ZM33.7314 9.27429C33.1881 10.049 32.9744 11.0076 33.1373 11.9397C33.3001 12.8718 33.8262 13.7012 34.6 14.2457L38.44 16.9371C38.8234 17.216 39.2585 17.4158 39.7199 17.5248C40.1813 17.6338 40.6597 17.6498 41.1274 17.5719C41.595 17.4941 42.0425 17.3239 42.4437 17.0713C42.8449 16.8187 43.1918 16.4888 43.4641 16.1007C43.7365 15.7127 43.9289 15.2743 44.03 14.8111C44.1312 14.3479 44.1391 13.8692 44.0534 13.403C43.9676 12.9367 43.7899 12.4922 43.5306 12.0953C43.2712 11.6984 42.9355 11.3572 42.5429 11.0914L38.7029 8.4C37.9282 7.85668 36.9696 7.64298 36.0375 7.80583C35.1054 7.96868 34.276 8.49476 33.7314 9.26857V9.27429ZM56.2286 16.2286C57.9203 16.2105 59.5989 16.5267 61.1681 17.1592C62.7372 17.7916 64.166 18.7278 65.3723 19.914C66.5787 21.1001 67.5388 22.5129 68.1976 24.0712C68.8565 25.6294 69.201 27.3025 69.2114 28.9943C69.1543 33.68 66.3543 38.1371 62.16 40.2286V46.5886C62.151 46.9584 61.9978 47.3102 61.733 47.5686C61.4682 47.8269 61.1128 47.9715 60.7429 47.9714H52.24C51.87 47.9715 51.5147 47.8269 51.2499 47.5686C50.9851 47.3102 50.8318 46.9584 50.8229 46.5886V40.3371C48.806 39.3092 47.0946 37.7695 45.8601 35.872C44.6255 33.9746 43.9112 31.7861 43.7886 29.5257C43.7283 27.8348 44.0027 26.1487 44.5959 24.5641C45.1892 22.9795 46.0896 21.5278 47.2455 20.2922C48.4015 19.0566 49.7901 18.0616 51.3317 17.3642C52.8732 16.6669 54.5374 16.2809 56.2286 16.2286Z" fill="#555555"/>
</g>
<defs>
<clipPath id="clip0_867_27816">
<rect width="80" height="80" fill="white"/>
</clipPath>
</defs>
</svg>
