<svg width="80" height="80" viewBox="0 0 80 80" fill="none" xmlns="http://www.w3.org/2000/svg">
<path d="M6.40625 10.4551V64.9691C19.9219 65.1254 29.4531 67.2816 38.5938 69.5473V22.0941C31.5156 17.391 24.4688 12.9145 6.40625 10.4551ZM73.5938 10.4551C55.5312 12.9145 48.4844 17.391 41.4062 22.0941V69.5473C50.5469 67.2816 60.0781 65.1254 73.5938 64.9691V10.4551ZM70.3281 14.6113L70.4531 25.0785C61.1719 27.8285 52.5625 31.0004 44.0625 33.8285C44 30.5629 43.9531 27.3129 43.8906 24.0473C52.1406 19.4848 61.2656 16.5316 70.3281 14.6113ZM10.7828 16.4535C20.2812 18.6566 28.7656 21.2504 35.3281 23.4535L35.3594 26.4223C28.8594 24.2504 19.5312 21.3754 10.1484 19.1879L10.7828 16.4535ZM10.8016 23.7348L16.4219 24.7504L15.9219 27.5316L10.3016 26.516L10.8016 23.7348ZM19.2656 25.5004L24.3438 26.4691L23.8125 29.2191L18.7344 28.2504L19.2656 25.5004ZM27.5781 27.141L35.3281 28.641L34.7969 31.391L27.0469 29.891L27.5781 27.141ZM68.6875 30.2504L69.5 32.9379L60.75 35.5785L59.9375 32.891L68.6875 30.2504ZM9.675 30.9848C18.625 32.0316 27.5 33.1566 34.9688 35.1566L34.25 37.8754C27.0625 35.9379 18.2812 34.8129 9.34687 33.766L9.675 30.9848ZM55.7969 33.7504L56.5469 36.4691L45.3438 39.5629L44.5938 36.8441L55.7969 33.7504ZM69.2969 37.0316L70.0469 39.7504L64.9219 41.1723L64.1719 38.4535L69.2969 37.0316ZM10.1875 37.2816L17.9844 38.0941L17.6719 40.9066L9.89062 40.0629L10.1875 37.2816ZM22.2031 38.8129L35.0312 40.7348L34.625 43.516L21.7969 41.5941L22.2031 38.8129ZM61.0312 39.391L61.7812 42.1098L45.0781 46.7191L44.3281 44.0004L61.0312 39.391ZM69.75 42.9691L70.4688 45.6879L54.4531 49.8441L53.7344 47.1254L69.75 42.9691ZM9.11562 43.9691C13.7781 44.4535 18.7969 45.141 22.3125 46.0004V63.3441L9.25 62.1879C9.19844 56.1098 9.175 50.0473 9.11562 43.9691ZM25.4531 46.266L35.0625 47.4379L34.7188 50.2191L25.1094 49.0473L25.4531 46.266ZM50.6875 48.1098L51.3438 50.8441L45.4375 52.266L44.7812 49.5316L50.6875 48.1098ZM70.8594 48.7504L70.9219 61.5941L58.6562 63.1879C58.6094 59.4691 58.5938 55.7348 58.5469 52.016L70.8594 48.7504ZM25.625 52.2504L34.9688 53.7816L34.5 56.5629L25.1562 55.0316L25.625 52.2504ZM68.0781 52.4066L61.3906 54.1723L61.4375 60.0004L68.1094 59.1254L68.0781 52.4066ZM55.3594 53.9379L55.8906 56.6879L45.125 58.7348L44.5938 55.9848L55.3594 53.9379ZM25.5 58.4848L35.2812 60.4223L34.75 63.1723L24.9688 61.2348L25.5 58.4848ZM54.6562 59.5473L55.2812 62.2973L45.5156 64.4691L44.8906 61.7191L54.6562 59.5473Z" fill="#555555"/>
</svg>
