<svg width="1440" height="1240" viewBox="0 0 1440 1240" fill="none" xmlns="http://www.w3.org/2000/svg">
<path d="M389 811.5V751.5H1051.5V811.5" stroke="#494949" stroke-width="8"/>
<path d="M720 300V752" stroke="#494949" stroke-width="8"/>
<path d="M720 386H1017" stroke="#494949" stroke-width="8"/>
<rect x="636" y="102" width="168" height="203" rx="8" fill="#EC008C"/>
<rect x="614" y="112" width="212" height="183" rx="12" fill="#1D2539"/>
<rect x="591" y="203" width="258" height="75" rx="3" fill="#EC008C"/>
<path d="M698.82 222.547V258.172H693.781V222.547H698.82ZM679.523 225.047C684.875 225.047 688.859 229.969 688.859 237.703C688.859 245.516 684.875 250.398 679.523 250.398C674.055 250.398 670.07 245.516 670.109 237.703C670.07 229.969 674.055 225.047 679.523 225.047ZM679.523 229.539C676.75 229.539 674.914 232.43 674.914 237.703C674.914 243.016 676.75 245.867 679.523 245.867C682.219 245.867 684.055 243.016 684.055 237.703C684.055 232.43 682.219 229.539 679.523 229.539ZM716.711 230.594C716.672 236.961 719.406 243.406 725.109 246.141L722.102 250.125C718.293 248.25 715.734 244.734 714.25 240.438C712.707 245.047 709.953 248.816 705.93 250.789L702.844 246.766C708.859 243.992 711.711 237.195 711.711 230.594V225.281H716.711V230.594ZM731.672 222.547V236.258H736.906V240.477H731.672V258.094H726.672V222.547H731.672ZM768.078 222.547V258.094H763.117V222.547H768.078ZM738.352 248.055C741.066 248.035 744.172 248.035 747.414 247.938V244.93C743.508 244.246 740.969 241.824 741.008 238.484C740.969 234.5 744.602 231.805 749.836 231.805C755.109 231.805 758.781 234.5 758.781 238.484C758.781 241.805 756.242 244.227 752.336 244.93V247.781C755.305 247.645 758.312 247.41 761.164 247.039L761.516 250.711C753.742 252.039 745.344 252.117 739.016 252.117L738.352 248.055ZM760.656 226.492V230.398H739.055V226.492H747.414V222.703H752.375V226.492H760.656ZM749.836 235.594C747.414 235.594 745.695 236.648 745.734 238.484C745.695 240.359 747.414 241.375 749.836 241.375C752.336 241.375 754.016 240.359 754.016 238.484C754.016 236.648 752.336 235.594 749.836 235.594Z" fill="white"/>
<path d="M720.001 131.5C737.03 131.5 750.835 117.602 750.835 100.458C750.835 83.3143 737.03 69.4165 720.001 69.4165C702.973 69.4165 689.168 83.3143 689.168 100.458C689.168 117.602 702.973 131.5 720.001 131.5Z" fill="#EC008C"/>
<path opacity="0.5" d="M780.544 166.21C780.544 181.638 780.544 194.148 719.999 194.148C659.453 194.148 659.453 181.638 659.453 166.21C659.453 150.783 686.562 138.273 719.999 138.273C753.435 138.273 780.544 150.783 780.544 166.21Z" fill="#EC008C"/>
<rect x="636" y="485" width="168" height="203" rx="8" fill="#BED73D"/>
<rect x="614" y="495" width="212" height="183" rx="12" fill="#1D2539"/>
<rect x="529.5" y="586" width="381" height="75" rx="3" fill="#BED73D"/>
<path d="M575.523 611.133C575.523 615.43 578.023 619.57 583.648 621.328L580.992 625.195C577.223 623.945 574.586 621.523 573.062 618.398C571.52 621.992 568.766 624.805 564.703 626.172L562.008 622.266C567.945 620.273 570.484 615.547 570.523 610.664V607.422H575.523V611.133ZM590.758 605.547V613.867H595.562V618.008H590.758V626.641H585.758V605.547H590.758ZM579.117 627.344C586.461 627.344 591.109 629.883 591.109 634.219C591.109 638.594 586.461 641.094 579.117 641.094C571.617 641.094 566.93 638.594 566.93 634.219C566.93 629.883 571.617 627.344 579.117 627.344ZM579.117 631.25C574.43 631.25 571.891 632.266 571.93 634.219C571.891 636.25 574.43 637.188 579.117 637.188C583.727 637.188 586.188 636.25 586.188 634.219C586.188 632.266 583.727 631.25 579.117 631.25ZM626.891 605.586V625.664H621.891V605.586H626.891ZM626.891 627.266V640.703H603.062V627.266H626.891ZM607.984 631.211V636.719H622.008V631.211H607.984ZM607.398 607.188C612.945 607.188 617.125 610.703 617.125 615.781C617.125 620.664 612.945 624.258 607.398 624.258C601.852 624.258 597.672 620.664 597.672 615.781C597.672 610.703 601.852 607.188 607.398 607.188ZM607.398 611.367C604.547 611.367 602.516 613.008 602.555 615.781C602.516 618.438 604.547 620.078 607.398 620.078C610.172 620.078 612.203 618.438 612.203 615.781C612.203 613.008 610.172 611.367 607.398 611.367ZM661.461 605.547V641.172H656.422V605.547H661.461ZM642.164 608.047C647.516 608.047 651.5 612.969 651.5 620.703C651.5 628.516 647.516 633.398 642.164 633.398C636.695 633.398 632.711 628.516 632.75 620.703C632.711 612.969 636.695 608.047 642.164 608.047ZM642.164 612.539C639.391 612.539 637.555 615.43 637.555 620.703C637.555 626.016 639.391 628.867 642.164 628.867C644.859 628.867 646.695 626.016 646.695 620.703C646.695 615.43 644.859 612.539 642.164 612.539ZM679.352 613.594C679.312 619.961 682.047 626.406 687.75 629.141L684.742 633.125C680.934 631.25 678.375 627.734 676.891 623.438C675.348 628.047 672.594 631.816 668.57 633.789L665.484 629.766C671.5 626.992 674.352 620.195 674.352 613.594V608.281H679.352V613.594ZM694.312 605.547V619.258H699.547V623.477H694.312V641.094H689.312V605.547H694.312ZM712.125 626.719C712.125 619.375 714.391 613.281 718.141 608.008H723.648C720.953 611.914 718.141 619.727 718.141 626.719C718.141 633.75 720.953 641.562 723.648 645.469H718.141C714.391 640.195 712.125 634.062 712.125 626.719ZM738.727 613.594C738.688 619.961 741.422 626.406 747.125 629.141L744.117 633.125C740.309 631.25 737.75 627.734 736.266 623.438C734.723 628.047 731.969 631.816 727.945 633.789L724.859 629.766C730.875 626.992 733.727 620.195 733.727 613.594V608.281H738.727V613.594ZM753.688 605.547V619.258H758.922V623.477H753.688V641.094H748.688V605.547H753.688ZM792.711 625.43V629.414H778.805V641.055H773.883V629.414H760.172V625.43H792.711ZM788.805 607.266V621.602H764V607.266H788.805ZM768.922 611.211V617.695H783.844V611.211H768.922ZM824.82 605.547V641.172H819.82V623.203H813.414V619.219H819.82V605.547H824.82ZM808.102 616.68C808.102 621.836 810.914 627.578 816.734 630.078L814.078 633.906C810.035 632.227 807.223 628.828 805.68 624.766C804.117 629.082 801.324 632.715 797.242 634.453L794.625 630.625C800.328 628.086 803.102 622.031 803.141 616.68V615.312H795.758V611.328H803.141V606.328H808.141V611.328H815.328V615.312H808.102V616.68ZM849.547 607.93V611.914H842.477C842.516 616.055 844.996 620.059 850.68 621.719L848.297 625.625C844.371 624.434 841.656 622.051 840.094 618.984C838.512 622.578 835.621 625.43 831.344 626.836L828.805 622.891C834.703 621.035 837.359 616.426 837.438 611.914H830.172V607.93H849.547ZM857.555 605.547V613.789H862.359V617.852H857.555V626.641H852.555V605.547H857.555ZM845.914 627.344C853.297 627.305 857.906 629.844 857.906 634.18C857.906 638.516 853.297 641.094 845.914 641.094C838.375 641.094 833.727 638.516 833.727 634.18C833.727 629.844 838.375 627.305 845.914 627.344ZM845.914 631.211C841.227 631.211 838.688 632.188 838.727 634.18C838.688 636.211 841.227 637.227 845.914 637.227C850.523 637.227 852.984 636.211 852.984 634.18C852.984 632.188 850.523 631.211 845.914 631.211ZM875.328 626.719C875.328 634.062 873.062 640.195 869.312 645.469H863.805C866.5 641.562 869.312 633.75 869.312 626.719C869.312 619.727 866.5 611.914 863.805 608.008H869.312C873.062 613.281 875.328 619.375 875.328 626.719Z" fill="white"/>
<path d="M720.001 514.5C737.03 514.5 750.835 500.602 750.835 483.458C750.835 466.314 737.03 452.417 720.001 452.417C702.973 452.417 689.168 466.314 689.168 483.458C689.168 500.602 702.973 514.5 720.001 514.5Z" fill="#BED73D"/>
<path opacity="0.5" d="M780.544 549.21C780.544 564.638 780.544 577.148 719.999 577.148C659.453 577.148 659.453 564.638 659.453 549.21C659.453 533.783 686.562 521.273 719.999 521.273C753.435 521.273 780.544 533.783 780.544 549.21Z" fill="#BED73D"/>
<rect x="305" y="838" width="168" height="203" rx="8" fill="#00AEE7"/>
<rect x="283" y="848" width="212" height="183" rx="12" fill="#1D2539"/>
<rect x="260" y="939" width="258" height="75" rx="3" fill="#00AEE7"/>
<path d="M336.055 975.852V979.836H322.578V986.008H317.539V979.836H303.516V975.852H336.055ZM332.461 989.445V993.469H307.383V982.844H312.422V989.445H332.461ZM319.766 959.211C327.461 959.25 332.578 962.102 332.617 966.594C332.578 971.125 327.461 973.938 319.766 973.938C312.031 973.938 306.875 971.125 306.875 966.594C306.875 962.102 312.031 959.25 319.766 959.211ZM319.766 963.156C315.156 963.156 312.227 964.328 312.266 966.594C312.227 968.781 315.156 969.953 319.766 969.953C324.336 969.953 327.266 968.781 327.266 966.594C327.266 964.328 324.336 963.156 319.766 963.156ZM348.047 960.461C350.879 960.461 353.359 961.496 355.078 963.234H363.125V958.547H368.086V979.367H363.125V975.109H355.039C353.32 976.828 350.859 977.863 348.047 977.844C342.656 977.883 338.555 974.172 338.594 969.172C338.555 964.094 342.656 960.461 348.047 960.461ZM348.047 964.719C345.273 964.719 343.281 966.359 343.32 969.172C343.281 971.906 345.273 973.664 348.047 973.625C350.742 973.664 352.695 971.906 352.695 969.172C352.695 966.359 350.742 964.719 348.047 964.719ZM355.938 980.109C363.477 980.109 368.164 982.688 368.203 987.102C368.164 991.516 363.477 994.094 355.938 994.094C348.438 994.094 343.711 991.516 343.711 987.102C343.711 982.688 348.438 980.109 355.938 980.109ZM355.938 983.898C351.211 983.898 348.594 984.953 348.594 987.102C348.594 989.172 351.211 990.227 355.938 990.227C360.742 990.227 363.32 989.172 363.32 987.102C363.32 984.953 360.742 983.898 355.938 983.898ZM357.227 967.18C357.344 967.805 357.422 968.488 357.422 969.172C357.422 969.855 357.344 970.5 357.227 971.125H363.125V967.18H357.227ZM392.617 961.125V963.352C392.617 965.812 392.617 969.367 391.797 973.781L386.914 973.312C387.539 969.895 387.695 967.316 387.734 965.188H374.336V961.125H392.617ZM383.789 969.328V976.125C387.324 975.988 390.957 975.715 394.297 975.227L394.57 978.82C387.188 980.188 378.828 980.305 372.656 980.344L372.227 976.359C374.219 976.359 376.465 976.359 378.828 976.281V969.328H383.789ZM401.328 958.547V969.367H405.625V973.547H401.328V985.148H396.211V958.547H401.328ZM402.422 989.484V993.469H377.461V982.766H382.461V989.484H402.422ZM437.07 958.547V994.172H432.109V958.547H437.07ZM426.055 961.516V975.227H414.336V981.75C419.746 981.73 424.355 981.418 429.57 980.578L430 984.602C424.141 985.617 418.867 985.852 412.383 985.852H409.18V971.281H420.977V965.539H409.141V961.516H426.055ZM461.016 960.578V964.562H448.789V967.336H459.961V971.164H448.789V974.094C455.039 974.074 459.004 973.977 463.516 973.234L464.023 977.102C458.945 977.961 454.453 978.039 446.836 978.039H443.789V960.578H461.016ZM471.602 958.586V979.68H466.602V958.586H471.602ZM471.602 981.125V993.703H447.773V981.125H471.602ZM452.695 984.992V989.719H466.719V984.992H452.695Z" fill="white"/>
<path d="M389.001 867.5C406.03 867.5 419.835 853.602 419.835 836.458C419.835 819.314 406.03 805.417 389.001 805.417C371.973 805.417 358.168 819.314 358.168 836.458C358.168 853.602 371.973 867.5 389.001 867.5Z" fill="#00AEE7"/>
<path opacity="0.5" d="M449.544 902.21C449.544 917.638 449.544 930.148 388.999 930.148C328.453 930.148 328.453 917.638 328.453 902.21C328.453 886.783 355.562 874.273 388.999 874.273C422.435 874.273 449.544 886.783 449.544 902.21Z" fill="#00AEE7"/>
<rect x="966" y="838" width="168" height="203" rx="8" fill="#00AEE7"/>
<rect x="944" y="848" width="212" height="183" rx="12" fill="#1D2539"/>
<rect x="921" y="939" width="258" height="75" rx="3" fill="#00AEE7"/>
<path d="M975.766 959.914V963.273C975.766 966.789 975.766 970.266 974.75 974.992L969.828 974.602C970.18 973.02 970.395 971.574 970.531 970.227L950.414 971.086L949.789 966.984L970.805 966.555C970.824 965.637 970.824 964.758 970.844 963.859H950.766V959.914H975.766ZM979.398 976.789V980.734H947.133V976.789H959.203V972.336H964.203V976.789H979.398ZM976.352 989.562V993.547H950.883V982.922H955.883V989.562H976.352ZM1012.17 958.586V985.109H1007.45V958.586H1012.17ZM1005.1 959.211V984.289H1000.38V972.18H996.781V968.234H1000.38V959.211H1005.1ZM1013.07 989.484V993.469H988.344V982.258H993.344V989.484H1013.07ZM996.586 961.281V965.227H987.797V968.742H995.258V972.531H987.797V976.125C991.684 976.086 994.516 975.969 997.797 975.383L998.305 979.289C994.203 979.992 990.805 980.109 985.453 980.109H983.031V961.281H996.586ZM1048.73 985.93V989.953H1016.2V985.93H1048.73ZM1045.88 963.508V967.531H1035.02C1035.41 971.809 1039.5 976.184 1047.56 977.258L1045.65 981.242C1039.34 980.266 1034.79 977.434 1032.41 973.547C1030.04 977.434 1025.51 980.266 1019.2 981.242L1017.33 977.258C1025.36 976.184 1029.44 971.809 1029.87 967.531H1019.01V963.508H1029.95V959.094H1034.91V963.508H1045.88ZM1063.85 966.594C1063.81 972.961 1066.55 979.406 1072.25 982.141L1069.24 986.125C1065.43 984.25 1062.88 980.734 1061.39 976.438C1059.85 981.047 1057.09 984.816 1053.07 986.789L1049.98 982.766C1056 979.992 1058.85 973.195 1058.85 966.594V961.281H1063.85V966.594ZM1078.81 958.547V972.258H1084.05V976.477H1078.81V994.094H1073.81V958.547H1078.81ZM1095.26 960.07C1099.81 960.031 1103.42 962.629 1104.4 966.438H1110.34V958.547H1115.3V977.648H1110.34V970.422H1104.44C1103.5 974.328 1099.85 976.984 1095.26 976.984C1089.79 976.984 1085.77 973.43 1085.8 968.469C1085.77 963.586 1089.79 960.031 1095.26 960.07ZM1095.26 964.211C1092.48 964.172 1090.49 965.812 1090.53 968.469C1090.49 971.125 1092.48 972.805 1095.26 972.805C1097.95 972.805 1099.91 971.125 1099.91 968.469C1099.91 965.812 1097.95 964.172 1095.26 964.211ZM1096.51 979.211V982.648H1110.34V979.211H1115.3V993.703H1091.59V979.211H1096.51ZM1096.51 989.68H1110.34V986.477H1096.51V989.68ZM1139.09 960.578V964.562H1126.86V967.336H1138.03V971.164H1126.86V974.094C1133.11 974.074 1137.07 973.977 1141.59 973.234L1142.09 977.102C1137.02 977.961 1132.52 978.039 1124.91 978.039H1121.86V960.578H1139.09ZM1149.67 958.586V979.68H1144.67V958.586H1149.67ZM1149.67 981.125V993.703H1125.84V981.125H1149.67ZM1130.77 984.992V989.719H1144.79V984.992H1130.77Z" fill="white"/>
<path d="M1050 867.5C1067.03 867.5 1080.83 853.602 1080.83 836.458C1080.83 819.314 1067.03 805.417 1050 805.417C1032.97 805.417 1019.17 819.314 1019.17 836.458C1019.17 853.602 1032.97 867.5 1050 867.5Z" fill="#00AEE7"/>
<path opacity="0.5" d="M1110.54 902.21C1110.54 917.638 1110.54 930.148 1050 930.148C989.453 930.148 989.453 917.638 989.453 902.21C989.453 886.783 1016.56 874.273 1050 874.273C1083.43 874.273 1110.54 886.783 1110.54 902.21Z" fill="#00AEE7"/>
<rect x="966" y="248" width="168" height="203" rx="8" fill="#ED1C2E"/>
<rect x="944" y="258" width="212" height="183" rx="12" fill="#1D2539"/>
<rect x="921" y="349" width="258" height="75" rx="3" fill="#ED1C2E"/>
<path d="M1044.26 368.547V376.32H1049.06V380.422H1044.26V388.43H1039.26V368.547H1044.26ZM1034.3 370.617C1034.26 380.031 1028.32 386.398 1017.66 389.211L1015.66 385.266C1023.63 383.293 1028.03 379.348 1028.87 374.602H1017.42V370.617H1034.3ZM1044.26 389.758V403.664H1021.02V389.758H1044.26ZM1025.98 393.781V399.758H1039.34V393.781H1025.98ZM1063.71 376.594C1063.67 382.961 1066.41 389.406 1072.11 392.141L1069.1 396.125C1065.29 394.25 1062.73 390.734 1061.25 386.438C1059.71 391.047 1056.95 394.816 1052.93 396.789L1049.84 392.766C1055.86 389.992 1058.71 383.195 1058.71 376.594V371.281H1063.71V376.594ZM1078.67 368.547V382.258H1083.91V386.477H1078.67V404.094H1073.67V368.547H1078.67Z" fill="white"/>
<path d="M1050 277.5C1067.03 277.5 1080.83 263.602 1080.83 246.458C1080.83 229.314 1067.03 215.417 1050 215.417C1032.97 215.417 1019.17 229.314 1019.17 246.458C1019.17 263.602 1032.97 277.5 1050 277.5Z" fill="#ED1C2E"/>
<path opacity="0.5" d="M1110.54 312.21C1110.54 327.638 1110.54 340.148 1050 340.148C989.453 340.148 989.453 327.638 989.453 312.21C989.453 296.783 1016.56 284.273 1050 284.273C1083.43 284.273 1110.54 296.783 1110.54 312.21Z" fill="#ED1C2E"/>
<path d="M168.66 1081.56V1076.72H191.824V1081.56H183.152V1105H177.332V1081.56H168.66ZM197.41 1105.35C195.574 1105.35 194.09 1103.87 194.129 1102.07C194.09 1100.27 195.574 1098.83 197.41 1098.83C199.129 1098.83 200.652 1100.27 200.652 1102.07C200.652 1103.87 199.129 1105.35 197.41 1105.35ZM224.168 1105.39C217.098 1105.39 212.801 1100.12 212.801 1090.86C212.801 1081.6 217.098 1076.33 224.168 1076.33C231.238 1076.33 235.535 1081.64 235.535 1090.86C235.535 1100.16 231.238 1105.39 224.168 1105.39ZM224.168 1100.55C227.449 1100.55 229.559 1097.38 229.52 1090.86C229.52 1084.41 227.449 1081.13 224.168 1081.13C220.887 1081.13 218.816 1084.41 218.816 1090.86C218.777 1097.38 220.887 1100.55 224.168 1100.55ZM239.598 1105L239.559 1100.74L249.715 1091.41C252.371 1088.87 253.777 1087.3 253.777 1085.08C253.777 1082.58 251.863 1081.02 249.285 1081.02C246.629 1081.02 244.91 1082.7 244.91 1085.39H239.324C239.285 1079.84 243.387 1076.33 249.363 1076.33C255.418 1076.33 259.441 1079.77 259.441 1084.69C259.441 1087.89 257.879 1090.55 252.059 1095.82L247.762 1100V1100.16H259.832V1105H239.598ZM277.215 1088.55V1093.16H264.324V1088.55H277.215ZM292.918 1105.39C287.059 1105.35 281.512 1101.88 281.512 1091.52C281.512 1081.99 286.082 1076.33 293.152 1076.33C298.855 1076.33 302.723 1079.92 303.309 1084.57H297.527C297.059 1082.58 295.418 1081.37 293.152 1081.37C289.324 1081.37 287.293 1084.84 287.254 1090.39H287.527C288.816 1087.89 291.629 1086.41 294.754 1086.41C299.832 1086.41 303.621 1090.23 303.621 1095.55C303.621 1101.29 299.285 1105.43 292.918 1105.39ZM292.879 1100.74C295.77 1100.74 297.918 1098.55 297.918 1095.7C297.918 1092.89 295.848 1090.66 292.957 1090.66C290.066 1090.66 287.879 1092.93 287.84 1095.7C287.879 1098.48 289.988 1100.74 292.879 1100.74ZM319.871 1076.72V1105H313.973V1082.3H313.816L307.332 1086.37V1081.17L314.324 1076.72H319.871ZM326.434 1105L326.395 1100.74L336.551 1091.41C339.207 1088.87 340.613 1087.3 340.613 1085.08C340.613 1082.58 338.699 1081.02 336.121 1081.02C333.465 1081.02 331.746 1082.7 331.746 1085.39H326.16C326.121 1079.84 330.223 1076.33 336.199 1076.33C342.254 1076.33 346.277 1079.77 346.277 1084.69C346.277 1087.89 344.715 1090.55 338.895 1095.82L334.598 1100V1100.16H346.668V1105H326.434ZM361.316 1105.39C355.105 1105.39 350.652 1101.95 350.535 1097.03H356.473C356.59 1099.14 358.621 1100.55 361.355 1100.55C364.168 1100.55 366.199 1098.95 366.16 1096.68C366.199 1094.38 364.129 1092.73 360.809 1092.73H358.191V1088.4H360.809C363.582 1088.4 365.535 1086.88 365.535 1084.65C365.535 1082.5 363.895 1081.02 361.395 1081.02C358.895 1081.02 356.824 1082.42 356.746 1084.57H351.121C351.199 1079.69 355.613 1076.33 361.395 1076.33C367.293 1076.33 371.238 1079.8 371.199 1084.3C371.238 1087.46 369.012 1089.73 365.848 1090.27V1090.51C369.988 1091.02 372.293 1093.55 372.254 1097.07C372.293 1101.91 367.684 1105.39 361.316 1105.39ZM389.598 1088.55V1093.16H376.707V1088.55H389.598ZM393.895 1100V1095.35L405.848 1076.72H413.23V1095.27H416.824V1100H413.23V1105H407.645V1100H393.895ZM399.832 1095.27H407.723V1083.16H407.449L399.832 1095.04V1095.27ZM431.121 1105.39C424.91 1105.39 420.457 1101.95 420.34 1097.03H426.277C426.395 1099.14 428.426 1100.55 431.16 1100.55C433.973 1100.55 436.004 1098.95 435.965 1096.68C436.004 1094.38 433.934 1092.73 430.613 1092.73H427.996V1088.4H430.613C433.387 1088.4 435.34 1086.88 435.34 1084.65C435.34 1082.5 433.699 1081.02 431.199 1081.02C428.699 1081.02 426.629 1082.42 426.551 1084.57H420.926C421.004 1079.69 425.418 1076.33 431.199 1076.33C437.098 1076.33 441.043 1079.8 441.004 1084.3C441.043 1087.46 438.816 1089.73 435.652 1090.27V1090.51C439.793 1091.02 442.098 1093.55 442.059 1097.07C442.098 1101.91 437.488 1105.39 431.121 1105.39ZM457.176 1105.39C450.105 1105.39 445.809 1100.12 445.809 1090.86C445.809 1081.6 450.105 1076.33 457.176 1076.33C464.246 1076.33 468.543 1081.64 468.543 1090.86C468.543 1100.16 464.246 1105.39 457.176 1105.39ZM457.176 1100.55C460.457 1100.55 462.566 1097.38 462.527 1090.86C462.527 1084.41 460.457 1081.13 457.176 1081.13C453.895 1081.13 451.824 1084.41 451.824 1090.86C451.785 1097.38 453.895 1100.55 457.176 1100.55ZM483.582 1105.39C476.512 1105.39 472.215 1100.12 472.215 1090.86C472.215 1081.6 476.512 1076.33 483.582 1076.33C490.652 1076.33 494.949 1081.64 494.949 1090.86C494.949 1100.16 490.652 1105.39 483.582 1105.39ZM483.582 1100.55C486.863 1100.55 488.973 1097.38 488.934 1090.86C488.934 1084.41 486.863 1081.13 483.582 1081.13C480.301 1081.13 478.23 1084.41 478.23 1090.86C478.191 1097.38 480.301 1100.55 483.582 1100.55ZM504.168 1102.11L500.809 1113.24H496.668L498.621 1102.11H504.168ZM508.855 1100V1095.35L520.809 1076.72H528.191V1095.27H531.785V1100H528.191V1105H522.605V1100H508.855ZM514.793 1095.27H522.684V1083.16H522.41L514.793 1095.04V1095.27ZM546.082 1105.39C539.871 1105.39 535.418 1101.95 535.301 1097.03H541.238C541.355 1099.14 543.387 1100.55 546.121 1100.55C548.934 1100.55 550.965 1098.95 550.926 1096.68C550.965 1094.38 548.895 1092.73 545.574 1092.73H542.957V1088.4H545.574C548.348 1088.4 550.301 1086.88 550.301 1084.65C550.301 1082.5 548.66 1081.02 546.16 1081.02C543.66 1081.02 541.59 1082.42 541.512 1084.57H535.887C535.965 1079.69 540.379 1076.33 546.16 1076.33C552.059 1076.33 556.004 1079.8 555.965 1084.3C556.004 1087.46 553.777 1089.73 550.613 1090.27V1090.51C554.754 1091.02 557.059 1093.55 557.02 1097.07C557.059 1101.91 552.449 1105.39 546.082 1105.39ZM572.137 1105.39C565.066 1105.39 560.77 1100.12 560.77 1090.86C560.77 1081.6 565.066 1076.33 572.137 1076.33C579.207 1076.33 583.504 1081.64 583.504 1090.86C583.504 1100.16 579.207 1105.39 572.137 1105.39ZM572.137 1100.55C575.418 1100.55 577.527 1097.38 577.488 1090.86C577.488 1084.41 575.418 1081.13 572.137 1081.13C568.855 1081.13 566.785 1084.41 566.785 1090.86C566.746 1097.38 568.855 1100.55 572.137 1100.55ZM587.098 1100V1095.35L599.051 1076.72H606.434V1095.27H610.027V1100H606.434V1105H600.848V1100H587.098ZM593.035 1095.27H600.926V1083.16H600.652L593.035 1095.04V1095.27Z" fill="#1D2539"/>
<path d="M866.547 1081.56V1076.72H889.711V1081.56H881.039V1105H875.219V1081.56H866.547ZM895.297 1105.35C893.461 1105.35 891.977 1103.87 892.016 1102.07C891.977 1100.27 893.461 1098.83 895.297 1098.83C897.016 1098.83 898.539 1100.27 898.539 1102.07C898.539 1103.87 897.016 1105.35 895.297 1105.35ZM922.055 1105.39C914.984 1105.39 910.688 1100.12 910.688 1090.86C910.688 1081.6 914.984 1076.33 922.055 1076.33C929.125 1076.33 933.422 1081.64 933.422 1090.86C933.422 1100.16 929.125 1105.39 922.055 1105.39ZM922.055 1100.55C925.336 1100.55 927.445 1097.38 927.406 1090.86C927.406 1084.41 925.336 1081.13 922.055 1081.13C918.773 1081.13 916.703 1084.41 916.703 1090.86C916.664 1097.38 918.773 1100.55 922.055 1100.55ZM937.484 1105L937.445 1100.74L947.602 1091.41C950.258 1088.87 951.664 1087.3 951.664 1085.08C951.664 1082.58 949.75 1081.02 947.172 1081.02C944.516 1081.02 942.797 1082.7 942.797 1085.39H937.211C937.172 1079.84 941.273 1076.33 947.25 1076.33C953.305 1076.33 957.328 1079.77 957.328 1084.69C957.328 1087.89 955.766 1090.55 949.945 1095.82L945.648 1100V1100.16H957.719V1105H937.484ZM975.102 1088.55V1093.16H962.211V1088.55H975.102ZM990.805 1105.39C984.945 1105.35 979.398 1101.88 979.398 1091.52C979.398 1081.99 983.969 1076.33 991.039 1076.33C996.742 1076.33 1000.61 1079.92 1001.2 1084.57H995.414C994.945 1082.58 993.305 1081.37 991.039 1081.37C987.211 1081.37 985.18 1084.84 985.141 1090.39H985.414C986.703 1087.89 989.516 1086.41 992.641 1086.41C997.719 1086.41 1001.51 1090.23 1001.51 1095.55C1001.51 1101.29 997.172 1105.43 990.805 1105.39ZM990.766 1100.74C993.656 1100.74 995.805 1098.55 995.805 1095.7C995.805 1092.89 993.734 1090.66 990.844 1090.66C987.953 1090.66 985.766 1092.93 985.727 1095.7C985.766 1098.48 987.875 1100.74 990.766 1100.74ZM1017.76 1076.72V1105H1011.86V1082.3H1011.7L1005.22 1086.37V1081.17L1012.21 1076.72H1017.76ZM1024.32 1105L1024.28 1100.74L1034.44 1091.41C1037.09 1088.87 1038.5 1087.3 1038.5 1085.08C1038.5 1082.58 1036.59 1081.02 1034.01 1081.02C1031.35 1081.02 1029.63 1082.7 1029.63 1085.39H1024.05C1024.01 1079.84 1028.11 1076.33 1034.09 1076.33C1040.14 1076.33 1044.16 1079.77 1044.16 1084.69C1044.16 1087.89 1042.6 1090.55 1036.78 1095.82L1032.48 1100V1100.16H1044.55V1105H1024.32ZM1059.2 1105.39C1052.99 1105.39 1048.54 1101.95 1048.42 1097.03H1054.36C1054.48 1099.14 1056.51 1100.55 1059.24 1100.55C1062.05 1100.55 1064.09 1098.95 1064.05 1096.68C1064.09 1094.38 1062.02 1092.73 1058.7 1092.73H1056.08V1088.4H1058.7C1061.47 1088.4 1063.42 1086.88 1063.42 1084.65C1063.42 1082.5 1061.78 1081.02 1059.28 1081.02C1056.78 1081.02 1054.71 1082.42 1054.63 1084.57H1049.01C1049.09 1079.69 1053.5 1076.33 1059.28 1076.33C1065.18 1076.33 1069.12 1079.8 1069.09 1084.3C1069.12 1087.46 1066.9 1089.73 1063.73 1090.27V1090.51C1067.88 1091.02 1070.18 1093.55 1070.14 1097.07C1070.18 1101.91 1065.57 1105.39 1059.2 1105.39ZM1087.48 1088.55V1093.16H1074.59V1088.55H1087.48ZM1091.78 1100V1095.35L1103.73 1076.72H1111.12V1095.27H1114.71V1100H1111.12V1105H1105.53V1100H1091.78ZM1097.72 1095.27H1105.61V1083.16H1105.34L1097.72 1095.04V1095.27ZM1129.01 1105.39C1122.8 1105.39 1118.34 1101.95 1118.23 1097.03H1124.16C1124.28 1099.14 1126.31 1100.55 1129.05 1100.55C1131.86 1100.55 1133.89 1098.95 1133.85 1096.68C1133.89 1094.38 1131.82 1092.73 1128.5 1092.73H1125.88V1088.4H1128.5C1131.27 1088.4 1133.23 1086.88 1133.23 1084.65C1133.23 1082.5 1131.59 1081.02 1129.09 1081.02C1126.59 1081.02 1124.52 1082.42 1124.44 1084.57H1118.81C1118.89 1079.69 1123.3 1076.33 1129.09 1076.33C1134.98 1076.33 1138.93 1079.8 1138.89 1084.3C1138.93 1087.46 1136.7 1089.73 1133.54 1090.27V1090.51C1137.68 1091.02 1139.98 1093.55 1139.95 1097.07C1139.98 1101.91 1135.38 1105.39 1129.01 1105.39ZM1155.06 1105.39C1147.99 1105.39 1143.7 1100.12 1143.7 1090.86C1143.7 1081.6 1147.99 1076.33 1155.06 1076.33C1162.13 1076.33 1166.43 1081.64 1166.43 1090.86C1166.43 1100.16 1162.13 1105.39 1155.06 1105.39ZM1155.06 1100.55C1158.34 1100.55 1160.45 1097.38 1160.41 1090.86C1160.41 1084.41 1158.34 1081.13 1155.06 1081.13C1151.78 1081.13 1149.71 1084.41 1149.71 1090.86C1149.67 1097.38 1151.78 1100.55 1155.06 1100.55ZM1182.68 1076.72V1105H1176.78V1082.3H1176.62L1170.14 1086.37V1081.17L1177.13 1076.72H1182.68ZM1190.73 1089.49C1192.05 1088.09 1193.73 1087.34 1195.57 1087.34C1198.77 1087.34 1201.51 1089.57 1204.71 1089.57C1206.51 1089.57 1208.15 1088.83 1209.44 1087.42V1092.19C1208.11 1093.59 1206.43 1094.34 1204.59 1094.34C1201.39 1094.34 1198.66 1092.11 1195.45 1092.11C1193.66 1092.11 1192.02 1092.85 1190.73 1094.26V1089.49ZM1214.55 1105L1214.52 1100.74L1224.67 1091.41C1227.33 1088.87 1228.73 1087.3 1228.73 1085.08C1228.73 1082.58 1226.82 1081.02 1224.24 1081.02C1221.59 1081.02 1219.87 1082.7 1219.87 1085.39H1214.28C1214.24 1079.84 1218.34 1076.33 1224.32 1076.33C1230.38 1076.33 1234.4 1079.77 1234.4 1084.69C1234.4 1087.89 1232.84 1090.55 1227.02 1095.82L1222.72 1100V1100.16H1234.79V1105H1214.55Z" fill="#1D2539"/>
</svg>
