<svg width="44" height="210" viewBox="0 0 44 210" fill="none" xmlns="http://www.w3.org/2000/svg">
<g clip-path="url(#clip0_1321_25050)">
<path d="M40.0687 155.551L40.0687 155.069C40.0687 154.433 40.1814 153.721 40.966 153.721C41.6508 153.721 41.7852 154.322 41.7852 154.99L41.7852 155.547L40.0687 155.547L40.0687 155.551ZM42.3834 156.294L42.3834 154.914C42.3834 153.858 42.1276 152.938 41.0353 152.938C40.3158 152.938 39.865 153.433 39.8086 154.132L39.7956 154.132C39.6353 153.482 39.2842 153.066 38.5863 153.066C37.65 153.066 37.3076 153.809 37.3076 154.884L37.3076 156.29L42.3834 156.29L42.3834 156.294ZM37.8971 155.551L37.8971 154.769C37.8971 154.34 38.0532 153.814 38.6557 153.814C39.4055 153.814 39.4706 154.424 39.4706 155.14L39.4706 155.551L37.8971 155.551Z" fill="black"/>
<path d="M42.3835 151.784L42.3835 151.081L40.693 151.081C39.7611 151.081 39.1803 150.674 39.1803 150.051C39.1803 149.936 39.1976 149.795 39.2453 149.662L38.6384 149.662C38.6038 149.812 38.5864 149.914 38.5864 150.122C38.5864 150.52 38.8638 150.926 39.2453 151.112L39.2453 151.13L38.6731 151.13L38.6731 151.784L42.3835 151.784Z" fill="black"/>
<path d="M38.5864 147.217C38.5864 146.063 39.4013 145.298 40.5283 145.298C41.5946 145.298 42.4702 146.085 42.4702 147.217C42.4702 148.349 41.5903 149.145 40.5283 149.145C39.4013 149.145 38.5864 148.375 38.5864 147.217ZM41.9154 147.217C41.9154 146.399 41.1915 146.041 40.5283 146.041C39.8218 146.041 39.1369 146.474 39.1369 147.217C39.1369 147.96 39.8218 148.402 40.5283 148.402C41.1915 148.402 41.9154 148.039 41.9154 147.217Z" fill="black"/>
<path d="M40.94 142.11C41.4948 142.11 41.9153 142.473 41.9153 143.167C41.9153 143.485 41.7029 143.866 41.3171 143.866C40.6583 143.866 40.6019 142.933 40.6019 142.552C40.6019 142.402 40.6149 142.256 40.6149 142.106L40.94 142.106L40.94 142.11ZM39.514 144.144C39.2799 143.866 39.1325 143.441 39.1325 143.048C39.1325 142.354 39.4663 142.11 40.1035 142.11C40.0861 142.384 40.0861 142.579 40.0861 142.853C40.0861 143.574 40.3765 144.608 41.3128 144.608C42.1234 144.608 42.4658 144.038 42.4658 143.22C42.4658 142.583 42.1234 142.216 41.898 142.048L41.898 142.035L42.3791 142.035L42.3791 141.381C42.2664 141.399 42.0713 141.412 41.6509 141.412L40.1165 141.412C39.1065 141.412 38.582 141.849 38.582 142.937C38.582 143.419 38.7251 143.835 38.9331 144.184L39.514 144.144Z" fill="black"/>
<path d="M40.5153 139.745C39.8391 139.758 39.1369 139.466 39.1369 138.706C39.1369 137.946 39.8434 137.587 40.5369 137.587C41.1568 137.587 41.9197 137.915 41.9197 138.702C41.9197 139.449 41.0961 139.758 40.5153 139.745ZM42.3835 137.561L42.3835 136.884L36.9263 136.884L36.9263 137.587L39.1846 137.587L39.1846 137.605C38.8421 137.817 38.5864 138.198 38.5864 138.856C38.5864 139.957 39.4706 140.492 40.4633 140.492C41.4559 140.492 42.4702 140.006 42.4702 138.865C42.4702 138.189 42.1321 137.76 41.859 137.579L41.859 137.565L42.3835 137.565L42.3835 137.561Z" fill="black"/>
<path d="M38.7295 133.241C38.6514 133.436 38.5864 133.803 38.5864 134.085C38.5864 135.239 39.4013 136.013 40.5283 136.013C41.5946 136.013 42.4702 135.226 42.4702 134.085C42.4702 133.829 42.4485 133.493 42.3185 133.206L41.7073 133.263C41.846 133.475 41.9197 133.772 41.9197 134.01C41.9197 134.908 41.1958 135.27 40.5326 135.27C39.8261 135.27 39.1413 134.833 39.1413 134.05C39.1413 133.829 39.1933 133.564 39.3016 133.298L38.7338 133.241L38.7295 133.241Z" fill="black"/>
<path d="M40.94 130.164C41.4948 130.164 41.9153 130.527 41.9153 131.216C41.9153 131.535 41.7029 131.924 41.3171 131.924C40.6583 131.924 40.6019 130.991 40.6019 130.611C40.6019 130.465 40.6149 130.314 40.6149 130.169L40.94 130.169L40.94 130.164ZM39.514 132.189C39.2799 131.911 39.1325 131.486 39.1325 131.093C39.1325 130.398 39.4663 130.164 40.1035 130.164C40.0861 130.438 40.0861 130.624 40.0861 130.902C40.0861 131.623 40.3765 132.658 41.3128 132.658C42.1234 132.658 42.4658 132.092 42.4658 131.274C42.4658 130.637 42.1234 130.261 41.898 130.102L41.898 130.084L42.3791 130.084L42.3791 129.43C42.2664 129.448 42.0713 129.461 41.6509 129.461L40.1165 129.461C39.1065 129.461 38.582 129.899 38.582 130.982C38.582 131.464 38.7251 131.88 38.9331 132.229L39.514 132.185L39.514 132.189Z" fill="black"/>
<path d="M42.2665 128.608C42.4312 128.289 42.4702 127.922 42.4702 127.564C42.4702 126.888 42.1061 126.242 41.3173 126.242C40.1296 126.242 40.3463 127.887 39.5878 127.887C39.28 127.887 39.137 127.578 39.137 127.219C39.137 127.051 39.2323 126.636 39.3277 126.481L38.7339 126.424C38.6558 126.702 38.5908 126.963 38.5908 127.295C38.5908 128.042 38.9636 128.63 39.7351 128.63C40.7754 128.63 40.7147 126.99 41.3909 126.99C41.7941 126.99 41.9241 127.383 41.9241 127.701C41.9241 127.905 41.8374 128.294 41.6597 128.568L42.2709 128.608L42.2665 128.608Z" fill="black"/>
<path d="M38.6731 123.381L38.6731 124.385L37.5981 124.385L37.8149 125.084L38.6731 125.084L38.6731 125.937L39.2236 125.937L39.2236 125.084L41.3952 125.084C42.1364 125.084 42.4702 124.637 42.4702 123.916C42.4702 123.695 42.4095 123.479 42.3705 123.324L41.7853 123.324C41.8503 123.426 41.9154 123.585 41.9154 123.802C41.9154 124.115 41.6856 124.385 41.2565 124.385L39.2236 124.385L39.2236 123.381L38.6731 123.381Z" fill="black"/>
<path d="M42.3836 122.422L42.3836 121.724L38.6732 121.724L38.6732 122.422L42.3836 122.422ZM37.0737 121.679L37.0737 122.466L37.8453 122.466L37.8453 121.679L37.0737 121.679Z" fill="black"/>
<path d="M38.6731 120.446L38.6731 119.769L39.2582 119.769L39.2582 119.752C38.8378 119.548 38.582 119.04 38.582 118.514C38.582 117.537 39.1802 117.09 40.1771 117.09L42.3791 117.09L42.3791 117.789L40.4589 117.789C39.592 117.789 39.1715 117.983 39.1325 118.589C39.1325 119.385 39.7567 119.738 40.6626 119.738L42.3791 119.738L42.3791 120.437L38.6687 120.437L38.6731 120.446Z" fill="black"/>
<path d="M42.2231 112.567C43.35 112.567 44.0002 113.155 44.0002 114.512C44.0002 114.919 43.9482 115.264 43.7445 115.879L43.1116 115.803C43.35 115.264 43.4454 114.946 43.4454 114.437C43.4454 113.699 42.9556 113.266 42.1667 113.266L41.8069 113.266L41.8069 113.279C42.1884 113.575 42.3791 114.066 42.3791 114.548C42.3791 115.635 41.5122 116.166 40.5542 116.166C39.5963 116.166 38.582 115.618 38.582 114.473C38.582 113.805 38.8204 113.438 39.2192 113.226L39.2192 113.208L38.6687 113.208L38.6687 112.567L42.2144 112.567L42.2231 112.567ZM40.5716 113.266C39.7957 113.266 39.1369 113.633 39.1369 114.371C39.1369 115.109 39.8867 115.423 40.5239 115.423C41.2218 115.423 41.8329 115.021 41.8329 114.371C41.8329 113.721 41.2651 113.266 40.5759 113.266L40.5716 113.266Z" fill="black"/>
<path d="M38.1443 105.674C37.9536 106.001 37.8582 106.364 37.8582 106.744C37.8582 107.938 38.7035 108.733 39.8435 108.733C40.9835 108.733 41.8287 107.858 41.8287 106.784C41.8287 106.412 41.7333 105.917 41.5816 105.661L42.2838 105.616C42.4442 106.01 42.4659 106.492 42.4659 106.797C42.4659 108.437 41.4343 109.529 39.8175 109.529C38.2007 109.529 37.2124 108.375 37.2124 106.788C37.2124 106.386 37.2731 105.992 37.4335 105.621L38.14 105.683L38.1443 105.674Z" fill="black"/>
<path d="M40.5283 104.299C39.8218 104.299 39.1369 103.862 39.1369 103.11C39.1369 102.358 39.8218 101.929 40.5283 101.929C41.1915 101.929 41.9154 102.296 41.9154 103.11C41.9154 103.923 41.1915 104.299 40.5283 104.299ZM40.5283 105.038C41.5946 105.038 42.4702 104.251 42.4702 103.105C42.4702 101.96 41.5903 101.182 40.5283 101.182C39.4013 101.182 38.5864 101.956 38.5864 103.105C38.5864 104.255 39.4013 105.038 40.5283 105.038Z" fill="black"/>
<path d="M38.6731 100.253L38.6731 99.577L39.2582 99.577L39.2582 99.5637C38.8378 99.3559 38.582 98.8519 38.582 98.3257C38.582 97.3442 39.1802 96.9065 40.1771 96.9065L42.3791 96.9065L42.3791 97.605L40.4589 97.605C39.592 97.605 39.1715 97.7996 39.1325 98.4053C39.1325 99.2011 39.7567 99.5593 40.6626 99.5593L42.3791 99.5593L42.3791 100.253L38.6687 100.253L38.6731 100.253Z" fill="black"/>
<path d="M38.6731 93.7102L38.6731 94.7094L37.5981 94.7094L37.8149 95.4035L38.6731 95.4035L38.6731 96.2568L39.2236 96.2568L39.2236 95.4035L41.3952 95.4035C42.1364 95.4035 42.4702 94.957 42.4702 94.2407C42.4702 94.0152 42.4095 93.7986 42.3705 93.6483L41.7853 93.6483C41.8503 93.7499 41.9154 93.9047 41.9154 94.1258C41.9154 94.4397 41.6856 94.7094 41.2565 94.7094L39.2236 94.7094L39.2236 93.7102L38.6731 93.7102Z" fill="black"/>
<path d="M40.1728 92.3436C39.6873 92.2906 39.1369 92.012 39.1369 91.3267C39.1369 90.7254 39.605 90.3806 40.1728 90.3806L40.1728 92.3436ZM41.5425 89.934C41.6856 90.102 41.9153 90.6326 41.9153 91.0968C41.9153 91.7556 41.4125 92.3436 40.68 92.3436L40.68 89.6378C39.488 89.6378 38.582 90.049 38.582 91.3135C38.582 92.3746 39.3579 93.0864 40.4589 93.0864C41.6639 93.0864 42.4658 92.4719 42.4658 91.1278C42.4658 90.5088 42.3184 90.1993 42.2274 89.9384L41.5382 89.9384L41.5425 89.934Z" fill="black"/>
<path d="M38.6731 88.7095L38.6731 88.033L39.2582 88.033L39.2582 88.0197C38.8378 87.8164 38.582 87.3079 38.582 86.7818C38.582 85.8002 39.1802 85.3625 40.1771 85.3625L42.3791 85.3625L42.3791 86.0611L40.4589 86.0611C39.592 86.0611 39.1715 86.2512 39.1325 86.8569C39.1325 87.6528 39.7567 88.0109 40.6626 88.0109L42.3791 88.0109L42.3791 88.7095L38.6687 88.7095L38.6731 88.7095Z" fill="black"/>
<path d="M38.6731 82.1613L38.6731 83.1694L37.5981 83.1694L37.8149 83.8591L38.6731 83.8591L38.6731 84.7124L39.2236 84.7124L39.2236 83.8591L41.3952 83.8591C42.1364 83.8591 42.4702 83.417 42.4702 82.6963C42.4702 82.4708 42.4095 82.2586 42.3705 82.0994L41.7853 82.0994C41.8503 82.2011 41.9154 82.3602 41.9154 82.5769C41.9154 82.8908 41.6856 83.1649 41.2565 83.1649L39.2236 83.1649L39.2236 82.1569L38.6731 82.1569L38.6731 82.1613Z" fill="black"/>
<path d="M37.9447 78.4652L37.9447 77.833C37.9447 77.3732 38.1831 76.6923 38.8203 76.6923C39.4922 76.6923 39.7176 77.267 39.7176 77.7269L39.7176 78.4652L37.9447 78.4652ZM42.3833 79.208L42.3833 78.4652L40.3504 78.4652L40.3504 77.7401C40.3504 76.7984 39.9516 75.9009 38.8203 75.9009C37.689 75.9009 37.3032 76.7851 37.3032 77.8462L37.3032 79.2036L42.379 79.2036L42.3833 79.208Z" fill="black"/>
<path d="M42.3835 75.1094L42.3835 74.4064L40.693 74.4064C39.7611 74.4064 39.1803 73.9952 39.1803 73.3762C39.1803 73.2613 39.1976 73.1109 39.2453 72.9916L38.6384 72.9916C38.6038 73.1463 38.5864 73.248 38.5864 73.4514C38.5864 73.8537 38.8638 74.2561 39.2453 74.4373L39.2453 74.4506L38.6731 74.4506L38.6731 75.1094L42.3835 75.1094Z" fill="black"/>
<path d="M40.5283 72.4697C41.5946 72.4697 42.4702 71.6827 42.4702 70.5376C42.4702 69.3925 41.5903 68.6143 40.5283 68.6143C39.4013 68.6143 38.5864 69.3881 38.5864 70.5376C38.5864 71.6872 39.4013 72.4697 40.5283 72.4697ZM40.5283 71.7269C39.8218 71.7269 39.1369 71.2937 39.1369 70.5376C39.1369 69.7816 39.8218 69.3615 40.5283 69.3615C41.1915 69.3615 41.9154 69.7241 41.9154 70.5376C41.9154 71.3511 41.1915 71.7269 40.5283 71.7269Z" fill="black"/>
<path d="M42.3835 67.6904L42.3835 66.9919L40.5153 66.9919C39.8218 66.9919 39.1369 66.7133 39.1369 65.9926C39.1369 65.4267 39.7134 65.3206 40.1729 65.3206L42.3835 65.3206L42.3835 64.622L40.5153 64.622C39.8218 64.622 39.1369 64.3391 39.1369 63.6184C39.1369 63.0613 39.7134 62.9508 40.1729 62.9508L42.3835 62.9508L42.3835 62.2478L40.0082 62.2478C39.2019 62.2478 38.5864 62.6015 38.5864 63.5609C38.5864 63.9058 38.7771 64.4761 39.306 64.737C38.8032 64.9404 38.5864 65.3781 38.5864 65.8114C38.5864 66.364 38.7815 66.7443 39.2149 67.014L39.2149 67.0228L38.6775 67.0228L38.6775 67.6816L42.3878 67.6816L42.3835 67.6904Z" fill="black"/>
<path d="M40.5283 61.3369C41.5946 61.3369 42.4702 60.5499 42.4702 59.4092C42.4702 58.2685 41.5903 57.4859 40.5283 57.4859C39.4013 57.4859 38.5864 58.2641 38.5864 59.4092C38.5864 60.5543 39.4013 61.3369 40.5283 61.3369ZM40.5283 60.5985C39.8218 60.5985 39.1369 60.1564 39.1369 59.4092C39.1369 58.662 39.8218 58.2287 40.5283 58.2287C41.1915 58.2287 41.9154 58.5957 41.9154 59.4092C41.9154 60.2227 41.1915 60.5985 40.5283 60.5985Z" fill="black"/>
<path d="M38.6731 54.5412L38.6731 55.5448L37.5981 55.5448L37.8149 56.2434L38.6731 56.2434L38.6731 57.0923L39.2236 57.0923L39.2236 56.2434L41.3952 56.2434C42.1364 56.2434 42.4702 55.7968 42.4702 55.0762C42.4702 54.8507 42.4095 54.6384 42.3705 54.4837L41.7853 54.4837C41.8503 54.5898 41.9154 54.749 41.9154 54.9568C41.9154 55.2795 41.6856 55.5492 41.2565 55.5492L39.2236 55.5492L39.2236 54.5456L38.6731 54.5456L38.6731 54.5412Z" fill="black"/>
<path d="M38.6732 53.5818L38.6732 52.8832L42.3836 52.8832L42.3836 53.5818L38.6732 53.5818ZM37.8453 52.839L37.8453 53.626L37.0737 53.626L37.0737 52.839L37.8453 52.839Z" fill="black"/>
<path d="M40.5283 51.8623C41.5946 51.8623 42.4702 51.0709 42.4702 49.9346C42.4702 48.7983 41.5903 48.0113 40.5283 48.0113C39.4013 48.0113 38.5864 48.7762 38.5864 49.9346C38.5864 51.093 39.4013 51.8623 40.5283 51.8623ZM40.5283 51.1151C39.8218 51.1151 39.1369 50.673 39.1369 49.9302C39.1369 49.1874 39.8218 48.7453 40.5283 48.7453C41.1915 48.7453 41.9154 49.1122 41.9154 49.9302C41.9154 50.7481 41.1915 51.1151 40.5283 51.1151Z" fill="black"/>
<path d="M38.6731 47.0737L38.6731 46.3928L39.2582 46.3928L39.2582 46.3796C38.8378 46.1718 38.582 45.6722 38.582 45.1416C38.582 44.1645 39.1802 43.7268 40.1771 43.7268L42.3791 43.7268L42.3791 44.4254L40.4589 44.4254C39.592 44.4254 39.1715 44.6155 39.1325 45.2212C39.1325 46.0259 39.7567 46.3752 40.6626 46.3752L42.3791 46.3752L42.3791 47.0737L38.6687 47.0737L38.6731 47.0737Z" fill="black"/>
<path d="M37.3076 40.4551L37.3076 37.705L37.9448 37.705L37.9448 39.7167L39.4315 39.7167L39.4315 37.7979L40.0687 37.7979L40.0687 39.7167L42.3834 39.7167L42.3834 40.4551L37.3076 40.4551Z" fill="black"/>
<path d="M40.5283 36.2811C39.8218 36.2811 39.1369 35.8434 39.1369 35.0962C39.1369 34.349 39.8218 33.9202 40.5283 33.9202C41.1915 33.9202 41.9154 34.2783 41.9154 35.0962C41.9154 35.9142 41.1915 36.2811 40.5283 36.2811ZM40.5283 37.0239C41.5946 37.0239 42.4702 36.2369 42.4702 35.0962C42.4702 33.9555 41.5903 33.1774 40.5283 33.1774C39.4013 33.1774 38.5864 33.9511 38.5864 35.0962C38.5864 36.2414 39.4013 37.0239 40.5283 37.0239Z" fill="black"/>
<path d="M42.3832 28.8933L42.3832 29.5654L41.7937 29.5654L41.7937 29.5786C42.2142 29.7908 42.4699 30.2949 42.4699 30.821C42.4699 31.7981 41.8717 32.2358 40.8748 32.2358L38.6729 32.2358L38.6729 31.5417L40.5887 31.5417C41.4556 31.5417 41.8804 31.3427 41.9151 30.7459C41.9151 29.9456 41.2909 29.5875 40.3893 29.5875L38.6729 29.5875L38.6729 28.8933L42.3832 28.8933Z" fill="black"/>
<path d="M42.3835 27.7041L42.3835 27.0099L40.667 27.0099C39.7611 27.0099 39.1369 26.6562 39.1369 25.856C39.1759 25.2503 39.5964 25.0601 40.4633 25.0601L42.3835 25.0601L42.3835 24.3616L40.1815 24.3616C39.1803 24.3616 38.5864 24.7949 38.5864 25.7764C38.5864 26.307 38.8378 26.8022 39.2626 27.0144L39.2626 27.0276L38.6775 27.0276L38.6775 27.7041L42.3878 27.7041L42.3835 27.7041Z" fill="black"/>
<path d="M40.5153 22.6766C39.8391 22.6943 39.1369 22.3981 39.1369 21.642C39.1369 20.886 39.8434 20.519 40.5369 20.519C41.1568 20.519 41.9197 20.8462 41.9197 21.6332C41.9197 22.4202 41.0961 22.6943 40.5153 22.6766ZM42.3835 20.4925L42.3835 19.8249L36.9263 19.8249L36.9263 20.519L39.1846 20.519L39.1846 20.5367C38.8421 20.7533 38.5864 21.1336 38.5864 21.7924C38.5864 22.8933 39.4706 23.4238 40.4633 23.4238C41.4559 23.4238 42.4702 22.9419 42.4702 21.8012C42.4702 21.1247 42.1321 20.7003 41.859 20.5057L41.859 20.4925L42.3835 20.4925Z" fill="black"/>
<path d="M40.94 16.3897C41.4948 16.3897 41.9153 16.7566 41.9153 17.4464C41.9153 17.7647 41.7029 18.1494 41.3171 18.1494C40.6583 18.1494 40.6019 17.2165 40.6019 16.8318C40.6019 16.6859 40.6149 16.54 40.6149 16.3897L40.94 16.3897ZM39.514 18.4235C39.2799 18.1361 39.1325 17.7116 39.1325 17.3226C39.1325 16.624 39.4663 16.3853 40.1035 16.3853C40.0861 16.6638 40.0861 16.8495 40.0861 17.128C40.0861 17.8487 40.3765 18.8833 41.3128 18.8833C42.1234 18.8833 42.4658 18.3129 42.4658 17.4994C42.4658 16.8627 42.1234 16.4914 41.898 16.3234L41.898 16.3101L42.3791 16.3101L42.3791 15.6602C42.2664 15.6734 42.0713 15.6911 41.6509 15.6911L40.1165 15.6911C39.1065 15.6911 38.582 16.1288 38.582 17.212C38.582 17.694 38.7251 18.1051 38.9331 18.4544L39.514 18.4235Z" fill="black"/>
<path d="M39.2236 12.5036L39.2236 13.5028L41.2565 13.5028C41.6856 13.5028 41.9154 13.2331 41.9154 12.9192C41.9154 12.7026 41.8503 12.5478 41.7853 12.4417L42.3705 12.4417C42.4095 12.5965 42.4702 12.8131 42.4702 13.0342C42.4702 13.7504 42.1321 14.197 41.3952 14.197L39.2236 14.197L39.2236 15.0503L38.6731 15.0503L38.6731 14.197L37.8149 14.197L37.5981 13.4984L38.6731 13.4984L38.6731 12.4992L39.2236 12.4992L39.2236 12.5036Z" fill="black"/>
<path d="M37.0737 10.797L37.0737 11.584L37.8453 11.584L37.8453 10.797L37.0737 10.797ZM42.3836 11.5398L42.3836 10.8412L38.6732 10.8412L38.6732 11.5398L42.3836 11.5398Z" fill="black"/>
<path d="M40.5283 9.07262C39.8218 9.07262 39.1369 8.63491 39.1369 7.8877C39.1369 7.1405 39.8218 6.70722 40.5283 6.70722C41.1915 6.70722 41.9154 7.06976 41.9154 7.8877C41.9154 8.70565 41.1915 9.07262 40.5283 9.07262ZM40.5283 9.81982C41.5946 9.81982 42.4702 9.03283 42.4702 7.8877C42.4702 6.74258 41.5903 5.96442 40.5283 5.96442C39.4013 5.96442 38.5864 6.73374 38.5864 7.8877C38.5864 9.04167 39.4013 9.81982 40.5283 9.81982Z" fill="black"/>
<path d="M38.6731 5.02686L38.6731 4.35924L39.2582 4.35924L39.2582 4.34155C38.8378 4.13375 38.582 3.62087 38.582 3.09474C38.582 2.11762 39.1802 1.6799 40.1771 1.6799L42.3791 1.6799L42.3791 2.37406L40.4589 2.37406C39.592 2.37406 39.1715 2.56859 39.1325 3.17432C39.1325 3.97016 39.7567 4.32387 40.6626 4.32387L42.3791 4.32387L42.3791 5.01802L38.6687 5.01802L38.6731 5.02686Z" fill="black"/>
<path d="M24.7286 156.338C24.7286 156.754 24.6029 157.072 24.3472 157.298C24.1088 157.51 23.788 157.616 23.3892 157.616L16.9568 157.616L16.9568 155.932L19.4101 155.932C19.5011 155.932 19.5662 155.914 19.6008 155.879C19.6312 155.843 19.6528 155.764 19.6528 155.653L19.6528 152.143C19.6528 152.063 19.6355 152.006 19.6008 151.97C19.5662 151.935 19.4925 151.917 19.3754 151.917L16.9568 151.917L16.9568 150.255L23.3199 150.255C23.7317 150.255 24.0567 150.352 24.2995 150.551C24.5812 150.763 24.7286 151.064 24.7286 151.462L24.7286 156.343L24.7286 156.338ZM21.222 151.966C21.2003 151.988 21.1916 152.045 21.1916 152.138L21.1916 155.649C21.1916 155.773 21.2003 155.857 21.222 155.892C21.2566 155.914 21.339 155.927 21.4647 155.927L22.8951 155.927C23.0121 155.927 23.0901 155.901 23.1205 155.852C23.1638 155.817 23.1898 155.742 23.1898 155.627L23.1898 152.134C23.1898 152.063 23.1638 152.014 23.1205 151.979C23.0598 151.93 22.9904 151.908 22.8951 151.908L21.482 151.908C21.3477 151.908 21.2566 151.93 21.222 151.961L21.222 151.966ZM31.3128 152.474C30.6236 153.257 29.8087 153.646 28.8638 153.646C27.8581 153.646 27.0042 153.266 26.2934 152.492C25.6085 151.718 25.2617 150.821 25.2617 149.786C25.2617 148.751 25.6042 147.841 26.2934 147.067C27.0042 146.258 27.8581 145.855 28.8638 145.855C29.8044 145.855 30.6193 146.253 31.3128 147.049C31.9976 147.832 32.3401 148.738 32.3401 149.755C32.3401 150.772 31.9976 151.7 31.3128 152.474ZM27.3813 151.4C27.7671 151.82 28.2396 152.032 28.7987 152.032C29.3579 152.032 29.813 151.811 30.2031 151.369C30.5889 150.936 30.784 150.409 30.784 149.786C30.784 149.163 30.5889 148.641 30.2031 148.212C29.8174 147.77 29.3449 147.544 28.7987 147.544C28.2526 147.544 27.7801 147.765 27.3813 148.212C26.9912 148.672 26.8005 149.198 26.8005 149.808C26.8005 150.418 26.9956 150.971 27.3813 151.404L27.3813 151.4ZM21.6164 145.776C21.6511 145.798 21.7464 145.811 21.9111 145.811L25.2054 145.811L25.2054 147.522L16.584 147.522L16.584 145.811L19.7439 145.811C19.8696 145.811 19.9476 145.798 19.9823 145.776C20.0299 145.741 20.0516 145.652 20.0516 145.511L20.0516 143.357L21.5861 143.357L21.5861 145.55C21.5861 145.679 21.5947 145.754 21.6207 145.776L21.6164 145.776Z" fill="black"/>
<path d="M23.5149 140.156L23.5149 134.086C23.5149 134.006 23.4933 133.953 23.4629 133.927C23.4369 133.891 23.3936 133.874 23.3242 133.874L21.3173 133.874L21.3173 132.189L23.3242 132.189C23.3979 132.189 23.4413 132.176 23.4629 132.154C23.4933 132.127 23.5149 132.078 23.5149 131.999L23.5149 125.906L25.0537 125.906L25.0537 140.152L23.5149 140.152L23.5149 140.156ZM21.4084 130.703C20.9402 131.65 20.316 132.384 19.5358 132.905C20.3117 133.476 20.9489 134.241 21.4387 135.196C21.8635 136.013 22.2016 137.035 22.4486 138.26L20.9402 139.272C20.8015 137.698 20.3984 136.403 19.7222 135.39C19.0027 134.316 18.1228 133.776 17.0781 133.776L16.5146 133.776L16.5146 131.999L17.0781 131.999C18.1098 131.999 18.9507 131.53 19.6008 130.593C20.264 129.651 20.6281 128.373 20.6975 126.764L22.2753 127.746C22.0715 128.935 21.7811 129.921 21.404 130.699L21.4084 130.703ZM31.3952 135.85C30.732 136.641 29.9257 137.035 28.9808 137.035C27.9839 137.035 27.1646 136.646 26.5145 135.863C25.8946 135.129 25.5869 134.232 25.5869 133.175C25.5869 132.118 25.8989 131.221 26.5275 130.447C27.182 129.647 27.9969 129.244 28.9808 129.244C29.9648 129.244 30.732 129.647 31.3952 130.447C32.0237 131.207 32.3401 132.105 32.3401 133.144C32.3401 134.183 32.0237 135.094 31.3952 135.85ZM27.5764 134.82C27.9275 135.253 28.3913 135.465 28.9461 135.465C29.501 135.465 29.9301 135.244 30.2855 134.802C30.6323 134.373 30.8013 133.834 30.8013 133.175C30.8013 132.516 30.6323 131.959 30.2855 131.53C29.9431 131.097 29.4966 130.885 28.9461 130.885C28.3956 130.885 27.9275 131.11 27.5764 131.566C27.2427 132.008 27.0779 132.552 27.0779 133.197C27.0779 133.843 27.2427 134.386 27.5764 134.82Z" fill="black"/>
<path d="M24.7286 122.237L24.7286 116.772C24.7286 116.692 24.7113 116.635 24.6766 116.6C24.6549 116.564 24.6073 116.551 24.5422 116.551L22.1756 116.551L22.1756 114.862L24.5422 114.862C24.6029 114.862 24.6463 114.849 24.6766 114.827C24.7113 114.791 24.7286 114.747 24.7286 114.685L24.7286 107.965L26.2674 107.965L26.2674 122.237L24.7286 122.237ZM21.9068 111.63C21.7551 111.63 21.6598 111.661 21.6164 111.718C21.5817 111.767 21.5644 111.869 21.5644 112.015L21.5644 120.314L19.9823 120.314L19.9823 111.984C19.9823 111.856 19.9476 111.763 19.8826 111.701C19.8349 111.661 19.7396 111.634 19.5922 111.634L18.6689 111.634C18.5216 111.634 18.4219 111.665 18.3785 111.723C18.3352 111.785 18.3092 111.878 18.3092 112.019L18.3092 120.402L16.7271 120.402L16.7271 111.197C16.7271 110.79 16.8528 110.472 17.1042 110.237C17.3469 110.025 17.6676 109.923 18.0664 109.923L23.9354 109.923L23.9354 111.63L21.9112 111.63L21.9068 111.63ZM31.1958 120.031C30.9357 120.243 30.5976 120.344 30.1858 120.344L26.8742 120.344L26.8742 118.585L29.8261 118.585C29.9388 118.585 30.0168 118.576 30.0515 118.549C30.0818 118.514 30.1035 118.426 30.1035 118.284L30.1035 109.68L31.6379 109.68L31.6379 119.027C31.6379 119.46 31.4905 119.792 31.1914 120.026L31.1958 120.031Z" fill="black"/>
<path d="M25.3791 101.801C25.3791 102.279 25.2534 102.655 24.9976 102.924C24.7592 103.181 24.4082 103.313 23.953 103.313L18.2271 103.313C17.7806 103.313 17.4555 103.185 17.2475 102.942C17.0784 102.721 16.9917 102.394 16.9917 101.961L16.9917 97.3933L18.5738 97.3933L18.5738 101.43C18.5738 101.527 18.5825 101.585 18.5955 101.607C18.6172 101.62 18.6735 101.629 18.7646 101.629L20.1516 101.629C20.221 101.629 20.2687 101.62 20.2903 101.607C20.312 101.585 20.325 101.527 20.325 101.43L20.325 97.8443L21.9071 97.8443L21.9071 101.43C21.9071 101.527 21.9071 101.585 21.9201 101.607C21.9331 101.62 21.9851 101.629 22.0762 101.629L23.5456 101.629C23.6626 101.629 23.7363 101.616 23.771 101.589C23.8187 101.558 23.8403 101.474 23.8403 101.346L23.8403 100.612C23.8403 100.006 23.8143 99.4094 23.771 98.8081C23.7233 98.2599 23.6626 97.6055 23.5803 96.8451L24.9846 96.6019C25.119 97.3403 25.2187 98.0609 25.2751 98.7728C25.3444 99.4227 25.3791 100.099 25.3791 100.802L25.3791 101.801ZM31.1961 101.191C30.936 101.399 30.5979 101.505 30.1861 101.505L26.8745 101.505L26.8745 99.8206L29.8263 99.8206C29.939 99.8206 30.0171 99.7985 30.0517 99.7499C30.0821 99.7057 30.1037 99.6128 30.1037 99.4713L30.1037 90.7923L31.6382 90.7923L31.6382 100.183C31.6382 100.612 31.4908 100.948 31.1917 101.196L31.1961 101.191ZM22.1542 95.5894C22.0545 95.5894 21.9765 95.6115 21.9288 95.6602C21.8811 95.7044 21.8638 95.7707 21.8638 95.8724L21.8638 97.6011L20.3727 97.6011L20.3727 95.8724C20.3727 95.753 20.351 95.6778 20.3033 95.6425C20.2687 95.6071 20.195 95.5938 20.0779 95.5938L16.7013 95.5938L16.7013 93.927L27.5897 93.927L27.5897 95.5938L22.1542 95.5938L22.1542 95.5894ZM16.5713 92.6404L16.5713 91.031L27.8064 91.031L27.8064 92.6404L16.5713 92.6404Z" fill="black"/>
<path d="M27.1474 86.4062L27.1474 72.1475L28.6818 72.1475L28.6818 86.4062L27.1474 86.4062ZM24.1912 76.9756C23.7795 77.8819 23.2506 78.638 22.5961 79.2348C23.2246 79.8052 23.7795 80.6055 24.2606 81.6312C24.7027 82.5862 25.0191 83.6075 25.2055 84.6952L23.6754 85.6237C23.5411 83.9789 23.1336 82.626 22.4574 81.5782C21.8853 80.6629 21.2958 80.212 20.6889 80.212C20.6066 80.212 20.5589 80.2252 20.5372 80.2606C20.5025 80.2827 20.4852 80.3358 20.4852 80.4021L20.4852 84.6421L18.9291 84.6421L18.9291 74.0177L20.4852 74.0177L20.4852 78.1118C20.4852 78.218 20.4895 78.2799 20.5025 78.3064C20.5242 78.3285 20.5892 78.3417 20.6933 78.3417C21.3001 78.3417 21.8723 77.9085 22.4097 77.0463C23.0426 76.0338 23.4067 74.6853 23.5107 73.0052L25.0365 73.9867C24.8674 75.1142 24.5857 76.1134 24.1956 76.9756L24.1912 76.9756ZM16.3457 81.9274L16.3457 76.361L17.9278 76.361L17.9278 81.9274L16.3457 81.9274Z" fill="black"/>
<path d="M23.9877 61.9384C23.4892 62.5176 22.9171 62.9862 22.2712 63.3488C23.0038 63.7953 23.6886 64.401 24.3345 65.1836C24.963 65.9397 25.5048 66.7974 25.9599 67.7568L24.6249 68.8047C24.1481 67.4075 23.4415 66.2978 22.514 65.4799C21.5647 64.6531 20.5157 64.2419 19.3714 64.2419L18.9119 64.2419C18.7949 64.2419 18.7256 64.2507 18.7039 64.2772C18.6822 64.2994 18.6692 64.3436 18.6692 64.4143L18.6692 67.58L17.1565 67.58L17.1565 59.2104L18.6692 59.2104L18.6692 62.3407C18.6692 62.4247 18.6735 62.4689 18.6865 62.4822C18.6952 62.491 18.7299 62.4999 18.7862 62.4999L18.9076 62.4822L19.3497 62.4822C20.4811 62.4822 21.426 62.1771 22.1802 61.5714C22.9387 60.9524 23.5412 59.9886 24.0007 58.6843L25.3227 59.7852C24.9196 60.6518 24.4732 61.368 23.979 61.9384L23.9877 61.9384ZM31.1961 65.3914C30.936 65.586 30.5979 65.6832 30.1861 65.6832L26.3804 65.6832L26.3804 63.9766L29.8307 63.9766C29.9434 63.9766 30.0214 63.9589 30.0561 63.928C30.0864 63.8882 30.1081 63.7997 30.1081 63.645L30.1081 55.1958L31.6425 55.1958L31.6425 64.4187C31.6425 64.8476 31.4951 65.1748 31.1961 65.3958L31.1961 65.3914ZM16.5713 57.1412L16.5713 55.3815L27.8238 55.3815L27.8238 57.1412L16.5713 57.1412Z" fill="black"/>
<path d="M24.2606 50.5713L24.2606 36.3125L25.795 36.3125L25.795 50.5713L24.2606 50.5713ZM18.461 48.9796L18.461 38.0059L19.952 38.0059L19.952 40.6852C20.1471 40.5525 20.3508 40.4597 20.5719 40.3845C20.7973 40.305 21.0444 40.2652 21.3044 40.2652C22.1627 40.2652 22.8345 40.6056 23.3287 41.2821C23.7621 41.8745 23.9788 42.6085 23.9788 43.4839C23.9788 44.3593 23.7534 45.1507 23.2983 45.7962C22.8042 46.4992 22.141 46.8441 21.2958 46.8441C21.0183 46.8441 20.7713 46.8176 20.5545 46.7601C20.3248 46.6849 20.1254 46.5832 19.9564 46.4462L19.9564 48.984L18.4653 48.984L18.461 48.9796ZM31.5166 46.1765C30.9271 46.9856 30.1426 47.3835 29.1846 47.3835C28.2267 47.3835 27.4031 46.9944 26.7963 46.2118C26.2371 45.4823 25.9597 44.5715 25.9597 43.4839C25.9597 42.3962 26.2371 41.5208 26.7963 40.7869C27.4031 39.9778 28.2007 39.5799 29.1846 39.5799C30.1686 39.5799 30.9011 39.9866 31.495 40.809C32.0584 41.5429 32.3359 42.436 32.3359 43.4883C32.3359 44.5406 32.0584 45.4514 31.5123 46.1853L31.5166 46.1765ZM16.3457 46.0925L16.3457 40.7206L17.9538 40.7206L17.9538 46.0925L16.3457 46.0925ZM27.8756 45.1728C28.1834 45.6061 28.6125 45.8184 29.1673 45.8184C29.6874 45.8184 30.0906 45.5929 30.3896 45.1507C30.6671 44.7307 30.8014 44.1736 30.8014 43.4883C30.8014 42.803 30.6671 42.268 30.3896 41.8701C30.0906 41.4501 29.6831 41.2423 29.1673 41.2423C28.6168 41.2423 28.1834 41.4633 27.8756 41.9099C27.5765 42.3255 27.4248 42.8649 27.4248 43.5237C27.4248 44.1825 27.5765 44.7528 27.8756 45.1728ZM20.3248 44.7705C20.5676 45.1065 20.884 45.279 21.2958 45.279C21.7075 45.279 22.0066 45.1065 22.232 44.7705C22.4401 44.4433 22.5398 44.0233 22.5398 43.5148C22.5398 43.0064 22.4314 42.604 22.2147 42.2901C21.9893 41.9541 21.6859 41.7861 21.2958 41.7861C20.8753 41.7861 20.5459 41.963 20.3075 42.3078C20.1038 42.635 19.9997 43.055 19.9997 43.5679C19.9997 44.0808 20.1081 44.461 20.3248 44.7749L20.3248 44.7705Z" fill="black"/>
<path d="M25.1667 27.3729C24.5599 27.7885 23.901 28.1422 23.1771 28.4295C23.901 28.7435 24.6032 29.1679 25.3011 29.7029C26.0033 30.2511 26.6708 30.8922 27.308 31.6262L26.1073 32.8022C25.2317 31.5775 24.2391 30.6667 23.1425 30.0699C22.1368 29.5128 21.0445 29.2298 19.8655 29.2298L19.094 29.2298C19.016 29.2298 18.9553 29.2784 18.9206 29.3713C18.9076 29.4243 18.9033 29.5128 18.9033 29.61L18.9033 31.9224L17.2952 31.9224L17.2952 25.0384L18.9033 25.0384L18.9033 27.2093C18.9033 27.3507 18.9076 27.4392 18.9206 27.4745C18.9466 27.5188 19.003 27.5409 19.094 27.5409L19.8655 27.5409C21.0575 27.5409 22.1022 27.3331 23.0038 26.913C24.0917 26.4223 25.0453 25.6043 25.8732 24.4459L27.1736 25.5645C26.5234 26.294 25.8516 26.8909 25.1667 27.3684L25.1667 27.3729ZM22.735 20.9708C22.6527 20.9708 22.6006 20.9884 22.579 21.0238C22.566 21.0371 22.5616 21.0548 22.5616 21.0769L22.5616 22.4696C22.5616 22.5359 22.5703 22.5801 22.592 22.5934C22.618 22.6022 22.683 22.6111 22.787 22.6111L29.783 22.6111L29.783 24.2956L16.6927 24.2956L16.6927 22.6111L20.8972 22.6111C20.9622 22.6111 21.0055 22.6022 21.0142 22.5934C21.0402 22.5801 21.0489 22.5359 21.0489 22.4696L21.0489 21.0769C21.0489 21.0415 21.0315 21.0106 20.9969 20.9884C20.9882 20.9752 20.9665 20.9708 20.9448 20.9708L16.5713 20.9708L16.5713 19.3304L30.0257 19.3304L30.0257 20.9708L22.735 20.9708Z" fill="black"/>
<path d="M25.1447 12.5613C25.1447 12.999 25.0016 13.3483 24.7155 13.6091C24.4555 13.8523 24.1217 13.9717 23.7229 13.9717L18.166 13.9717C17.7889 13.9717 17.4942 13.8611 17.2905 13.6401C17.0954 13.4234 17 13.1272 17 12.7558L17 6.64996L18.5822 6.64996L18.5822 12.1103C18.5822 12.1899 18.5908 12.2385 18.6038 12.2518C18.6168 12.2695 18.6472 12.2872 18.7035 12.2872L18.7512 12.2695L23.3111 12.2695C23.4022 12.2695 23.4715 12.2562 23.5192 12.2164C23.5669 12.181 23.5886 12.1147 23.5886 12.0263L23.5886 9.62993C23.5886 9.02863 23.5625 8.36985 23.5062 7.67128C23.4498 7.05672 23.3762 6.35372 23.2851 5.57115L24.7415 5.32797C24.8542 6.0398 24.9496 6.7649 25.019 7.51211C25.11 8.33005 25.1533 9.04189 25.1533 9.62993L25.1533 12.5701L25.1447 12.5613ZM31.1957 12.1324C30.9356 12.3269 30.5975 12.4242 30.1857 12.4242L26.38 12.4242L26.38 10.7397L29.8303 10.7397C29.943 10.7397 30.021 10.722 30.0557 10.6689C30.086 10.638 30.1077 10.5451 30.1077 10.3904L30.1077 1.88817L31.6421 1.88817L31.6421 11.1243C31.6421 11.5753 31.4948 11.9113 31.1957 12.1324ZM22.4572 2.41431C22.4832 2.42758 22.5699 2.432 22.7303 2.432L27.9838 2.432L27.9838 4.18727L16.5796 4.18727L16.5796 2.432L20.5977 2.432C20.7104 2.432 20.7841 2.42316 20.8188 2.39664C20.8621 2.36569 20.8838 2.27725 20.8838 2.15345L20.8838 0.000268052L22.4226 0.000267985L22.4226 2.2242C22.4226 2.33031 22.4312 2.39221 22.4572 2.41874L22.4572 2.41431Z" fill="black"/>
<path d="M6.80518 202.196L7.0089 202.139C6.93521 202.036 6.86152 201.979 6.80518 202.196Z" fill="#BED73D"/>
<path d="M14.8632 204.119C14.7505 204.106 14.6725 204.119 14.6118 204.141L14.6552 204.23L14.8676 204.119L14.8632 204.119Z" fill="#BED73D"/>
<path d="M7.00881 199.397C6.93512 199.256 6.83976 199.11 6.69238 198.964C6.70539 199.247 6.8571 199.41 7.00881 199.397Z" fill="#BED73D"/>
<path d="M14.8892 201.758L14.9282 202.143C14.9975 201.993 14.9628 201.856 14.8892 201.758Z" fill="#BED73D"/>
<path d="M39.3141 171.282C39.3141 171.282 39.3401 171.335 39.3618 171.353C38.911 171.53 38.3345 171.861 38.0138 172.259C37.9921 172.268 37.9747 172.272 37.9531 172.281C37.9617 172.277 37.9661 172.268 37.9747 172.264L37.7147 172.179C38.0874 171.848 38.2088 171.565 38.2912 171.322C38.1611 171.37 38.0354 171.415 37.9054 171.463C37.9271 171.485 37.9314 171.516 37.9531 171.534C37.4979 171.711 36.9215 172.047 36.5964 172.445C36.3623 172.569 36.1282 172.719 35.9245 172.891C35.9765 172.834 36.0285 172.781 36.0892 172.741L35.8248 172.657C36.2019 172.33 36.3233 172.042 36.4013 171.799C36.2713 171.848 36.1456 171.892 36.0155 171.941C36.0329 171.963 36.0415 171.989 36.0632 172.007C35.5691 172.202 34.9276 172.582 34.6328 173.033C34.7238 173.002 34.8149 172.966 34.9016 172.909C34.9969 172.918 35.0619 172.936 35.1226 172.958C35.244 172.785 35.335 172.635 35.426 172.697C35.3654 172.798 35.257 172.887 35.166 172.975C35.3957 173.077 35.3523 173.267 35.322 173.417C35.4044 173.4 35.478 173.373 35.5387 173.325C35.4824 173.417 35.439 173.51 35.4217 173.608C35.4737 173.621 35.5214 173.621 35.5691 173.608C35.5951 173.603 35.6211 173.594 35.6471 173.59C36.0112 173.457 36.2019 172.816 36.3666 172.931C36.2236 173.174 35.8205 173.325 35.9505 173.643C35.9895 173.652 36.0242 173.652 36.0589 173.656C36.1196 173.643 36.1846 173.625 36.2496 173.612C36.2409 173.625 36.2366 173.643 36.2323 173.661C36.332 173.647 36.4186 173.612 36.488 173.559C36.5704 173.537 36.6527 173.519 36.7394 173.501C36.9041 173.285 37.0255 173.037 37.1295 173.112C37.0472 173.249 36.8781 173.36 36.7741 173.493C37.0472 173.431 37.3332 173.369 37.6193 173.311C37.6713 173.249 37.7277 173.192 37.7927 173.157L37.5326 173.073C37.6757 172.944 37.7754 172.825 37.862 172.71C38.3172 172.728 38.5382 171.905 38.7246 172.034C38.5816 172.272 38.1785 172.427 38.3085 172.745C38.963 172.905 39.041 172.281 39.3878 172.073L39.1234 171.989C39.4962 171.662 39.6175 171.375 39.6999 171.132C39.5699 171.18 39.4442 171.224 39.3141 171.273L39.3141 171.282ZM36.8694 172.931L36.7741 172.9C36.8131 172.865 36.8434 172.829 36.8781 172.794C36.8781 172.834 36.8781 172.874 36.8954 172.913C36.8868 172.922 36.8781 172.927 36.8694 172.931ZM37.2205 172.334C37.2422 172.294 37.2639 172.255 37.2769 172.219C37.2899 172.219 37.2986 172.215 37.3116 172.219C37.2856 172.259 37.2552 172.294 37.2205 172.33L37.2205 172.334Z" fill="#BED73D"/>
<path d="M40.6448 172.105C40.5147 172.149 40.389 172.197 40.259 172.246C40.2763 172.268 40.285 172.295 40.3067 172.312C39.9209 172.467 39.4441 172.728 39.1104 173.046C39.4701 172.989 39.8125 172.94 40.1116 172.909C40.4454 172.6 40.5624 172.33 40.6404 172.1L40.6448 172.105Z" fill="#BED73D"/>
<path d="M12.4202 207.873C12.4202 207.873 12.3928 207.9 12.3882 207.904C12.3928 207.9 12.4065 207.886 12.4202 207.873Z" fill="#BED73D"/>
<path d="M36.7222 173.833C36.6659 173.696 36.7092 173.595 36.7829 173.497C36.7699 173.497 36.7569 173.502 36.7439 173.506C36.6009 173.692 36.4275 173.855 36.1891 173.789C36.1977 173.745 36.2194 173.705 36.2324 173.665C36.1804 173.674 36.1197 173.67 36.059 173.665C35.8943 173.705 35.7296 173.745 35.5822 173.78L35.916 173.515C35.8076 173.555 35.7209 173.577 35.6516 173.599C35.6256 173.608 35.5996 173.612 35.5736 173.617C35.2918 173.674 35.3005 173.568 35.3265 173.418C35.2355 173.435 35.1401 173.44 35.0144 173.409C34.9407 173.223 35.0404 173.095 35.1705 172.976C35.1574 172.971 35.1444 172.967 35.1314 172.962C34.9754 173.188 34.7803 173.449 34.4856 173.373C34.5073 173.259 34.568 173.148 34.6373 173.037C33.7227 173.338 32.8298 172.472 32.2706 172.604C31.148 173.082 32.8775 172.949 32.2533 173.449C31.6595 173.714 31.8459 173.254 31.4124 173.289L31.356 173.962C30.7189 174.351 31.109 173.427 30.8142 173.82C30.1337 173.709 30.8966 173.519 30.8576 173.006C30.7752 173.192 30.2681 173.683 29.917 173.572C29.8563 173.413 30.5758 173.055 30.0774 173.201C28.4909 174.298 27.7454 173.802 26.3106 174.771L26.2933 174.426C26.1589 174.58 26.0982 174.775 25.8815 174.775L25.8685 174.545C25.6518 174.669 24.3558 175.88 23.3978 176.482L23.6666 175.832L23.0814 176.782L22.8603 176.261C22.8993 176.933 21.677 177.264 21.0615 178.042L20.8578 177.764L20.537 178.294L20.537 177.98C20.1122 178.378 19.9605 179.263 19.2757 179.475C19.6701 179.28 19.397 178.794 19.2106 178.635C18.8856 179.165 18.5778 179.692 18.3091 180.262C18.1183 180.112 17.5202 180.602 17.7152 180.023L17.5072 180.801L17.3555 180.563C14.9845 182.159 15.0321 185.276 12.5354 186.744L12.4834 186.642C12.3404 187.199 12.1973 187.747 12.1063 188.331C11.8983 188.539 11.4518 188.349 11.053 188.667C11.6078 188.746 10.6196 189.494 10.845 189.98C10.4679 190.197 10.5546 189.799 10.4375 189.604C9.21518 190.714 9.42757 192.253 8.39162 193.654C9.71365 192.376 9.60095 192.341 10.3552 191.426C10.0344 192.783 9.4059 192.721 8.99845 194.154L9.0418 193.42C8.05352 193.835 8.60401 195.692 7.72843 195.595C7.49003 196.471 8.14455 197.492 7.70242 198.473L7.10859 197.823L6.83118 198.792L7.32098 198.929C7.26463 199.247 7.12593 199.38 6.99589 199.393C7.42501 200.189 6.96988 201.078 7.26463 202.059L6.99589 202.134C7.05224 202.214 7.10425 202.32 7.1476 202.346C6.64913 202.47 6.7965 203.262 6.38472 203.271C6.28502 202.948 6.12031 202.196 6.39772 202.289C5.98594 201.445 5.99461 203.222 6.02062 203.761C6.28503 203.204 6.31537 203.943 6.40206 204.256C6.33271 204.305 6.30236 204.199 6.20267 204.146C6.04663 204.632 6.28503 204.968 6.44974 205.251L6.55377 205.459L6.57977 205.561L6.57977 205.587L6.57977 205.601C6.65346 206.082 6.80084 205.817 6.81817 205.839C6.71848 205.742 8.50431 208.806 9.26719 208.262L9.27586 208.262L9.31921 208.262C9.43624 208.271 9.56194 208.359 9.70065 208.585L9.84369 208.103L10.4982 208.457C10.5546 207.488 11.4258 208.364 11.5255 207.462C12.2797 207.435 11.4258 208.015 11.6945 207.913C11.8679 207.962 12.076 207.939 12.2927 207.891L12.3751 207.873L12.3837 207.873C12.6135 207.639 13.0209 209.518 14.6854 205.521L14.6854 205.494L14.7244 205.344L14.577 205.181L14.5467 204.99C14.434 204.588 14.3473 204.234 14.577 204.137C14.2996 203.549 14.4817 202.939 14.395 202.444L14.8067 202.457C14.7504 202.196 14.5944 201.873 14.7071 201.639L14.8588 201.75C14.7634 200.786 14.8458 200.021 15.0668 199.238C15.3182 199.349 15.4829 199.397 15.4613 199.853C16.0551 199.26 15.3702 197.815 15.9597 196.802L16.1201 196.952L16.0248 196.245C16.1071 196.413 16.2632 196.387 16.4235 196.448C16.8266 195.454 17.3858 194.286 16.9177 193.407C16.9697 193.765 17.5592 193.185 17.5852 193.906C17.5202 192.646 18.4088 191.523 18.8986 190.396L18.8639 190.396L18.9852 189.861L19.0676 189.869L18.9679 190.241C19.202 189.803 19.3754 189.361 19.41 188.901C19.5704 188.919 19.9389 189.052 20.2206 188.906C19.8088 188.552 21.4169 188.074 21.4039 187.279C21.56 187.314 21.3086 187.535 21.573 187.5C22.4529 186.319 23.6319 184.25 25.331 183.489C24.8369 182.605 26.1849 181.849 26.8004 180.952C27.3206 181.319 26.484 181.513 26.51 182.026C26.9045 181.615 26.9955 182.574 27.559 181.65C27.5763 181.761 27.6413 181.801 27.468 181.911C27.9448 181.655 26.9912 181.354 27.7931 181.053L28.0315 181.389L28.1918 180.638C29.8303 180.045 31.0353 179.077 32.6087 178.98C32.6607 178.86 32.5567 178.683 32.34 178.648C32.9642 178.383 33.5493 177.503 34.4336 177.698L34.2732 177.923C35.3395 177.936 35.4045 177.335 36.2064 176.906C36.2237 177.056 36.0417 177.22 36.0157 177.401L37.9749 176.296L37.7105 176.521L38.1396 176.455L38.0703 176.221L37.9966 176.283C37.9966 176.177 37.9489 176.097 37.9055 176.022C37.9055 176.026 37.9056 176.031 37.9142 176.035L38.0139 175.982C38.0833 175.973 38.1526 175.96 38.222 175.951C38.7421 175.973 39.7001 176.137 40.0858 175.81C40.3676 175.796 41.3689 175.752 41.7416 175.381C41.915 175.765 42.058 175.925 42.0407 175.142C42.1144 175.248 42.1968 175.345 42.2964 175.412C42.6172 174.97 41.8977 174.43 42.0754 174.267C42.2704 174.466 42.3225 174.899 42.6562 174.841C42.9596 174.231 42.3875 174.01 42.2704 173.617L42.1274 173.855C41.9367 173.48 41.7373 173.294 41.5509 173.161C41.4209 172.993 41.3082 173.002 41.2388 173.135L41.1738 172.94C41.0481 172.843 40.632 172.838 40.0728 172.896C40.0555 172.914 40.0425 172.927 40.0251 172.945L40.2896 173.029C39.9471 173.236 39.8648 173.86 39.2102 173.701C39.0802 173.378 39.4833 173.228 39.6264 172.989C39.4313 172.852 39.2016 173.802 38.6814 173.661C38.7248 173.44 38.8722 173.228 39.0715 173.033C38.5991 173.108 38.0919 173.205 37.5848 173.307C37.3637 173.568 37.2077 173.948 36.6789 173.82L36.7222 173.833ZM12.9472 205.486C11.8506 206.648 12.4574 205.751 12.1193 205.937C11.8896 205.786 11.6512 205.578 11.4518 205.693C11.4301 205.632 11.4128 205.578 11.3998 205.521L11.4865 205.521L12.4097 205.521C12.3751 205.645 12.3231 205.738 12.2494 205.764C12.284 205.813 12.2797 205.91 12.6785 205.486L12.7132 205.198C12.8865 205.282 12.9472 205.375 12.9472 205.481L12.9472 205.486ZM12.4141 205.521C12.4141 205.216 12.4271 204.915 12.4401 204.61L12.4488 204.61C12.4878 204.845 12.4878 205.256 12.4141 205.525L12.4141 205.521ZM9.2932 204.19L9.28453 204.181L9.2932 204.172L9.2932 204.168C9.2932 204.168 9.2932 204.186 9.2932 204.195L9.2932 204.19ZM14.3646 203.872L14.3256 203.996L14.0872 203.505L14.369 203.872L14.3646 203.872ZM9.32354 203.757L9.29754 203.757L9.28887 203.757L9.28453 203.757C9.23685 203.708 9.25419 203.726 9.32354 203.797C9.32354 203.845 9.31487 203.898 9.31487 203.947C9.24119 203.748 9.11982 203.567 8.91176 203.425C9.10682 203.372 9.23252 203.385 9.35822 203.372C9.34522 203.5 9.34088 203.629 9.33221 203.757L9.32354 203.757ZM7.96683 197.112C8.1142 196.851 8.29192 197.328 8.46097 197.487C8.53032 197.359 8.52599 197.258 8.51732 197.045C9.1675 197.372 8.14455 197.479 8.3396 198.155C8.01451 198.053 8.14021 197.381 7.96683 197.107L7.96683 197.112ZM9.33655 200.896C9.01579 200.865 9.08514 200.795 9.12415 200.507C9.10682 200.432 9.10248 200.344 9.13716 200.237L9.12415 200.507C9.20651 200.856 9.71799 200.914 9.34955 201.409C9.24119 201.246 9.44491 201.055 9.33655 200.896ZM9.70932 200.746L9.70932 200.768C9.70932 200.768 9.70932 200.79 9.70065 200.799L9.70932 200.746ZM14.642 201.206C14.8718 201.891 14.0309 201.352 14.2563 201.648C13.8661 201.325 14.0482 200.649 14.0265 200.162C14.4123 200.123 14.7677 200.675 14.642 201.206ZM7.34265 199.322L7.29497 199.588C7.26463 199.481 7.29497 199.397 7.34265 199.322L7.41634 198.902C7.71543 199.022 7.46402 199.123 7.34265 199.322ZM10.0517 199.247C10.0517 199.07 9.99973 198.911 9.81335 198.809C9.97806 198.783 10.0778 198.818 10.1471 198.88C10.1124 199.004 10.0864 199.123 10.0517 199.247ZM15.2662 198.098L14.8197 198.858C14.3039 198.239 14.9585 198.341 15.2662 198.098L15.4136 197.854C15.3962 197.965 15.3399 198.04 15.2662 198.098ZM14.7504 198.217C14.382 197.558 14.0872 197.408 14.0872 196.652L14.5683 196.643C14.4166 196.864 14.0785 196.652 14.1826 197.209C14.4947 197.227 15.1578 197.633 14.7504 198.221L14.7504 198.217ZM15.4483 197.284C15.2055 197.151 15.5176 196.718 15.6737 196.506L15.4483 197.284ZM15.2012 196.603C15.1232 196.709 15.1232 196.802 15.1275 196.983C15.0408 196.453 15.0365 195.511 14.7201 195.471C15.2705 195.657 15.2792 196.4 15.2012 196.603ZM11.014 193.915L11.0834 193.331L10.988 193.437L10.78 193.177C11.4431 193.676 11.1744 192.549 11.2958 192.235C11.2437 192.642 11.7119 193.451 11.014 193.919L11.014 193.915ZM15.5089 193.641C15.3139 193.61 15.2359 193.411 15.2229 193.194L15.2229 193.19L15.2229 193.199C15.2835 193.358 15.5523 193.163 15.5089 193.645L15.5089 193.641ZM16.4755 193.455C16.3889 193.552 16.8483 192.779 17.0304 192.487C17.0824 192.765 16.7876 193.521 16.4755 193.455ZM17.5592 192.575C17.6545 192.593 17.7152 192.668 17.6155 192.92L17.5592 192.575C17.3858 192.544 17.052 192.717 17.5332 192.288L17.5592 192.575ZM12.8779 192.164C12.8562 192.208 12.8345 192.253 12.8085 192.297C12.8085 192.235 12.8129 192.169 12.8215 192.107L12.8779 192.169L12.8779 192.164ZM13.2593 190.197L13.0556 189.613L13.4024 189.122L13.2593 190.192L13.2593 190.197ZM13.398 186.982C13.6711 187.623 13.0643 187.407 13.0079 187.911C12.9819 187.588 12.7218 187.04 13.398 186.982ZM18.8249 187.628C18.7295 187.756 18.4218 188.163 18.1964 188.154C18.3958 187.88 18.6038 187.61 18.8119 187.34C18.8119 187.438 18.8119 187.531 18.8249 187.628ZM14.3776 187.615L14.6204 187.34C14.2086 187.606 14.5207 186.549 13.9702 187.009C13.7491 187.195 13.9788 186.421 14.2866 186.235C14.473 186.447 14.0005 186.907 14.408 186.934L14.629 186.752C14.2996 187.022 15.0278 187.363 14.3776 187.61L14.3776 187.615ZM21.5426 186.098C20.7494 184.878 21.0398 186.757 20.3506 186.81C20.3376 186.615 20.5977 186.381 20.5067 186.178C20.3116 186.209 20.0472 186.43 19.9649 186.664C20.0082 186.766 20.0169 186.872 19.9649 186.929C19.9215 186.845 19.9345 186.757 19.9649 186.664C19.9215 186.567 19.8478 186.483 19.7611 186.443L19.5314 186.483C19.6094 186.412 19.6874 186.412 19.7611 186.443C20.2639 186.27 21.1092 185.519 21.4603 185.028C21.807 185.015 21.5513 185.811 21.5426 186.098ZM16.6489 184.9C16.6403 184.957 16.6056 185.024 16.5276 185.112L16.6489 184.9C16.6749 184.741 16.4755 184.688 16.3802 184.604L16.1808 184.674L16.4409 184.219L16.3325 184.498C16.5059 184.714 16.9567 184.201 16.9523 183.998C17.1864 184.276 16.8613 184.59 16.6489 184.895L16.6489 184.9ZM24.5205 183.843C24.5075 183.547 24.2734 183.94 24.1564 183.989L24.5855 183.573C24.7372 183.631 24.5638 183.759 24.5205 183.839L24.5205 183.843ZM21.3866 184.626C21.4039 184.537 21.4299 184.44 21.4516 184.347C21.794 184.002 22.1495 183.666 22.5092 183.339C22.2665 184.038 22.0498 184.741 21.3909 184.626L21.3866 184.626ZM20.0515 182.742C19.8868 182.901 19.7221 183.061 19.5574 183.224C19.6138 183.021 19.5704 182.826 19.4534 182.857C19.7785 182.857 19.9085 182.658 20.0472 182.742L20.0515 182.742ZM24.1044 182.512L23.8746 182.428L24.3254 182.296L24.1044 182.508L24.1044 182.512ZM16.1895 182.274L15.9597 182.848L15.8774 182.835L16.1114 182.26L16.1895 182.274ZM32.6998 174.541L32.9208 174.359C33.0509 174.39 33.1029 174.448 33.1072 174.514C32.9598 174.567 32.8168 174.625 32.6738 174.673C32.6738 174.634 32.6738 174.589 32.6998 174.541ZM26.8611 180.032C27.0215 179.93 27.1819 179.833 27.3423 179.736C27.3336 179.842 27.3293 179.948 27.3163 180.045C27.7064 179.988 27.8104 179.634 27.9708 179.369C28.6426 178.989 29.3275 178.635 30.0297 178.308C28.9287 179.112 27.8451 179.939 26.7007 180.47C26.8351 180.187 26.8785 180.067 26.8611 180.028L26.8611 180.032ZM29.1628 179.833L28.7467 179.577L29.2018 179.307L29.1628 179.829L29.1628 179.833ZM31.7115 178.241L31.9716 178.325C31.6291 178.533 31.5468 179.152 30.8966 178.993C30.7665 178.675 31.1697 178.52 31.3127 178.281C31.1133 178.144 30.8836 179.095 30.3634 178.953C30.4848 178.356 31.3344 177.835 31.9499 177.591C31.9282 177.574 31.9195 177.543 31.9022 177.521C32.0322 177.472 32.1579 177.428 32.2836 177.379C32.2013 177.618 32.0843 177.905 31.7071 178.237L31.7115 178.241ZM34.8367 177.061C34.8714 176.981 34.9321 176.897 35.0057 176.827C34.9754 176.928 34.9104 177.003 34.8367 177.061ZM36.2107 176.835C36.1024 176.862 36.0027 176.866 35.916 176.853C35.9853 176.827 36.072 176.809 36.2021 176.818C36.2064 176.827 36.2107 176.831 36.2107 176.835ZM34.3599 176.924C34.3209 176.946 34.2819 176.964 34.2429 176.986L34.3686 176.959C34.3946 177.087 34.4769 177.185 34.7197 177.14C34.3295 177.322 33.688 177.229 33.5103 177.432C33.4583 177.255 33.4886 177.132 33.5233 177.039C33.7704 176.995 34.0088 176.937 34.1605 176.773C34.2255 176.756 34.2949 176.738 34.3599 176.72C34.3599 176.782 34.3599 176.853 34.3642 176.919L34.3599 176.924ZM25.2227 176.305C25.0319 176.526 25.0493 176.645 24.5638 176.645C24.7372 176.393 25.0666 176.221 25.2227 176.305ZM24.9843 176.084C25.383 175.739 24.9799 175.213 25.6258 175.204C25.2877 175.474 25.7645 176.035 24.9843 176.084Z" fill="#BED73D"/>
<path d="M12.1626 205.773C12.1973 205.782 12.2276 205.773 12.2536 205.769C12.2406 205.747 12.2233 205.738 12.1626 205.773Z" fill="#BED73D"/>
<path d="M18.9721 190.413L19.0025 190.253L18.9331 190.409L18.9721 190.413Z" fill="#BED73D"/>
<path d="M42.9898 187.244L42.8857 186.629C42.799 186.987 42.9551 186.921 42.9898 187.244Z" fill="#00AEE7"/>
<path d="M42.6862 187.199L42.6862 187.018L42.5692 187.053C42.7643 186.978 42.4738 187.544 42.3481 187.518L42.4348 187.518C42.9376 187.04 42.5735 187.332 42.6862 187.204L42.6862 187.199Z" fill="#00AEE7"/>
<path d="M16.2544 205.963L16.3541 205.91C16.3151 205.834 16.2761 205.794 16.2544 205.963Z" fill="#00AEE7"/>
<path d="M16.4191 203.85L16.2544 203.549C16.2674 203.761 16.3454 203.872 16.4191 203.85Z" fill="#00AEE7"/>
<path d="M22.4268 206.525L22.4614 206.839C22.4918 206.711 22.4701 206.596 22.4268 206.525Z" fill="#00AEE7"/>
<path d="M21.1782 209.261L21.2216 209.305L21.2823 209.368L21.2562 209.265L21.2519 209.239L21.1782 209.261Z" fill="#00AEE7"/>
<path d="M37.9965 183.79C37.1296 184.087 36.4794 183.879 36.0069 184.003C35.088 184.29 36.4143 184.166 35.8725 184.445C35.3827 184.604 35.5908 184.356 35.257 184.387L35.1183 184.745C34.5635 184.94 35.01 184.467 34.7239 184.666C34.2167 184.599 34.8366 184.511 34.8843 184.25C34.7932 184.352 34.3208 184.573 34.0824 184.542C34.0564 184.44 34.6632 184.268 34.2601 184.339C32.9207 185.024 32.8644 185.435 31.4079 185.612L31.4513 185.417C31.3299 185.515 31.2519 185.625 31.0959 185.647L31.1262 185.519C30.9615 185.63 29.7912 186.341 29.0283 186.81L29.3274 186.408L28.7552 187.018L28.6902 186.735C28.6035 187.133 27.5762 186.399 27.0301 186.943L26.9347 186.797L26.6269 187.155L26.6833 186.965C26.3235 187.257 26.0678 187.814 25.5693 188.017C25.8684 187.854 25.7687 187.588 25.669 187.513C25.3526 187.862 25.0752 188.251 24.8064 188.645C24.7067 188.574 24.2299 188.963 24.451 188.574L24.1866 189.096L24.1259 188.963C21.3648 190.44 21.9413 192.394 20.2508 193.796L20.2291 193.734L19.8434 194.994C19.696 195.175 19.4576 195.109 19.1845 195.392C19.4966 195.361 18.8334 196.033 18.9505 196.365C18.7294 196.586 18.8031 196.281 18.7467 196.157C18.0012 197.16 17.9275 198.204 17.3467 199.415C18.1226 198.283 18.2829 197.837 18.8118 197.081C18.4737 198.093 17.9665 198.597 17.6414 199.703L17.7151 199.154C17.1603 199.592 17.299 200.879 16.8872 200.932C16.7745 201.63 17.0433 202.302 16.7658 203.089L16.4884 202.665L16.3237 203.417L16.5751 203.474C16.5535 203.722 16.4841 203.837 16.4191 203.859C16.6315 204.425 16.3584 205.119 16.4841 205.848L16.3541 205.919C16.3844 205.977 16.4147 206.052 16.4364 206.074C16.2067 206.193 16.263 206.777 16.055 206.795C16.016 206.56 15.9293 206.012 16.0636 206.065C15.8426 205.455 15.8859 206.777 15.8643 207.161C16.0073 206.75 16.0073 207.29 16.0463 207.524C16.0116 207.559 15.9986 207.484 15.9509 207.44C15.8643 207.803 15.977 208.05 16.055 208.262L16.1027 208.417L16.1113 208.457L16.1113 208.475C16.1373 208.501 16.1937 208.506 16.198 208.563C16.3281 210.363 16.7875 209.164 17.4637 209.85L17.4637 209.845L17.4767 209.845L17.5461 209.845C17.6414 209.845 17.7411 209.889 17.8538 210.004L17.9665 209.761L18.4953 209.938C18.543 209.452 19.2409 209.889 19.3232 209.438C19.9257 209.425 19.2452 209.717 19.4576 209.664C20.0471 210.137 20.5802 208.483 21.2521 209.24L21.2954 209.226C21.2954 209.226 21.2781 209.27 21.2564 209.27C21.4732 209.279 22.8385 210.053 22.2924 208.47L22.2924 208.461L22.2881 208.448L22.2881 208.426L22.2664 208.338L22.2447 208.156L22.2447 207.794C22.2447 207.555 22.2621 207.329 22.223 207.126L22.4268 207.113C22.3878 206.901 22.3011 206.644 22.3444 206.445L22.4268 206.525C22.4008 205.747 22.5048 205.123 22.5871 204.46C22.7128 204.526 22.7952 204.548 22.7909 204.924C23.0379 204.363 22.8992 203.302 23.194 202.417L23.2677 202.515L23.285 201.975C23.311 202.095 23.3977 202.055 23.4801 202.086C23.7921 201.255 24.1909 200.264 24.0522 199.676C24.0392 199.941 24.4423 199.42 24.3686 199.959C24.4683 199.009 24.2516 197.439 25.0752 196.966L25.3699 196.785L25.7297 196.785L25.7774 196.776L25.6603 197.054C25.8684 196.714 26.0418 196.373 26.1328 196.042C26.2282 196.029 26.4319 196.068 26.6269 195.922C26.4102 195.723 27.5545 195.211 27.6629 194.645C27.7539 194.645 27.5632 194.835 27.7322 194.773C28.3044 192.96 29.9602 191.656 31.0222 191.068C31.5943 191.753 31.9671 190.674 32.5826 190.108C32.899 190.29 32.2315 190.431 32.1665 190.758C32.5219 190.467 32.4092 191.019 33.0117 190.458C33.0074 190.502 33.0247 190.524 32.9814 190.559C33.1808 190.409 32.717 190.303 33.3065 190.104L33.4235 190.281L33.6879 189.848C35.0143 189.392 36.1196 188.848 37.3679 188.778C37.4286 188.716 37.3723 188.623 37.2076 188.61C37.7407 188.45 38.3346 188.026 39.0064 188.132L38.846 188.247C39.882 188.256 39.843 187.836 41.074 187.699C40.7922 187.694 40.1681 187.876 40.0857 187.637C40.1811 187.478 40.8226 187.464 41.035 187.579L40.983 187.447C41.282 187.433 41.9106 187.354 42.214 187.354L42.448 187.181C42.448 187.181 42.4567 187.181 42.461 187.168L42.5477 187.044L43.3496 186.735C43.5013 186.35 42.5477 186.041 42.279 185.63C42.344 185.638 42.3527 185.4 42.37 185.386C42.2963 185.36 42.2877 185.585 42.2443 185.568C42.2356 185.559 42.2313 185.546 42.2226 185.532L42.201 185.289C42.305 184.98 41.8542 185.046 41.5811 184.874L41.5811 184.865C41.7718 184.586 41.1954 184.582 41.256 184.409C41.2127 184.427 41.1997 184.356 41.1563 184.383C41.1563 184.387 41.1347 184.48 41.139 184.484C41.1303 184.476 41.1217 184.484 41.1173 184.476C41.061 184.511 41.0046 184.542 40.9526 184.573C40.944 184.586 40.9353 184.595 40.9309 184.608L40.9309 184.586C40.9309 184.586 40.944 184.577 40.9526 184.573C41.009 184.484 41.0653 184.436 41.1173 184.476C41.1173 184.476 41.1217 184.476 41.126 184.476C41.0783 184.414 41.009 184.383 40.9309 184.374L40.9309 184.224C40.7836 184.224 40.6362 184.232 40.4888 184.232C40.4888 184.179 40.4888 184.122 40.4888 184.069C39.9904 184.179 39.856 183.605 39.6132 183.454C39.5266 183.437 39.5959 183.552 39.6783 183.689C39.5439 183.702 39.4139 183.711 39.2795 183.724C39.2968 183.72 39.3055 183.711 39.3228 183.706C39.3012 183.706 39.2838 183.72 39.2621 183.728C39.0151 183.755 38.768 183.79 38.5209 183.821L38.7853 183.697C37.7364 183.941 38.7897 183.835 37.9921 183.795L37.9965 183.79ZM20.4069 208.47C20.1208 208.501 19.8607 208.581 19.813 208.594L20.2725 208.616C20.0124 208.979 19.566 208.439 19.2452 208.559C19.2235 208.523 19.2279 208.501 19.2149 208.475L20.4069 208.475L20.4069 208.47ZM17.7671 208.47L18.1009 208.47C17.9535 208.506 17.8451 208.501 17.7671 208.47ZM22.1884 208.302L22.1624 208.408L22.0497 208.015L22.184 208.302L22.1884 208.302ZM17.4767 207.763C17.4767 207.789 17.4767 207.811 17.4767 207.834C17.4074 207.741 17.429 207.741 17.4767 207.763ZM17.4897 207.245C17.4594 207.095 17.4074 206.949 17.312 206.834C17.403 206.79 17.4637 206.795 17.5244 206.786C17.5157 206.94 17.4984 207.091 17.494 207.245L17.4897 207.245ZM22.3141 206.096C22.4051 206.631 21.989 206.26 22.106 206.485C21.9023 206.251 22.0367 205.698 22.041 205.305C22.2447 205.238 22.4008 205.654 22.3141 206.096ZM27.3638 187.955C27.0344 188.384 27.2641 188.004 27.3812 188.229C27.1774 187.995 27.3118 187.831 27.3161 187.442C27.5155 187.372 27.988 188.274 27.3638 187.955ZM31.9541 185.373C31.5163 185.064 31.9021 185.276 31.6897 185.409C31.9064 185.187 32.0755 185.311 32.4569 185.294C32.5349 185.493 31.6854 186.032 31.9541 185.373ZM26.0938 187.566C25.5866 187.739 25.9854 187.553 25.9594 187.805C25.9161 187.495 26.1198 187.433 26.3322 187.111C26.5359 187.164 26.4449 188.181 26.0938 187.566ZM40.077 184.277C39.7476 184.706 39.9773 184.325 40.0987 184.551C39.895 184.316 40.0294 183.764 40.0337 183.37C40.2331 183.304 40.4585 184.047 40.077 184.277ZM40.8659 184.511C40.5365 184.94 40.7662 184.56 40.8833 184.785C40.5842 184.436 41.3037 184.228 41.3124 183.326C40.5235 183.751 41.243 184.281 40.8616 184.511L40.8659 184.511ZM17.5591 205.216C17.5071 205.097 17.6198 204.929 17.5721 204.814C17.4074 204.814 17.4464 204.752 17.4767 204.526C17.5071 204.792 17.7671 204.8 17.5591 205.221L17.5591 205.216ZM16.9696 202.033C17.0606 201.821 17.1299 202.161 17.208 202.263C17.2513 202.157 17.2556 202.081 17.26 201.922C17.5807 202.095 17.0389 202.289 17.1083 202.78C16.9436 202.736 17.0433 202.218 16.9696 202.033ZM17.8451 203.125C17.9362 203.081 17.9925 203.098 18.0229 203.156C17.9969 203.262 17.9708 203.368 17.9492 203.479C17.9535 203.324 17.9362 203.187 17.8451 203.125ZM16.6185 203.434C16.7702 203.501 16.6445 203.602 16.5881 203.761L16.6185 203.434ZM22.4614 204.182C22.2317 203.744 22.5698 203.757 22.7519 203.527L22.4614 204.182ZM22.4701 203.677C22.3141 203.196 22.1927 203.12 22.21 202.524L22.4571 202.457C22.3704 202.652 22.21 202.524 22.2404 202.948C22.4051 202.926 22.7258 203.173 22.4701 203.677ZM22.8906 202.86C22.7692 202.784 22.9296 202.4 23.0466 202.218L22.8906 202.86ZM22.7865 202.347C22.7345 202.435 22.7389 202.515 22.7345 202.661C22.6912 202.294 22.7822 201.701 22.6825 201.564C22.8992 201.697 22.8385 202.196 22.7822 202.347L22.7865 202.347ZM23.22 200.034C23.116 200.034 23.0943 199.897 23.1116 199.738C23.1246 199.849 23.298 199.667 23.22 200.034ZM23.7835 199.769C23.7228 199.853 24.0696 199.208 24.2083 198.964C24.2083 199.163 23.9525 199.773 23.7835 199.769ZM24.4943 198.955C24.5464 198.955 24.5724 199 24.4857 199.208L24.4943 198.955C24.399 198.955 24.1909 199.137 24.5117 198.743L24.4943 198.955ZM18.7424 199.221L18.8031 198.765L18.7467 198.863L18.647 198.695C18.9635 198.964 18.9028 198.164 19.0111 197.925C18.9375 198.226 19.1152 198.752 18.7381 199.221L18.7424 199.221ZM19.8997 197.607C19.8997 197.607 19.8867 197.634 19.878 197.647C19.8824 197.629 19.8867 197.611 19.8867 197.594L19.8954 197.607L19.8997 197.607ZM20.3028 196.117L20.2508 195.737L20.5152 195.339L20.3028 196.121L20.3028 196.117ZM25.9508 195.228C25.8727 195.334 25.6213 195.675 25.487 195.688C25.6603 195.458 25.8381 195.228 26.0201 195.007C25.9984 195.082 25.9681 195.158 25.9551 195.228L25.9508 195.228ZM21.0787 193.747C20.914 193.906 21.6205 192.934 21.8329 192.761C21.9196 192.876 21.1091 193.672 21.3518 193.628L21.5122 193.473C21.2738 193.712 21.6726 193.831 21.2391 194.096L21.4255 193.871C21.1394 194.114 21.4732 193.345 21.0744 193.743L21.0787 193.747ZM20.732 193.813C20.8143 194.216 20.4979 194.172 20.4199 194.543C20.4372 194.318 20.3245 193.964 20.732 193.813ZM33.0377 184.971C33.1201 185.373 32.8037 185.333 32.7256 185.7C32.743 185.475 32.6303 185.121 33.0377 184.971ZM27.949 193.84C27.6499 193.137 27.4895 194.322 27.0604 194.477C27.0821 194.348 27.2858 194.149 27.2598 194.026C27.1341 194.074 26.9304 194.26 26.8393 194.432C26.8523 194.494 26.8393 194.565 26.796 194.614C26.783 194.561 26.8047 194.499 26.8393 194.432L26.7483 194.313L26.6009 194.371C26.6616 194.313 26.7093 194.3 26.7483 194.313C27.0777 194.11 27.7539 193.504 28.1007 193.168C28.3348 193.115 28.0183 193.663 27.949 193.844L27.949 193.84ZM27.936 192.969L27.923 192.969C27.923 192.969 27.936 192.96 27.9403 192.956C27.9403 192.96 27.9403 192.965 27.9403 192.969L27.936 192.969ZM28.1224 192.912C28.1527 192.845 28.1874 192.766 28.2177 192.699C28.4995 192.443 28.7942 192.195 29.089 191.957C28.7899 192.412 28.5168 192.881 28.1224 192.912ZM22.7952 192.018C22.8342 191.908 22.7172 191.903 22.6695 191.864L22.5308 191.939L22.6435 191.05L22.6565 191.802C22.7345 191.921 23.428 191.165 23.4541 191.037C23.5624 191.187 22.9729 191.789 22.7952 192.023L22.7952 192.018ZM30.3416 191.262L30.1986 191.24L30.5324 191.108L30.3373 191.262L30.3416 191.262ZM22.8299 190.639L23.0639 190.228L23.1116 190.228L22.8776 190.635L22.8299 190.635L22.8299 190.639ZM25.1315 190.36C25.2052 190.219 25.2182 190.1 25.1315 190.135C25.3309 190.095 25.4479 189.971 25.526 189.98C25.3916 190.104 25.2616 190.232 25.1272 190.36L25.1315 190.36ZM32.769 189.582C32.912 189.512 33.0594 189.441 33.2068 189.37C33.1764 189.436 33.1504 189.498 33.1201 189.565C33.4235 189.512 33.5666 189.295 33.7313 189.127C34.8973 188.614 34.0824 188.923 35.4824 188.455C34.5028 188.928 33.5362 189.458 32.5869 189.839C32.7733 189.635 32.8037 189.582 32.769 189.582ZM34.5288 189.326L34.2601 189.202L34.6545 189.038L34.5288 189.326ZM36.7568 188.393L36.9475 188.433C36.6484 188.548 36.4794 188.875 35.9982 188.8C35.9549 188.632 36.2886 188.548 36.4404 188.419C36.3147 188.358 35.9679 188.835 35.5995 188.804C35.7858 188.45 36.5314 188.194 37.0472 188.052C37.0299 188.044 37.0299 188.022 37.0169 188.013C37.1252 187.986 37.2336 187.964 37.3419 187.938C37.2422 188.066 37.1079 188.22 36.7568 188.397L36.7568 188.393ZM39.5612 187.677C39.3402 187.991 38.5166 187.831 38.2825 187.973C38.2652 187.849 38.3476 187.778 38.3909 187.725C38.846 187.646 39.3012 187.579 39.765 187.531C39.5135 187.593 39.2275 187.663 38.9284 187.756L39.5612 187.681L39.5612 187.677ZM43.6227 186.421C43.4016 186.735 42.5781 186.576 42.344 186.717C42.3267 186.593 42.8208 186.12 42.8642 186.063C43.328 185.983 43.3713 186.319 43.8221 186.275C43.5707 186.337 43.2846 186.408 42.9855 186.501L43.6184 186.425L43.6227 186.421ZM42.422 187.27C42.201 187.584 41.3774 187.425 41.1433 187.566C41.126 187.442 41.2084 187.372 41.2474 187.319C41.7025 187.243 42.1576 187.173 42.6214 187.124C42.37 187.186 42.422 186.943 42.1229 187.04L42.4177 187.274L42.422 187.27ZM39.947 187.584C40.0034 187.566 40.0294 187.535 40.051 187.504C40.2071 187.491 40.3588 187.478 40.5148 187.469C40.3284 187.509 40.1247 187.535 39.947 187.584ZM30.3547 186.562C30.1813 186.708 30.1639 186.761 29.8128 186.797C29.9819 186.642 30.2593 186.54 30.3547 186.562ZM30.2246 186.452C30.5714 186.226 30.372 185.961 30.8401 185.908C30.5497 186.085 30.7968 186.368 30.2246 186.452ZM36.3753 184.984C36.254 185.011 36.1369 185.037 36.0199 185.068C36.0199 185.05 36.0372 185.028 36.0589 185.006L36.254 184.904C36.358 184.913 36.384 184.944 36.3753 184.984Z" fill="#00AEE7"/>
<path d="M25.6168 197.165L25.6645 197.054L25.5908 197.169L25.6168 197.165Z" fill="#00AEE7"/>
<path d="M41.2905 184.329C41.2905 184.302 41.2775 184.342 41.2559 184.4C41.2905 184.387 41.3252 184.374 41.3556 184.365C41.3339 184.351 41.3165 184.338 41.2905 184.329Z" fill="#00AEE7"/>
<path d="M41.5336 184.4C41.5033 184.347 41.4339 184.347 41.3516 184.365C41.4166 184.405 41.4729 184.449 41.5336 184.4Z" fill="#00AEE7"/>
<path d="M41.7978 184.825C41.9842 184.549 41.7025 184.771 41.6201 184.789C41.6851 184.829 41.7415 184.874 41.7978 184.825Z" fill="#00AEE7"/>
<path d="M29.7827 203.585L29.5789 203.443C29.4446 203.563 29.5789 203.603 29.7827 203.585Z" fill="#ED1C2E"/>
<path d="M28.7073 206.799L28.7115 206.795L28.7031 206.795L28.7073 206.799Z" fill="#ED1C2E"/>
<path d="M36.3622 192.253L36.3318 192.558C36.4662 192.589 36.5182 192.195 36.4402 192.023C36.3752 192.102 36.2321 192.01 36.2625 192.173C36.2885 192.209 36.3145 192.31 36.3622 192.257L36.3622 192.253Z" fill="#ED1C2E"/>
<path d="M38.6553 191.696C38.69 191.625 38.664 191.519 38.6727 191.435C38.1699 191.546 37.5847 191.758 37.342 191.607C37.1556 191.568 37.2249 191.997 37.0429 192.147L36.8782 191.89C36.8132 192.098 36.3927 191.882 36.6354 192.31C36.6614 192.346 36.6744 192.067 36.7915 192.125L36.8175 192.288L37.0212 192.178L37.0039 192.394C37.3636 192.602 37.0646 191.745 37.4763 191.833L37.563 192.235C37.7494 192.2 37.8534 192.103 38.0138 192.156C37.9531 192.191 37.9141 192.231 37.9748 192.28L37.394 192.222C37.381 192.284 37.4113 192.333 37.4677 192.377L37.4243 192.377C37.381 192.571 37.7841 192.677 38.1309 192.66C37.8578 192.713 37.5847 192.779 37.316 192.845C37.3246 192.744 37.316 192.638 37.2856 192.567C37.2206 192.647 37.0776 192.554 37.1079 192.717C37.1339 192.753 37.1599 192.85 37.2033 192.797L37.1946 192.876C36.9085 192.952 36.6268 193.036 36.345 193.124C36.371 193.005 36.3667 192.854 36.3277 192.761C36.2627 192.841 36.1196 192.748 36.15 192.912C36.176 192.947 36.202 193.049 36.2453 192.991L35.5648 193.677C34.7499 193.946 34.2688 193.761 33.7313 194.092C33.7486 194.022 33.753 193.933 33.7139 193.845C33.857 193.575 34.1994 193.548 34.4812 193.619L34.3381 193.46C34.3771 193.053 34.8756 193.469 35.1227 193.177L35.114 193.177C35.2007 193.093 35.114 192.593 35.3437 192.616C35.3741 192.868 35.2657 192.885 35.3611 193.115L35.5388 192.704C35.6428 192.841 35.9072 192.532 35.8899 192.841C35.9376 192.403 36.4317 192.633 36.1283 192.147C35.3221 192.616 34.0044 192.801 33.2978 193.752L33.3498 193.478C33.0724 194.11 32.4526 193.447 32.5176 194.419L32.3356 194.004C32.0495 194.035 32.2705 194.809 31.7937 194.548L31.9194 194.685C31.8588 194.72 31.7937 194.671 31.7374 194.711L31.8024 194.764C31.7591 195.025 31.6637 195.069 31.447 195.078C31.356 194.968 31.4773 194.977 31.5033 194.91C31.3516 194.844 31.4166 195.176 31.3083 195.26C31.1436 195.224 31.1869 195.091 31.1652 195.034C30.9528 195.45 30.5021 195.193 30.6884 195.901C30.7448 196.016 30.9095 196.007 30.8401 196.153C30.8835 196.153 30.9095 196.131 30.9442 196.122C30.8488 196.201 30.7621 196.281 30.6668 196.365C30.6884 196.179 30.6884 195.901 30.411 195.848L30.463 195.993C30.4284 196.356 30.151 195.918 29.9256 195.985C29.7869 196.219 30.0989 196.763 29.8389 196.803C29.7825 196.882 29.6785 196.754 29.6178 196.643C29.4227 196.763 29.6872 197.156 29.6351 197.311C28.7162 196.502 29.4358 198.041 28.6469 197.753C28.5775 197.97 28.3131 198.111 28.3521 198.483C28.2004 198.178 28.1874 198.668 27.949 198.407C28.4691 198.903 27.2381 198.836 27.936 199.402C27.5285 199.544 27.9663 199.438 27.5762 199.663C27.4939 199.606 27.5285 199.544 27.5285 199.513C27.2901 199.553 27.7193 199.937 27.3075 199.831C27.1341 200.021 27.3335 200.026 27.4809 200.158C27.4245 200.247 27.3725 200.34 27.3205 200.432C27.2121 200.432 27.0951 200.384 26.8567 200.371C27.2078 200.614 26.926 200.684 27.0344 200.936C27.0084 200.981 26.9867 201.029 26.9607 201.074C26.9347 200.985 26.9 200.901 26.8134 200.795C26.6356 201.06 26.5489 201.454 26.5793 201.847C26.4406 201.993 26.4232 201.662 26.3192 201.781C26.0765 201.953 26.2975 202.232 26.3192 202.44C26.2975 202.493 26.2759 202.55 26.2542 202.603C26.2499 202.603 26.2455 202.617 26.2412 202.621L26.0375 202.475C26.2802 202.754 25.7687 203.019 25.8294 203.381C25.8814 203.381 25.9248 203.381 25.9638 203.39C25.9638 203.399 25.9594 203.408 25.9551 203.417C24.451 203.373 25.8207 203.328 25.8901 203.607C25.8207 203.824 25.0535 204.434 24.9928 204.655C24.8931 204.575 24.7935 204.491 24.7588 204.39C24.8975 204.65 24.6157 204.925 24.8411 205.172L24.5637 205.026C24.4987 205.172 24.6764 205.278 24.7978 205.38C24.7804 205.464 24.7588 205.548 24.7414 205.628L24.6027 205.574C24.4727 206.154 24.7241 206.428 25.1315 206.967C25.1315 206.967 25.1445 206.967 25.1489 206.967C25.1359 207.095 25.1229 207.219 25.1099 207.347C24.9625 207.321 24.7848 207.277 24.6938 207.431C25.0795 207.918 24.3383 208.51 25.2746 209.213C25.3266 208.784 25.5823 209.173 25.6734 208.886L25.695 208.886L25.7514 209.262C26.0591 209.173 25.734 209.036 25.7514 208.886L25.8858 208.886C25.9638 208.957 26.0201 209.112 26.0115 209.226C26.2412 209.249 26.0591 209.116 26.1502 208.886L26.1718 208.886L26.3192 209.355C27.5459 208.263 28.1571 210.924 28.6079 208.267L28.3174 208.316C28.3174 208.285 28.3174 208.254 28.3218 208.223C28.3218 208.201 28.3261 208.174 28.3218 208.152C28.3391 207.834 28.3651 207.515 28.3998 207.202C28.5298 207.202 28.6729 207.21 28.7769 207.281C28.6859 207.162 28.8116 207.069 28.7249 206.945L28.5602 207.118C28.3174 206.945 28.4908 206.812 28.7206 206.804C28.6382 206.702 28.5558 206.671 28.4778 206.675C28.5038 206.521 28.5168 206.361 28.5472 206.211C28.6425 206.264 28.7379 206.322 28.7682 206.392C28.5125 206.406 28.8029 206.649 28.7292 206.799C28.8332 206.799 28.9546 206.817 29.0456 206.87C29.0456 206.583 28.7942 206.401 29.1237 206.145C28.9676 206.003 28.7769 206.021 28.5949 206.021C28.6079 205.959 28.6252 205.897 28.6425 205.84C28.7249 205.968 28.8549 206.048 29.1107 206.025C29.2667 205.977 29.1237 205.871 29.1193 205.773C28.9329 205.964 28.7986 205.742 28.6859 205.658C28.7075 205.574 28.7249 205.486 28.7509 205.402C28.7682 205.389 28.7986 205.389 28.8636 205.42L29.063 205.658C29.3621 205.159 29.5008 204.412 29.6395 203.766L29.5268 204.023C29.3664 203.921 29.3794 203.784 29.3577 203.656L29.3447 203.656C29.4227 203.47 29.5138 203.293 29.5961 203.116C29.5961 203.147 29.6048 203.178 29.6178 203.191C29.6611 203.156 29.6568 203.09 29.6438 203.019C29.6698 202.957 29.7002 202.895 29.7305 202.833C29.8172 202.904 29.8865 202.966 29.8215 203.019C30.1813 202.997 30.1423 202.67 30.3027 202.497C30.3287 202.303 30.229 202.205 30.1206 202.126C30.151 202.073 30.1856 202.015 30.2203 201.962L30.4197 202.121C30.5281 201.79 30.7058 201.542 30.6884 201.1C30.7361 201.038 30.7795 200.976 30.8228 200.914C30.8358 200.932 30.8401 200.954 30.8445 200.985C30.8662 200.95 30.8618 200.914 30.8531 200.875C30.9398 200.76 30.8098 200.282 30.8965 200.172C30.9355 200.194 31.1869 200.583 31.2216 200.636L31.2216 200.707C31.2953 200.574 31.3256 200.114 31.3776 199.955C31.486 199.831 31.7461 199.906 31.8544 199.791C31.8674 199.8 31.8761 199.818 31.8891 199.827C31.9325 199.787 31.9498 199.729 31.9585 199.672C32.0495 199.575 32.1448 199.482 32.2402 199.385L32.2966 199.438C32.3182 199.385 32.3442 199.323 32.3746 199.261C33.831 199.345 33.3065 198.593 33.7096 198.191C33.753 198.217 33.8136 198.191 33.8743 198.147C33.818 198.138 33.7703 198.138 33.7356 198.169C33.8006 198.102 33.87 198.045 33.948 197.992C33.948 198.027 33.9523 198.049 33.9567 198.076C33.987 198.041 34.0217 198.005 34.0477 197.961C34.0434 197.961 34.0347 197.961 34.0304 197.957C34.039 197.957 34.0434 197.957 34.052 197.957C34.0737 197.93 34.0911 197.903 34.1084 197.877C34.1257 197.868 34.1387 197.855 34.1561 197.846C34.1387 197.926 34.1041 197.97 34.052 197.961C34.052 197.961 34.052 197.961 34.0477 197.965C34.2038 198.041 34.3728 197.952 34.5202 197.793C34.5115 197.758 34.4855 197.718 34.4031 197.696C34.5072 197.629 34.6112 197.567 34.7196 197.506C34.6632 197.612 34.5939 197.709 34.5202 197.793C34.5375 197.868 34.4768 197.93 34.7022 197.815C34.7022 197.895 34.7672 197.979 34.7933 198.058C35.2007 197.744 36.137 197.227 36.4187 197.258C36.5704 197.223 36.1153 197.019 35.9939 196.834C36.0286 196.82 36.0546 196.798 36.0893 196.785L36.2237 196.869C36.2106 196.776 36.293 196.727 36.3537 196.674C36.7611 196.506 36.6701 196.033 37.0992 195.905L37.7191 195.932C37.8664 196.02 37.9011 195.918 37.9228 195.781C38.0355 195.75 38.1439 195.715 38.2566 195.684L38.2782 195.772C38.521 195.728 38.5036 195.962 38.7637 196.179C38.7637 196.179 38.7247 195.976 38.703 196.064C38.6813 196.055 38.6553 196.02 38.6293 195.976C38.664 195.967 38.6987 195.962 38.729 195.958C38.742 196.038 38.7724 196.113 38.8504 196.148C38.9241 196.051 39.0281 195.958 39.1408 195.878C39.2362 195.865 39.3315 195.839 39.4269 195.825C39.4529 195.865 39.5049 195.909 39.6046 195.962C39.5309 196.02 39.6046 195.962 39.726 195.883C39.752 195.839 39.778 195.808 39.804 195.79C39.83 195.79 39.856 195.79 39.882 195.781C39.882 195.781 39.8863 195.781 39.8907 195.781C39.8907 195.781 39.8994 195.79 39.9037 195.794C39.8994 195.786 39.8907 195.794 39.882 195.786C39.8213 195.817 39.7693 195.852 39.7173 195.883C39.5786 196.108 39.4659 196.59 39.5959 196.599C39.6696 196.705 39.895 196.06 39.999 195.772C40.2071 195.75 40.4108 195.724 40.6232 195.715C40.6406 195.741 40.6536 195.777 40.6666 195.803C40.6666 195.764 40.6752 195.741 40.6796 195.715C40.8356 195.71 41.4121 195.887 41.5725 195.887C41.5898 195.901 41.5985 195.914 41.5942 195.923C41.8412 195.892 41.7719 195.83 41.7112 195.759C41.7459 195.635 42.4307 196.1 42.5391 195.772C42.5218 195.794 42.8035 194.919 42.0189 194.636L41.9236 194.517L41.8759 194.446L41.8152 194.384C41.8152 194.384 41.8456 194.34 41.8716 194.318C41.8022 194.234 41.4901 193.986 40.9787 193.973L40.9787 193.783C41.0263 193.761 41.0523 193.743 41.0783 193.73L41.009 193.845L41.2561 193.889L41.1044 193.712C41.1564 193.668 41.1347 193.632 41.1824 193.513C41.1997 193.553 41.2214 193.451 41.2517 193.411L41.2257 193.716C41.3601 193.747 41.4121 193.354 41.3341 193.181C41.3081 193.212 41.4121 193.084 41.3774 193.089C41.4208 192.974 41.3124 193.013 41.3384 192.947C41.2951 192.965 41.2517 192.987 41.2084 193.009C41.2127 193.013 41.2171 193.018 41.2214 193.022C41.2127 193.013 41.2084 193.022 41.1997 193.013C41.139 193.044 41.087 193.08 41.035 193.111C41.0177 193.137 41.0047 193.159 40.9873 193.195L40.9873 193.142C40.9873 193.142 41.0177 193.12 41.035 193.111C41.0914 193.022 41.1477 192.974 41.1997 193.013L41.204 193.013C41.1477 192.947 41.2821 192.828 41.1954 192.823L41.2127 192.677C41.2431 192.593 41.0307 192.682 41.0177 192.58C41.035 192.527 41.0523 192.483 41.0697 192.448C41.0437 192.456 41.022 192.465 40.996 192.478C40.996 192.47 40.996 192.456 40.9917 192.448C40.9917 192.448 40.9917 192.448 40.9873 192.448L40.9873 192.386C40.957 192.386 40.9266 192.386 40.8963 192.386C41.0177 192.271 41.1694 192.169 41.3167 192.107C41.3341 192.032 41.4121 192.001 41.165 192.01C41.1997 191.935 41.1737 191.833 41.1824 191.749C40.7316 191.846 40.0684 191.904 39.713 191.806C39.5873 191.59 39.6263 191.28 39.8213 191.13C39.3489 190.882 39.0845 191.722 38.6553 191.731L38.6553 191.696ZM27.8883 209.116C27.8883 209.151 27.8927 209.182 27.8927 209.213C27.8493 209.169 27.8103 209.142 27.7713 209.116L27.884 209.116L27.8883 209.116ZM24.5941 206.282C24.5594 206.273 24.516 206.273 24.4727 206.3C24.3773 206.158 24.542 206.167 24.6244 206.123C24.6157 206.176 24.6071 206.229 24.5941 206.282ZM24.6461 205.986C24.6461 205.986 24.6461 206.003 24.6417 206.008C24.6374 205.999 24.6374 205.99 24.6287 205.977C24.6374 205.977 24.6417 205.977 24.6504 205.986L24.6461 205.986ZM28.8593 205.053C28.8593 205.053 28.8376 205.039 28.8246 205.035C28.8549 204.947 28.8853 204.858 28.9113 204.765C28.985 204.885 28.9893 205.022 28.8593 205.053ZM29.1497 204.443C29.1237 204.421 29.0847 204.398 29.05 204.376C29.063 204.345 29.076 204.31 29.089 204.279C29.1193 204.345 29.1583 204.416 29.154 204.443L29.1497 204.443ZM28.04 199.278C28.027 199.248 28.0184 199.217 28.0054 199.19C28.0487 199.15 28.1094 199.115 28.1744 199.093C28.1311 199.155 28.0877 199.217 28.0444 199.283L28.04 199.278ZM29.3187 197.674C29.2234 197.775 29.1323 197.881 29.0413 197.987C28.9503 198.041 28.8593 198.107 28.7942 198.204C28.7639 198.089 28.6035 198.018 28.6512 197.934C28.7986 197.713 29.115 197.819 29.1887 197.532L29.3187 197.669L29.3187 197.674ZM35.2354 197.377C35.1444 197.718 35.1313 197.461 35.0273 197.289C35.0577 197.271 35.0923 197.249 35.1227 197.231C35.1704 197.271 35.2137 197.324 35.2354 197.377ZM35.6948 197.165L35.5778 197.01C35.6602 196.971 35.7425 196.926 35.8292 196.887C35.8596 197.015 35.8509 197.13 35.6948 197.165ZM30.5411 196.458C30.5411 196.422 30.5411 196.391 30.5367 196.352L30.5844 196.418C30.5844 196.418 30.5584 196.444 30.5411 196.453L30.5411 196.458ZM31.512 195.649C31.3733 195.755 31.2389 195.865 31.1046 195.976C31.1782 195.852 31.2086 195.68 31.2606 195.512L31.2042 195.551C30.9745 194.91 31.4123 195.578 31.499 195.158C31.5857 195.419 31.4817 195.503 31.5163 195.644L31.512 195.649ZM32.1318 195.149C32.1665 195.056 32.0495 194.795 32.0061 194.676C32.2402 194.87 32.0365 194.49 32.2445 194.534C32.4309 194.733 32.2662 194.809 32.3009 194.954L32.3529 194.707C32.4483 194.636 32.5566 194.751 32.665 194.853C32.5089 194.954 32.3486 195.056 32.1925 195.162C32.1752 195.162 32.1535 195.153 32.1362 195.149L32.1318 195.149ZM32.7343 194.804C32.6867 194.764 32.6173 194.76 32.5826 194.57C32.9121 194.769 33.4669 194.274 33.6836 193.907C33.6229 193.964 33.6706 194.057 33.6793 194.128C33.4149 194.291 33.1201 194.503 32.7343 194.804ZM37.9791 191.837C38.2306 191.537 38.0788 191.873 38.1525 192.089C38.1439 192.089 38.1352 192.089 38.1265 192.089C38.1179 192.098 38.0962 192.107 38.0832 192.116C38.0355 192.076 37.9748 191.948 37.9791 191.837ZM39.3272 192.474C39.2838 192.478 39.2405 192.483 39.2015 192.487C39.2318 192.465 39.2708 192.456 39.3229 192.465C39.3229 192.465 39.3229 192.47 39.3272 192.474ZM39.9687 192.403C39.9687 192.403 39.973 192.368 39.9774 192.35C39.9904 192.35 39.9947 192.372 39.9947 192.403C39.986 192.403 39.9774 192.403 39.9687 192.403ZM40.6666 192.364C40.6362 192.364 40.6059 192.364 40.5755 192.364C40.5365 192.306 40.4932 192.2 40.4932 192.112C40.7489 191.811 40.5929 192.147 40.6666 192.359L40.6666 192.364ZM40.0771 192.138C40.1117 192.112 40.1551 192.094 40.2244 192.112L40.2244 192.12C40.1768 192.129 40.1291 192.134 40.0771 192.138ZM39.4746 191.709C39.5136 191.722 39.5483 191.749 39.5786 191.771C39.5873 191.837 39.7043 192.005 39.778 192.165C39.3359 192.191 38.8807 192.182 38.7334 192.089C38.612 192.063 38.807 192.306 38.8981 192.518C38.8547 192.527 38.807 192.536 38.7637 192.545L38.7507 192.523C38.7507 192.523 38.7377 192.54 38.7334 192.549C38.6163 192.567 38.4993 192.593 38.3866 192.611C38.4083 192.602 38.4299 192.598 38.4516 192.589C38.4083 192.554 38.3909 192.501 38.3823 192.452C38.3909 192.448 38.4083 192.443 38.4213 192.439C38.3953 192.417 38.3823 192.39 38.3693 192.359C38.3649 192.328 38.3606 192.302 38.3476 192.28C38.3389 192.226 38.3389 192.178 38.3216 192.138C38.6033 191.833 39.1278 191.563 39.3229 191.846C39.1451 191.625 39.3402 191.32 39.5266 191.325C39.6263 191.466 39.4919 191.572 39.4746 191.7L39.4746 191.709Z" fill="#ED1C2E"/>
<path d="M42.2314 192.063C42.2011 192.01 42.1317 192.01 42.0537 192.028C42.1144 192.068 42.1751 192.112 42.2314 192.063Z" fill="#ED1C2E"/>
<path d="M41.529 192.306C41.4553 192.363 41.529 192.306 41.6504 192.226C41.7068 192.138 41.7631 192.089 41.8151 192.129C41.8151 192.129 41.8195 192.129 41.8238 192.129C41.7154 191.996 41.5247 192.001 41.3253 192.08C41.3123 192.133 41.334 192.209 41.529 192.31L41.529 192.306Z" fill="#ED1C2E"/>
<path d="M41.9888 191.987C41.9888 191.96 41.9758 192.001 41.9541 192.059C41.9888 192.045 42.0235 192.032 42.0538 192.023C42.0321 192.01 42.0105 191.996 41.9888 191.987Z" fill="#ED1C2E"/>
<path d="M41.8108 192.129C41.7501 192.165 41.6981 192.196 41.646 192.227C41.5333 192.408 41.4423 192.748 41.477 192.881C41.464 192.881 41.451 192.881 41.438 192.881C41.464 192.899 41.4857 192.912 41.5117 192.925C41.5203 192.925 41.5203 192.938 41.529 192.938C41.5333 192.947 41.542 192.938 41.5507 192.938C41.5594 192.938 41.568 192.938 41.581 192.938C41.581 192.938 41.6114 192.938 41.6244 192.925C41.62 192.916 41.607 192.916 41.6027 192.912C41.7111 192.766 41.8844 192.258 41.9581 192.067C41.9148 192.085 41.8714 192.107 41.8281 192.129C41.8281 192.134 41.8368 192.138 41.8411 192.143C41.8368 192.134 41.8281 192.143 41.8194 192.134L41.8108 192.129Z" fill="#ED1C2E"/>
<path d="M41.3384 192.92C41.3731 192.907 41.4077 192.894 41.4381 192.885C41.4164 192.871 41.3947 192.858 41.3731 192.849C41.3731 192.822 41.3601 192.858 41.3384 192.92Z" fill="#ED1C2E"/>
<path d="M41.3515 192.412C41.3212 192.359 41.2562 192.355 41.1738 192.377C41.2388 192.417 41.2952 192.461 41.3515 192.412Z" fill="#ED1C2E"/>
<path d="M41.1089 192.341C41.1089 192.314 41.0959 192.354 41.0742 192.412C41.1089 192.399 41.1436 192.385 41.1739 192.376C41.1522 192.363 41.1306 192.35 41.1089 192.341Z" fill="#ED1C2E"/>
<path d="M33.9394 198.138C33.948 198.164 33.948 198.124 33.9394 198.057C33.9133 198.084 33.8873 198.111 33.8613 198.133C33.8873 198.133 33.9133 198.142 33.935 198.133L33.9394 198.138Z" fill="#ED1C2E"/>
<path d="M38.7335 191.333L38.6729 191.439L38.8462 191.404L38.7335 191.333Z" fill="#ED1C2E"/>
<path d="M1.2309 181.336C1.2049 181.336 1.23957 181.349 1.30026 181.372C1.28725 181.336 1.27425 181.3 1.26558 181.269C1.25258 181.291 1.23957 181.314 1.2309 181.336Z" fill="#EC008C"/>
<path d="M18.0362 170.061L17.9365 170.093C17.9755 170.146 18.0145 170.168 18.0362 170.061Z" fill="#EC008C"/>
<path d="M13.9487 167.775L13.9704 167.904L14.0137 167.882L13.9487 167.775Z" fill="#EC008C"/>
<path d="M17.9883 171.436L18.1617 171.645C18.1443 171.503 18.062 171.423 17.9883 171.436Z" fill="#EC008C"/>
<path d="M12.05 169.425L12.0197 169.243C11.9893 169.319 12.011 169.385 12.05 169.425Z" fill="#EC008C"/>
<path d="M16.6014 167.409L16.402 167.542C16.2807 167.63 16.1723 167.683 16.0336 167.453L15.9599 167.697L15.6348 167.52C15.6045 168.006 15.1753 167.568 15.1233 168.015C14.7506 168.028 15.1753 167.741 15.041 167.789C14.3648 166.945 14.083 168.134 13.966 167.904C13.8143 167.988 13.6583 168.002 13.5109 168.006L13.2942 168.015L13.1901 168.028L13.1815 168.028C13.0991 168.108 12.4056 168.179 12.2495 168.979L12.2495 168.992L12.2539 169.014L12.2625 169.058L12.1628 169.067L12.0588 169.076C12.0675 169.098 12.0761 169.125 12.0848 169.147C12.1238 169.253 12.1715 169.368 12.1325 169.465L12.0545 169.421C12.1282 169.881 12.0935 170.257 12.0675 170.654C11.9374 170.61 11.8507 170.597 11.8247 170.372C11.6253 170.694 11.9981 171.362 11.7164 171.866L11.6297 171.8L11.699 172.14C11.6514 172.06 11.5777 172.083 11.4953 172.052C11.2873 172.529 11.1832 173.157 11.3696 173.55C11.3436 173.382 11.0359 173.661 11.0315 173.321C11.0315 173.9 10.6501 174.479 10.4377 175.04L10.455 175.04L10.39 175.297L10.351 175.297L10.403 175.116C10.2816 175.319 10.1863 175.531 10.1646 175.752C10.0822 175.739 9.9002 175.668 9.75716 175.735C9.94788 175.907 9.15466 176.11 9.18933 176.53C9.11565 176.513 9.23268 176.398 9.10698 176.415C8.63451 176.924 8.01034 177.928 7.15209 178.211C7.35148 178.67 6.63195 178.918 6.30252 179.369C6.07279 179.161 6.48024 179.095 6.49324 178.834C6.28518 179.024 6.28518 178.533 5.97743 178.975C5.97743 178.931 5.96009 178.909 5.98177 178.883C5.8734 178.993 6.18982 179.161 5.83439 179.267L5.73903 179.086L5.60466 179.418C4.75075 179.51 4.11791 180.001 3.34636 179.86C3.31168 179.913 3.34636 180.006 3.45039 180.054C3.12096 180.076 2.75686 180.461 2.34941 180.293L2.44911 180.196C2.13269 180.138 1.98531 180.218 1.81626 180.328C1.5822 180.541 1.97664 180.107 1.19642 180.854C1.22677 180.93 1.24844 181.023 1.27011 181.12C1.25711 181.155 1.25277 181.199 1.26578 181.252C1.27445 181.244 1.27878 181.23 1.28745 181.217C1.29178 181.252 1.30045 181.279 1.30479 181.314C1.30479 181.283 1.30479 181.239 1.29612 181.195C1.32213 181.151 1.33513 181.111 1.29612 181.067C1.28745 181.067 1.29178 181.08 1.28745 181.084C1.28312 181.04 1.27445 180.992 1.27445 180.947L1.27445 180.854C1.30479 180.828 1.32213 180.81 1.3438 180.784L1.38281 181.076C1.35247 181.204 1.48684 181.217 1.42182 181.292L1.53018 181.266L1.53018 181.438C1.43482 181.398 1.35247 181.372 1.30045 181.35C1.31779 181.394 1.33946 181.438 1.36114 181.487C1.36114 181.487 1.36547 181.478 1.37414 181.473C1.36547 181.478 1.37414 181.487 1.36547 181.496C1.39581 181.557 1.43049 181.611 1.46083 181.664C1.4825 181.677 1.50418 181.695 1.53452 181.708L1.53452 181.774C1.51718 181.748 1.49117 181.708 1.46083 181.664C1.37414 181.606 1.3308 181.544 1.36547 181.496C1.36547 181.496 1.36547 181.491 1.36547 181.487C1.2441 181.588 1.23977 181.756 1.30045 181.938L1.30045 181.982L1.31346 181.982C1.31346 181.982 1.31346 181.986 1.31346 181.991C1.33946 181.995 1.36981 181.991 1.40015 181.964L1.41315 181.964L1.41315 181.955C1.44783 181.924 1.48684 181.88 1.53452 181.792L1.53452 181.898C1.53452 181.898 1.53018 181.889 1.52152 181.898L1.53452 181.938L1.53452 182.088C1.52585 182.154 1.45216 182.101 1.44349 182.185C1.36547 182.084 1.36114 182.101 1.31779 181.991C1.2441 181.973 1.21376 181.889 1.22243 182.146C1.19209 182.132 1.15308 182.132 1.11407 182.132C1.12274 182.017 1.02304 182.008 0.997035 181.845L1.07072 182.132C1.03605 182.132 0.997035 182.132 0.966693 182.132C0.260162 182.919 0.147463 183.985 8.87043e-05 184.232C-0.0172495 184.312 0.0781106 184.259 0.199478 184.184L0.18214 184.263C0.290503 184.299 0.524569 184.387 0.554911 184.471L0.554911 184.542C0.368525 184.529 0.221151 184.507 0.147463 184.462C-0.0389222 184.423 0.866999 184.975 0.689282 185.126L0.524569 184.869C0.459551 185.072 0.0347651 184.86 0.281834 185.289C0.307842 185.324 0.320845 185.046 0.437878 185.103L0.463885 185.267L0.667609 185.156L0.650271 185.373C0.919013 185.528 0.823653 185.099 0.923348 184.9L0.923348 185.126C1.01437 185.126 1.10106 185.117 1.18776 185.117L1.20943 185.218C1.45216 185.174 2.1717 184.803 2.43177 185.019C2.43177 185.019 2.39709 184.816 2.36675 184.904C2.36242 184.904 2.35375 184.891 2.34508 184.882C2.37109 184.882 2.39709 184.878 2.4231 184.873C2.44477 184.918 2.47078 184.962 2.5228 184.984C2.55747 184.94 2.60082 184.896 2.64416 184.856C2.84355 184.834 3.04728 184.812 3.24667 184.776C3.25967 184.785 3.264 184.789 3.28134 184.798C3.22066 184.847 3.25967 184.816 3.33336 184.763C3.3507 184.763 3.3637 184.763 3.3767 184.754C3.24667 184.993 3.15564 185.426 3.28134 185.431C3.34636 185.523 3.53275 185.024 3.64544 184.71C3.85784 184.67 4.07023 184.621 4.28262 184.573L4.11358 184.71C4.74642 184.498 4.10057 184.971 4.61205 185.011C5.10619 184.683 5.622 185.249 5.93409 185.17C6.49758 184.94 5.62633 184.997 5.93842 184.754C6.22884 184.608 6.14214 184.843 6.3502 184.812L6.37188 184.467C6.6883 184.277 6.49758 184.732 6.64495 184.537C6.99172 184.599 6.60594 184.688 6.62761 184.94C6.66663 184.847 6.92236 184.608 7.10008 184.666C7.13042 184.745 6.76632 184.918 7.01772 184.847C7.82828 184.339 8.14904 184.484 8.89025 184.042L8.90325 184.215C8.96827 184.14 8.99861 184.042 9.10698 184.042L9.11565 184.157C9.23268 184.104 9.51009 182.636 10.0086 182.367L9.87853 182.685L10.1689 182.221L10.2816 182.477C10.26 182.154 10.8235 181.916 11.1399 181.553L11.2482 181.686L11.4086 181.425L11.4086 181.58C11.634 181.389 11.6774 180.93 12.0068 180.81C11.8161 180.916 11.9634 181.16 12.0588 181.235L12.7913 181.199C12.891 181.27 13.1901 181.031 13.0948 181.314L13.1901 180.93L13.2681 181.045C14.3908 180.178 14.3431 178.662 15.5438 177.866L15.5698 177.914L15.7215 177.065C15.8255 176.959 16.0639 177.052 16.2503 176.884C15.9772 176.858 16.4367 176.455 16.311 176.217C16.4887 176.097 16.4584 176.301 16.5234 176.393C17.1172 175.814 16.9785 175.063 17.4466 174.329C16.8051 174.987 16.9048 175.027 16.5321 175.487C16.6794 174.815 16.9352 174.802 17.1346 174.099L17.1172 174.457C17.6287 174.24 17.3036 173.334 17.7241 173.351C17.7761 172.896 17.5117 172.436 17.672 171.932L17.9928 172.242L18.0882 171.751L17.8368 171.693C17.8498 171.534 17.9104 171.464 17.9755 171.455C17.7414 171.075 18.0101 170.641 17.7934 170.155L17.9234 170.111L17.8411 170.009C18.0665 169.934 18.0101 169.554 18.2139 169.545C18.2529 169.695 18.3482 170.062 18.2139 170.022C18.4436 170.429 18.3829 169.554 18.4002 169.302C18.2615 169.571 18.2529 169.218 18.2095 169.067C18.2442 169.045 18.2572 169.094 18.3092 169.12L18.3309 169.036L18.3309 169.019L18.3309 169.014L18.3309 169.01C18.2789 168.263 17.1866 167.843 16.7531 167.4L16.7098 167.4L16.5884 167.436L16.6014 167.409ZM5.71736 184.201L5.60466 184.29C5.53097 184.272 5.51364 184.237 5.51797 184.197C5.58299 184.175 5.65234 184.153 5.71736 184.126C5.71736 184.148 5.73036 184.17 5.71736 184.201ZM9.23268 183.817C9.39306 183.666 9.14599 183.397 9.52743 183.353C9.33671 183.538 9.54477 183.795 9.23268 183.817ZM9.41039 183.242C9.49709 183.123 9.48842 183.065 9.73549 183.065C9.64879 183.185 9.48408 183.277 9.41039 183.242ZM5.09752 179.74L5.2839 179.899L5.04117 179.992L5.09752 179.74ZM1.34813 180.806C1.74258 180.399 1.4695 180.731 1.5952 180.625L1.68189 180.735C1.62121 180.753 1.58653 180.806 1.56486 180.868C1.55619 180.868 1.37414 180.81 1.35247 180.806L1.34813 180.806ZM1.5822 180.863C1.61254 180.815 1.66889 180.779 1.76858 180.775L1.71657 180.859C1.67322 180.859 1.62988 180.863 1.5822 180.863ZM1.86394 180.85C2.02432 180.797 2.20204 180.757 2.39709 180.682L2.00698 180.7C2.15002 180.408 2.65283 180.642 2.79587 180.523C2.80888 180.686 2.72219 180.744 2.71352 180.806C2.43611 180.832 2.15002 180.841 1.86394 180.85ZM3.5891 180.673C3.51541 180.686 3.44606 180.695 3.37237 180.709C3.43305 180.602 3.51541 180.474 3.74514 180.359L3.62377 180.284C3.81449 180.249 3.89685 179.908 4.1916 180.023C4.23061 180.191 4.02688 180.253 3.94019 180.373C4.02688 180.452 4.2046 179.966 4.443 180.072C4.33464 180.342 3.90552 180.647 3.57176 180.633C3.58043 180.647 3.58476 180.66 3.5891 180.673ZM13.966 179.864L13.8533 180.147L13.8143 180.147L13.927 179.86L13.9703 179.86L13.966 179.864ZM12.1932 179.922C12.0285 179.926 11.9634 180.028 11.8898 179.979C11.9764 179.891 12.0631 179.798 12.1455 179.709C12.1108 179.829 12.1325 179.944 12.1932 179.926L12.1932 179.922ZM6.24617 179.846C6.15948 179.886 6.08146 179.926 5.99477 179.961C6.00777 179.913 6.02078 179.864 6.02945 179.82C5.79972 179.793 5.72603 179.992 5.60899 180.107C5.23622 180.249 4.85478 180.373 4.46901 180.474C5.10185 180.147 5.72603 179.807 6.3502 179.63C6.27218 179.762 6.24617 179.824 6.25051 179.846L6.24617 179.846ZM13.6886 178.998L13.784 178.958L13.6713 179.196L13.7146 179.051C13.6279 178.949 13.4155 179.21 13.4112 179.307C13.2898 179.174 13.4589 179.02 13.5456 178.86C13.5369 178.94 13.6366 178.962 13.6843 179.002L13.6886 178.998ZM7.85429 178.838L7.62023 178.869L7.74159 178.785L7.85429 178.843L7.85429 178.838ZM7.59855 178.113C7.59855 178.18 7.62023 178.175 7.65057 178.153L7.55521 178.241C7.48152 178.202 7.57688 178.162 7.59422 178.118L7.59855 178.113ZM8.53048 178.467C8.67786 178.113 8.80356 177.742 9.13732 177.821L9.0723 178.029C8.89458 178.184 8.71253 178.325 8.52615 178.467L8.53048 178.467ZM9.30637 177.817C9.30637 177.817 9.28903 177.835 9.28036 177.839C9.28036 177.83 9.28036 177.821 9.28036 177.817L9.30637 177.817ZM14.6985 178.144C14.6075 178.047 14.8286 177.808 14.6292 177.804L14.5252 177.897C14.6855 177.755 14.3128 177.6 14.6249 177.459L14.5122 177.605C14.7029 177.459 14.5858 178.003 14.8416 177.755C14.9413 177.653 14.8676 178.06 14.7029 178.144L14.6985 178.144ZM15.1233 177.755C14.9716 177.437 15.275 177.534 15.2837 177.278C15.3054 177.441 15.4528 177.707 15.1233 177.755ZM9.64446 177.114C9.73549 177.101 9.86119 176.986 9.9002 176.866L9.99989 176.981L10.1083 176.959C10.0736 176.995 10.0346 176.995 9.99989 176.981C9.78317 177.096 9.32804 177.415 9.11565 177.623C8.93793 177.614 9.09397 177.238 9.11565 177.11C9.47541 177.729 9.41039 176.836 9.71381 176.791C9.72248 176.893 9.59678 177.012 9.64446 177.118L9.64446 177.114ZM15.2447 176.442L15.0713 176.685L15.1277 176.155L15.2447 176.438L15.2447 176.442ZM10.4464 176.628C10.455 176.553 10.468 176.473 10.4637 176.398C10.5157 176.336 10.6978 176.119 10.8061 176.155C10.6891 176.314 10.5721 176.477 10.4464 176.628ZM15.2794 175.191L15.2577 175.169C15.2577 175.169 15.275 175.124 15.288 175.107C15.288 175.138 15.288 175.164 15.2794 175.195L15.2794 175.191ZM16.168 174.488L16.2807 174.616C15.9296 174.382 16.1159 174.943 16.0553 175.102C16.0769 174.903 15.8082 174.501 16.1333 174.249L16.1246 174.545L16.1636 174.488L16.168 174.488ZM11.0705 174.099L11.0489 173.957C11.0012 173.948 10.9708 173.913 11.0228 173.794L11.0489 173.957C11.1399 173.975 11.3046 173.882 11.0705 174.099ZM11.6167 173.537C11.66 173.489 11.4173 173.86 11.3219 174.001C11.2959 173.869 11.4563 173.511 11.6167 173.537ZM12.2539 173.634C12.2539 173.634 12.2539 173.639 12.2495 173.643C12.2062 173.586 12.1065 173.665 12.0978 173.431C12.1845 173.44 12.2409 173.533 12.2539 173.634ZM11.9764 171.627C12.1021 171.685 11.9591 171.906 11.8854 172.012L11.9764 171.627ZM17.581 172.595C17.5073 172.724 17.4163 172.498 17.3296 172.423C17.2949 172.485 17.2949 172.538 17.2993 172.64C16.9698 172.494 17.49 172.423 17.386 172.096C17.555 172.14 17.49 172.472 17.5767 172.6L17.581 172.595ZM12.3275 172.45C12.1195 172.335 12.0891 172.038 12.1195 171.95L12.1455 171.764C12.1975 171.976 12.2279 172.335 12.3275 172.45ZM16.6318 171.8C16.5407 171.822 16.4887 171.8 16.454 171.764C16.467 171.702 16.48 171.64 16.493 171.574C16.4974 171.667 16.5321 171.751 16.6318 171.8ZM17.8108 171.693C17.659 171.64 17.7761 171.583 17.8281 171.481L17.8108 171.693ZM12.6786 171.888L12.4402 171.91C12.5139 171.795 12.6786 171.884 12.6223 171.623C12.4532 171.623 12.1455 171.455 12.3232 171.154C12.5486 171.464 12.644 171.512 12.6786 171.888ZM12.0718 171.234L12.2365 170.84C12.5356 171.123 12.2192 171.105 12.0718 171.234ZM16.8095 170.752C16.9742 170.761 16.9352 170.796 16.9135 170.937C16.8745 170.769 16.6144 170.752 16.8008 170.5C16.8571 170.575 16.7531 170.677 16.8051 170.752L16.8095 170.752ZM12.5313 170.159C12.3362 170.199 12.1455 169.947 12.1932 169.682C12.0588 169.363 12.4923 169.58 12.3709 169.447C12.5789 169.585 12.5053 169.925 12.5313 170.159ZM16.9698 169.492C16.8745 169.518 16.8138 169.518 16.7531 169.523C16.7575 169.399 16.7618 169.275 16.7661 169.151C16.8441 169.226 16.9135 169.337 16.9698 169.492ZM15.1753 168.899C15.1883 168.93 15.1883 168.957 15.197 168.983L14.4601 168.983C14.6379 168.952 14.7939 168.868 14.8242 168.859L14.5425 168.842C14.7029 168.479 14.976 169.019 15.1753 168.899ZM13.901 168.055L13.6539 168.192L13.8316 168.037L13.8967 168.055L13.901 168.055Z" fill="#EC008C"/>
<path d="M10.4199 175.045L10.4072 175.12L10.4411 175.045L10.4199 175.045Z" fill="#EC008C"/>
</g>
<defs>
<clipPath id="clip0_1321_25050">
<rect width="210" height="44" fill="white" transform="translate(0 210) rotate(-90)"/>
</clipPath>
</defs>
</svg>
