<svg width="210" height="44" viewBox="0 0 210 44" fill="none" xmlns="http://www.w3.org/2000/svg">
<g clip-path="url(#clip0_372_8232)">
<path d="M54.4488 40.0687H54.9308C55.5674 40.0687 56.2793 40.1814 56.2793 40.966C56.2793 41.6508 55.678 41.7852 55.0103 41.7852H54.4533V40.0687H54.4488ZM53.7061 42.3834H55.0855C56.1422 42.3834 57.0618 42.1276 57.0618 41.0353C57.0618 40.3158 56.5667 39.865 55.8681 39.8086V39.7956C56.518 39.6353 56.9336 39.2842 56.9336 38.5863C56.9336 37.65 56.1908 37.3076 55.1165 37.3076H53.7105V42.3834H53.7061ZM54.4488 37.8971H55.2314C55.6603 37.8971 56.1864 38.0532 56.1864 38.6557C56.1864 39.4055 55.5763 39.4706 54.86 39.4706H54.4488V37.8971Z" fill="white"/>
<path d="M58.2158 42.3835H58.9188V40.693C58.9188 39.7611 59.3256 39.1803 59.949 39.1803C60.0639 39.1803 60.2054 39.1976 60.3381 39.2453V38.6384C60.1877 38.6038 60.086 38.5864 59.8782 38.5864C59.4803 38.5864 59.0736 38.8638 58.8879 39.2453H58.8702V38.6731H58.2158V42.3835Z" fill="white"/>
<path d="M62.7832 38.5864C63.9371 38.5864 64.702 39.4013 64.702 40.5283C64.702 41.5946 63.915 42.4702 62.7832 42.4702C61.6513 42.4702 60.8555 41.5903 60.8555 40.5283C60.8555 39.4013 61.6248 38.5864 62.7832 38.5864ZM62.7832 41.9154C63.6011 41.9154 63.9592 41.1915 63.9592 40.5283C63.9592 39.8218 63.526 39.1369 62.7832 39.1369C62.0404 39.1369 61.5983 39.8218 61.5983 40.5283C61.5983 41.1915 61.9608 41.9154 62.7832 41.9154Z" fill="white"/>
<path d="M67.8897 40.94C67.8897 41.4948 67.5271 41.9153 66.833 41.9153C66.5146 41.9153 66.1344 41.7029 66.1344 41.3171C66.1344 40.6583 67.0673 40.6019 67.4475 40.6019C67.5979 40.6019 67.7438 40.6149 67.8941 40.6149V40.94H67.8897ZM65.8558 39.514C66.1344 39.2799 66.5588 39.1325 66.9523 39.1325C67.6465 39.1325 67.8897 39.4663 67.8897 40.1035C67.6155 40.0861 67.421 40.0861 67.1469 40.0861C66.4262 40.0861 65.3916 40.3765 65.3916 41.3128C65.3916 42.1234 65.962 42.4658 66.7799 42.4658C67.4166 42.4658 67.7835 42.1234 67.9516 41.898H67.9648V42.3791H68.6192C68.6015 42.2664 68.5882 42.0713 68.5882 41.6509V40.1165C68.5882 39.1065 68.1505 38.582 67.0629 38.582C66.5809 38.582 66.1653 38.7251 65.8161 38.9331L65.8558 39.514Z" fill="white"/>
<path d="M70.255 40.5153C70.2417 39.8391 70.5336 39.1369 71.294 39.1369C72.0545 39.1369 72.4126 39.8434 72.4126 40.5369C72.4126 41.1568 72.0854 41.9197 71.2984 41.9197C70.5512 41.9197 70.2417 41.0961 70.255 40.5153ZM72.4392 42.3835H73.1156V36.9263H72.4126V39.1846H72.3949C72.1827 38.8421 71.8025 38.5864 71.1437 38.5864C70.0428 38.5864 69.5078 39.4706 69.5078 40.4633C69.5078 41.4559 69.9942 42.4702 71.1349 42.4702C71.8113 42.4702 72.2402 42.1321 72.4215 41.859H72.4347V42.3835H72.4392Z" fill="white"/>
<path d="M76.759 38.7295C76.5645 38.6514 76.1975 38.5864 75.9145 38.5864C74.7605 38.5864 73.9868 39.4013 73.9868 40.5283C73.9868 41.5946 74.7738 42.4702 75.9145 42.4702C76.171 42.4702 76.507 42.4485 76.7944 42.3185L76.7369 41.7073C76.5247 41.846 76.2284 41.9197 75.9897 41.9197C75.0921 41.9197 74.7296 41.1958 74.7296 40.5326C74.7296 39.8261 75.1673 39.1413 75.9499 39.1413C76.171 39.1413 76.4362 39.1933 76.7015 39.3016L76.759 38.7338V38.7295Z" fill="white"/>
<path d="M79.8359 40.94C79.8359 41.4948 79.4734 41.9153 78.7836 41.9153C78.4653 41.9153 78.0762 41.7029 78.0762 41.3171C78.0762 40.6583 79.0091 40.6019 79.3894 40.6019C79.5353 40.6019 79.6856 40.6149 79.8315 40.6149V40.94H79.8359ZM77.811 39.514C78.0895 39.2799 78.5139 39.1325 78.9074 39.1325C79.6016 39.1325 79.8359 39.4663 79.8359 40.1035C79.5618 40.0861 79.3761 40.0861 79.0976 40.0861C78.3769 40.0861 77.3423 40.3765 77.3423 41.3128C77.3423 42.1234 77.9082 42.4658 78.7262 42.4658C79.3628 42.4658 79.7387 42.1234 79.8978 41.898H79.9155V42.3791H80.5699C80.5522 42.2664 80.5389 42.0713 80.5389 41.6509V40.1165C80.5389 39.1065 80.1012 38.582 79.018 38.582C78.536 38.582 78.1204 38.7251 77.7712 38.9331L77.8154 39.514H77.811Z" fill="white"/>
<path d="M81.3922 42.2665C81.7106 42.4312 82.0775 42.4702 82.4357 42.4702C83.1121 42.4702 83.7576 42.1061 83.7576 41.3173C83.7576 40.1296 82.1129 40.3463 82.1129 39.5878C82.1129 39.28 82.4224 39.137 82.7805 39.137C82.9485 39.137 83.3641 39.2323 83.5189 39.3277L83.5764 38.7339C83.2978 38.6558 83.037 38.5908 82.7054 38.5908C81.9582 38.5908 81.3701 38.9636 81.3701 39.7351C81.3701 40.7754 83.0104 40.7147 83.0104 41.3909C83.0104 41.7941 82.6169 41.9241 82.2986 41.9241C82.0952 41.9241 81.7061 41.8374 81.432 41.6597L81.3922 42.2709V42.2665Z" fill="white"/>
<path d="M86.6185 38.6731H85.6149V37.5981L84.9163 37.8149V38.6731H84.063V39.2236H84.9163V41.3952C84.9163 42.1364 85.3629 42.4702 86.0835 42.4702C86.3046 42.4702 86.5212 42.4095 86.676 42.3705V41.7853C86.5743 41.8503 86.4151 41.9154 86.1985 41.9154C85.8846 41.9154 85.6149 41.6856 85.6149 41.2565V39.2236H86.6185V38.6731Z" fill="white"/>
<path d="M87.5779 42.3836H88.2765V38.6732H87.5779V42.3836ZM88.3207 37.0737H87.5337V37.8453H88.3207V37.0737Z" fill="white"/>
<path d="M89.5542 38.6731H90.2307V39.2582H90.2483C90.4517 38.8378 90.9602 38.582 91.4863 38.582C92.4634 38.582 92.91 39.1802 92.91 40.1771V42.3791H92.2114V40.4589C92.2114 39.592 92.0169 39.1715 91.4112 39.1325C90.6153 39.1325 90.2616 39.7567 90.2616 40.6626V42.3791H89.563V38.6687L89.5542 38.6731Z" fill="white"/>
<path d="M97.4329 42.2231C97.4329 43.35 96.8449 44.0002 95.4876 44.0002C95.0808 44.0002 94.7359 43.9482 94.1214 43.7445L94.1965 43.1116C94.7359 43.35 95.0543 43.4454 95.5627 43.4454C96.3011 43.4454 96.7344 42.9556 96.7344 42.1667V41.8069H96.7211C96.4249 42.1884 95.9341 42.3791 95.4522 42.3791C94.3645 42.3791 93.834 41.5122 93.834 40.5542C93.834 39.5963 94.3822 38.582 95.5274 38.582C96.195 38.582 96.562 38.8204 96.7742 39.2192H96.7919V38.6687H97.4329V42.2144V42.2231ZM96.7344 40.5716C96.7344 39.7957 96.3674 39.1369 95.629 39.1369C94.8907 39.1369 94.5768 39.8867 94.5768 40.5239C94.5768 41.2218 94.9791 41.8329 95.629 41.8329C96.279 41.8329 96.7344 41.2651 96.7344 40.5759V40.5716Z" fill="white"/>
<path d="M104.326 38.1443C103.999 37.9536 103.636 37.8582 103.256 37.8582C102.062 37.8582 101.267 38.7035 101.267 39.8435C101.267 40.9835 102.142 41.8287 103.216 41.8287C103.588 41.8287 104.083 41.7333 104.339 41.5816L104.384 42.2838C103.99 42.4442 103.508 42.4659 103.203 42.4659C101.563 42.4659 100.471 41.4343 100.471 39.8175C100.471 38.2007 101.625 37.2124 103.212 37.2124C103.614 37.2124 104.008 37.2731 104.379 37.4335L104.317 38.14L104.326 38.1443Z" fill="white"/>
<path d="M105.701 40.5283C105.701 39.8218 106.138 39.1369 106.89 39.1369C107.642 39.1369 108.071 39.8218 108.071 40.5283C108.071 41.1915 107.704 41.9154 106.89 41.9154C106.077 41.9154 105.701 41.1915 105.701 40.5283ZM104.962 40.5283C104.962 41.5946 105.749 42.4702 106.895 42.4702C108.04 42.4702 108.818 41.5903 108.818 40.5283C108.818 39.4013 108.044 38.5864 106.895 38.5864C105.745 38.5864 104.962 39.4013 104.962 40.5283Z" fill="white"/>
<path d="M109.747 38.6731H110.423V39.2582H110.436C110.644 38.8378 111.148 38.582 111.674 38.582C112.656 38.582 113.094 39.1802 113.094 40.1771V42.3791H112.395V40.4589C112.395 39.592 112.2 39.1715 111.595 39.1325C110.799 39.1325 110.441 39.7567 110.441 40.6626V42.3791H109.747V38.6687V38.6731Z" fill="white"/>
<path d="M116.29 38.6731H115.291V37.5981L114.596 37.8149V38.6731H113.743V39.2236H114.596V41.3952C114.596 42.1364 115.043 42.4702 115.759 42.4702C115.985 42.4702 116.201 42.4095 116.352 42.3705V41.7853C116.25 41.8503 116.095 41.9154 115.874 41.9154C115.56 41.9154 115.291 41.6856 115.291 41.2565V39.2236H116.29V38.6731Z" fill="white"/>
<path d="M117.656 40.1728C117.709 39.6873 117.988 39.1369 118.673 39.1369C119.275 39.1369 119.619 39.605 119.619 40.1728H117.656ZM120.066 41.5425C119.898 41.6856 119.367 41.9153 118.903 41.9153C118.244 41.9153 117.656 41.4125 117.656 40.68H120.362C120.362 39.488 119.951 38.582 118.687 38.582C117.625 38.582 116.914 39.3579 116.914 40.4589C116.914 41.6639 117.528 42.4658 118.872 42.4658C119.491 42.4658 119.801 42.3184 120.062 42.2274V41.5382L120.066 41.5425Z" fill="white"/>
<path d="M121.291 38.6731H121.967V39.2582H121.98C122.184 38.8378 122.692 38.582 123.218 38.582C124.2 38.582 124.637 39.1802 124.637 40.1771V42.3791H123.939V40.4589C123.939 39.592 123.749 39.1715 123.143 39.1325C122.347 39.1325 121.989 39.7567 121.989 40.6626V42.3791H121.291V38.6687V38.6731Z" fill="white"/>
<path d="M127.839 38.6731H126.831V37.5981L126.141 37.8149V38.6731H125.288V39.2236H126.141V41.3952C126.141 42.1364 126.583 42.4702 127.304 42.4702C127.529 42.4702 127.741 42.4095 127.901 42.3705V41.7853C127.799 41.8503 127.64 41.9154 127.423 41.9154C127.109 41.9154 126.835 41.6856 126.835 41.2565V39.2236H127.843V38.6731H127.839Z" fill="white"/>
<path d="M131.535 37.9447H132.167C132.627 37.9447 133.308 38.1831 133.308 38.8203C133.308 39.4922 132.733 39.7176 132.273 39.7176H131.535V37.9447ZM130.792 42.3833H131.535V40.3504H132.26C133.202 40.3504 134.099 39.9516 134.099 38.8203C134.099 37.689 133.215 37.3032 132.154 37.3032H130.796V42.379L130.792 42.3833Z" fill="white"/>
<path d="M134.891 42.3835H135.594V40.693C135.594 39.7611 136.005 39.1803 136.624 39.1803C136.739 39.1803 136.889 39.1976 137.008 39.2453V38.6384C136.854 38.6038 136.752 38.5864 136.549 38.5864C136.146 38.5864 135.744 38.8638 135.563 39.2453H135.549V38.6731H134.891V42.3835Z" fill="white"/>
<path d="M137.53 40.5283C137.53 41.5946 138.317 42.4702 139.462 42.4702C140.608 42.4702 141.386 41.5903 141.386 40.5283C141.386 39.4013 140.612 38.5864 139.462 38.5864C138.313 38.5864 137.53 39.4013 137.53 40.5283ZM138.273 40.5283C138.273 39.8218 138.706 39.1369 139.462 39.1369C140.218 39.1369 140.638 39.8218 140.638 40.5283C140.638 41.1915 140.276 41.9154 139.462 41.9154C138.649 41.9154 138.273 41.1915 138.273 40.5283Z" fill="white"/>
<path d="M142.31 42.3835H143.008V40.5153C143.008 39.8218 143.287 39.1369 144.007 39.1369C144.573 39.1369 144.679 39.7134 144.679 40.1729V42.3835H145.378V40.5153C145.378 39.8218 145.661 39.1369 146.382 39.1369C146.939 39.1369 147.049 39.7134 147.049 40.1729V42.3835H147.752V40.0082C147.752 39.2019 147.399 38.5864 146.439 38.5864C146.094 38.5864 145.524 38.7771 145.263 39.306C145.06 38.8032 144.622 38.5864 144.189 38.5864C143.636 38.5864 143.256 38.7815 142.986 39.2149H142.977V38.6775H142.318V42.3878L142.31 42.3835Z" fill="white"/>
<path d="M148.663 40.5283C148.663 41.5946 149.45 42.4702 150.591 42.4702C151.731 42.4702 152.514 41.5903 152.514 40.5283C152.514 39.4013 151.736 38.5864 150.591 38.5864C149.446 38.5864 148.663 39.4013 148.663 40.5283ZM149.401 40.5283C149.401 39.8218 149.844 39.1369 150.591 39.1369C151.338 39.1369 151.771 39.8218 151.771 40.5283C151.771 41.1915 151.404 41.9154 150.591 41.9154C149.777 41.9154 149.401 41.1915 149.401 40.5283Z" fill="white"/>
<path d="M155.459 38.6731H154.455V37.5981L153.757 37.8149V38.6731H152.908V39.2236H153.757V41.3952C153.757 42.1364 154.203 42.4702 154.924 42.4702C155.149 42.4702 155.362 42.4095 155.516 42.3705V41.7853C155.41 41.8503 155.251 41.9154 155.043 41.9154C154.72 41.9154 154.451 41.6856 154.451 41.2565V39.2236H155.454V38.6731H155.459Z" fill="white"/>
<path d="M156.418 38.6732H157.117V42.3836H156.418V38.6732ZM157.161 37.8453H156.374V37.0737H157.161V37.8453Z" fill="white"/>
<path d="M158.138 40.5283C158.138 41.5946 158.929 42.4702 160.065 42.4702C161.202 42.4702 161.989 41.5903 161.989 40.5283C161.989 39.4013 161.224 38.5864 160.065 38.5864C158.907 38.5864 158.138 39.4013 158.138 40.5283ZM158.885 40.5283C158.885 39.8218 159.327 39.1369 160.07 39.1369C160.813 39.1369 161.255 39.8218 161.255 40.5283C161.255 41.1915 160.888 41.9154 160.07 41.9154C159.252 41.9154 158.885 41.1915 158.885 40.5283Z" fill="white"/>
<path d="M162.926 38.6731H163.607V39.2582H163.62C163.828 38.8378 164.328 38.582 164.858 38.582C165.836 38.582 166.273 39.1802 166.273 40.1771V42.3791H165.575V40.4589C165.575 39.592 165.385 39.1715 164.779 39.1325C163.974 39.1325 163.625 39.7567 163.625 40.6626V42.3791H162.926V38.6687V38.6731Z" fill="white"/>
<path d="M169.545 37.3076H172.295V37.9448H170.283V39.4315H172.202V40.0687H170.283V42.3834H169.545V37.3076Z" fill="white"/>
<path d="M173.719 40.5283C173.719 39.8218 174.157 39.1369 174.904 39.1369C175.651 39.1369 176.08 39.8218 176.08 40.5283C176.08 41.1915 175.722 41.9154 174.904 41.9154C174.086 41.9154 173.719 41.1915 173.719 40.5283ZM172.976 40.5283C172.976 41.5946 173.763 42.4702 174.904 42.4702C176.044 42.4702 176.823 41.5903 176.823 40.5283C176.823 39.4013 176.049 38.5864 174.904 38.5864C173.759 38.5864 172.976 39.4013 172.976 40.5283Z" fill="white"/>
<path d="M181.107 42.3832H180.435V41.7937H180.421C180.209 42.2142 179.705 42.4699 179.179 42.4699C178.202 42.4699 177.764 41.8717 177.764 40.8748V38.6729H178.458V40.5887C178.458 41.4556 178.657 41.8804 179.254 41.9151C180.054 41.9151 180.413 41.2909 180.413 40.3893V38.6729H181.107V42.3832Z" fill="white"/>
<path d="M182.296 42.3835H182.99V40.667C182.99 39.7611 183.344 39.1369 184.144 39.1369C184.75 39.1759 184.94 39.5964 184.94 40.4633V42.3835H185.638V40.1815C185.638 39.1803 185.205 38.5864 184.224 38.5864C183.693 38.5864 183.198 38.8378 182.986 39.2626H182.972V38.6775H182.296V42.3878V42.3835Z" fill="white"/>
<path d="M187.323 40.5153C187.306 39.8391 187.602 39.1369 188.358 39.1369C189.114 39.1369 189.481 39.8434 189.481 40.5369C189.481 41.1568 189.154 41.9197 188.367 41.9197C187.58 41.9197 187.306 41.0961 187.323 40.5153ZM189.508 42.3835H190.175V36.9263H189.481V39.1846H189.463C189.247 38.8421 188.866 38.5864 188.208 38.5864C187.107 38.5864 186.576 39.4706 186.576 40.4633C186.576 41.4559 187.058 42.4702 188.199 42.4702C188.875 42.4702 189.3 42.1321 189.494 41.859H189.508V42.3835Z" fill="white"/>
<path d="M193.61 40.94C193.61 41.4948 193.243 41.9153 192.554 41.9153C192.235 41.9153 191.851 41.7029 191.851 41.3171C191.851 40.6583 192.784 40.6019 193.168 40.6019C193.314 40.6019 193.46 40.6149 193.61 40.6149V40.94ZM191.577 39.514C191.864 39.2799 192.288 39.1325 192.677 39.1325C193.376 39.1325 193.615 39.4663 193.615 40.1035C193.336 40.0861 193.151 40.0861 192.872 40.0861C192.151 40.0861 191.117 40.3765 191.117 41.3128C191.117 42.1234 191.687 42.4658 192.501 42.4658C193.137 42.4658 193.509 42.1234 193.677 41.898H193.69V42.3791H194.34C194.327 42.2664 194.309 42.0713 194.309 41.6509V40.1165C194.309 39.1065 193.871 38.582 192.788 38.582C192.306 38.582 191.895 38.7251 191.546 38.9331L191.577 39.514Z" fill="white"/>
<path d="M197.496 39.2236H196.497V41.2565C196.497 41.6856 196.767 41.9154 197.081 41.9154C197.297 41.9154 197.452 41.8503 197.558 41.7853V42.3705C197.404 42.4095 197.187 42.4702 196.966 42.4702C196.25 42.4702 195.803 42.1321 195.803 41.3952V39.2236H194.95V38.6731H195.803V37.8149L196.502 37.5981V38.6731H197.501V39.2236H197.496Z" fill="white"/>
<path d="M199.203 37.0737H198.416V37.8453H199.203V37.0737ZM198.46 42.3836H199.159V38.6732H198.46V42.3836Z" fill="white"/>
<path d="M200.927 40.5283C200.927 39.8218 201.365 39.1369 202.112 39.1369C202.86 39.1369 203.293 39.8218 203.293 40.5283C203.293 41.1915 202.93 41.9154 202.112 41.9154C201.294 41.9154 200.927 41.1915 200.927 40.5283ZM200.18 40.5283C200.18 41.5946 200.967 42.4702 202.112 42.4702C203.257 42.4702 204.036 41.5903 204.036 40.5283C204.036 39.4013 203.266 38.5864 202.112 38.5864C200.958 38.5864 200.18 39.4013 200.18 40.5283Z" fill="white"/>
<path d="M204.973 38.6731H205.641V39.2582H205.658C205.866 38.8378 206.379 38.582 206.905 38.582C207.882 38.582 208.32 39.1802 208.32 40.1771V42.3791H207.626V40.4589C207.626 39.592 207.431 39.1715 206.826 39.1325C206.03 39.1325 205.676 39.7567 205.676 40.6626V42.3791H204.982V38.6687L204.973 38.6731Z" fill="white"/>
<path d="M53.6616 24.7286C53.2459 24.7286 52.9276 24.6029 52.7021 24.3472C52.4899 24.1088 52.3838 23.788 52.3838 23.3892V16.9568H54.0683V19.4101C54.0683 19.5011 54.086 19.5662 54.1214 19.6008C54.1567 19.6312 54.2363 19.6528 54.3469 19.6528H57.8574C57.937 19.6528 57.9945 19.6355 58.0298 19.6008C58.0652 19.5662 58.0829 19.4925 58.0829 19.3754V16.9568H59.7453V23.3199C59.7453 23.7317 59.648 24.0567 59.4491 24.2995C59.2369 24.5812 58.9362 24.7286 58.5383 24.7286H53.6571H53.6616ZM58.0342 21.222C58.0121 21.2003 57.9547 21.1916 57.8618 21.1916H54.3513C54.2275 21.1916 54.1435 21.2003 54.1081 21.222C54.086 21.2566 54.0727 21.339 54.0727 21.4647V22.8951C54.0727 23.0121 54.0993 23.0901 54.1479 23.1205C54.1833 23.1638 54.2584 23.1898 54.3734 23.1898H57.8662C57.937 23.1898 57.9856 23.1638 58.021 23.1205C58.0696 23.0598 58.0917 22.9904 58.0917 22.8951V21.482C58.0917 21.3477 58.0696 21.2566 58.0387 21.222H58.0342ZM57.5258 31.3128C56.7432 30.6236 56.3541 29.8087 56.3541 28.8638C56.3541 27.8581 56.7344 27.0042 57.5081 26.2934C58.2818 25.6085 59.1794 25.2617 60.214 25.2617C61.2486 25.2617 62.1594 25.6042 62.9331 26.2934C63.7422 27.0042 64.1445 27.8581 64.1445 28.8638C64.1445 29.8044 63.7466 30.6193 62.9508 31.3128C62.1682 31.9976 61.2618 32.3401 60.2449 32.3401C59.228 32.3401 58.2995 31.9976 57.5258 31.3128ZM58.6002 27.3813C58.1802 27.7671 57.9679 28.2396 57.9679 28.7987C57.9679 29.3579 58.189 29.813 58.6311 30.2031C59.0644 30.5889 59.5906 30.784 60.214 30.784C60.8374 30.784 61.3591 30.5889 61.788 30.2031C62.2301 29.8174 62.4556 29.3449 62.4556 28.7987C62.4556 28.2526 62.2345 27.7801 61.788 27.3813C61.3281 26.9912 60.802 26.8005 60.1919 26.8005C59.5817 26.8005 59.029 26.9956 58.5958 27.3813H58.6002ZM64.2241 21.6164C64.202 21.6511 64.1887 21.7464 64.1887 21.9111V25.2054H62.4777V16.584H64.1887V19.7439C64.1887 19.8696 64.202 19.9476 64.2241 19.9823C64.2595 20.03 64.3479 20.0516 64.4894 20.0516H66.6426V21.5861H64.4496C64.3214 21.5861 64.2462 21.5947 64.2241 21.6207V21.6164Z" fill="white"/>
<path d="M69.8438 23.5149H75.9142C75.9938 23.5149 76.0469 23.4933 76.0734 23.4629C76.1088 23.4369 76.1265 23.3936 76.1265 23.3242V21.3173H77.811V23.3242C77.811 23.3979 77.8243 23.4413 77.8464 23.4629C77.8729 23.4933 77.9215 23.5149 78.0011 23.5149H84.0937V25.0537H69.8482V23.5149H69.8438ZM79.2966 21.4084C78.3504 20.9402 77.6164 20.316 77.0947 19.5358C76.5244 20.3117 75.7595 20.9489 74.8045 21.4387C73.9865 21.8635 72.9652 22.2016 71.7405 22.4486L70.728 20.9402C72.302 20.8015 73.5975 20.3984 74.6099 19.7222C75.6843 19.0027 76.2237 18.1228 76.2237 17.0781V16.5146H78.0011V17.0781C78.0011 18.1098 78.4698 18.9507 79.4071 19.6008C80.3488 20.264 81.6266 20.6281 83.236 20.6975L82.2544 22.2753C81.0651 22.0715 80.0791 21.7811 79.301 21.404L79.2966 21.4084ZM74.1501 31.3952C73.3587 30.732 72.9652 29.9257 72.9652 28.9808C72.9652 27.9839 73.3543 27.1646 74.1369 26.5145C74.8708 25.8946 75.7683 25.5869 76.825 25.5869C77.8817 25.5869 78.7793 25.8989 79.553 26.5275C80.3533 27.182 80.7556 27.9969 80.7556 28.9808C80.7556 29.9648 80.3533 30.732 79.553 31.3952C78.7925 32.0237 77.895 32.3401 76.856 32.3401C75.817 32.3401 74.9062 32.0237 74.1501 31.3952ZM75.1803 27.5764C74.747 27.9275 74.5348 28.3913 74.5348 28.9461C74.5348 29.501 74.7558 29.9301 75.198 30.2855C75.6269 30.6323 76.1663 30.8013 76.825 30.8013C77.4838 30.8013 78.0409 30.6323 78.4698 30.2855C78.9031 29.9431 79.1153 29.4966 79.1153 28.9461C79.1153 28.3956 78.8898 27.9275 78.4344 27.5764C77.9923 27.2427 77.4484 27.0779 76.8029 27.0779C76.1574 27.0779 75.6136 27.2427 75.1803 27.5764Z" fill="white"/>
<path d="M87.7632 24.7286H93.228C93.3075 24.7286 93.365 24.7113 93.4004 24.6766C93.4358 24.6549 93.449 24.6073 93.449 24.5422V22.1756H95.138V24.5422C95.138 24.6029 95.1512 24.6463 95.1733 24.6766C95.2087 24.7113 95.2529 24.7286 95.3148 24.7286H102.035V26.2674H87.7632V24.7286ZM98.37 21.9068C98.37 21.7551 98.339 21.6598 98.2815 21.6164C98.2329 21.5817 98.1312 21.5644 97.9853 21.5644H89.6865V19.9823H98.0163C98.1445 19.9823 98.2373 19.9476 98.2992 19.8826C98.339 19.8349 98.3655 19.7396 98.3655 19.5922V18.6689C98.3655 18.5216 98.3346 18.4219 98.2771 18.3785C98.2152 18.3352 98.1224 18.3092 97.9809 18.3092H89.598V16.7271H98.8032C99.21 16.7271 99.5283 16.8528 99.7627 17.1042C99.9749 17.3469 100.077 17.6676 100.077 18.0664V23.9354H98.37V21.9112V21.9068ZM89.9694 31.1958C89.7572 30.9357 89.6555 30.5976 89.6555 30.1858V26.8742H91.4152V29.8261C91.4152 29.9388 91.424 30.0168 91.4506 30.0515C91.4859 30.0818 91.5744 30.1035 91.7159 30.1035H100.32V31.6379H90.9731C90.5398 31.6379 90.2082 31.4905 89.9738 31.1914L89.9694 31.1958Z" fill="white"/>
<path d="M108.199 25.3791C107.721 25.3791 107.345 25.2534 107.076 24.9977C106.819 24.7592 106.687 24.4082 106.687 23.953V18.2271C106.687 17.7806 106.815 17.4555 107.058 17.2475C107.279 17.0784 107.606 16.9917 108.039 16.9917H112.607V18.5738H108.57C108.473 18.5738 108.415 18.5825 108.393 18.5955C108.38 18.6172 108.371 18.6735 108.371 18.7646V20.1516C108.371 20.221 108.38 20.2687 108.393 20.2903C108.415 20.312 108.473 20.325 108.57 20.325H112.156V21.9071H108.57C108.473 21.9071 108.415 21.9071 108.393 21.9201C108.38 21.9331 108.371 21.9851 108.371 22.0762V23.5456C108.371 23.6626 108.384 23.7363 108.411 23.771C108.442 23.8187 108.526 23.8403 108.654 23.8403H109.388C109.994 23.8403 110.591 23.8143 111.192 23.771C111.74 23.7233 112.394 23.6626 113.155 23.5803L113.398 24.9846C112.66 25.119 111.939 25.2187 111.227 25.2751C110.577 25.3444 109.901 25.3791 109.198 25.3791H108.199ZM108.809 31.1961C108.601 30.936 108.495 30.5979 108.495 30.1861V26.8745H110.179V29.8263C110.179 29.939 110.201 30.0171 110.25 30.0517C110.294 30.0821 110.387 30.1037 110.529 30.1037H119.208V31.6382H109.817C109.388 31.6382 109.052 31.4908 108.804 31.1917L108.809 31.1961ZM114.411 22.1542C114.411 22.0545 114.388 21.9765 114.34 21.9288C114.296 21.8811 114.229 21.8638 114.128 21.8638H112.399V20.3727H114.128C114.247 20.3727 114.322 20.351 114.358 20.3033C114.393 20.2687 114.406 20.195 114.406 20.0779V16.7013H116.073V27.5897H114.406V22.1542H114.411ZM117.36 16.5713H118.969V27.8064H117.36V16.5713Z" fill="white"/>
<path d="M123.594 27.1474H137.853V28.6818H123.594V27.1474ZM133.024 24.1912C132.118 23.7795 131.362 23.2506 130.765 22.5961C130.195 23.2246 129.395 23.7795 128.369 24.2606C127.414 24.7027 126.392 25.0191 125.305 25.2055L124.376 23.6754C126.021 23.5411 127.374 23.1336 128.422 22.4574C129.337 21.8853 129.788 21.2958 129.788 20.6889C129.788 20.6066 129.775 20.5589 129.739 20.5372C129.717 20.5025 129.664 20.4852 129.598 20.4852H125.358V18.9291H135.982V20.4852H131.888C131.782 20.4852 131.72 20.4895 131.694 20.5025C131.672 20.5242 131.658 20.5892 131.658 20.6933C131.658 21.3001 132.092 21.8723 132.954 22.4097C133.966 23.0426 135.315 23.4067 136.995 23.5107L136.013 25.0365C134.886 24.8674 133.887 24.5857 133.024 24.1956V24.1912ZM128.073 16.3457H133.639V17.9278H128.073V16.3457Z" fill="white"/>
<path d="M148.062 23.9877C147.482 23.4892 147.014 22.9171 146.651 22.2712C146.205 23.0038 145.599 23.6886 144.816 24.3345C144.06 24.963 143.203 25.5048 142.243 25.9599L141.195 24.6249C142.592 24.1481 143.702 23.4415 144.52 22.514C145.347 21.5647 145.758 20.5157 145.758 19.3714V18.9119C145.758 18.7949 145.749 18.7256 145.723 18.7039C145.701 18.6822 145.656 18.6692 145.586 18.6692H142.42V17.1565H150.79V18.6692H147.659C147.575 18.6692 147.531 18.6735 147.518 18.6865C147.509 18.6952 147.5 18.7299 147.5 18.7862L147.518 18.9076V19.3497C147.518 20.4811 147.823 21.426 148.429 22.1802C149.048 22.9387 150.011 23.5412 151.316 24.0007L150.215 25.3227C149.348 24.9196 148.632 24.4732 148.062 23.979V23.9877ZM144.609 31.1961C144.414 30.936 144.317 30.5979 144.317 30.1861V26.3804H146.023V29.8307C146.023 29.9434 146.041 30.0214 146.072 30.0561C146.112 30.0864 146.2 30.1081 146.355 30.1081H154.804V31.6425H145.581C145.152 31.6425 144.825 31.4951 144.604 31.1961H144.609ZM152.859 16.5713H154.618V27.8238H152.859V16.5713Z" fill="white"/>
<path d="M159.429 24.2606H173.688V25.795H159.429V24.2606ZM161.02 18.461H171.994V19.952H169.315C169.447 20.1471 169.54 20.3508 169.615 20.5719C169.695 20.7973 169.735 21.0444 169.735 21.3044C169.735 22.1627 169.394 22.8345 168.718 23.3287C168.125 23.7621 167.392 23.9788 166.516 23.9788C165.641 23.9788 164.849 23.7534 164.204 23.2983C163.501 22.8042 163.156 22.141 163.156 21.2958C163.156 21.0183 163.182 20.7713 163.24 20.5545C163.315 20.3248 163.417 20.1254 163.554 19.9564H161.016V18.4653L161.02 18.461ZM163.824 31.5166C163.014 30.9271 162.616 30.1426 162.616 29.1846C162.616 28.2267 163.006 27.4031 163.788 26.7963C164.518 26.2371 165.428 25.9597 166.516 25.9597C167.604 25.9597 168.479 26.2371 169.213 26.7963C170.022 27.4031 170.42 28.2007 170.42 29.1846C170.42 30.1686 170.013 30.9011 169.191 31.495C168.457 32.0584 167.564 32.3359 166.512 32.3359C165.459 32.3359 164.549 32.0584 163.815 31.5123L163.824 31.5166ZM163.908 16.3457H169.279V17.9538H163.908V16.3457ZM164.827 27.8756C164.394 28.1834 164.182 28.6125 164.182 29.1673C164.182 29.6874 164.407 30.0906 164.849 30.3896C165.269 30.6671 165.826 30.8014 166.512 30.8014C167.197 30.8014 167.732 30.6671 168.13 30.3896C168.55 30.0906 168.758 29.6831 168.758 29.1673C168.758 28.6168 168.537 28.1834 168.09 27.8756C167.674 27.5765 167.135 27.4248 166.476 27.4248C165.818 27.4248 165.247 27.5765 164.827 27.8756ZM165.229 20.3248C164.893 20.5676 164.721 20.884 164.721 21.2958C164.721 21.7075 164.893 22.0066 165.229 22.232C165.557 22.4401 165.977 22.5398 166.485 22.5398C166.994 22.5398 167.396 22.4314 167.71 22.2147C168.046 21.9893 168.214 21.6859 168.214 21.2958C168.214 20.8753 168.037 20.5459 167.692 20.3075C167.365 20.1038 166.945 19.9997 166.432 19.9997C165.919 19.9997 165.539 20.1081 165.225 20.3248H165.229Z" fill="white"/>
<path d="M182.627 25.1667C182.212 24.5599 181.858 23.901 181.57 23.1771C181.257 23.901 180.832 24.6032 180.297 25.3011C179.749 26.0033 179.108 26.6708 178.374 27.308L177.198 26.1073C178.422 25.2317 179.333 24.2391 179.93 23.1425C180.487 22.1368 180.77 21.0445 180.77 19.8655V19.094C180.77 19.016 180.722 18.9553 180.629 18.9206C180.576 18.9076 180.487 18.9033 180.39 18.9033H178.078V17.2952H184.962V18.9033H182.791C182.649 18.9033 182.561 18.9076 182.525 18.9206C182.481 18.9466 182.459 19.003 182.459 19.094V19.8655C182.459 21.0575 182.667 22.1022 183.087 23.0038C183.578 24.0917 184.396 25.0453 185.554 25.8732L184.435 27.1736C183.706 26.5234 183.109 25.8516 182.632 25.1667H182.627ZM189.029 22.735C189.029 22.6527 189.012 22.6006 188.976 22.579C188.963 22.566 188.945 22.5616 188.923 22.5616H187.53C187.464 22.5616 187.42 22.5703 187.407 22.592C187.398 22.618 187.389 22.683 187.389 22.787V29.783H185.704V16.6927H187.389V20.8972C187.389 20.9622 187.398 21.0055 187.407 21.0142C187.42 21.0402 187.464 21.0489 187.53 21.0489H188.923C188.958 21.0489 188.989 21.0315 189.012 20.9969C189.025 20.9882 189.029 20.9665 189.029 20.9448V16.5713H190.67V30.0257H189.029V22.735Z" fill="white"/>
<path d="M197.439 25.1447C197.001 25.1447 196.652 25.0016 196.391 24.7155C196.148 24.4555 196.028 24.1217 196.028 23.7229V18.166C196.028 17.7889 196.139 17.4942 196.36 17.2905C196.577 17.0954 196.873 17 197.244 17H203.35V18.5822H197.89C197.81 18.5822 197.761 18.5908 197.748 18.6038C197.731 18.6168 197.713 18.6472 197.713 18.7035L197.731 18.7512V23.3111C197.731 23.4022 197.744 23.4715 197.784 23.5192C197.819 23.5669 197.885 23.5886 197.974 23.5886H200.37C200.971 23.5886 201.63 23.5625 202.329 23.5062C202.943 23.4498 203.646 23.3762 204.429 23.2851L204.672 24.7415C203.96 24.8542 203.235 24.9496 202.488 25.019C201.67 25.11 200.958 25.1533 200.37 25.1533H197.43L197.439 25.1447ZM197.868 31.1957C197.673 30.9356 197.576 30.5975 197.576 30.1857V26.38H199.26V29.8303C199.26 29.943 199.278 30.021 199.331 30.0557C199.362 30.086 199.455 30.1077 199.61 30.1077H208.112V31.6421H198.876C198.425 31.6421 198.089 31.4948 197.868 31.1957ZM207.586 22.4572C207.572 22.4832 207.568 22.5699 207.568 22.7303V27.9838H205.813V16.5796H207.568V20.5977C207.568 20.7104 207.577 20.7841 207.603 20.8188C207.634 20.8621 207.723 20.8838 207.847 20.8838H210V22.4226H207.776C207.67 22.4226 207.608 22.4312 207.581 22.4572H207.586Z" fill="white"/>
<path d="M7.80371 6.80518L7.86149 7.0089C7.96371 6.93521 8.02148 6.86152 7.80371 6.80518Z" fill="#BED73D"/>
<path d="M5.88113 14.8632C5.89446 14.7505 5.88113 14.6725 5.85891 14.6118L5.77002 14.6552L5.88113 14.8676V14.8632Z" fill="#BED73D"/>
<path d="M10.6028 7.00881C10.7443 6.93512 10.8902 6.83976 11.0361 6.69238C10.7531 6.70539 10.5895 6.8571 10.6028 7.00881Z" fill="#BED73D"/>
<path d="M8.24159 14.8892L7.85693 14.9282C8.00726 14.9975 8.14432 14.9628 8.24159 14.8892Z" fill="#BED73D"/>
<path d="M38.718 39.3141C38.718 39.3141 38.665 39.3401 38.6473 39.3618C38.4704 38.911 38.1388 38.3345 37.7409 38.0138C37.7321 37.9921 37.7277 37.9747 37.7188 37.9531C37.7232 37.9617 37.7321 37.9661 37.7365 37.9747L37.8205 37.7147C38.1521 38.0874 38.4351 38.2088 38.6782 38.2912C38.6296 38.1611 38.5854 38.0354 38.5368 37.9054C38.5147 37.9271 38.4837 37.9314 38.466 37.9531C38.2892 37.4979 37.9531 36.9215 37.5552 36.5964C37.4314 36.3623 37.2811 36.1282 37.1087 35.9245C37.1661 35.9765 37.2192 36.0285 37.259 36.0892L37.343 35.8248C37.6702 36.2019 37.9576 36.3233 38.2007 36.4013C38.1521 36.2713 38.1079 36.1456 38.0593 36.0155C38.0371 36.0329 38.0106 36.0415 37.9929 36.0632C37.7984 35.5691 37.4182 34.9276 36.9672 34.6328C36.9981 34.7238 37.0335 34.8149 37.091 34.9016C37.0821 34.9969 37.0645 35.0619 37.0423 35.1226C37.2148 35.244 37.3651 35.335 37.3032 35.426C37.2015 35.3654 37.1131 35.257 37.0247 35.166C36.923 35.3957 36.7329 35.3523 36.5825 35.322C36.6002 35.4044 36.6267 35.478 36.6754 35.5387C36.5825 35.4824 36.4897 35.439 36.3924 35.4217C36.3791 35.4737 36.3791 35.5214 36.3924 35.5691C36.3968 35.5951 36.4057 35.6211 36.4101 35.6471C36.5427 36.0112 37.1838 36.2019 37.0689 36.3666C36.8257 36.2236 36.6754 35.8205 36.357 35.9505C36.3482 35.9895 36.3482 36.0242 36.3438 36.0589C36.357 36.1196 36.3747 36.1846 36.388 36.2496C36.3747 36.2409 36.357 36.2366 36.3394 36.2323C36.3526 36.332 36.388 36.4186 36.441 36.488C36.4632 36.5704 36.4808 36.6527 36.4985 36.7394C36.7152 36.9041 36.9628 37.0255 36.8876 37.1295C36.7505 37.0472 36.64 36.8781 36.5074 36.7741C36.5693 37.0472 36.6312 37.3332 36.6886 37.6193C36.7505 37.6713 36.808 37.7277 36.8434 37.7927L36.9274 37.5326C37.0556 37.6757 37.175 37.7754 37.2899 37.862C37.2723 38.3172 38.0946 38.5382 37.9664 38.7246C37.7277 38.5816 37.5729 38.1785 37.2546 38.3085C37.0954 38.963 37.7188 39.041 37.9266 39.3878L38.0106 39.1234C38.3378 39.4962 38.6252 39.6175 38.8684 39.6999C38.8197 39.5699 38.7755 39.4442 38.7269 39.3141H38.718ZM37.0689 36.8694L37.0998 36.7741C37.1352 36.8131 37.1706 36.8434 37.2059 36.8781C37.1661 36.8781 37.1264 36.8781 37.0866 36.8954C37.0777 36.8868 37.0733 36.8781 37.0689 36.8694ZM37.6658 37.2205C37.7055 37.2422 37.7453 37.2639 37.7807 37.2769C37.7807 37.2899 37.7851 37.2986 37.7807 37.3116C37.7409 37.2856 37.7055 37.2552 37.6702 37.2205H37.6658Z" fill="#BED73D"/>
<path d="M37.8954 40.6448C37.8511 40.5147 37.8025 40.389 37.7539 40.259C37.7318 40.2763 37.7052 40.285 37.6876 40.3067C37.5328 39.9209 37.2719 39.4441 36.9536 39.1104C37.0111 39.4701 37.0597 39.8125 37.0907 40.1116C37.4002 40.4454 37.6699 40.5624 37.8998 40.6404L37.8954 40.6448Z" fill="#BED73D"/>
<path d="M2.12798 12.4194C2.12798 12.4194 2.10031 12.3926 2.0957 12.3882C2.10031 12.3926 2.11415 12.406 2.12798 12.4194Z" fill="#BED73D"/>
<path d="M36.1667 36.7222C36.3038 36.6659 36.4055 36.7092 36.5027 36.7829C36.5027 36.7699 36.4983 36.7569 36.4939 36.7439C36.3082 36.6009 36.1446 36.4275 36.2109 36.1891C36.2551 36.1977 36.2949 36.2194 36.3347 36.2324C36.3259 36.1804 36.3303 36.1197 36.3347 36.059C36.2949 35.8943 36.2551 35.7296 36.2198 35.5822L36.485 35.916C36.4453 35.8076 36.4231 35.7209 36.401 35.6516C36.3922 35.6256 36.3878 35.5996 36.3834 35.5736C36.3259 35.2918 36.432 35.3005 36.5823 35.3265C36.5646 35.2355 36.5602 35.1401 36.5912 35.0144C36.7769 34.9407 36.9051 35.0404 37.0244 35.1705C37.0289 35.1574 37.0333 35.1444 37.0377 35.1314C36.8122 34.9754 36.5514 34.7803 36.6265 34.4856C36.7415 34.5073 36.852 34.568 36.9626 34.6373C36.6619 33.7227 37.5285 32.8298 37.3958 32.2706C36.9183 31.148 37.051 32.8775 36.5514 32.2533C36.2861 31.6595 36.7459 31.8459 36.7105 31.4124L36.0385 31.356C35.6494 30.7189 36.5735 31.109 36.18 30.8142C36.2905 30.1337 36.4806 30.8966 36.9935 30.8576C36.8078 30.7752 36.317 30.2681 36.4276 29.917C36.5867 29.8563 36.9449 30.5758 36.799 30.0774C35.7025 28.4909 36.1977 27.7454 35.2294 26.3106L35.5743 26.2933C35.4195 26.1589 35.225 26.0982 35.225 25.8815L35.4549 25.8685C35.3311 25.6518 34.1196 24.3558 33.5183 23.3978L34.1683 23.6666L33.2177 23.0814L33.7394 22.8603C33.0674 22.8993 32.7358 21.677 31.9576 21.0615L32.2361 20.8578L31.7056 20.537H32.0195C31.6216 20.1122 30.7373 19.9605 30.5251 19.2757C30.7196 19.6701 31.206 19.397 31.3651 19.2106C30.8346 18.8856 30.3084 18.5778 29.7381 18.3091C29.8884 18.1183 29.3977 17.5202 29.9768 17.7152L29.1987 17.5072L29.4374 17.3555C27.8413 14.9845 24.7243 15.0321 23.2564 12.5354L23.3581 12.4834C22.801 12.3404 22.2528 12.1973 21.6692 12.1063C21.4614 11.8983 21.6515 11.4518 21.3331 11.053C21.2536 11.6079 20.5064 10.6196 20.02 10.845C19.8034 10.4679 20.2013 10.5546 20.3958 10.4375C19.2861 9.21518 17.7474 9.42757 16.3459 8.39162C17.6236 9.71365 17.659 9.60095 18.5742 10.3552C17.2169 10.0344 17.2788 9.4059 15.8463 8.99845L16.5802 9.0418C16.1646 8.05352 14.3076 8.60401 14.4049 7.72843C13.5295 7.49003 12.5082 8.14455 11.5266 7.70242L12.1766 7.10859L11.2083 6.83118L11.0712 7.32098C10.7529 7.26463 10.6203 7.12593 10.607 6.99589C9.81115 7.42501 8.92246 6.96988 7.94093 7.26463L7.86576 6.99589C7.78618 7.05224 7.68007 7.10425 7.65354 7.1476C7.52974 6.64913 6.73832 6.7965 6.72948 6.38472C7.05224 6.28503 7.80386 6.12031 7.71102 6.39772C8.55549 5.98594 6.77811 5.99461 6.23871 6.02062C6.7958 6.28503 6.05744 6.31537 5.74352 6.40206C5.69489 6.33271 5.801 6.30236 5.85406 6.20267C5.36771 6.04663 5.03169 6.28503 4.74872 6.44974L4.54092 6.55377L4.43923 6.57977H4.4127H4.39944C3.91751 6.65346 4.18279 6.80084 4.16069 6.81817C4.25796 6.71848 1.19397 8.50431 1.7378 9.26719V9.27586V9.31921C1.72895 9.43624 1.64053 9.56194 1.41504 9.70065L1.89696 9.84369L1.54326 10.4982C2.51153 10.5546 1.63611 11.4258 2.53806 11.5255C2.56459 12.2797 1.98539 11.4258 2.08708 11.6945C2.03845 11.8679 2.06055 12.076 2.10919 12.2927L2.12687 12.3751V12.3837C2.3612 12.6135 0.482138 13.0209 4.47902 14.6854H4.50555L4.65588 14.7244L4.81946 14.577L5.00958 14.5467C5.41192 14.434 5.76563 14.3473 5.8629 14.577C6.45094 14.2996 7.06108 14.4817 7.55627 14.395L7.54301 14.8067C7.80386 14.7504 8.12662 14.5944 8.36095 14.7071L8.25042 14.8588C9.21427 14.7634 9.97916 14.8458 10.7617 15.0668C10.6512 15.3182 10.6026 15.4829 10.1472 15.4613C10.7396 16.0551 12.1854 15.3702 13.1979 15.9597L13.0476 16.1201L13.755 16.0248C13.587 16.1071 13.6135 16.2632 13.5516 16.4235C14.5464 16.8266 15.7136 17.3858 16.5935 16.9177C16.2353 16.9697 16.8145 17.5592 16.0939 17.5852C17.3539 17.5202 18.477 18.4088 19.6044 18.8986V18.8639L20.1394 18.9852L20.1305 19.0676L19.7591 18.9679C20.1969 19.202 20.639 19.3754 21.0988 19.41C21.0811 19.5704 20.9485 19.9389 21.0944 20.2206C21.4481 19.8088 21.9256 21.4169 22.7214 21.4039C22.6861 21.56 22.465 21.3086 22.5004 21.573C23.6809 22.4529 25.7501 23.6319 26.5105 25.331C27.3948 24.8369 28.1508 26.1849 29.0484 26.8004C28.6814 27.3206 28.4869 26.484 27.974 26.51C28.3852 26.9045 27.4257 26.9955 28.3498 27.559C28.2393 27.5763 28.1995 27.6413 28.0889 27.468C28.3454 27.9448 28.646 26.9912 28.9467 27.7931L28.6107 28.0315L29.3623 28.1918C29.9547 29.8303 30.923 31.0353 31.0203 32.6087C31.1397 32.6608 31.3165 32.5567 31.3519 32.34C31.6172 32.9642 32.497 33.5493 32.3025 34.4336L32.077 34.2732C32.0637 35.3395 32.665 35.4045 33.0939 36.2064C32.9436 36.2237 32.78 36.0417 32.5987 36.0157L33.704 37.9749L33.4785 37.7105L33.5449 38.1396L33.7792 38.0703L33.7173 37.9966C33.8234 37.9966 33.903 37.9489 33.9782 37.9056C33.9737 37.9056 33.9693 37.9056 33.9649 37.9142L34.0179 38.0139C34.0268 38.0833 34.0401 38.1526 34.0489 38.222C34.0268 38.7421 33.8632 39.7001 34.1904 40.0858C34.2036 40.3676 34.2479 41.3689 34.6192 41.7416C34.2346 41.915 34.0754 42.058 34.858 42.0407C34.7519 42.1144 34.6546 42.1968 34.5883 42.2964C35.0304 42.6172 35.5698 41.8977 35.7334 42.0754C35.5345 42.2704 35.1012 42.3225 35.1586 42.6562C35.7688 42.9596 35.9899 42.3875 36.3834 42.2704L36.1446 42.1274C36.5204 41.9367 36.7061 41.7373 36.8388 41.5509C37.0068 41.4209 36.9979 41.3082 36.8653 41.2388L37.0598 41.1738C37.1571 41.0481 37.1615 40.632 37.104 40.0728C37.0863 40.0555 37.0731 40.0425 37.0554 40.0251L36.9714 40.2896C36.7636 39.9471 36.1402 39.8648 36.2994 39.2103C36.6221 39.0802 36.7724 39.4833 37.0112 39.6264C37.1482 39.4313 36.1977 39.2016 36.3391 38.6814C36.5602 38.7248 36.7724 38.8722 36.967 39.0715C36.8918 38.5991 36.7945 38.0919 36.6928 37.5848C36.432 37.3637 36.0518 37.2077 36.18 36.6789L36.1667 36.7222ZM4.51439 12.9472C3.35158 11.8506 4.24911 12.4574 4.06342 12.1193C4.21374 11.8896 4.42154 11.6512 4.30659 11.4518C4.36849 11.4301 4.42155 11.4128 4.47902 11.3998V11.4865V12.4097C4.35523 12.3751 4.26238 12.3231 4.23585 12.2494C4.18721 12.284 4.08995 12.2797 4.51439 12.6785L4.80178 12.7132C4.71777 12.8865 4.62493 12.9472 4.51881 12.9472H4.51439ZM4.47902 12.4141C4.78409 12.4141 5.08474 12.4271 5.38982 12.4401V12.4488C5.15549 12.4878 4.7443 12.4878 4.4746 12.4141H4.47902ZM5.80984 9.2932L5.81869 9.28453L5.82753 9.2932H5.83195C5.83195 9.2932 5.81426 9.2932 5.80542 9.2932H5.80984ZM6.12818 14.3646L6.00438 14.3256L6.49515 14.0872L6.12818 14.369V14.3646ZM6.24313 9.32354V9.29754V9.28887V9.28453C6.29177 9.23685 6.27408 9.25419 6.20334 9.32354C6.15471 9.32354 6.10165 9.31487 6.05302 9.31487C6.25198 9.24119 6.43325 9.11982 6.57473 8.91176C6.62779 9.10682 6.61453 9.23252 6.62779 9.35822C6.49957 9.34522 6.37135 9.34088 6.24313 9.33221V9.32354ZM12.8884 7.96683C13.1493 8.1142 12.6718 8.29192 12.5126 8.46097C12.6408 8.53032 12.7425 8.52599 12.9547 8.51732C12.6275 9.1675 12.5214 8.14455 11.845 8.3396C11.9467 8.01451 12.6187 8.14021 12.8928 7.96683H12.8884ZM9.10374 9.33655C9.13468 9.01579 9.20543 9.08514 9.49281 9.12415C9.56797 9.10682 9.6564 9.10248 9.76251 9.13716L9.49281 9.12415C9.14353 9.20651 9.08605 9.71799 8.59086 9.34955C8.75445 9.24119 8.94457 9.44491 9.10374 9.33655ZM9.25406 9.70932H9.23195C9.23195 9.70932 9.20985 9.70932 9.201 9.70065L9.25406 9.70932ZM8.79424 14.642C8.10894 14.8718 8.64834 14.0309 8.35211 14.2563C8.67487 13.8661 9.35133 14.0482 9.83768 14.0265C9.87747 14.4123 9.3248 14.7677 8.79424 14.642ZM10.6777 7.34266L10.4124 7.29497C10.5186 7.26463 10.6026 7.29498 10.6777 7.34266L11.0978 7.41634C10.9784 7.71543 10.8767 7.46402 10.6777 7.34266ZM10.7529 10.0517C10.9297 10.0517 11.0889 9.99973 11.1906 9.81335C11.2171 9.97806 11.1818 10.0778 11.1199 10.1471C10.9961 10.1124 10.8767 10.0864 10.7529 10.0517ZM11.9024 15.2662L11.142 14.8197C11.761 14.3039 11.6593 14.9585 11.9024 15.2662L12.1456 15.4136C12.0351 15.3962 11.9599 15.3399 11.9024 15.2662ZM11.7831 14.7504C12.4418 14.382 12.5922 14.0872 13.3482 14.0872L13.3571 14.5683C13.136 14.4166 13.3482 14.0785 12.7911 14.1826C12.7734 14.4947 12.3667 15.1578 11.7786 14.7504H11.7831ZM12.716 15.4483C12.8486 15.2055 13.2819 15.5176 13.4941 15.6737L12.716 15.4483ZM13.3968 15.2012C13.2907 15.1232 13.1979 15.1232 13.0166 15.1275C13.5472 15.0408 14.4889 15.0365 14.5287 14.7201C14.343 15.2705 13.6002 15.2792 13.3968 15.2012ZM16.085 11.014L16.6686 11.0834L16.5625 10.988L16.8234 10.78C16.3238 11.4431 17.4512 11.1744 17.7651 11.2958C17.3584 11.2437 16.5493 11.7119 16.0806 11.014H16.085ZM16.3591 15.5089C16.3901 15.3139 16.5891 15.2359 16.8057 15.2229H16.8101H16.8013C16.6421 15.2835 16.8366 15.5523 16.3547 15.5089H16.3591ZM16.5448 16.4755C16.4476 16.3889 17.2213 16.8483 17.5131 17.0304C17.2346 17.0824 16.4785 16.7876 16.5448 16.4755ZM17.4247 17.5592C17.407 17.6545 17.3318 17.7152 17.0798 17.6155L17.4247 17.5592C17.4556 17.3858 17.2832 17.052 17.7121 17.5332L17.4247 17.5592ZM17.8359 12.8779C17.7917 12.8562 17.7474 12.8345 17.7032 12.8085C17.7651 12.8085 17.8314 12.8129 17.8933 12.8215L17.8314 12.8779H17.8359ZM19.8034 13.2593L20.387 13.0556L20.8777 13.4024L19.8078 13.2593H19.8034ZM23.0177 13.398C22.3766 13.6711 22.5932 13.0643 22.0892 13.0079C22.4119 12.9819 22.9602 12.7218 23.0177 13.398ZM22.3722 18.8249C22.2439 18.7295 21.8372 18.4218 21.846 18.1964C22.1201 18.3958 22.3898 18.6038 22.6595 18.8119C22.5623 18.8119 22.4694 18.8119 22.3722 18.8249ZM22.3854 14.3776L22.6595 14.6204C22.3943 14.2086 23.451 14.5207 22.9911 13.9702C22.8054 13.7491 23.5792 13.9788 23.7649 14.2866C23.5526 14.473 23.0928 14.0005 23.0663 14.408L23.2476 14.629C22.9779 14.2996 22.6374 15.0278 22.3898 14.3776H22.3854ZM23.9019 21.5426C25.1222 20.7494 23.2432 21.0398 23.1901 20.3506C23.3846 20.3376 23.619 20.5977 23.8224 20.5067C23.7914 20.3116 23.5703 20.0472 23.336 19.9649C23.2343 20.0082 23.1282 20.0169 23.0707 19.9649C23.1547 19.9215 23.2432 19.9345 23.336 19.9649C23.4333 19.9215 23.5173 19.8478 23.5571 19.7611L23.5173 19.5314C23.588 19.6094 23.588 19.6874 23.5571 19.7611C23.7295 20.2639 24.4811 21.1092 24.9719 21.4603C24.9852 21.807 24.1893 21.5513 23.9019 21.5426ZM25.1001 16.6489C25.0426 16.6403 24.9763 16.6056 24.8879 16.5276L25.1001 16.6489C25.2593 16.6749 25.3123 16.4755 25.3963 16.3802L25.3256 16.1808L25.781 16.4409L25.5025 16.3325C25.2858 16.5059 25.7987 16.9567 26.0021 16.9523C25.7235 17.1864 25.4096 16.8613 25.1045 16.6489H25.1001ZM26.1568 24.5205C26.453 24.5075 26.0595 24.2734 26.0109 24.1564L26.4265 24.5855C26.369 24.7372 26.2408 24.5638 26.1612 24.5205H26.1568ZM25.3742 21.3866C25.4627 21.4039 25.5599 21.4299 25.6528 21.4516C25.9976 21.794 26.3337 22.1495 26.6608 22.5092C25.9623 22.2665 25.2593 22.0498 25.3742 21.3909V21.3866ZM27.2577 20.0515C27.0986 19.8868 26.9394 19.7221 26.7758 19.5574C26.9792 19.6138 27.1737 19.5704 27.1428 19.4534C27.1428 19.7785 27.3417 19.9085 27.2577 20.0472V20.0515ZM27.4876 24.1044L27.5716 23.8746L27.7043 24.3254L27.4921 24.1044H27.4876ZM27.7264 16.1895L27.1516 15.9597L27.1649 15.8774L27.7397 16.1114L27.7264 16.1895ZM35.4593 32.6998L35.6406 32.9208C35.6096 33.0509 35.5521 33.1029 35.4858 33.1072C35.4328 32.9598 35.3753 32.8168 35.3267 32.6738C35.3665 32.6738 35.4107 32.6738 35.4593 32.6998ZM29.968 26.8611C30.0697 27.0215 30.167 27.1819 30.2642 27.3423C30.1581 27.3336 30.052 27.3293 29.9547 27.3163C30.0122 27.7064 30.3659 27.8104 30.6312 27.9708C31.0114 28.6426 31.3651 29.3275 31.6923 30.0297C30.8876 28.9287 30.0609 27.8451 29.5303 26.7007C29.8133 26.8351 29.9326 26.8785 29.9724 26.8611H29.968ZM30.167 29.1628L30.4234 28.7467L30.6931 29.2018L30.1714 29.1628H30.167ZM31.7586 31.7115L31.6746 31.9716C31.4668 31.6291 30.8478 31.5468 31.007 30.8966C31.3254 30.7666 31.4801 31.1697 31.7189 31.3127C31.8559 31.1133 30.9053 30.8836 31.0468 30.3634C31.6437 30.4848 32.1654 31.3344 32.4086 31.9499C32.4263 31.9282 32.4572 31.9195 32.4793 31.9022C32.528 32.0322 32.5722 32.1579 32.6208 32.2836C32.3821 32.2013 32.0947 32.0843 31.7631 31.7071L31.7586 31.7115ZM32.9391 34.8367C33.0187 34.8714 33.1027 34.9321 33.1735 35.0057C33.0718 34.9754 32.9966 34.9104 32.9391 34.8367ZM33.1646 36.2107C33.1381 36.1024 33.1337 36.0027 33.1469 35.916C33.1735 35.9853 33.1912 36.072 33.1823 36.2021C33.1735 36.2064 33.169 36.2107 33.1646 36.2107ZM33.0762 34.3599C33.0541 34.3209 33.0364 34.2819 33.0143 34.2429L33.0408 34.3686C32.9126 34.3946 32.8153 34.4769 32.8596 34.7197C32.6783 34.3295 32.7711 33.688 32.5677 33.5103C32.7446 33.4583 32.8684 33.4886 32.9612 33.5233C33.0055 33.7704 33.0629 34.0088 33.2265 34.1605C33.2442 34.2255 33.2619 34.2949 33.2796 34.3599C33.2177 34.3599 33.1469 34.3599 33.0806 34.3642L33.0762 34.3599ZM33.6952 25.2227C33.4741 25.0319 33.3547 25.0493 33.3547 24.5638C33.6068 24.7372 33.7792 25.0666 33.6952 25.2227ZM33.9163 24.9843C34.2611 25.383 34.7873 24.9799 34.7961 25.6258C34.5264 25.2877 33.9649 25.7645 33.9163 24.9843Z" fill="#BED73D"/>
<path d="M4.22699 12.1626C4.218 12.1973 4.22699 12.2276 4.23149 12.2536C4.25397 12.2406 4.26296 12.2233 4.22699 12.1626Z" fill="#BED73D"/>
<path d="M19.5869 18.9721L19.7469 19.0025L19.5914 18.9331L19.5869 18.9721Z" fill="#BED73D"/>
<path d="M22.7568 42.9898L23.3714 42.8857C23.0133 42.799 23.0796 42.9551 22.7568 42.9898Z" fill="#00AEE7"/>
<path d="M22.8007 42.6862H22.982L22.9466 42.5692C23.0218 42.7643 22.4558 42.4738 22.4824 42.3481V42.4348C22.9599 42.9376 22.668 42.5735 22.7963 42.6862H22.8007Z" fill="#00AEE7"/>
<path d="M4.03662 16.2544L4.08995 16.3541C4.16551 16.3151 4.20551 16.2761 4.03662 16.2544Z" fill="#00AEE7"/>
<path d="M6.15024 16.4191L6.45089 16.2544C6.23867 16.2674 6.12814 16.3454 6.15024 16.4191Z" fill="#00AEE7"/>
<path d="M3.47505 22.4268L3.16113 22.4614C3.28935 22.4918 3.40431 22.4701 3.47505 22.4268Z" fill="#00AEE7"/>
<path d="M0.738989 21.1782L0.694545 21.2216L0.632324 21.2823L0.734544 21.2562L0.761211 21.2519L0.738989 21.1782Z" fill="#00AEE7"/>
<path d="M26.2097 37.9965C25.9135 37.1296 26.1213 36.4794 25.9975 36.0069C25.7101 35.088 25.8339 36.4144 25.5553 35.8725C25.3962 35.3827 25.6438 35.5908 25.6128 35.257L25.2547 35.1183C25.0601 34.5635 25.5332 35.01 25.3343 34.7239C25.4006 34.2167 25.489 34.8366 25.7499 34.8843C25.6482 34.7932 25.4271 34.3208 25.4581 34.0824C25.5597 34.0564 25.7322 34.6632 25.6614 34.2601C24.9761 32.9207 24.5649 32.8644 24.3881 31.4079L24.5826 31.4513C24.4854 31.3299 24.3748 31.2519 24.3527 31.0959L24.4809 31.1262C24.3704 30.9615 23.6586 29.7912 23.1899 29.0283L23.5923 29.3274L22.9821 28.7552L23.2651 28.6902C22.8672 28.6035 23.6011 27.5762 23.0573 27.0301L23.2032 26.9347L22.845 26.6269L23.0352 26.6833C22.7434 26.3235 22.1863 26.0678 21.9829 25.5693C22.1465 25.8684 22.4118 25.7687 22.4869 25.669C22.1376 25.3526 21.7486 25.0752 21.3551 24.8064C21.4258 24.7067 21.0367 24.2299 21.4258 24.451L20.9041 24.1866L21.0367 24.1259C19.56 21.3648 17.6058 21.9413 16.2042 20.2508L16.2661 20.2291L15.006 19.8434C14.8248 19.696 14.8911 19.4576 14.6081 19.1845C14.6391 19.4966 13.967 18.8334 13.6354 18.9505C13.4143 18.7294 13.7194 18.8031 13.8432 18.7467C12.8396 18.0012 11.7961 17.9275 10.5847 17.3467C11.7166 18.1226 12.1631 18.2829 12.9192 18.8118C11.9067 18.4737 11.4026 17.9665 10.2973 17.6414L10.8456 17.7151C10.4078 17.1603 9.12123 17.299 9.06818 16.8872C8.36961 16.7745 7.69757 17.0433 6.91057 16.7658L7.33502 16.4884L6.58339 16.3237L6.52591 16.5751C6.27832 16.5535 6.16336 16.4841 6.14126 16.4191C5.57533 16.6315 4.88118 16.3584 4.15166 16.4841L4.08092 16.3541C4.02344 16.3844 3.94828 16.4147 3.92617 16.4364C3.80679 16.2067 3.22318 16.263 3.20549 16.055C3.43982 16.016 3.98807 15.9293 3.93501 16.0636C4.54516 15.8426 3.22318 15.8859 2.83852 15.8643C3.24971 16.0073 2.7103 16.0073 2.47597 16.0463C2.4406 16.0116 2.51576 15.9986 2.55998 15.9509C2.19743 15.8643 1.94983 15.977 1.73761 16.055L1.58286 16.1027L1.54307 16.1113H1.52539C1.49886 16.1373 1.49444 16.1937 1.43696 16.198C-0.362522 16.3281 0.835659 16.7875 0.150352 17.4637H0.154773V17.4767V17.5461C0.154773 17.6414 0.11056 17.7411 -0.00439453 17.8538L0.238779 17.9665L0.0619254 18.4953C0.548272 18.543 0.11056 19.2409 0.561536 19.3232C0.5748 19.9257 0.282992 19.2452 0.336048 19.4576C-0.137035 20.0471 1.51654 20.5802 0.760496 21.2521L0.77376 21.2954C0.77376 21.2954 0.729547 21.2781 0.729547 21.2564C0.720704 21.4732 -0.0530291 22.8385 1.52981 22.2924H1.53865L1.55191 22.2881H1.57402L1.66245 22.2664L1.84372 22.2447H2.20627C2.44502 22.2447 2.67051 22.2621 2.87389 22.223L2.88716 22.4268C3.09938 22.3878 3.35582 22.3011 3.55478 22.3444L3.47519 22.4268C4.25335 22.4008 4.87676 22.5048 5.53996 22.5871C5.47364 22.7128 5.45153 22.7952 5.07572 22.7909C5.63722 23.0379 6.69834 22.8992 7.58261 23.194L7.48534 23.2677L8.02474 23.285C7.90537 23.311 7.94516 23.3977 7.91421 23.4801C8.74542 23.7921 9.7358 24.1909 10.3238 24.0522C10.0586 24.0392 10.5803 24.4423 10.0409 24.3686C10.9915 24.4683 12.561 24.2516 13.0341 25.0752L13.2154 25.3699V25.7297L13.2242 25.7774L12.9457 25.6603C13.2861 25.8684 13.6266 26.0418 13.9582 26.1328C13.9714 26.2282 13.9316 26.4319 14.0775 26.6269C14.2765 26.4102 14.7894 27.5545 15.3553 27.6629C15.3553 27.7539 15.1652 27.5632 15.2271 27.7323C17.0398 28.3044 18.3441 29.9602 18.9322 31.0222C18.2469 31.5943 19.3257 31.9671 19.8916 32.5826C19.7103 32.899 19.5688 32.2315 19.2417 32.1665C19.5335 32.5219 18.9808 32.4092 19.5423 33.0117C19.4981 33.0074 19.476 33.0247 19.4406 32.9814C19.5909 33.1808 19.6971 32.717 19.896 33.3065L19.7192 33.4235L20.1525 33.6879C20.6079 35.0143 21.1517 36.1196 21.2224 37.3679C21.2843 37.4286 21.3772 37.3723 21.3904 37.2076C21.5496 37.7407 21.974 38.3346 21.8679 39.0064L21.753 38.846C21.7441 39.882 22.1642 39.843 22.3012 41.074C22.3056 40.7922 22.1244 40.1681 22.3631 40.0857C22.5223 40.1811 22.5356 40.8226 22.4206 41.035L22.5532 40.983C22.5665 41.282 22.6461 41.9106 22.6461 42.214L22.8185 42.448C22.8185 42.448 22.8185 42.4567 22.8318 42.461L22.9556 42.5477L23.2651 43.3496C23.6497 43.5013 23.9592 42.5477 24.3704 42.279C24.3616 42.344 24.6003 42.3527 24.6136 42.37C24.6401 42.2963 24.4146 42.2877 24.4323 42.2443C24.4411 42.2356 24.4544 42.2313 24.4677 42.2226L24.7108 42.201C25.0203 42.305 24.954 41.8542 25.1265 41.5811H25.1353C25.4138 41.7719 25.4183 41.1954 25.5907 41.256C25.573 41.2127 25.6438 41.1997 25.6172 41.1563C25.6128 41.1563 25.52 41.1347 25.5155 41.139C25.5244 41.1303 25.5155 41.1217 25.5244 41.1173C25.489 41.061 25.4581 41.0046 25.4271 40.9526C25.4138 40.944 25.405 40.9353 25.3917 40.9309H25.4138C25.4138 40.9309 25.4227 40.944 25.4271 40.9526C25.5155 41.009 25.5642 41.0653 25.5244 41.1173C25.5244 41.1173 25.5244 41.1217 25.5244 41.126C25.5863 41.0783 25.6172 41.009 25.6261 40.9309H25.7764C25.7764 40.7836 25.7675 40.6362 25.7675 40.4888C25.8206 40.4888 25.8781 40.4888 25.9311 40.4888C25.8206 39.9904 26.3954 39.856 26.5457 39.6132C26.5634 39.5266 26.4484 39.5959 26.3114 39.6783C26.2981 39.5439 26.2893 39.4139 26.276 39.2795C26.2804 39.2968 26.2893 39.3055 26.2937 39.3228C26.2937 39.3012 26.2804 39.2838 26.2716 39.2621C26.2451 39.0151 26.2097 38.768 26.1787 38.5209L26.3025 38.7853C26.0594 37.7364 26.1655 38.7897 26.2053 37.9921L26.2097 37.9965ZM1.52981 20.4069C1.49886 20.1208 1.41927 19.8607 1.40601 19.813L1.3839 20.2725C1.02135 20.0124 1.56076 19.566 1.44138 19.2452C1.47675 19.2235 1.49886 19.2279 1.52539 19.2149V20.4069H1.52981ZM1.52981 17.7671V18.1009C1.49444 17.9535 1.49886 17.8451 1.52981 17.7671ZM1.69782 22.1884L1.59171 22.1624L1.9852 22.0497L1.69782 22.184V22.1884ZM2.23722 17.4767C2.21069 17.4767 2.18859 17.4767 2.16648 17.4767C2.25933 17.4074 2.25933 17.429 2.23722 17.4767ZM2.75452 17.4897C2.90484 17.4594 3.05075 17.4074 3.1657 17.312C3.20991 17.403 3.20549 17.4637 3.21434 17.5244C3.05959 17.5157 2.90926 17.4984 2.75452 17.494V17.4897ZM3.90406 22.3141C3.36908 22.4051 3.74047 21.989 3.51499 22.106C3.74932 21.9023 4.30198 22.0367 4.69548 22.041C4.7618 22.2447 4.3462 22.4008 3.90406 22.3141ZM22.0448 27.3638C21.6159 27.0344 21.9962 27.2641 21.7707 27.3812C22.005 27.1774 22.1686 27.3118 22.5577 27.3161C22.6284 27.5155 21.7265 27.988 22.0448 27.3638ZM24.6268 31.9541C24.9363 31.5163 24.7241 31.9021 24.5915 31.6897C24.8125 31.9064 24.6887 32.0755 24.7064 32.4569C24.5075 32.5349 23.9681 31.6854 24.6268 31.9541ZM22.4339 26.0938C22.2614 25.5866 22.4471 25.9854 22.1951 25.9594C22.5046 25.9161 22.5665 26.1198 22.8893 26.3322C22.8362 26.5359 21.8193 26.4449 22.4339 26.0938ZM25.7233 40.077C25.2945 39.7476 25.6747 39.9773 25.4492 40.0987C25.6835 39.895 26.2362 40.0294 26.6297 40.0337C26.696 40.2331 25.9532 40.4585 25.7233 40.077ZM25.489 40.8659C25.0601 40.5365 25.4404 40.7662 25.2149 40.8833C25.5642 40.5842 25.772 41.3037 26.6739 41.3124C26.2495 40.5235 25.7189 41.243 25.489 40.8616V40.8659ZM4.78391 17.5591C4.90328 17.5071 5.07129 17.6198 5.18625 17.5721C5.18625 17.4074 5.24815 17.4464 5.47364 17.4767C5.20836 17.5071 5.19951 17.7671 4.77949 17.5591H4.78391ZM7.96727 16.9696C8.17949 17.0606 7.83905 17.1299 7.73736 17.208C7.84347 17.2513 7.91863 17.2556 8.0778 17.26C7.90537 17.5807 7.71083 17.0389 7.22006 17.1083C7.26428 16.9436 7.78157 17.0433 7.96727 16.9696ZM6.8752 17.8451C6.91941 17.9362 6.90173 17.9925 6.84425 18.0229C6.73814 17.9969 6.63202 17.9708 6.52149 17.9492C6.67624 17.9535 6.8133 17.9362 6.8752 17.8451ZM6.5657 16.6185C6.49938 16.7702 6.39769 16.6445 6.23853 16.5881L6.5657 16.6185ZM5.8185 22.4614C6.25621 22.2317 6.24295 22.5698 6.47286 22.7519L5.8185 22.4614ZM6.32253 22.4701C6.80446 22.3141 6.87962 22.1927 7.4765 22.21L7.54282 22.4571C7.34828 22.3704 7.4765 22.21 7.05205 22.2404C7.07416 22.4051 6.82656 22.7258 6.32253 22.4701ZM7.14048 22.8906C7.21564 22.7692 7.6003 22.9296 7.78157 23.0466L7.14048 22.8906ZM7.65335 22.7865C7.56493 22.7345 7.48534 22.7389 7.33944 22.7345C7.70641 22.6912 8.29887 22.7822 8.43593 22.6825C8.30329 22.8992 7.80368 22.8385 7.65335 22.7822V22.7865ZM9.96571 23.22C9.96571 23.116 10.1028 23.0943 10.2619 23.1116C10.1514 23.1246 10.3327 23.298 9.96571 23.22ZM10.231 23.7835C10.147 23.7228 10.7925 24.0696 11.0357 24.2083C10.8367 24.2083 10.2266 23.9525 10.231 23.7835ZM11.0445 24.4943C11.0445 24.5464 11.0003 24.5724 10.7925 24.4857L11.0445 24.4943C11.0445 24.399 10.8632 24.1909 11.2567 24.5117L11.0445 24.4943ZM10.7792 18.7424L11.2346 18.8031L11.1374 18.7467L11.3054 18.647C11.0357 18.9635 11.8359 18.9028 12.0747 19.0111C11.774 18.9375 11.2479 19.1152 10.7792 18.7381V18.7424ZM12.393 19.8997C12.393 19.8997 12.3665 19.8867 12.3532 19.8781C12.3709 19.8824 12.3886 19.8867 12.4063 19.8867L12.393 19.8954V19.8997ZM13.883 20.3028L14.2632 20.2508L14.6612 20.5152L13.8786 20.3028H13.883ZM14.7717 25.9508C14.6656 25.8727 14.3251 25.6213 14.3119 25.487C14.5418 25.6603 14.7717 25.8381 14.9928 26.0201C14.9176 25.9984 14.8424 25.9681 14.7717 25.9551V25.9508ZM16.2528 21.0787C16.0937 20.914 17.0664 21.6205 17.2388 21.8329C17.1238 21.9196 16.328 21.1091 16.3722 21.3518L16.527 21.5122C16.2882 21.2738 16.1688 21.6726 15.9036 21.2391L16.129 21.4255C15.8859 21.1394 16.6552 21.4732 16.2573 21.0744L16.2528 21.0787ZM16.1865 20.732C15.7842 20.8143 15.8284 20.4979 15.457 20.4199C15.6825 20.4372 16.0362 20.3245 16.1865 20.732ZM25.0292 33.0377C24.6268 33.1201 24.6666 32.8037 24.2997 32.7256C24.5252 32.743 24.8789 32.6303 25.0292 33.0377ZM16.16 27.949C16.863 27.6499 15.6781 27.4895 15.5233 27.0604C15.6515 27.0821 15.8505 27.2858 15.9743 27.2598C15.9257 27.1341 15.74 26.9304 15.5675 26.8393C15.5056 26.8523 15.4349 26.8393 15.3863 26.796C15.4393 26.783 15.5012 26.8047 15.5675 26.8393L15.6869 26.7483L15.6294 26.6009C15.6869 26.6616 15.7002 26.7093 15.6869 26.7483C15.8903 27.0777 16.496 27.7539 16.832 28.1007C16.8851 28.3348 16.3368 28.0183 16.1556 27.949H16.16ZM17.031 27.936V27.923C17.031 27.923 17.0398 27.936 17.0443 27.9403C17.0398 27.9403 17.0354 27.9403 17.031 27.9403V27.936ZM17.0885 28.1224C17.1548 28.1527 17.2344 28.1874 17.3007 28.2177C17.5571 28.4995 17.8047 28.7942 18.0435 29.089C17.5881 28.7899 17.1194 28.5168 17.0885 28.1224ZM17.9816 22.7952C18.0921 22.8342 18.0965 22.7172 18.1363 22.6695L18.0612 22.5308L18.9499 22.6435L18.1982 22.6565C18.0789 22.7345 18.8349 23.428 18.9631 23.4541C18.8128 23.5624 18.2115 22.9729 17.9772 22.7952H17.9816ZM18.7376 30.3416L18.7597 30.1986L18.8924 30.5324L18.7376 30.3373V30.3416ZM19.361 22.8299L19.7722 23.0639V23.1116L19.3655 22.8776V22.8299H19.361ZM19.6396 25.1315C19.7811 25.2052 19.9004 25.2182 19.8651 25.1315C19.9049 25.3309 20.0287 25.4479 20.0198 25.526C19.896 25.3916 19.7678 25.2616 19.6396 25.1272V25.1315ZM20.4177 32.769C20.4885 32.912 20.5592 33.0594 20.63 33.2068C20.5636 33.1764 20.5017 33.1504 20.4354 33.1201C20.4885 33.4235 20.7051 33.5666 20.8731 33.7313C21.386 34.8973 21.0765 34.0824 21.5452 35.4824C21.0721 34.5028 20.5415 33.5362 20.1613 32.5869C20.3647 32.7733 20.4177 32.8037 20.4177 32.769ZM20.6742 34.5288L20.798 34.2601L20.9616 34.6545L20.6742 34.5288ZM21.6071 36.7568L21.5673 36.9475C21.4523 36.6484 21.1252 36.4794 21.2003 35.9982C21.3683 35.9549 21.4523 36.2886 21.5805 36.4404C21.6424 36.3147 21.1649 35.9679 21.1959 35.5995C21.5496 35.7858 21.806 36.5314 21.9475 37.0472C21.9564 37.0299 21.9785 37.0299 21.9873 37.0169C22.0138 37.1252 22.0359 37.2336 22.0625 37.3419C21.9343 37.2422 21.7795 37.1079 21.6027 36.7568H21.6071ZM22.3233 39.5612C22.0094 39.3402 22.1686 38.5166 22.0271 38.2825C22.1509 38.2652 22.2216 38.3476 22.2747 38.3909C22.3543 38.846 22.4206 39.3012 22.4692 39.765C22.4073 39.5136 22.3366 39.2275 22.2437 38.9284L22.3189 39.5612H22.3233ZM23.579 43.6227C23.2651 43.4016 23.4242 42.5781 23.2828 42.344C23.4066 42.3267 23.8796 42.8208 23.9371 42.8642C24.0167 43.328 23.6807 43.3713 23.7249 43.8221C23.663 43.5707 23.5923 43.2846 23.4994 42.9855L23.5746 43.6184L23.579 43.6227ZM22.7301 42.422C22.4162 42.201 22.5753 41.3774 22.4339 41.1433C22.5577 41.126 22.6284 41.2084 22.6815 41.2474C22.7566 41.7025 22.8274 42.1576 22.876 42.6214C22.8141 42.37 23.0573 42.422 22.96 42.1229L22.7257 42.4177L22.7301 42.422ZM22.4162 39.947C22.4339 40.0034 22.4648 40.0294 22.4958 40.051C22.509 40.2071 22.5223 40.3588 22.5311 40.5148C22.4913 40.3284 22.4648 40.1247 22.4162 39.947ZM23.4375 30.3547C23.2916 30.1813 23.2385 30.1639 23.2032 29.8128C23.3579 29.9819 23.4596 30.2593 23.4375 30.3547ZM23.548 30.2246C23.7735 30.5714 24.0388 30.372 24.0919 30.8401C23.915 30.5497 23.632 30.7968 23.548 30.2246ZM25.0159 36.3753C24.9894 36.254 24.9629 36.1369 24.9319 36.0199C24.9496 36.0199 24.9717 36.0372 24.9938 36.0589L25.0955 36.254C25.0867 36.358 25.0557 36.384 25.0159 36.3753Z" fill="#00AEE7"/>
<path d="M12.835 25.6168L12.9461 25.6645L12.8306 25.5908L12.835 25.6168Z" fill="#00AEE7"/>
<path d="M25.6707 41.2905C25.6974 41.2905 25.6574 41.2775 25.5996 41.2559C25.6129 41.2905 25.6263 41.3252 25.6352 41.3556C25.6485 41.3339 25.6618 41.3165 25.6707 41.2905Z" fill="#00AEE7"/>
<path d="M25.5998 41.5336C25.6538 41.5033 25.6538 41.4339 25.6358 41.3516C25.5953 41.4166 25.5504 41.4729 25.5998 41.5336Z" fill="#00AEE7"/>
<path d="M25.1753 41.7978C25.4508 41.9842 25.2286 41.7025 25.2108 41.6201C25.1708 41.6851 25.1264 41.7415 25.1753 41.7978Z" fill="#00AEE7"/>
<path d="M6.41565 29.7827L6.55787 29.5789C6.43787 29.4446 6.39787 29.5789 6.41565 29.7827Z" fill="#ED1C2E"/>
<path d="M3.20117 28.7077L3.20583 28.7122V28.7031L3.20117 28.7077Z" fill="#ED1C2E"/>
<path d="M17.7477 36.3622L17.4426 36.3318C17.4117 36.4662 17.8052 36.5182 17.9776 36.4402C17.898 36.3752 17.9909 36.2321 17.8273 36.2625C17.7919 36.2885 17.6902 36.3145 17.7433 36.3622H17.7477Z" fill="#ED1C2E"/>
<path d="M18.3046 38.6553C18.3753 38.69 18.4814 38.664 18.5654 38.6727C18.4549 38.1699 18.2427 37.5847 18.393 37.342C18.4328 37.1556 18.0039 37.2249 17.8536 37.0429L18.11 36.8782C17.9022 36.8132 18.1189 36.3927 17.69 36.6354C17.6546 36.6614 17.9332 36.6744 17.8757 36.7915L17.7121 36.8175L17.8226 37.0212L17.606 37.0039C17.3982 37.3636 18.2559 37.0646 18.1675 37.4763L17.7652 37.563C17.8005 37.7494 17.8978 37.8534 17.8448 38.0138C17.8094 37.9531 17.7696 37.9141 17.721 37.9748L17.7784 37.394C17.7165 37.381 17.6679 37.4113 17.6237 37.4677V37.4243C17.4291 37.381 17.323 37.7841 17.3407 38.1309C17.2877 37.8578 17.2213 37.5847 17.155 37.316C17.2567 37.3246 17.3628 37.316 17.4336 37.2856C17.354 37.2206 17.4468 37.0776 17.2832 37.1079C17.2479 37.1339 17.1506 37.1599 17.2037 37.2033L17.1241 37.1946C17.0489 36.9085 16.9649 36.6268 16.8765 36.345C16.9959 36.371 17.1462 36.3667 17.239 36.3277C17.1594 36.2627 17.2523 36.1196 17.0887 36.15C17.0533 36.176 16.9516 36.202 17.0091 36.2453L16.3238 35.5648C16.0541 34.7499 16.2398 34.2688 15.9082 33.7313C15.9789 33.7486 16.0674 33.753 16.1558 33.714C16.4255 33.857 16.452 34.1994 16.3813 34.4812L16.5405 34.3381C16.9472 34.3771 16.5316 34.8756 16.8234 35.1227V35.114C16.9074 35.2007 17.407 35.114 17.3849 35.3437C17.1329 35.3741 17.1152 35.2657 16.8853 35.3611L17.2965 35.5388C17.1594 35.6428 17.4689 35.9072 17.1594 35.8899C17.5972 35.9376 17.3672 36.4317 17.8536 36.1283C17.3849 35.3221 17.1992 34.0044 16.2487 33.2978L16.5228 33.3498C15.8905 33.0724 16.5537 32.4526 15.581 32.5176L15.9966 32.3356C15.9657 32.0495 15.192 32.2705 15.4528 31.7937L15.3157 31.9194C15.2804 31.8588 15.329 31.7937 15.2892 31.7374L15.2362 31.8024C14.9753 31.7591 14.9311 31.6637 14.9223 31.447C15.0328 31.356 15.0239 31.4773 15.0903 31.5033C15.1566 31.3516 14.825 31.4166 14.741 31.3083C14.7763 31.1436 14.909 31.1869 14.9665 31.1652C14.5509 30.9528 14.8073 30.5021 14.0999 30.6884C13.9849 30.7448 13.9938 30.9095 13.8479 30.8401C13.8479 30.8835 13.87 30.9095 13.8788 30.9442C13.7992 30.8488 13.7196 30.7621 13.6356 30.6668C13.8213 30.6884 14.0999 30.6884 14.1529 30.411L14.007 30.463C13.6445 30.4284 14.0822 30.151 14.0159 29.9256C13.7815 29.7869 13.2377 30.0989 13.1979 29.8389C13.1183 29.7825 13.2466 29.6785 13.3571 29.6178C13.2377 29.4227 12.8442 29.6872 12.6895 29.6351C13.4986 28.7162 11.96 29.4358 12.2473 28.6469C12.0307 28.5775 11.8892 28.3131 11.5178 28.3521C11.8229 28.2004 11.3321 28.1874 11.593 27.949C11.0978 28.4691 11.1641 27.2381 10.5982 27.936C10.4567 27.5285 10.5628 27.9663 10.3373 27.5762C10.3948 27.4939 10.4567 27.5286 10.4877 27.5286C10.4479 27.2901 10.0632 27.7193 10.1693 27.3075C9.9792 27.1341 9.97478 27.3335 9.84214 27.4809C9.75372 27.4245 9.66087 27.3725 9.56802 27.3205C9.56802 27.2121 9.61665 27.0951 9.62992 26.8567C9.38674 27.2078 9.316 26.926 9.06399 27.0344C9.01977 27.0084 8.97114 26.9867 8.92693 26.9607C9.01535 26.9347 9.09936 26.9 9.20547 26.8134C8.94019 26.6356 8.54669 26.5489 8.15319 26.5793C8.00729 26.4406 8.33889 26.4232 8.21951 26.3192C8.04708 26.0765 7.76854 26.2975 7.56073 26.3192C7.50768 26.2975 7.4502 26.2759 7.39715 26.2542C7.39715 26.2499 7.38388 26.2455 7.37946 26.2412L7.52536 26.0375C7.24682 26.2802 6.98154 25.7687 6.61899 25.8294C6.61899 25.8814 6.61899 25.9248 6.61015 25.9638C6.60131 25.9638 6.59246 25.9594 6.58362 25.9551C6.62783 24.451 6.67205 25.8207 6.3935 25.8901C6.17686 25.8207 5.56671 25.0535 5.34565 24.9928C5.42523 24.8931 5.50924 24.7935 5.61093 24.7588C5.35007 24.8975 5.07595 24.6157 4.82835 24.8411L4.97426 24.5637C4.82835 24.4987 4.72224 24.6764 4.62055 24.7978C4.53654 24.7804 4.45254 24.7588 4.37295 24.7414L4.42601 24.6027C3.84682 24.4727 3.57269 24.7241 3.03329 25.1315C3.03329 25.1315 3.03329 25.1445 3.03329 25.1489C2.90507 25.1359 2.78128 25.1229 2.65306 25.1099C2.67958 24.9625 2.7238 24.7848 2.56905 24.6938C2.0827 25.0795 1.49025 24.3383 0.787255 25.2746C1.21612 25.3266 0.827047 25.5823 1.11443 25.6734V25.695L0.73862 25.7514C0.827046 26.0591 0.964108 25.734 1.11443 25.7514V25.8858C1.04369 25.9638 0.888945 26.0201 0.773991 26.0115C0.751884 26.2412 0.884524 26.0591 1.11443 26.1502V26.1718L0.645772 26.3192C1.73784 27.5459 -0.923801 28.1571 1.73342 28.6079L1.68478 28.3174C1.71573 28.3174 1.74668 28.3174 1.77763 28.3218C1.79974 28.3218 1.82627 28.3261 1.84837 28.3218C2.16671 28.3391 2.48505 28.3651 2.79896 28.3998C2.79896 28.5298 2.79012 28.6729 2.71938 28.7769C2.83875 28.6859 2.9316 28.8116 3.0554 28.7249L2.88297 28.5602C3.0554 28.3174 3.18804 28.4908 3.19688 28.7206C3.29857 28.6382 3.32952 28.5558 3.3251 28.4778C3.47985 28.5038 3.63901 28.5168 3.78934 28.5472C3.73628 28.6425 3.67881 28.7379 3.60806 28.7682C3.5948 28.5125 3.35163 28.8029 3.2013 28.7292C3.2013 28.8332 3.18362 28.9546 3.13056 29.0456C3.41795 29.0456 3.59922 28.7942 3.85566 29.1237C3.99714 28.9676 3.97946 28.7769 3.97946 28.5949C4.04135 28.6079 4.10325 28.6252 4.16073 28.6425C4.03251 28.7249 3.95293 28.8549 3.97503 29.1107C4.02367 29.2667 4.12978 29.1237 4.22705 29.1193C4.03693 28.9329 4.258 28.7986 4.34201 28.6859C4.42601 28.7075 4.51444 28.7249 4.59844 28.7509C4.61171 28.7682 4.61171 28.7986 4.58076 28.8636L4.34201 29.063C4.84162 29.3621 5.58882 29.5008 6.23434 29.6395L5.9779 29.5268C6.07959 29.3664 6.21665 29.3794 6.34487 29.3577V29.3447C6.53056 29.4227 6.70742 29.5138 6.88427 29.5961C6.85332 29.5961 6.82237 29.6048 6.80911 29.6178C6.84448 29.6611 6.9108 29.6568 6.98154 29.6438C7.04344 29.6698 7.10534 29.7002 7.16724 29.7305C7.09649 29.8172 7.0346 29.8865 6.98154 29.8215C7.00365 30.1813 7.33083 30.1423 7.50326 30.3027C7.6978 30.3287 7.79507 30.229 7.87465 30.1206C7.9277 30.151 7.98518 30.1856 8.03824 30.2203L7.87907 30.4197C8.21067 30.5281 8.45826 30.7058 8.9004 30.6884C8.9623 30.7361 9.0242 30.7795 9.08609 30.8228C9.06841 30.8358 9.0463 30.8401 9.01535 30.8445C9.05072 30.8662 9.08609 30.8618 9.12589 30.8531C9.24084 30.9398 9.71834 30.8098 9.82888 30.8965C9.80677 30.9355 9.41769 31.1869 9.36464 31.2216H9.2939C9.42654 31.2953 9.88635 31.3256 10.0455 31.3776C10.1693 31.486 10.0942 31.7461 10.2091 31.8544C10.2003 31.8674 10.1826 31.8761 10.1737 31.8891C10.2135 31.9325 10.271 31.9498 10.3285 31.9585C10.4258 32.0495 10.5186 32.1448 10.6159 32.2402L10.5628 32.2966C10.6159 32.3182 10.6778 32.3442 10.7397 32.3746C10.6557 33.831 11.4073 33.3065 11.8096 33.7096C11.7831 33.753 11.8096 33.8136 11.8538 33.8743C11.8627 33.818 11.8627 33.7703 11.8317 33.7356C11.8981 33.8006 11.9555 33.87 12.0086 33.948C11.9732 33.948 11.9511 33.9523 11.9246 33.9567C11.96 33.987 11.9953 34.0217 12.0395 34.0477C12.0395 34.0434 12.0395 34.0347 12.044 34.0304C12.044 34.039 12.044 34.0434 12.044 34.052C12.0705 34.0737 12.097 34.0911 12.1235 34.1084C12.1324 34.1257 12.1457 34.1387 12.1545 34.1561C12.0749 34.1387 12.0307 34.1041 12.0395 34.052C12.0395 34.052 12.0395 34.052 12.0351 34.0477C11.96 34.2038 12.0484 34.3728 12.2076 34.5202C12.2429 34.5115 12.2827 34.4855 12.3048 34.4031C12.3711 34.5072 12.433 34.6112 12.4949 34.7196C12.3888 34.6632 12.2916 34.5939 12.2076 34.5202C12.1324 34.5375 12.0705 34.4768 12.1854 34.7022C12.1059 34.7022 12.0219 34.7672 11.9423 34.7933C12.2562 35.2007 12.7735 36.137 12.7425 36.4187C12.7779 36.5704 12.9813 36.1153 13.167 35.9939C13.1802 36.0286 13.2024 36.0546 13.2156 36.0893L13.1316 36.2237C13.2245 36.2107 13.2731 36.293 13.3262 36.3537C13.4942 36.7611 13.9672 36.6701 14.0955 37.0992L14.0689 37.7191C13.9805 37.8664 14.0822 37.9011 14.2193 37.9228C14.2502 38.0355 14.2856 38.1439 14.3165 38.2566L14.2281 38.2782C14.2723 38.521 14.038 38.5036 13.8213 38.7637C13.8213 38.7637 14.0247 38.7247 13.9363 38.703C13.9451 38.6813 13.9805 38.6553 14.0247 38.6293C14.0336 38.664 14.038 38.6987 14.0424 38.729C13.9628 38.742 13.8877 38.7724 13.8523 38.8504C13.9496 38.9241 14.0424 39.0281 14.122 39.1408C14.1353 39.2362 14.1618 39.3315 14.175 39.4269C14.1353 39.4529 14.091 39.5049 14.038 39.6046C13.9805 39.5309 14.038 39.6046 14.1176 39.726C14.1618 39.752 14.1927 39.778 14.2104 39.804C14.2104 39.83 14.2104 39.856 14.2193 39.882C14.2193 39.882 14.2193 39.8863 14.2193 39.8907C14.2193 39.8907 14.2104 39.8994 14.206 39.9037C14.2148 39.8994 14.206 39.8907 14.2148 39.882C14.1839 39.8213 14.1485 39.7693 14.1176 39.7173C13.8921 39.5786 13.4102 39.4659 13.4013 39.5959C13.2952 39.6696 13.9407 39.895 14.2281 39.999C14.2502 40.2071 14.2767 40.4108 14.2856 40.6232C14.2591 40.6406 14.2237 40.6536 14.1972 40.6666C14.2369 40.6666 14.2591 40.6752 14.2856 40.6796C14.29 40.8356 14.1131 41.4121 14.1131 41.5725C14.0999 41.5898 14.0866 41.5985 14.0778 41.5942C14.1087 41.8412 14.1706 41.7719 14.2414 41.7112C14.3652 41.7459 13.9009 42.4307 14.2281 42.5391C14.206 42.5218 15.0814 42.8035 15.3644 42.0189L15.4838 41.9236L15.5545 41.8759L15.6164 41.8152C15.6164 41.8152 15.6606 41.8456 15.6827 41.8716C15.7667 41.8022 16.0143 41.4901 16.0276 40.9787H16.2177C16.2398 41.0263 16.2575 41.0523 16.2708 41.0783L16.1558 41.009L16.1116 41.2561L16.2884 41.1044C16.3327 41.1564 16.368 41.1347 16.4874 41.1824C16.4476 41.1997 16.5493 41.2214 16.5891 41.2517L16.284 41.2257C16.2531 41.3601 16.6466 41.4121 16.819 41.3341C16.7881 41.3081 16.9163 41.4121 16.9119 41.3774C17.0268 41.4208 16.987 41.3124 17.0533 41.3384C17.0356 41.2951 17.0135 41.2517 16.9914 41.2084C16.987 41.2127 16.9826 41.2171 16.9782 41.2214C16.987 41.2127 16.9782 41.2084 16.987 41.1997C16.9561 41.139 16.9207 41.087 16.8897 41.035C16.8632 41.0177 16.8411 41.0047 16.8057 40.9873H16.8588C16.8588 40.9873 16.8809 41.0177 16.8897 41.035C16.9782 41.0914 17.0268 41.1477 16.987 41.1997V41.204C17.0533 41.1477 17.1727 41.2821 17.1771 41.1954L17.323 41.2127C17.407 41.2431 17.3186 41.0307 17.4203 41.0177C17.4734 41.035 17.5176 41.0523 17.5529 41.0697C17.5441 41.0437 17.5353 41.022 17.522 40.996C17.5308 40.996 17.5441 40.996 17.5529 40.9917C17.5529 40.9917 17.5529 40.9917 17.5529 40.9873H17.6148C17.6148 40.957 17.6148 40.9266 17.6148 40.8963C17.7298 41.0177 17.8315 41.1694 17.8934 41.3167C17.9685 41.3341 17.9995 41.4121 17.9907 41.165C18.0658 41.1997 18.1675 41.1737 18.2515 41.1824C18.1542 40.7316 18.0968 40.0684 18.194 39.713C18.4107 39.5873 18.7202 39.6263 18.8705 39.8213C19.1181 39.3489 18.278 39.0845 18.2692 38.6553H18.3046ZM0.884524 27.8883C0.849153 27.8883 0.818204 27.8927 0.787255 27.8927C0.831468 27.8493 0.857996 27.8103 0.884524 27.7713V27.884V27.8883ZM3.7186 24.5941C3.72744 24.5594 3.72744 24.516 3.70091 24.4727C3.84239 24.3773 3.83355 24.542 3.87777 24.6244C3.82471 24.6157 3.77165 24.6071 3.7186 24.5941ZM4.01483 24.6461C4.01483 24.6461 3.99714 24.6461 3.99272 24.6417C4.00156 24.6374 4.01041 24.6374 4.02367 24.6287C4.02367 24.6374 4.02367 24.6417 4.01483 24.6504V24.6461ZM4.94773 28.8593C4.94773 28.8593 4.96099 28.8376 4.96541 28.8246C5.05384 28.8549 5.14227 28.8853 5.23511 28.9113C5.11574 28.985 4.97868 28.9893 4.94773 28.8593ZM5.55787 29.1497C5.57998 29.1237 5.60208 29.0847 5.62419 29.05C5.65514 29.063 5.69051 29.076 5.72146 29.089C5.65514 29.1193 5.5844 29.1583 5.55787 29.154V29.1497ZM10.722 28.04C10.7529 28.027 10.7839 28.0184 10.8104 28.0054C10.8502 28.0487 10.8856 28.1094 10.9077 28.1744C10.8458 28.1311 10.7839 28.0877 10.7176 28.0444L10.722 28.04ZM12.3269 29.3187C12.2252 29.2234 12.1191 29.1323 12.013 29.0413C11.96 28.9503 11.8936 28.8593 11.7964 28.7942C11.9113 28.7639 11.9821 28.6035 12.0661 28.6512C12.2871 28.7986 12.181 29.115 12.4684 29.1887L12.3314 29.3187H12.3269ZM12.6232 35.2354C12.2827 35.1444 12.5392 35.1313 12.7116 35.0273C12.7293 35.0577 12.7514 35.0923 12.7691 35.1227C12.7293 35.1704 12.6762 35.2137 12.6232 35.2354ZM12.8354 35.6948L12.9901 35.5778C13.0299 35.6602 13.0741 35.7425 13.1139 35.8292C12.9857 35.8596 12.8708 35.8509 12.8354 35.6948ZM13.5428 30.5411C13.5782 30.5411 13.6091 30.5411 13.6489 30.5367L13.5826 30.5844C13.5826 30.5844 13.5561 30.5584 13.5472 30.5411H13.5428ZM14.3519 31.512C14.2458 31.3733 14.1353 31.2389 14.0247 31.1046C14.1485 31.1782 14.321 31.2086 14.489 31.2606L14.4492 31.2042C15.0903 30.9745 14.4226 31.4123 14.8427 31.499C14.5818 31.5857 14.4978 31.4817 14.3563 31.5163L14.3519 31.512ZM14.8515 32.1318C14.9444 32.1665 15.2052 32.0495 15.3246 32.0061C15.1301 32.2402 15.5103 32.0365 15.4661 32.2445C15.2671 32.4309 15.192 32.2662 15.046 32.3009L15.2936 32.3529C15.3644 32.4483 15.2494 32.5566 15.1477 32.665C15.046 32.5089 14.9444 32.3486 14.8382 32.1925C14.8382 32.1752 14.8471 32.1535 14.8515 32.1362V32.1318ZM15.1964 32.7343C15.2362 32.6867 15.2406 32.6173 15.4307 32.5826C15.2317 32.9121 15.7269 33.4669 16.0939 33.6836C16.0364 33.6229 15.9436 33.6706 15.8728 33.6793C15.7092 33.4149 15.497 33.1201 15.1964 32.7343ZM18.1631 37.9791C18.4637 38.2306 18.1277 38.0788 17.9111 38.1525C17.9111 38.1439 17.9111 38.1352 17.9111 38.1265C17.9022 38.1179 17.8934 38.0962 17.8845 38.0832C17.9243 38.0355 18.0526 37.9748 18.1631 37.9791ZM17.5264 39.3272C17.522 39.2838 17.5176 39.2405 17.5132 39.2015C17.5353 39.2318 17.5441 39.2708 17.5353 39.3229C17.5353 39.3229 17.5308 39.3229 17.5264 39.3272ZM17.5972 39.9687C17.5972 39.9687 17.6325 39.973 17.6502 39.9774C17.6502 39.9904 17.6281 39.9947 17.5972 39.9947C17.5972 39.986 17.5972 39.9774 17.5972 39.9687ZM17.6369 40.6666C17.6369 40.6362 17.6369 40.6059 17.6369 40.5755C17.6944 40.5365 17.8005 40.4932 17.889 40.4932C18.1896 40.7489 17.8536 40.5929 17.6414 40.6666H17.6369ZM17.8624 40.0771C17.889 40.1117 17.9066 40.1551 17.889 40.2244H17.8801C17.8713 40.1768 17.8669 40.1291 17.8624 40.0771ZM18.2913 39.4746C18.278 39.5136 18.2515 39.5483 18.2294 39.5786C18.1631 39.5873 17.9951 39.7043 17.8359 39.778C17.8094 39.3359 17.8182 38.8807 17.9111 38.7334C17.9376 38.612 17.6944 38.807 17.4822 38.8981C17.4734 38.8547 17.4645 38.807 17.4557 38.7637L17.4778 38.7507C17.4778 38.7507 17.4601 38.7377 17.4513 38.7334C17.4336 38.6163 17.407 38.4993 17.3894 38.3866C17.3982 38.4083 17.4026 38.4299 17.4115 38.4516C17.4468 38.4083 17.4999 38.3909 17.5485 38.3823C17.5529 38.3909 17.5574 38.4083 17.5618 38.4213C17.5839 38.3953 17.6104 38.3823 17.6414 38.3693C17.6723 38.3649 17.6988 38.3606 17.721 38.3476C17.774 38.3389 17.8226 38.3389 17.8624 38.3216C18.1675 38.6033 18.4372 39.1278 18.1542 39.3229C18.3753 39.1451 18.6804 39.3402 18.676 39.5266C18.5345 39.6263 18.4284 39.4919 18.3001 39.4746H18.2913Z" fill="#ED1C2E"/>
<path d="M17.9377 42.2314C17.9917 42.2011 17.9917 42.1317 17.9737 42.0537C17.9332 42.1144 17.8883 42.1751 17.9377 42.2314Z" fill="#ED1C2E"/>
<path d="M17.6942 41.529C17.6367 41.4553 17.6942 41.529 17.7738 41.6504C17.8622 41.7068 17.9108 41.7631 17.871 41.8151C17.871 41.8151 17.871 41.8195 17.871 41.8238C18.0037 41.7154 17.9993 41.5247 17.9197 41.3253C17.8666 41.3123 17.7914 41.334 17.6898 41.529H17.6942Z" fill="#ED1C2E"/>
<path d="M18.013 41.9888C18.0397 41.9888 17.9997 41.9758 17.9419 41.9541C17.9552 41.9888 17.9686 42.0235 17.9774 42.0538C17.9908 42.0321 18.0041 42.0105 18.013 41.9888Z" fill="#ED1C2E"/>
<path d="M17.8711 41.8108C17.8358 41.7501 17.8048 41.6981 17.7739 41.646C17.5926 41.5333 17.2522 41.4423 17.1195 41.477C17.1195 41.464 17.1195 41.451 17.1195 41.438C17.1018 41.464 17.0886 41.4857 17.0753 41.5117C17.0753 41.5203 17.062 41.5203 17.062 41.529C17.0532 41.5333 17.062 41.542 17.062 41.5507C17.062 41.5594 17.062 41.568 17.062 41.581C17.062 41.581 17.062 41.6114 17.0753 41.6244C17.0841 41.62 17.0841 41.607 17.0886 41.6027C17.2345 41.7111 17.7429 41.8844 17.933 41.9581C17.9154 41.9148 17.8932 41.8714 17.8711 41.8281C17.8667 41.8281 17.8623 41.8368 17.8579 41.8411C17.8667 41.8368 17.8579 41.8281 17.8667 41.8194L17.8711 41.8108Z" fill="#ED1C2E"/>
<path d="M17.0801 41.3384C17.0934 41.3731 17.1067 41.4077 17.1156 41.4381C17.129 41.4164 17.1423 41.3947 17.1512 41.3731C17.1779 41.3731 17.1423 41.3601 17.0801 41.3384Z" fill="#ED1C2E"/>
<path d="M17.5886 41.3515C17.6426 41.3212 17.6471 41.2562 17.6246 41.1738C17.5841 41.2388 17.5392 41.2952 17.5886 41.3515Z" fill="#ED1C2E"/>
<path d="M17.6595 41.1089C17.6862 41.1089 17.6462 41.0959 17.5884 41.0742C17.6017 41.1089 17.615 41.1436 17.6239 41.1739C17.6373 41.1522 17.6506 41.1306 17.6595 41.1089Z" fill="#ED1C2E"/>
<path d="M11.8628 33.9394C11.8362 33.948 11.8762 33.948 11.9428 33.9394C11.9162 33.9133 11.8895 33.8873 11.8673 33.8613C11.8673 33.8873 11.8584 33.9133 11.8673 33.935L11.8628 33.9394Z" fill="#ED1C2E"/>
<path d="M18.6677 38.7335L18.561 38.6729L18.5966 38.8462L18.6677 38.7335Z" fill="#ED1C2E"/>
<path d="M28.664 1.2309C28.664 1.2049 28.6506 1.23957 28.6284 1.30026C28.664 1.28725 28.6995 1.27425 28.7306 1.26558C28.7084 1.25258 28.6862 1.23957 28.664 1.2309Z" fill="#EC008C"/>
<path d="M39.9384 18.0362L39.9073 17.9365C39.854 17.9755 39.8317 18.0145 39.9384 18.0362Z" fill="#EC008C"/>
<path d="M42.2246 13.9487L42.0957 13.9704L42.1179 14.0137L42.2246 13.9487Z" fill="#EC008C"/>
<path d="M38.5639 17.9883L38.355 18.1617C38.4972 18.1443 38.5772 18.062 38.5639 17.9883Z" fill="#EC008C"/>
<path d="M40.5747 12.05L40.7569 12.0197C40.6814 11.9893 40.6147 12.011 40.5747 12.05Z" fill="#EC008C"/>
<path d="M42.5908 16.6014L42.4581 16.402C42.3697 16.2807 42.3167 16.1723 42.5466 16.0336L42.3034 15.9599L42.4802 15.6348C41.9939 15.6045 42.4316 15.1753 41.9851 15.1233C41.9718 14.7506 42.2592 15.1753 42.2105 15.041C43.055 14.3648 41.8657 14.083 42.0956 13.966C42.0116 13.8143 41.9983 13.6583 41.9939 13.5109L41.9851 13.2942L41.9718 13.1901V13.1815C41.8922 13.0991 41.8215 12.4056 41.0212 12.2495H41.0079L40.9858 12.2539L40.9416 12.2625L40.9328 12.1628L40.9239 12.0588C40.9018 12.0675 40.8753 12.0761 40.8532 12.0848C40.7471 12.1238 40.6321 12.1715 40.5349 12.1325L40.5791 12.0545C40.1192 12.1282 39.7434 12.0935 39.3455 12.0675C39.3897 11.9374 39.403 11.8507 39.6285 11.8247C39.3057 11.6253 38.6381 11.9981 38.1341 11.7164L38.2004 11.6297L37.8599 11.699C37.9395 11.6514 37.9174 11.5777 37.9484 11.4953C37.4709 11.2873 36.843 11.1832 36.4495 11.3696C36.6176 11.3436 36.339 11.0359 36.6795 11.0315C36.1003 11.0315 35.5211 10.6501 34.9596 10.4377V10.455L34.7031 10.39V10.351L34.8844 10.403C34.681 10.2816 34.4688 10.1863 34.2477 10.1646C34.261 10.0823 34.3317 9.9002 34.2654 9.75716C34.093 9.94788 33.8896 9.15466 33.4696 9.18933C33.4873 9.11565 33.6022 9.23268 33.5845 9.10698C33.0761 8.63451 32.0724 8.01034 31.7895 7.15209C31.3296 7.35148 31.082 6.63195 30.6311 6.30252C30.8389 6.07279 30.9052 6.48024 31.1661 6.49324C30.9759 6.28518 31.4667 6.28518 31.0246 5.97743C31.0688 5.97743 31.0909 5.96009 31.1174 5.98177C31.0069 5.8734 30.8389 6.18982 30.7328 5.83439L30.914 5.73903L30.5824 5.60466C30.4896 4.75075 29.9988 4.11791 30.1403 3.34636C30.0872 3.31168 29.9944 3.34636 29.9458 3.45039C29.9237 3.12096 29.539 2.75686 29.707 2.34941L29.8043 2.44911C29.8618 2.13269 29.7822 1.98531 29.6716 1.81626C29.4594 1.5822 29.8927 1.97664 29.1455 1.19642C29.0703 1.22677 28.9775 1.24844 28.8802 1.27011C28.8449 1.25711 28.8006 1.25277 28.7476 1.26578C28.7564 1.27445 28.7697 1.27878 28.783 1.28745C28.7476 1.29178 28.7211 1.30045 28.6857 1.30479C28.7166 1.30479 28.7608 1.30479 28.8051 1.29612C28.8493 1.32213 28.8891 1.33513 28.9333 1.29612C28.9333 1.28745 28.92 1.29178 28.9156 1.28745C28.9598 1.28312 29.0084 1.27445 29.0527 1.27445H29.1455C29.172 1.30479 29.1897 1.32213 29.2162 1.3438L28.9244 1.38281C28.7962 1.35247 28.783 1.48684 28.7078 1.42182L28.7343 1.53018H28.5619C28.6017 1.43482 28.6282 1.35247 28.6503 1.30045C28.6061 1.31779 28.5619 1.33946 28.5133 1.36114C28.5133 1.36114 28.5221 1.36547 28.5265 1.37414C28.5221 1.36547 28.5133 1.37414 28.5044 1.36547C28.4425 1.39581 28.3895 1.43049 28.3364 1.46083C28.3231 1.4825 28.3055 1.50418 28.2922 1.53452H28.2259C28.2524 1.51718 28.2922 1.49117 28.3364 1.46083C28.3939 1.37414 28.4558 1.3308 28.5044 1.36547C28.5044 1.36547 28.5088 1.36547 28.5133 1.36547C28.4116 1.2441 28.2436 1.23977 28.0623 1.30045H28.0181V1.31346C28.0181 1.31346 28.0136 1.31346 28.0092 1.31346C28.0048 1.33946 28.0092 1.36981 28.0357 1.40015V1.41315H28.0446C28.0755 1.44783 28.1198 1.48684 28.2082 1.53452H28.1021C28.1021 1.53452 28.1109 1.53018 28.1021 1.52152L28.0623 1.53452H27.912C27.8456 1.52585 27.8987 1.45216 27.8147 1.44349C27.9164 1.36547 27.8987 1.36114 28.0092 1.31779C28.0269 1.2441 28.1109 1.21376 27.8545 1.22243C27.8677 1.19209 27.8677 1.15308 27.8677 1.11407C27.9827 1.12274 27.9915 1.02304 28.1551 0.997035L27.8677 1.07072C27.8677 1.03605 27.8677 0.997035 27.8677 0.966693C27.0807 0.260162 26.0152 0.147463 25.7676 8.87572e-05C25.688 -0.0172494 25.7411 0.0781106 25.8162 0.199478L25.7367 0.18214C25.7013 0.290504 25.6129 0.524569 25.5289 0.554911H25.4581C25.4714 0.368525 25.4935 0.221151 25.5377 0.147463C25.5775 -0.0389222 25.0248 0.866999 24.8745 0.689282L25.1309 0.524569C24.9276 0.459551 25.1398 0.0347652 24.7109 0.281834C24.6755 0.307842 24.9541 0.320845 24.8966 0.437878L24.733 0.463886L24.8435 0.667609L24.6269 0.650271C24.4722 0.919013 24.901 0.823653 25.1 0.923348H24.8745C24.8745 1.01437 24.8833 1.10106 24.8833 1.18776L24.7816 1.20943C24.8259 1.45216 25.1973 2.1717 24.9806 2.43177C24.9806 2.43177 25.184 2.39709 25.0956 2.36675C25.0956 2.36242 25.1088 2.35375 25.1177 2.34508C25.1177 2.37109 25.1221 2.39709 25.1265 2.4231C25.0823 2.44477 25.0381 2.47078 25.016 2.5228C25.0602 2.55747 25.1044 2.60082 25.1442 2.64416C25.1663 2.84355 25.1884 3.04728 25.2238 3.24667C25.2149 3.25967 25.2105 3.264 25.2017 3.28134C25.153 3.22066 25.184 3.25967 25.237 3.33336C25.237 3.3507 25.237 3.3637 25.2459 3.3767C25.0071 3.24667 24.5738 3.15564 24.5694 3.28134C24.4766 3.34636 24.9762 3.53275 25.2901 3.64544C25.3299 3.85784 25.3785 4.07023 25.4272 4.28262L25.2901 4.11358C25.5023 4.74642 25.0292 4.10057 24.9895 4.61205C25.3166 5.10619 24.7507 5.622 24.8303 5.93409C25.0602 6.49758 25.0027 5.62633 25.2459 5.93842C25.3918 6.22884 25.1575 6.14214 25.1884 6.3502L25.5333 6.37188C25.7234 6.6883 25.268 6.49758 25.4625 6.64495C25.4006 6.99172 25.3122 6.60594 25.0602 6.62761C25.153 6.66663 25.3918 6.92236 25.3343 7.10008C25.2547 7.13042 25.0823 6.76632 25.153 7.01772C25.6615 7.82828 25.5156 8.14904 25.9577 8.89025L25.7853 8.90325C25.8605 8.96827 25.9577 8.99861 25.9577 9.10698L25.8428 9.11565C25.8958 9.23268 27.3637 9.51009 27.6334 10.0086L27.3151 9.87853L27.7793 10.1689L27.5229 10.2816C27.8456 10.26 28.0844 10.8235 28.4469 11.1399L28.3143 11.2482L28.5752 11.4086H28.4204C28.6105 11.634 29.0703 11.6774 29.1897 12.0068C29.0836 11.8161 28.8404 11.9634 28.7653 12.0588L28.8006 12.7913C28.7299 12.891 28.9686 13.1901 28.6857 13.0948L29.0703 13.1901L28.9554 13.2681C29.822 14.3908 31.3385 14.3431 32.1343 15.5438L32.0857 15.5698L32.9346 15.7215C33.0407 15.8255 32.9478 16.0639 33.1159 16.2503C33.1424 15.9772 33.5447 16.4367 33.7835 16.311C33.9029 16.4887 33.6995 16.4584 33.6066 16.5234C34.1858 17.1172 34.9374 16.9785 35.6714 17.4466C35.0126 16.8051 34.9728 16.9048 34.513 16.5321C35.185 16.6794 35.1983 16.9352 35.9013 17.1346L35.5432 17.1172C35.7598 17.6287 36.6662 17.3036 36.6485 17.7241C37.1039 17.7761 37.5637 17.5117 38.0678 17.672L37.7583 17.9928L38.249 18.0882L38.3065 17.8368C38.4657 17.8498 38.5364 17.9104 38.5453 17.9755C38.9255 17.7414 39.3588 18.0101 39.8451 17.7934L39.8893 17.9234L39.991 17.8411C40.0662 18.0665 40.4464 18.0101 40.4553 18.2139C40.3049 18.2529 39.938 18.3482 39.9778 18.2139C39.571 18.4436 40.4464 18.3829 40.6984 18.4002C40.4287 18.2615 40.7825 18.2529 40.9328 18.2095C40.9549 18.2442 40.9062 18.2572 40.8797 18.3092L40.9637 18.3309H40.9814H40.9858H40.9903C41.7375 18.2789 42.1575 17.1866 42.5996 16.7531V16.7098L42.5642 16.5884L42.5908 16.6014ZM25.7986 5.71736L25.7101 5.60466C25.7278 5.53097 25.7632 5.51364 25.803 5.51797C25.8251 5.58299 25.8472 5.65234 25.8737 5.71736C25.8516 5.71736 25.8295 5.73036 25.7986 5.71736ZM26.1832 9.23268C26.3335 9.39306 26.6032 9.14599 26.6475 9.52743C26.4618 9.33671 26.2053 9.54477 26.1832 9.23268ZM26.758 9.41039C26.8774 9.49709 26.9348 9.48842 26.9348 9.73549C26.8155 9.64879 26.7226 9.48408 26.758 9.41039ZM30.2597 5.09752L30.1005 5.2839L30.0077 5.04117L30.2597 5.09752ZM29.1941 1.34813C29.6009 1.74258 29.2693 1.4695 29.3754 1.5952L29.2649 1.68189C29.2472 1.62121 29.1941 1.58653 29.1322 1.56486C29.1322 1.55619 29.1897 1.37414 29.1941 1.35247V1.34813ZM29.1367 1.5822C29.1853 1.61254 29.2207 1.66889 29.2251 1.76858L29.1411 1.71657C29.1411 1.67322 29.1367 1.62988 29.1367 1.5822ZM29.1499 1.86394C29.203 2.02432 29.2428 2.20204 29.3179 2.39709L29.3002 2.00698C29.5921 2.15003 29.3577 2.65283 29.4771 2.79587C29.3135 2.80888 29.256 2.72219 29.1941 2.71352C29.1676 2.43611 29.1588 2.15003 29.1499 1.86394ZM29.3268 3.5891C29.3135 3.51541 29.3047 3.44606 29.2914 3.37237C29.3975 3.43305 29.5257 3.51541 29.6407 3.74514L29.7159 3.62377C29.7512 3.81449 30.0917 3.89685 29.9767 4.1916C29.8087 4.23061 29.7468 4.02689 29.6274 3.94019C29.5478 4.02689 30.0342 4.2046 29.9281 4.443C29.6584 4.33464 29.3533 3.90552 29.3666 3.57176C29.3533 3.58043 29.34 3.58476 29.3268 3.5891ZM30.1359 13.966L29.8529 13.8533V13.8143L30.1403 13.927V13.9703L30.1359 13.966ZM30.0784 12.1932C30.074 12.0285 29.9723 11.9634 30.0209 11.8898C30.1094 11.9764 30.2022 12.0631 30.2906 12.1455C30.1713 12.1108 30.0563 12.1325 30.074 12.1932H30.0784ZM30.1536 6.24617C30.1138 6.15948 30.074 6.08146 30.0386 5.99477C30.0872 6.00777 30.1359 6.02078 30.1801 6.02945C30.2066 5.79972 30.0077 5.72603 29.8927 5.609C29.7512 5.23622 29.6274 4.85478 29.5257 4.46901C29.8529 5.10185 30.1934 5.72603 30.3702 6.3502C30.2376 6.27218 30.1757 6.24617 30.1536 6.25051V6.24617ZM31.0025 13.6886L31.0423 13.784L30.8035 13.6713L30.9494 13.7146C31.0511 13.6279 30.7902 13.4155 30.693 13.4112C30.8256 13.2898 30.9804 13.4589 31.1395 13.5456C31.0599 13.5369 31.0378 13.6366 30.998 13.6843L31.0025 13.6886ZM31.1616 7.85429L31.1307 7.62023L31.2147 7.74159L31.1572 7.85429H31.1616ZM31.8867 7.59855C31.8204 7.59855 31.8248 7.62023 31.8469 7.65057L31.7585 7.55521C31.7983 7.48152 31.8381 7.57688 31.8823 7.59422L31.8867 7.59855ZM31.533 8.53048C31.8867 8.67786 32.2581 8.80356 32.1785 9.13732L31.9707 9.0723C31.816 8.89458 31.6745 8.71253 31.533 8.52615V8.53048ZM32.183 9.30637C32.183 9.30637 32.1653 9.28903 32.1609 9.28036C32.1697 9.28036 32.1785 9.28036 32.183 9.28036V9.30637ZM31.8558 14.6985C31.9531 14.6075 32.1918 14.8286 32.1962 14.6292L32.1034 14.5252C32.2449 14.6855 32.3996 14.3128 32.5411 14.6249L32.3952 14.5122C32.5411 14.7029 31.9973 14.5858 32.2449 14.8416C32.3465 14.9413 31.9398 14.8676 31.8558 14.7029V14.6985ZM32.2449 15.1233C32.5632 14.9716 32.4659 15.275 32.7224 15.2837C32.5588 15.3054 32.2935 15.4528 32.2449 15.1233ZM32.8859 9.64446C32.8992 9.73549 33.0142 9.86119 33.1335 9.9002L33.0186 9.99989L33.0407 10.1083C33.0053 10.0736 33.0053 10.0346 33.0186 9.99989C32.9036 9.78317 32.5853 9.32804 32.3775 9.11565C32.3863 8.93793 32.7622 9.09397 32.8904 9.11565C32.2714 9.47541 33.1645 9.41039 33.2087 9.71381C33.107 9.72248 32.9876 9.59678 32.8815 9.64446H32.8859ZM33.558 15.2447L33.3148 15.0713L33.8454 15.1277L33.5624 15.2447H33.558ZM33.3723 10.4464C33.4475 10.455 33.527 10.468 33.6022 10.4637C33.6641 10.5157 33.8808 10.6978 33.8454 10.8061C33.6862 10.6891 33.5226 10.5721 33.3723 10.4464ZM34.8092 15.2794L34.8313 15.2577C34.8313 15.2577 34.8755 15.275 34.8932 15.288C34.8623 15.288 34.8358 15.288 34.8048 15.2794H34.8092ZM35.5122 16.168L35.384 16.2807C35.6183 15.9296 35.0568 16.1159 34.8977 16.0553C35.0966 16.0769 35.499 15.8082 35.751 16.1333L35.4547 16.1246L35.5122 16.1636V16.168ZM35.9013 11.0705L36.0428 11.0489C36.0516 11.0012 36.087 10.9708 36.2064 11.0228L36.0428 11.0489C36.0251 11.1399 36.1179 11.3046 35.9013 11.0705ZM36.4628 11.6167C36.5114 11.66 36.14 11.4173 35.9986 11.3219C36.1312 11.2959 36.4893 11.4563 36.4628 11.6167ZM36.3655 12.2539C36.3655 12.2539 36.3611 12.2539 36.3567 12.2495C36.4142 12.2062 36.3346 12.1065 36.5689 12.0978C36.5601 12.1845 36.4672 12.2409 36.3655 12.2539ZM38.3728 11.9764C38.3153 12.1021 38.0943 11.9591 37.9882 11.8854L38.3728 11.9764ZM37.4046 17.581C37.2763 17.5073 37.5018 17.4163 37.577 17.3296C37.5151 17.2949 37.462 17.2949 37.3603 17.2993C37.5062 16.9698 37.577 17.49 37.9042 17.386C37.86 17.555 37.5283 17.49 37.4001 17.5767L37.4046 17.581ZM37.5505 12.3275C37.6654 12.1195 37.9616 12.0891 38.0501 12.1195L38.2358 12.1455C38.0235 12.1975 37.6654 12.2279 37.5505 12.3275ZM38.2004 16.6318C38.1783 16.5407 38.2004 16.4887 38.2358 16.454C38.2977 16.467 38.3596 16.48 38.4259 16.493C38.333 16.4974 38.249 16.5321 38.2004 16.6318ZM38.3065 17.8108C38.3596 17.659 38.417 17.7761 38.5187 17.8281L38.3065 17.8108ZM38.112 12.6786L38.0899 12.4402C38.2048 12.5139 38.1164 12.6786 38.3772 12.6223C38.3772 12.4532 38.5453 12.1455 38.8459 12.3232C38.5364 12.5486 38.4878 12.644 38.112 12.6786ZM38.7663 12.0718L39.1598 12.2365C38.8769 12.5356 38.8945 12.2192 38.7663 12.0718ZM39.2482 16.8095C39.2394 16.9742 39.204 16.9352 39.0626 16.9135C39.2306 16.8745 39.2482 16.6144 39.5003 16.8008C39.4251 16.8571 39.3234 16.7531 39.2482 16.8051V16.8095ZM39.8407 12.5313C39.8009 12.3362 40.0529 12.1455 40.3182 12.1932C40.6365 12.0588 40.4199 12.4923 40.5525 12.3709C40.4155 12.579 40.075 12.5053 39.8407 12.5313ZM40.5083 16.9698C40.4818 16.8745 40.4818 16.8138 40.4774 16.7531C40.6012 16.7575 40.725 16.7618 40.8488 16.7661C40.7736 16.8441 40.6631 16.9135 40.5083 16.9698ZM41.1008 15.1753C41.0698 15.1883 41.0433 15.1883 41.0168 15.197V14.4601C41.0477 14.6379 41.1317 14.7939 41.1406 14.8242L41.1583 14.5425C41.5208 14.7029 40.9814 14.976 41.1008 15.1753ZM41.9453 13.901L41.8082 13.6539L41.9629 13.8316L41.9453 13.8967V13.901Z" fill="#EC008C"/>
<path d="M34.9547 10.4199L34.8799 10.4072L34.9547 10.4411V10.4199Z" fill="#EC008C"/>
</g>
<defs>
<clipPath id="clip0_372_8232">
<rect width="210" height="44" fill="white"/>
</clipPath>
</defs>
</svg>
