<?xml version="1.0" encoding="UTF-8"?>
<svg id="_레이어_1" data-name="레이어_1" xmlns="http://www.w3.org/2000/svg" viewBox="0 0 500 500">
  <defs>
    <style>
      .cls-1 {
        opacity: .2;
      }

      .cls-1, .cls-2, .cls-3, .cls-4, .cls-5, .cls-6, .cls-7 {
        fill: #fff;
      }

      .cls-8 {
        fill: #788231;
      }

      .cls-9 {
        fill: #231815;
      }

      .cls-10 {
        fill: none;
        stroke: #221714;
        stroke-width: 1.32px;
      }

      .cls-10, .cls-3, .cls-7 {
        stroke-linecap: round;
      }

      .cls-10, .cls-5, .cls-7 {
        stroke-linejoin: round;
      }

      .cls-3, .cls-4, .cls-5, .cls-6 {
        stroke-width: 1.92px;
      }

      .cls-3, .cls-4, .cls-5, .cls-6, .cls-7 {
        stroke: #231815;
      }

      .cls-3, .cls-4, .cls-6 {
        stroke-miterlimit: 10;
      }

      .cls-11 {
        fill: #22428f;
      }

      .cls-12 {
        fill: #bed73d;
      }

      .cls-13 {
        fill: #e09e1a;
      }

      .cls-14 {
        fill: #c91a23;
      }

      .cls-15 {
        fill: #808e02;
      }

      .cls-16 {
        fill: #354d97;
      }

      .cls-17 {
        fill: #2394c5;
      }

      .cls-18 {
        fill: #dbdcdd;
      }

      .cls-19 {
        fill: #040000;
      }

      .cls-20 {
        fill: #c41a6f;
      }

      .cls-21 {
        fill: #b3c531;
      }

      .cls-6 {
        opacity: .5;
      }

      .cls-7 {
        stroke-width: 1.28px;
      }
    </style>
  </defs>
  <g>
    <polygon class="cls-11" points="166.41 111.97 217.56 111.97 217.56 123.72 166.41 135.47 166.41 111.97"/>
    <polygon class="cls-11" points="92.77 111.97 41.61 111.97 41.61 123.72 92.77 135.47 92.77 111.97"/>
    <polygon class="cls-21" points="170.28 123.72 88.9 123.72 96.64 100.22 162.55 100.22 170.28 123.72"/>
    <polygon class="cls-8" points="170.28 123.72 88.9 123.72 96.64 147.22 162.55 147.22 170.28 123.72"/>
    <rect class="cls-18" x="204.38" y="106.89" width="13.18" height="24.29"/>
    <rect class="cls-18" x="41.61" y="106.89" width="13.18" height="24.29"/>
    <path class="cls-18" d="M75.34,90.98H21.07c-.59,0-1.07-.48-1.07-1.08s.48-1.07,1.07-1.07h54.27c.59,0,1.08.48,1.08,1.07s-.48,1.08-1.08,1.08"/>
    <path class="cls-16" d="M48.21,107.16c-.6,0-1.08-.48-1.08-1.08v-18.38c0-.6.48-1.08,1.08-1.08s1.08.48,1.08,1.08v18.38c0,.6-.48,1.08-1.08,1.08"/>
    <path class="cls-18" d="M238.11,90.98h-54.26c-.6,0-1.08-.48-1.08-1.08s.48-1.07,1.08-1.07h54.26c.59,0,1.08.48,1.08,1.07s-.48,1.08-1.08,1.08"/>
    <path class="cls-16" d="M210.97,107.16c-.6,0-1.08-.48-1.08-1.08v-18.38c0-.6.48-1.08,1.08-1.08s1.08.48,1.08,1.08v18.38c0,.6-.48,1.08-1.08,1.08"/>
    <path class="cls-16" d="M129.59,161.46c-.6,0-1.08-.48-1.08-1.08v-13.17c0-.59.48-1.07,1.08-1.07s1.08.48,1.08,1.07v13.17c0,.6-.48,1.08-1.08,1.08"/>
    <path class="cls-16" d="M169.02,162.02h-78.86c-.59,0-1.07-.48-1.07-1.08s.48-1.07,1.07-1.07h78.86c.59,0,1.08.48,1.08,1.07s-.48,1.08-1.08,1.08"/>
    <circle class="cls-2" cx="129.59" cy="112.03" r="5.14"/>
    <path class="cls-13" d="M166.41,124.62h-73.65c-.5,0-.89-.4-.89-.9s.4-.89.89-.89h73.65c.5,0,.9.4.9.89s-.4.9-.9.9"/>
    <path class="cls-21" d="M115.45,30.14l.05.28c.15-.08.24-.16-.05-.28"/>
    <path class="cls-21" d="M111.61,41.12c.03-.14.03-.27,0-.36l-.13.04.12.32Z"/>
    <path class="cls-21" d="M119.26,30.83c.2-.07.42-.18.64-.38-.39-.02-.64.17-.64.38"/>
    <path class="cls-21" d="M114.83,41.51h-.53c.19.11.39.09.53,0"/>
    <path class="cls-21" d="M152.92,80.13s-.08.03-.11.06c-.17-.66-.53-1.51-1.04-2.02,0-.03,0-.06-.02-.09,0,.01,0,.02.02.03l.15-.35c.39.57.77.78,1.09.93-.04-.19-.08-.37-.13-.56-.03.03-.08.03-.11.06-.18-.66-.55-1.52-1.04-2.03-.13-.34-.32-.7-.51-1,.07.08.13.17.17.26l.16-.36c.39.57.77.78,1.09.94-.05-.19-.09-.38-.13-.56-.04.02-.07.02-.1.06-.2-.73-.63-1.68-1.19-2.16.03.13.06.27.13.39-.03.13-.07.23-.1.31.22.19.41.34.32.46-.13-.1-.24-.26-.34-.4-.17.3-.43.22-.63.15,0,.12.04.23.1.32-.12-.1-.25-.17-.38-.21-.03.07-.03.14-.03.21,0,.04.02.08.02.11.12.51.98.89.79,1.1-.3-.24-.46-.82-.91-.69-.02.06-.02.1-.04.14.02.1.02.18.03.29-.02-.02-.04-.03-.06-.04.01.14.03.27.1.37.02.12.03.24.04.36.28.26.59.46.47.61-.18-.14-.3-.39-.46-.55.04.39.09.79.12,1.2.07.08.14.17.18.27l.16-.36c.15.22.3.38.45.52-.09.63,1.01,1.05.79,1.31-.31-.24-.45-.82-.9-.69-.32.89.52,1.1.76,1.6l.15-.35c.39.57.76.79,1.08.93-.04-.18-.09-.36-.13-.55M151.03,76.47l.06-.13c.04.07.09.1.12.16-.05-.02-.1,0-.16,0-.01-.02-.02-.03-.02-.04M151.79,77.05s.11.08.16.1c0,.01,0,.03-.02.04-.05-.04-.1-.09-.14-.15"/>
    <path class="cls-21" d="M151.59,81.87c-.04-.19-.09-.37-.13-.56-.03.02-.08.04-.1.07-.15-.55-.44-1.27-.83-1.78.03.52.04,1.01.04,1.43.37.51.72.72,1.02.85"/>
    <path class="cls-21" d="M106.83,37.15h0s-.04-.04-.04-.05c0,.01.02.02.04.05"/>
    <path class="cls-21" d="M149.81,76.13c.19-.05.33.02.45.14,0-.02,0-.03,0-.05-.23-.22-.43-.5-.3-.81.05,0,.11.05.16.08,0-.08,0-.16.03-.25-.03-.23-.06-.46-.08-.67l.31.51c-.03-.16-.05-.29-.07-.39,0-.04-.02-.08-.02-.11-.04-.4.11-.38.31-.32-.02-.13,0-.27.06-.43.26-.08.42.08.57.28,0-.02.02-.04.03-.05-.29-.25-.61-.57-.47-.96.16.05.3.14.44.26-.27-1.33,1.04-2.44.95-3.24-.49-1.65-.56.8-1.16-.16-.27-.85.32-.53.35-1.14l-.92-.18c-.43-.95.77-.27.28-.74.25-.93.4.17,1.1.19-.24-.13-.84-.93-.63-1.39.23-.06.61,1,.48.28-1.26-2.37-.48-3.35-1.58-5.49l.47.02c-.19-.21-.45-.32-.42-.62l.32.03c-.14-.33-1.61-2.32-2.29-3.75l.86.48-1.21-.97.74-.23c-.93-.04-1.2-1.8-2.17-2.77l.41-.25-.68-.53.43.05c-.49-.66-1.67-1-1.86-1.98.21.57.91.26,1.17.03-.68-.53-1.37-1.05-2.1-1.5.23-.25-.34-1.16.41-.8l-1.03-.41.34-.17c-1.83-3.55-6.11-3.94-7.74-7.65l.15-.06c-.75-.29-1.48-.57-2.26-.78-.26-.33.07-.92-.31-1.52-.18.76-1.06-.73-1.77-.49-.24-.56.29-.39.58-.52-1.33-1.88-3.46-1.8-5.23-3.46,1.55,2.04,1.61,1.89,2.75,3.08-1.81-.65-1.63-1.52-3.53-2.3l1.01.17c-.43-1.44-3.06-.94-2.79-2.16-1.17-.46-2.65.3-3.93-.46l.98-.74-1.29-.52-.25.67c-.43-.13-.6-.34-.58-.53-1.16.49-2.31-.28-3.7-.02l-.06-.39c-.12.08-.26.14-.31.19-.1-.71-1.2-.62-1.15-1.2.46-.09,1.51-.21,1.34.17,1.23-.46-1.22-.7-1.96-.75.72.46-.29.39-.74.47-.05-.1.09-.13.19-.27-.64-.29-1.15,0-1.55.18l-.31.11-.14.03h-.03s-.02,0-.02,0h0c-.67.03-.33.27-.36.3.14-.13-4.32,1.92-3.69,3.07v.02s0,.05,0,.05c-.03.17-.17.33-.5.49l.63.27-.58.87c1.33.22,0,1.31,1.21,1.58-.07,1.07-.74-.22-.64.18-.09.24-.1.53-.07.84v.12s.01.02.01.02c.29.35-2.34.64,2.88,3.57h0s.03,0,.03,0l.19.08.25-.18.25-.02c.57-.11,1.07-.17,1.17.17.84-.3,1.66.04,2.34,0l-.09.57c.37-.04.84-.2,1.13-.02l-.17.21c1.34,0,2.37.23,3.41.66-.19.33-.28.56-.91.46.73.91,2.81.17,4.12,1.14l-.24.21.98-.03c-.24.09-.22.32-.33.53,1.29.71,2.8,1.66,4.08,1.14-.49.02.21.93-.78.85,1.73.1,3.14,1.52,4.61,2.36v-.05s.72.25.72.25l-.03.12-.5-.2c.57.39,1.15.7,1.78.81-.05.22-.28.72-.13,1.13.55-.53.96,1.8,2.06,1.9-.08.21-.34-.17-.34.21,1.49,1.4,4.15,3.36,4.94,5.85,1.29-.57,2.12,1.42,3.25,2.42-.57.68-.73-.53-1.43-.56.5.62-.82.6.35,1.53-.15,0-.22.09-.34-.17.28.71.83-.58,1.12.59l-.49.28,1,.34c.56,2.38,1.71,4.2,1.6,6.41.16.09.42-.04.5-.33.27.91,1.39,1.85.98,3.06l-.28-.25c-.18,1.48.63,1.66,1.09,2.85-.21,0-.4-.27-.64-.33l1.21,2.9-.26-.4.02.61.33-.06-.07-.11c.14,0,.25-.04.37-.09t-.03,0l.06.16c0,.1,0,.19,0,.29-.11.73-.48,2.05-.08,2.63-.03.4-.11,1.81.34,2.38-.56.19-.81.36.27.46-.15.09-.3.19-.4.32.55.5,1.4-.42,1.6-.15-.31.25-.91.25-.88.74.78.51,1.17-.26,1.73-.37l-.31-.24c.55-.21.83-.46,1.04-.7.25-.16.26-.32.09-.44l.26-.06c.16-.17.22-.74.24-1.53-.02-.03-.04-.05-.07-.08l-.16.35c-.22-.5-1.07-.71-.75-1.6.45-.14.6.45.91.68.22-.25-1.05-.71-.79-1.41.31.09.58.33.8.63-.03-.67-.08-1.4-.14-2.12-.32-.35-.83-.61-.57-1.34M110.02,38.24c-1.43-1.7-.29-.72-.48-1.22.23-.3.56-.6.43-.9.09-.02.16-.03.25-.04v.13s-.03-.03-.01,0l-.14,1.29c-.17-.06-.29-.15-.32-.26-.07.04-.2.02.32.64l.39.1c-.13.23-.28.3-.42.28M110.06,37.49c.41.04.82.11,1.23.17h0c-.32.03-.88-.03-1.24-.17M112.35,33.32s.01,0,.02-.01h0s.02.02.02.02h0s-.02,0-.04,0M112.02,40.46l-.17-.08.72-.26-.55.34ZM112.93,33.43h0v-.04s.01-.01.01-.01h0c.07-.08.04-.05-.06.04-.07-.01-.13-.02-.2-.04.27-.06.55-.21.78-.49.03.29,0,.46,0,.64-.18-.04-.36-.07-.53-.1M122.25,32.51c.33.25-.35.43-.59.64.16.11.3.13.59.14-.54.86-.53-.58-1.49-.42.19-.44,1.09-.16,1.49-.36M116.85,33.88c.1-.46.18-.34.56-.24.11,0,.24,0,.38.05l-.38-.05c-.49.05-.64.77-1.27.18.24-.13.47.19.71.06M117,34.41h-.03s-.03,0-.05-.02l.08.02ZM115.64,41.23c-.97.22-.11-.87-.55-.6.5-.5,1.39-.15,2.07-.1,0,.54-.82.96-1.52.7M119.32,31.31l-.36-.11c.14-.03.26.03.36.11l.56.17c-.22.4-.31.04-.56-.17M119.01,35.11c.24.03.46-.03.63-.27.02.23-.04.37-.14.45-.17-.06-.33-.11-.49-.18M119.79,42.57l-.97-.74c.93-.62.69.27.97.74l.32.25c-.14-.05-.25-.14-.32-.25M119.71,41.83c.96-.41,1.21-.81,2.25-.69l-.06.67c-.28-.25.07-.69-.72-.62-.06.43-.73,1.3-1.47.64M120.89,42.95c.21-.32.76.18,1.02.43l-1.02-.43ZM121.85,42.7c-.13-.13-.26-.15-.51-.17.74-.04,2.03.1,2.13-.34-.34.74-1.36.64-1.62.51M126.16,37.25l.8.18-.14-.15.4-.25c-.79.86.8.66,1.21.87-.55-.14-1.73.39-2.27-.65M125.86,43.56c.08-.27.35-.35.66-.33h0,0c-.23.06,0,.46-.66.33M125.98,44.95c-.12-.14.87.62,1.24.92-.39.03-1.39-.5-1.24-.92M127.02,46.59c-.04.13-.15.2-.48.02l.48-.02c.06-.24-.12-.74.4,0h-.4ZM128.29,40.11c-.06-.04-.12-.08-.17-.11.09,0,.17.03.26.04l-.09.07ZM130.92,40.93l.83-.19.63.55-1.45-.36ZM135.31,41.6c-.93.29-.55-.53-1.23-.67.45,0,1.24-.27,1.23.67M133.6,49.09c-.16-.16-.67-.64-.62-.96.35.32.69.65,1.02.98-.13-.01-.26-.03-.4-.03M134.28,42.87l.35.38c-.3-.61,1.1-.02.55-.86-.22-.34.8.1,1.01.55-.32.23-.87-.49-.97.07l.2.34c-.32-.51-.89.46-1.14-.48M135.29,53.1c1.79-.93-.82-.79-.79-1.77.26.01.55.41.84.31,0-.28-.27-.68-.58-.83-.15.05-.3.04-.37-.04.12-.05.24,0,.37.04.13-.04.27-.13.33-.25l-.02-.33c.08.12.08.24.02.33.17.74,1.07,2.02,1.69,2.58-.04.49-1.09.02-1.49-.05M137.67,46.44c-.08-.02-.17-.07-.27-.19l.27.19c.21.06.31-.21.44-.32l-.07-.29.59.43-.37-.2c-.33.21.31.93.59.94-.42.29-.8-.21-1.18-.56M137.94,57.6c.41.03-.11-.35-.14-.53l.5.66c-.1.21-.26-.05-.35-.13M137.33,53.11c.11.04.25.08.38.13.41.53.83,1.07,1.22,1.62-.93-.44-1.86-.84-1.6-1.75M140.11,51.52c-.18-.25-.38-.51-.58-.75.27.11.54.07.51-.09-.05.45.21.67.07.85M139.82,57.22l.15-.31.12.65-.26-.33ZM141.33,46.19l-.75-.41.03-.11.75.41-.03.11ZM149.45,70.41l.22.33c-.06.18-.15.24-.24.24-.05-.22-.1-.43-.16-.62.06,0,.12.02.18.05M142.8,61.44c.11.24.23.47.33.72-.14-.03-.29-.06-.42-.08.02.55.49.74.82,1.01.43,1,.81,2,1.15,3.04-.94-1.66-1.91-3.29-2.46-4.98.37.24.53.32.58.3M142.73,64.68l.42-.54.29.67-.7-.13ZM144.53,68.48l-.15.35c-.24-.51-1.08-.71-.76-1.6.45-.13.61.45.91.69.21-.26-1.05-.72-.78-1.42.8.26,1.39,1.51,1.63,2.41.02-.03.06-.03.1-.05.04.18.09.37.12.55-.31-.15-.69-.35-1.07-.93M145.67,73.02c.11.06.21.15.29.27-.14-.06-.23-.15-.29-.27M145.78,74.97c-.02-.15-.01-.29.02-.41.03.1.04.22,0,.4,0,0-.02,0-.03,0M145.94,72.37c-.02-.06-.04-.11-.06-.17l.02.18c-.18.02-.32.12-.3.46-.19-.58.04-1.46-.22-1.73.25-.05.4,0,.54.06.02.36.06.7.27.93.01.09.02.19.04.29-.09-.02-.18-.03-.28-.03M148.16,59.7c-.28-.31-.45-.3-.37-.98.32.28.51.76.37.98M148.5,59.4c.41.61,1.19.13,1.1,1.03-.32-.51-1.16.08-1.1-1.03"/>
    <path class="cls-21" d="M109.75,37.1s0,.09,0,.13c.04,0,.05-.04,0-.13"/>
    <polygon class="cls-21" points="129.77 48.88 129.98 48.94 129.78 48.82 129.77 48.88"/>
    <path class="cls-17" d="M130.49,82.92l.86-.05c-.48-.17-.4.05-.86.05"/>
    <path class="cls-17" d="M130.61,82.49l.24.03-.03-.16c.07.28-.66-.21-.6-.38l-.02.12c.58.78.24.21.4.39"/>
    <path class="cls-17" d="M108.86,42.79l.06.14c.11-.04.17-.09-.06-.14"/>
    <path class="cls-17" d="M111.75,43.34l.43-.19c-.3-.02-.45.07-.43.19"/>
    <path class="cls-17" d="M107.18,51.33h-.45c.18.06.33.04.45,0"/>
    <polygon class="cls-17" points="103.61 49.18 103.55 49.24 103.44 49.31 103.59 49.29 103.63 49.29 103.61 49.18"/>
    <path class="cls-17" d="M135.98,76.45c-.27-1.26.11-2.14.01-2.82-.26-1.32-.29.55-.6-.25-.14-.71.16-.38.18-.85l-.47-.24c-.19-.81.39-.11.16-.55.18-.69.2.18.54.29-.12-.13-.36-.83-.28-1.16.15-.03.29.85.25.28-.73-1.97-1.29-2.12-1.31-4.18l.26.09c-.11-.18-.25-.31-.26-.53l.18.06c-.12-.24-.93-1.98-1.45-3.12l.51.48-.75-.88.4-.05c-.53-.18.64-1.51-.03-2.36l.21-.11-.45-.48.26.1c-.35-.55-1.07-.98-1.28-1.71.18.44.56.34.67.21-.42-.49-.92-.93-1.42-1.37.11-.13-.33-.85.16-.48l-.67-.44.2-.07c-1.61-4.07-4.38-3.56-6.05-6.13l.1-.02-1.67-.74c-.23-.23-.11-.56-.45-.98,0,.44-.82-.58-1.3-.47-.27-.33.14-.19.32-.25-1.27-1.19-2.69-1.45-4.26-2.44,1.44,1.25,2.02,1.55,2.98,2.39-1.33-.63-1.96-1.4-3.42-2.02l.74.18c-.51-.84-2.3-.82-2.31-1.42-.93-.25-1.89.01-2.93-.48l.62-.32-1-.34-.12.34c-.33-.07-.47-.18-.49-.27-.81.21-1.73-.28-2.74-.22l-.08-.19c-.08.03-.19.06-.22.09-.13-.33-.95-.35-.93-.64.32-.01,1.09-.06,1,.13.88-.23-.95-.36-1.47-.45.54.25-.2.18-.53.21-.04-.05.06-.06.14-.13-.49-.18-.84-.05-1.14.02l-.22.04h-.06s-.03,0-.03,0c-.04.02-.05.11-.13.1-2.48-.09-.91.74-1.95,1.59h0s0,.11,0,.11c-.02.13-.1.27-.27.4l.32.2-.33.72c.67.14-.04,1.04.56,1.23-.07.85-.36-.15-.33.16-.74.75,1.46,1.75.31,2.57v.07s-.04-.04-.04-.07c-.04.3-1.31,2.09.94,1.56h.01s.02,0,.02,0h.03s.12,0,.12,0h.25s.49.04.49.04c.33.05.63.1.92.08v.29c.29-.02.65-.1.92,0l-.11.1c1.06.08,1.9.32,2.8.53-.11.18-.16.28-.67.22.73.43,2.21.39,3.38.94l-.14.09.73.11c-.17.02-.13.14-.18.25,1.1.55,2.4,1.26,3.22,1.15-.35-.05.3.58-.43.41,1.29.28,3.47.21,3.99,1.43l.21.44-.05.5v.07l-.36-.2c.44.34.88.63,1.31.81,0,.13-.08.43.09.71.31-.27.84,1.4,1.59,1.64-.02.13-.25-.18-.19.08,2.4,1.07,3.93,3.58,4.59,5.14-1.02.7.4,1.38,1.08,2.32-.29.42-.39-.53-.83-.68.35.53-.4.31.28,1.23-.05-.01-.09,0-.13-.07.18.31.39-.34.58.53l-.26.14.56.42c.42,1.93,1,3.55.91,5.31.08.09.22.03.26-.2.14.77.63,1.66.38,2.59l-.12-.24c-.17,1.44.41,1.45.41,3.19.05-.39-.11-1.29.24-1.37.2.16.11,1.05-.06,1.33l.18-.06c-.03.42,0,1.31-.06,1.74l.2.35s0,0,.02.02l.15.14.31,1.16c.51.27,1.07-1.02,1.67-1.33-.02.1.3.13.33.17.04-.1-.26-.13-.24-.2.02,0,.04-.02.05-.03h.33c.4.19.38-.44.66-.81h.02c.35.31.44-.5.67-.38-.02-.07.08-.07.05-.14,0,0-.12-.04-.14-.04.01,0,0-.02.02-.03-.04-.08-.08-.17-.11-.24-.02-.02-.03-.03-.04-.04h.03s0,.03.02.04c.11.09.17.18.11.24h0c.09-.04.15-.14.18-.24l.21.02c.02-.2.03-.41.04-.62.08,0,.16.02.22.02-.07-.71.74-.81.97-1.13.04-.11-.12-.04-.33.06,0-.18,0-.37.01-.56,0,.02.01.04.01.06,0-.02,0-.05-.02-.08,0-.34,0-.7-.02-1.04l.13.39c-.18-1.51-.19-.02-.02-1.13M104.82,48.22c0-.4-.08-.77-.09-.84l-.09.64c-.46-.43.35-.96.24-1.43.04-.03.08-.02.12-.04l-.18,1.67ZM105.21,44.53l-.05.46c-.02-.21,0-.36.05-.46M104.77,50.74l-.14-.05.56-.09-.41.14ZM106.22,44.23s-.06,0-.1-.01c.14-.08.14-.05.1.01M106.93,44.32c.21-.02.42-.07.6-.19.04.13.03.22.03.3-.2-.04-.41-.08-.62-.11M107.78,51.24c-.75.04-.18-.48-.5-.35.35-.25,1.1.01,1.63.08.06.3-.53.46-1.13.27M131.87,60.98c-.54-.53-.05-.16-.37-.02.35-.25.55-.04,1.09.02.06.29-1.25.82-.72,0M134.72,67.77c.5-.57.14-.07,0-.38.28.34.07.55.04,1.09-.28.09-.9-1.18-.04-.71M132.6,59.26c-.17-.74.04-.15-.31-.23.44,0,.49.28.9.63-.11.27-1.49-.02-.59-.4M135,79.28c-.54-.51-.05-.15-.38-.01.35-.25,1.09.02,1.62.08.07.3-.98.5-1.24-.07M134.56,80.34c-.53-.52-.05-.14-.38-.02.52-.36.71.68,1.93.82-.46-1.16-1.29-.23-1.55-.8M109.7,44.72c.17-.05.38.13.55.08.02-.24.11-.17.41-.09-.36,0-.41.36-.96,0M114.16,44.37c.27.15-.21.21-.35.3.13.08.24.09.45.13-.29.42-.47-.37-1.15-.34.09-.22.77-.01,1.05-.08M112.52,45.44c.05.14.01.21-.07.24-.14-.06-.28-.11-.43-.15.2.03.39.03.5-.09M112.28,43.67c-.11.19-.23,0-.45-.09l.45.09ZM110.38,51.73c.64-.25.57.22.85.5l-.85-.5ZM111.07,51.81c.68-.15.81-.3,1.62-.19l.06.36c-.25-.16-.06-.36-.65-.38.02.23-.38.64-1.03.21M112.12,52.52c.13-.16.63.12.86.32l-.86-.32ZM112.84,52.45c-.11-.09-.21-.09-.42-.12.51,0,1.31.21,1.51.11-.22.27-.89.11-1.1.02M115.95,53.39c.02-.14.21-.16.41-.11,0,0,.03.01.03.01h-.03c-.14,0,.08.27-.41.1M116.22,54.23c-.1-.11.73.48,1.04.71-.27-.04-1.07-.49-1.04-.71M117.23,55.34c0,.07-.07.1-.34-.05l.34.05c.02-.13-.2-.45.29.04l-.29-.04ZM117.73,47.27l.63.14-.13-.09.24-.11c-.42.41.68.43,1.01.63-.41-.15-1.15.02-1.75-.57M119.77,49.12s-.04-.03-.05-.04c.02,0,.05.02.08.02l-.03.02ZM121.75,49.89h.53s.52.42.52.42l-1.05-.42ZM122.12,57.93c-.13-.12-.56-.54-.56-.72.29.27.58.55.86.84-.1-.04-.2-.1-.3-.12M124.88,51.33c-.19-.25,1.03.88,1.24,1.2-.18.1-1.14-1.14-1.12-.8l.19.25c-.29-.37-.52.18-.82-.48l.28.3c-.29-.44.71.15.22-.47M124.85,50.84c-.56.05-.46-.39-.95-.54.3.05.81-.05.95.54M135.1,69.34c-.56.06-.45-.37-.95-.54.31.06.81-.05.95.54M123.72,60.92c1.01-.32-.59-.72-.73-1.34.17.05.41.36.59.35-.04-.18-.27-.49-.49-.64-.09,0-.18-.02-.24-.1.08,0,.15.03.24.1l.18-.11-.06-.22c.07.09.08.16.06.22.23.48.96,1.52,1.36,2.05.04.35-.66-.18-.9-.31M124.92,61.04v-.03s.02.02.03.03c-.02,0-.03,0-.03,0M124.97,61.3c.08.05.18.11.27.17.31.43.6.88.89,1.33-.58-.48-1.18-.94-1.16-1.49M126.99,53.99c.14.07.17-.1.23-.15l-.07-.2,1.2.29-1.03-.09c-.17.08.75,1.16.94,1.22-.22.13-.96-.78-1.25-1.07M126.9,64.64l.05-.19.13.49-.18-.3ZM128.88,54.24l.53.39v.08s-.53-.39-.53-.39v-.07ZM128.91,57.49c.18.12.35.16.31.04.02.29.17.46.15.57-.15-.21-.31-.4-.46-.61M128.83,68.28c.08.21.16.43.22.65-.08-.06-.17-.11-.25-.16.02.43.31.67.51.92.53,1.71.23.52.67,2.54-.51-1.44-1.09-2.87-1.47-4.25.25.29.32.34.33.29M128.92,70.78l.2-.36.16.57-.37-.21ZM129.86,74.04l-.08.26c-.11-.44-.53-.72-.36-1.38.25-.04.31.45.46.67.11-.17-.49-.72-.4-1.23.46.32.69,1.4.81,2.14.02-.02.05-.03.07-.04.02.16.03.3.05.45-.16-.14-.36-.36-.54-.87M130.42,78.06c-.39-.35-.06-1.48-.21-1.82.17,0,.25.11.32.18.04.65.07,1.3.07,1.95-.06-.36-.11-.77-.19-1.2v.89ZM131.53,83.92c-.39-.36-.06-1.49-.21-1.83.18,0,.74.75.82.82.04.66-.44.67-.44,1.31-.05-.36-.1-.77-.18-1.19v.9ZM130.54,82.12c-.39-.35-.05-1.48-.21-1.83.17,0,.25.11.32.18.04.65.08,1.31.06,1.95-.05-.36.28-.26.19-.68l-.37.37ZM130.49,78.61c.01.09.05.13.1.16,0,.21-.02.44-.03.65-.02-.27-.02-.55-.07-.81M133.33,65.36c-.17-.26-.24-.3-.23-.8.19.27.28.66.23.8M133.5,65.19c.25.53.65.28.66.94-.2-.43-.64-.12-.66-.94M134.59,74.01c-.02-.17-.04-.34-.06-.51.02.01.05.03.07.06l.12.29c-.03.15-.08.18-.13.16"/>
    <polygon class="cls-17" points="119.52 57.17 119.66 57.26 119.51 57.14 119.52 57.17"/>
    <path class="cls-17" d="M134.74,80.97s-.02-.03-.09-.06c.01.05.03.11.04.15.01-.04.03-.06.05-.09"/>
    <path class="cls-17" d="M134.61,81.3c.08-.04.09-.13.08-.25-.07.08-.14.15-.08.25"/>
    <path class="cls-17" d="M133.98,81.6c.36.31.1-.13.08-.25-.06.09-.13.16-.08.25"/>
    <path class="cls-14" d="M110.09,62.05l.23-.27c-.15-.2-.22-.02-.23.27"/>
    <polygon class="cls-14" points="105.85 60.08 105.85 60.08 105.86 60.06 105.85 60.08"/>
    <path class="cls-14" d="M124.62,72.91l-.41-.08c-.06.18.46.31.72.23-.1-.11.05-.29-.18-.27-.05.03-.19.06-.13.12"/>
    <path class="cls-14" d="M125.05,76.2c.09.05.24.03.36.06-.08-.71-.28-1.57-.04-1.88.08-.25-.52-.23-.7-.5l.38-.19c-.27-.12.08-.69-.54-.4-.06.04.32.09.23.24h-.22s.12.32.12.32l-.29-.05c-.34.47.88.18.69.74l-.57.06c.02.27.13.42.04.63-.03-.08-.08-.16-.16-.06l.17-.81c-.08-.02-.15.02-.23.09l.02-.05c-.27-.1-.48.45-.51.93-.03-.39-.07-.77-.12-1.17.13.03.28.04.39,0-.1-.11.04-.3-.18-.27-.06.04-.19.05-.12.12l-.11-.02c-.06-.41-.12-.82-.21-1.23.16.05.37.07.5.03-.11-.11.05-.3-.18-.27-.05.02-.19.05-.12.11l-.83-1.05c-.26-1.17.07-1.83-.3-2.62.09.04.22.05.34.01.36.24.34.72.19,1.1l.24-.18c.55.12-.09.76.28,1.15h0c.09.12.79.07.72.39-.35,0-.35-.15-.68-.04l.54.31c-.2.12.19.54-.24.46.59.14.2.8.91.44-.52-1.19-.58-3.07-1.77-4.2l.37.11c-.83-.48.18-1.25-1.17-1.31l.6-.19c.01-.4-1.08-.21-.67-.84l-.2.16c-.04-.09.03-.18,0-.25l-.09.08c-.35-.1-.4-.24-.37-.54.17-.11.13.06.22.11.12-.2-.35-.16-.45-.33.07-.22.25-.15.33-.17-.54-.36-.12-.95-1.11-.79-.17.06-.18.29-.37.18,0,.06.02.1.02.15-.09-.15-.19-.28-.29-.42.25.06.64.11.76-.28l-.22.05c-.5-.1.15-.43.09-.74-.3-.23-1.1.11-1.11-.25-.1-.1.09-.22.25-.29-.12-.29-.7.03-.91-.07,1.25-1.17-.97-.39-.46-1.45-.28-.12-.44-.52-.95-.52.45-.18-.23-.26.16-.55-.75.65-.47-1.06-1.36-.17-.14-.59-.06.04-.31-.54.1-.11.17-.05.22-.05-.02-.34-.61.2-.4-.36-.24-.27-.27.01-.47.2-.11-.09-.23-.18-.34-.26.01-.15.09-.31.15-.64-.38.46-.44.05-.8.16h0c-.06-.05-.12-.08-.18-.12.11-.02.24-.06.41-.17-.34-.29-.87-.47-1.41-.48-.18-.22.27-.19.12-.35-.19-.37-.61-.1-.9-.1-.07-.04-.13-.07-.21-.11,0,0-.02-.01-.03-.03l.24-.26c-.42.3-.71-.46-1.22-.43,0,.08-.02.14-.03.19-.01,0-.03,0-.04-.02.29-2.09.14-.17-.25-.12-.29-.13-1.01-1.28-1.3-1.4.13-.13.25-.25.4-.29-.38.15-.72-.28-1.09,0l.24-.36c-.19-.11-.36.12-.52.27-.12-.04-.23-.07-.34-.11l.1-.19c-.78-.26-1.19.05-1.99.53,0,0,0,.02,0,.02-.18-.04-.34-.07-.52-.11.05-.2.15-.44-.04-.59-.73.46-1.43-.66-2.53.54.57.14,0,.44.38.6v.04l-.53.03c.08.44.32,0,.53.05l-.02.18c-.12.1-.34.16-.49.13-.07.31.14.07.45.24v.03l-.67.13c1.3,1.88-2.43,2.34,1.13,3.37l-.02-.42s.09,0,.12.02c.04.01.06.02.11.02.42.06.85.15,1.29.25-.02.18-.06.39-.17.52.18-.11.29.08.46-.02l-.21-.26c.27-.32.42-.05.4.26.15-.1.21-.21.21-.32.2.06.42.1.63.17-.08.12-.18.25-.28.28.02-.36-.37,0-.56-.11,0,.15-.05.32-.14.43.38.04.67-.29.98.23.22-.21.22-.48.25-.73.09.04.16.07.25.09-.19.1-.32.26-.33.62.05.23.21.04.35.06-.23-.29.09-.45.23-.59.12.04.22.08.33.12.02.03.02.07-.04.16l-.35.25c.64.49,1.64.79,2.5,1.08l-.33-.2c.17-.21.35-.17.53-.18v-.03c.24.14.47.29.7.44-.04,0-.09,0-.11.02.04.06.13.07.23.06.08.05.17.1.24.15-.11.11-.2.2-.26.1-.03.51.43.5.64.75.26.07.41-.06.54-.19.07.05.13.11.2.16l-.25.25c.44.19.75.48,1.36.52.08.08.15.15.23.22-.03.02-.06.02-.1.03.04.04.09.04.15.03.14.13.82.02.96.17-.04.05-.61.34-.69.39h-.09c.16.11.8.23,1,.32.15.17.01.52.15.69-.02.02-.04.02-.05.04.04.07.12.1.2.12.12.15.23.29.35.43l-.08.08c.07.04.15.09.23.14-.34,2.02.78,1.41,1.27,2.03-.04.06-.03.15.04.24.02-.08.02-.15-.01-.2.07.1.16.21.22.32-.04,0-.09,0-.12,0,.05.04.09.09.14.15,0-.02,0-.03,0-.03t0,.03s.07.06.11.09c.01.03.02.04.03.07-.11-.04-.16-.09-.14-.16h0c-.13.19-.04.45.16.68.06-.01.11-.04.15-.16.07.16.15.32.22.47-.14-.09-.26-.2-.37-.32-.1,0-.17-.08-.06.24-.11,0-.23.07-.34.09.38.62.94,2.01.85,2.38.04.22.38-.38.66-.52,0,.04.03.09.05.14l-.15.17c.13,0,.19.12.25.21.17.6.82.54.94,1.16l-.13.86c-.14.19-.01.25.18.3.02.17.05.32.07.49h-.12c.03.36-.29.31-.62.63,0,0,.28-.02.17-.06,0-.02.06-.06.13-.09,0,.05.02.11,0,.15-.11,0-.21.04-.27.15.11.12.23.27.32.44,0,.14.03.27.03.41-.05.03-.12.09-.21.23-.06-.12,0,0,.1.18.04.04.09.08.11.12,0,.03,0,.07,0,.11h0v.02s-.01,0-.01.02c.01,0,0-.02.01-.03-.04-.09-.07-.18-.11-.25-.3-.23-.95-.46-.97-.27-.15.09.7.5,1.07.68,0,.29,0,.59,0,.88-.05.03-.09.04-.12.06.05,0,.08.02.12.03-.02.21-.35,1-.38,1.22-.02.02-.05.04-.05.03.02.35.11.26.21.18.17.07-.57.96-.14,1.16-.02-.02,1.14.5,1.64-.56l.17-.11.1-.05.1-.09s.05.05.09.09c.11-.08.51-.49.59-1.2l.27.03c.03.07.04.11.06.14l-.14-.12-.1.34.26-.19c.05.08.11.05.26.14-.05.02.09.06.13.11l-.41-.08c-.06.18.47.32.71.23-.04-.03.12.13.12.08.15.08.13-.08.21-.04-.02-.06-.04-.12-.07-.19,0,0-.01.02-.01.02,0,0,0-.02,0-.03-.04-.09-.07-.17-.1-.24-.03-.03-.07-.05-.12-.08h.08s.02.06.04.08c.11.09.16.18.1.24,0,.01,0,0,0,0,.1-.06.24.14.25,0l.21.06c.1.05.02-.27.16-.27.07.04.12.07.18.1-.02-.03-.03-.07-.03-.1,0,0,.02,0,.04,0h0s.08,0,.08,0c0-.05,0-.08,0-.13.14.19.26.42.33.64.1.03.12.14.15-.2.1.06.24.04.36.05-.08-.64-.04-1.57.14-2.06.32-.14.73-.04.91.24.4-.62-.7-1.11-.65-1.71M102.8,58.58s-.1,0-.13,0c.07-.06.11-.11.15-.16v.16ZM104.26,54.71h0s0,0,0,0M107.18,54.4c.01-.05.02-.11,0-.18.21-.11.17.12.22.24-.06-.02-.14-.05-.21-.06M107.58,54.51s-.03-.01-.03-.01c.02,0,.03,0,.05-.01,0,0-.02,0-.02.03M108.22,60.54s.04-.03.04-.04c.12.05.23.11.34.16-.16.09-.36.07-.38-.12M109.01,61.03s.07-.08.11-.12c.04.02.08.04.12.06-.09.03-.19.08-.23.06M116.26,60.24s.09-.02.12-.04c.05.06.09.16.12.25-.08-.06-.16-.14-.24-.21M118.27,62.27c-.14-.15-.26-.29-.4-.44-.06-.14-.13-.27-.26-.38.17-.03.28-.24.39-.16.29.24.09.66.46.81l-.19.16ZM117.77,70.58c-.45-.18-.1-.15.16-.28.02.05.05.1.07.15-.07.05-.14.11-.22.13M118,71.25l.23-.13c.04.11.1.23.13.36-.18.03-.33,0-.36-.23M119.75,64.16s.08,0,.14,0l-.1.06s-.04-.04-.04-.06M120.71,65.64c-.13-.21-.25-.42-.38-.62.16.12.39.19.61.28l-.05-.08c.92-.22-.07.29.48.46-.37.09-.46-.08-.66-.04M121.3,66.57c.12.07.49-.06.66-.11-.3.31.25.07.16.36-.3.23-.37,0-.59.01l.33.11c.09.14-.08.28-.25.41-.11-.23-.23-.47-.35-.7,0-.03.02-.05.03-.07M121.68,67.46c.06-.06.08-.16.34-.18-.32.43.27,1.28.74,1.64-.06-.08-.21-.04-.3-.03-.19-.41-.43-.84-.79-1.43M124.96,75.23c.38.4-.06.13-.37.21,0-.02,0-.02,0-.04,0-.02-.02-.04-.03-.07.06-.05.25-.12.39-.11M123.88,77.02v-.17s.03.11,0,.18t0,0M123.88,77.94s.04,0,.08.02c-.01.02-.03.02-.07.01,0,0,0-.02,0-.03M123.83,78.91s0-.09,0-.13c.09-.05.24-.1.36-.08.37.4-.07.13-.36.21M124.23,78.12c.02.06.04.11,0,.21h0c0-.07,0-.13,0-.21M124.91,77.34c-.03.05-.07.1-.1.14-.1,0-.35.14-.58.21.04-.62.13-1.25.26-1.45.06-.17-.3.07-.61.17,0-.06,0-.12,0-.19l.03-.02s-.02-.02-.04-.03c-.01-.17-.02-.33-.04-.5,0,.03,0,.08.03.1.05-.06.13-.08.2-.07,0,0,0,.04.01.04.03-.03.07-.04.11-.06.04,0,.09,0,.12,0,.07,0,.13,0,.19-.02.37.44.66,1.21.25,1.44.32-.22.71.11.68.36-.21.12-.34-.08-.51-.12"/>
    <path class="cls-14" d="M124.01,81.14c.07-.04.09-.13.08-.25-.07.08-.14.16-.08.25"/>
    <path class="cls-14" d="M123.78,80.12c-.07-.12,0,0,.09.18.12.09.16.18.1.25h0c.2-.13.23-.39.15-.68-.08-.02-.18,0-.35.25"/>
    <path class="cls-14" d="M124.14,80.81s0-.02-.09-.06c0,.06.03.1.04.14.02-.02.04-.05.05-.08"/>
    <path class="cls-14" d="M123.98,80.55c-.04-.1-.07-.18-.11-.25-.23-.18-.68-.37-.87-.34,0-.01,0-.04,0-.05-.02.04-.05.06-.07.09,0,.02-.02,0-.02.03-.02,0,0,.02,0,.03-.01.02,0,.03,0,.05,0,.01,0,.04.01.06.02,0,.02-.03.03-.03.19.17.85.49,1.1.62-.03-.06-.04-.12-.07-.19,0,0,0,.01-.02.02,0-.01,0-.02.01-.02"/>
    <path class="cls-14" d="M122.97,79.77c.01.05.03.11.03.15.02-.03.04-.06.06-.09.03,0-.01-.01-.09-.06"/>
    <path class="cls-14" d="M123.67,79.86c.07-.04.09-.13.07-.25-.06.08-.12.15-.07.25"/>
    <path class="cls-14" d="M123.8,79.53s-.02-.03-.09-.06c0,.05.03.1.03.15.03-.03.04-.06.06-.09"/>
    <path class="cls-14" d="M116.93,68.66s.02,0,.11,0c-.03-.05-.07-.09-.09-.12-.01.04-.03.07-.02.11"/>
    <polygon class="cls-14" points="125.53 76.36 125.4 76.27 125.42 76.5 125.53 76.36"/>
    <path class="cls-20" d="M144.87,25.43s-.02.02-.05.09c.04,0,.1-.03.15-.03-.04-.03-.06-.05-.09-.06"/>
    <path class="cls-20" d="M157.79,50.57l-.03-.14c-.08.05-.11.1.03.14"/>
    <polygon class="cls-20" points="161.54 45.2 161.36 45.21 161.38 45.28 161.54 45.2"/>
    <path class="cls-20" d="M155.92,50.3l-.32.23c.2,0,.32-.11.32-.23"/>
    <path class="cls-20" d="M159.56,42.3l.26-.02c-.1-.05-.19-.02-.26.02"/>
    <path class="cls-20" d="M161.65,48.96l-.16-.3c-.1-.18-.15-.34.17-.5l-.32-.13.29-.43c-.66-.12,0-.65-.6-.79.04-.52.38.11.33-.08,1.26-.82-.33-1.38,0-1.51-.09-.23-.09-.45-.08-.66l.02-.3v-.15s0,0,0,0h0c-.1-.13-.08-1.11-1.16-1.45h-.02s-.03,0-.03,0h-.06s0-.14,0-.14v-.14s-.05.01-.1.03c-.15.03-.31.09-.44.02l.07-.11c-.64.04-1.15-.07-1.69-.16.09-.17.12-.29.42-.29-.41-.33-1.38.09-2.02-.38l.11-.1-.48.04c.11-.05.1-.16.15-.28-.63-.36-1.47-.59-2.04-.39.23-.02-.1-.49.36-.44-.8-.1-1.52-.7-2.26-1.07h0s-.33-.11-.33-.11v-.05s.24.1.24.1c-.26-.2-.53-.36-.84-.43.04-.11.16-.35.09-.56-.26.24-.42-.89-1-.91.04-.1.17.07.16-.1-.62-.74-1.9-1.76-2.16-3-.66.22-.89-.82-1.46-1.35.32-.3.34.28.7.34-.23-.32.45-.24-.11-.74.06,0,.09-.02.13.02-.13-.16-.42.25-.51-.26l.27-.1-.43-.24c0-1.21-.58-2.16-.27-3.22-.07-.07-.2-.02-.29.11.02-.47-.45-1.03-.16-1.58l.12.15c.13-.44.04-.66-.09-.91-.25-.35.28.25-.63-.94-.11.03-.24.06-.38.06-.04-.02-.1-.04-.17-.02,0,0,.02.02.04.04-.04,0-.09,0-.13,0,.04.01.1,0,.16,0,.06.04.11.07.18.03,0-.01-.02-.02-.03-.02.06,0,.13,0,.19,0h.13c.04.06.06.1.09.13h-.41c-.17-.05-.22.12-.31.02l.03.17-.24-.03c.07-.12.12-.23.16-.31-.07.02-.13.05-.2.07t.02.02s-.02,0-.03-.01c-.09.03-.17.08-.24.11-.02.02-.05.05-.07.09h-.1s.1-.06.17-.09c.1-.11.18-.17.24-.11h0c-.12-.19-.35-.22-.61-.16h-.07s0,0,0,0c0,0-.01,0-.01,0,0,.04,0,.08.02.13v.02c.05.05.1.12.22.19h-.15s.02-.02,0-.03h-.05s-.2,0-.2,0c-.09-.03,0-.12-.13-.14.15-.1.13-.11.29-.15.04-.1.16-.13-.2-.16.03-.05.04-.09.04-.15.17.03.19-.12.42-.13l-.41.06s.02-.1.02-.15c-.93-1.1-2.38-1.41-2.69-1.65-.11-.04-.05.11.04.29l-.11-.04c-.07.15-.22.46-.34.49h-.1c.04-.26.1-.47.17-.56.09-.25-.81.92-.99.65l.37-.18c-.27-.13.09-.69-.53-.41-.06.02.32.1.23.24h-.24s.13.31.13.31l-.3-.05c-.25.34.36.28.61.45l-.3-.03c-.02.13-.02.25-.03.37l-.15.02c.03.35.43,1.41.09,1.73,0,0,.29-.01.17-.07,0-.01.02-.02.03-.03,0,.03,0,.07,0,.11-.07.03-.13.05-.17.12.05.05.1.12.15.19,0,.29,0,.58.01.86,0,.02-.02.02-.03.04-.06-.09-.02-.03.03.08,0,.02,0,.04,0,.07-.31-.22-.89-.41-.91-.25-.14.08.52.41.93.62.03.31.05.61.1.91l-.16-.25c.19.91-.36-.07-.48.65.38.74-.48,1.38-.42,1.82.24.81.28-.4.58.08.16.42-.16.26-.14.56l.46.08c.22.46-.38.14-.14.38-.13.47-.19-.08-.54-.09.12.07.41.46.31.69-.13.03-.31-.5-.24-.14.57,1.21.32,1.63.81,2.73h-.23c.1.1.22.16.2.31l-.16-.02c.05.18,2.02.78,2.32,1.52l-.42-.23.6.47-.37.13c.45.02.68.83,1.14,1.33l-.2.13.33.26-.21-.03c.23.35.85.47.96.96-.12-.28-.46-.12-.58.01l-.06,1.02c-.11.12.17.59-.2.41l.52.19-.18.09c1.02,1.7,3.11,1.86,4.01,3.64l-.07.04,1.14.33c.13.16-.04.48.17.76.08-.38.56.33.9.19.14.26-.13.19-.27.27.7.91,1.75.84,2.68,1.6-.8-1-.88-.86-1.45-1.45.89.31.88.66,1.81,1.05l-.49-.08c.22.75,1.52.42,1.43,1.02.61.14,1.28-.18,1.96.14l-.48.39.67.2.11-.33c.22.05.31.13.31.23.56-.26,1.1.18,1.8-.06l.04.19.15-.1c.08.32.6.3.58.59-.21.04-.73.11-.66-.07-.6.26.61.31.96.37-.35-.24.14-.2.36-.23.03.04-.04.06-.08.13l.11.04h.03s0,.02,0,.02h0c1.03.04,1.77-1.44,2.45-1.98h0v-.05l-.02-.17ZM140.28,31.27l-.1-.16c.03-.11.09-.12.13-.11.02.1.04.2.07.28-.04,0-.07.01-.1-.01M140.28,36.25c.18.23.59-.06.6.47-.23-.28-.61-.03-.6-.47M141.03,36.58c.15.14.23.13.19.47-.15-.14-.25-.38-.19-.47M146.47,31.07l-.24.23-.09-.35.33.12ZM145.59,25.67c.5.61.09.18.21.37l-.16.1c0-.09-.08-.14-.17-.18,0-.02.11-.25.11-.29M145.46,25.99c.07.05.11.12.1.26l-.11-.09c0-.05,0-.12.01-.18M145.45,26.39c.05.23.08.49.15.76l.03-.54c.38.24,0,.91.12,1.13-.23,0-.28-.14-.36-.16,0-.4.03-.79.06-1.19M145.43,28.82c0-.1,0-.2,0-.31.14.11.3.24.42.58l.13-.16c.01.28.47.43.27.83-.24.04-.3-.26-.45-.4-.12.11.52.43.34.75-.36-.19-.71-.84-.64-1.31-.02.02-.05.01-.07.02M144.97,43.44l-.37-.2.02-.06.37.21v.05ZM145.16,40.95c.03-.22-.1-.33-.03-.43.11.14.22.27.33.4-.15-.07-.32-.05-.31.03M146.16,32.66c-.04-.14-.09-.24-.12-.37.07.02.13.05.19.07.07-.32-.19-.46-.34-.64-.13-.54-.24-1.08-.33-1.65.36.93.73,1.86.88,2.76-.17-.14-.26-.18-.28-.18M146.2,43.17l.04.14-.3-.19.18.09c.15-.1-.17-.44-.31-.46.21-.15.39.11.6.27-.1-.03-.15.1-.22.16M147.3,35.05v-.33s.09.18.09.18l-.09.15ZM148.34,34.8c-.09-.02-.09.02-.06.07l-.1-.15c.06-.1.1.04.17.08M147.71,36.05c.46.26.95.49.8.94l-.28-.11c-.19-.27-.35-.55-.52-.83M148.48,37.24s-.03-.03-.03-.05c0,0,.03,0,.04,0v.04ZM147.22,44.72c.15-.11.45.23.48-.05l-.11-.16c.17.25.44-.26.58.2l-.18-.18c.17.29-.55.04-.25.44.12.16-.42,0-.52-.25M147.69,45.37c.46-.17.28.24.63.29-.23,0-.62.17-.63-.29M149.39,37.8c0,.13.15.32.3.4l-.17.12.02.16c-.05-.05-.04-.11-.02-.16-.12-.32-.48-1-.74-1.33.05-.25.53.04.71.08-.91.42.33.46.34.88-.14,0-.28-.19-.44-.15M149.47,45.73l-.31-.28.71.15-.4.12ZM149.94,39c.11.02.21.06.32.06.08.09.35.36.29.52-.21-.19-.41-.38-.61-.58M151.17,45.97l.04-.03s.05.04.08.05c-.04,0-.08-.02-.12-.02M152.01,47.31l-.19.14c.38-.45-.43-.27-.63-.38.27.06.86-.26,1.16.23l-.4-.05.07.07ZM153.31,40.25h.19c.01-.08.07-.11.24-.02h-.24c-.04.14.06.38-.19.02M154,41.09c.04.07-.42-.33-.59-.48.18-.02.64.26.59.48M153.78,41.97s-.01,0-.01,0c.08-.06-.01-.21.31-.19-.04.12-.17.18-.3.19M156.56,41.88c-.1.16-.38-.07-.52-.19l.52.19ZM154.39,49.56c-.17-.12.16-.22.27-.32-.09-.06-.15-.06-.28-.07.24-.45.26.29.72.2-.08.22-.52.09-.71.19M155.38,42.25c.18-.28.6-.27.73-.22l.25.07c-.3.04-.79.03-.97.15M155.63,48.36c-.02-.13.01-.21.06-.25.09.03.17.05.25.09-.12,0-.24.03-.31.17M155.59,50.02c.09-.21.16-.03.29.05l-.29-.05ZM156.1,42.82v-.34c.16.11,0,.34.38.3.03-.25.3-.64.68-.35-.46.27-.54.4-1.06.4M157.09,42.06l.51.29c-.44.38-.36-.07-.51-.29M157.03,48.76c-.04.23-.08.17-.27.12.24-.03.3-.39.61-.09-.11.07-.22-.09-.34-.03M158.48,42.87c-.02-.28.35-.51.71-.4.45-.14.09.43.29.29-.22.26-.67.11-1,.11M158.74,49.16c-.03-.13-.02-.22-.03-.3.17.03.35.04.51.06-.11.11-.27.19-.49.24M159.81,46.74s-.08.01-.12.01l.11-1.03c0,.25.11.49.11.53l.07-.4c.48.28-.3.59-.17.88M161.16,45.1l-.14-.37.18.27-.04.1Z"/>
    <polygon class="cls-20" points="152.12 39.2 152.01 39.17 152.11 39.24 152.12 39.2"/>
  </g>
  <path class="cls-6" d="M495.09,284.11c.99-12.13,1.43-24.76,1.43-37.72,0-94.14-23.97-170.47-116.52-170.47s-116.52,76.32-116.52,170.47c0,13.87.5,27.35,1.65,40.26,15.8,7.8,47.09,16.57,108.02,16.57,67.68,0,104.02-10.82,121.94-19.11Z"/>
  <path class="cls-9" d="M496.98,281.01c0-11.59-54.85-19.79-118.42-19.79s-115.43,9.72-115.43,21.31c0,.84.16,2.76.68,3.56,6.75,10.39,55.77,17.12,114.74,17.12,63.57,0,118.42-10.61,118.42-22.21Z"/>
  <path class="cls-9" d="M497.23,280.69c0-11.77-52.33-21.32-116.88-21.32s-116.89,9.55-116.89,21.32,52.34,21.32,116.89,21.32,116.88-9.54,116.88-21.32Z"/>
  <path class="cls-15" d="M351.13,141.3s-5.26-30.12-25.46-24.61c-20.2,5.51-48.34,33.2-40.12,35.88,8.22,2.68,42.68-26.7,49.2-21.56,6.52,5.14,9.71,21.73,9.71,21.73"/>
  <path class="cls-15" d="M409.77,141.3s5.26-30.12,25.46-24.61c20.2,5.51,48.34,33.2,40.12,35.88-8.22,2.68-42.68-26.7-49.2-21.56-6.51,5.14-9.7,21.73-9.7,21.73"/>
  <path class="cls-12" d="M475.03,224.5c0,54.13-42.34,98.02-94.58,98.02s-94.59-43.88-94.59-98.02,42.35-98.02,94.59-98.02,94.58,43.88,94.58,98.02Z"/>
  <path class="cls-2" d="M299.65,213.43s-12.39,38.79,12.79,60.17c0,0-5.16-4.24-4.64-31.78.51-27.54-8.14-28.39-8.14-28.39Z"/>
  <path class="cls-2" d="M461.25,213.43s12.39,38.79-12.78,60.17c0,0,5.15-4.24,4.64-31.78-.51-27.54,8.14-28.39,8.14-28.39Z"/>
  <path class="cls-12" d="M460.67,320.71c0,45.91-35.91,70.28-80.22,70.28s-80.22-24.37-80.22-70.28,35.91-83.13,80.22-83.13,80.22,37.21,80.22,83.13Z"/>
  <path class="cls-15" d="M352.01,304.27s22.75,18.96,35.78,16.67c13.02-2.29,26.62-17.6,26.25-20.7-.38-3.1-10.32-9.64-25.39-1.14-15.06,8.5-48.07-18.94-36.63,5.17Z"/>
  <g>
    <path class="cls-12" d="M365.37,103.63c0,1.99-3.11,3.61-6.96,3.61s-6.96-1.62-6.96-3.61,3.11-3.61,6.96-3.61,6.96,1.61,6.96,3.61Z"/>
    <path class="cls-12" d="M361.62,132.92c0,.92-.72,1.66-1.61,1.66h0c-.89,0-1.6-.74-1.6-1.66v-27.62c0-.92.71-1.66,1.6-1.66h0c.89,0,1.61.75,1.61,1.66v27.62Z"/>
  </g>
  <g>
    <path class="cls-12" d="M386.36,103.63c0,1.99-3.12,3.61-6.96,3.61s-6.96-1.62-6.96-3.61,3.12-3.61,6.96-3.61,6.96,1.61,6.96,3.61Z"/>
    <path class="cls-12" d="M382.61,132.92c0,.92-.72,1.66-1.61,1.66h0c-.89,0-1.61-.74-1.61-1.66v-27.62c0-.92.72-1.66,1.61-1.66h0c.89,0,1.61.75,1.61,1.66v27.62Z"/>
  </g>
  <g>
    <path class="cls-12" d="M409.46,103.63c0,1.99-3.12,3.61-6.97,3.61s-6.96-1.62-6.96-3.61,3.12-3.61,6.96-3.61,6.97,1.61,6.97,3.61Z"/>
    <path class="cls-12" d="M405.71,132.92c0,.92-.72,1.66-1.61,1.66h0c-.89,0-1.61-.74-1.61-1.66v-27.62c0-.92.72-1.66,1.61-1.66h0c.89,0,1.61.75,1.61,1.66v27.62Z"/>
  </g>
  <g>
    <path class="cls-2" d="M363.29,179.51c0,6.82-5.34,12.34-11.91,12.34s-11.91-5.53-11.91-12.34,5.34-12.34,11.91-12.34,11.91,5.52,11.91,12.34Z"/>
    <path class="cls-9" d="M359.49,179.51c0,4.64-3.63,8.41-8.11,8.41s-8.11-3.76-8.11-8.41,3.63-8.41,8.11-8.41,8.11,3.77,8.11,8.41Z"/>
  </g>
  <g>
    <path class="cls-2" d="M421.44,179.51c0,6.82-5.33,12.34-11.92,12.34s-11.9-5.53-11.9-12.34,5.33-12.34,11.9-12.34,11.92,5.52,11.92,12.34Z"/>
    <path class="cls-9" d="M417.64,179.51c0,4.64-3.63,8.41-8.12,8.41s-8.11-3.76-8.11-8.41,3.64-8.41,8.11-8.41,8.12,3.77,8.12,8.41Z"/>
  </g>
  <path class="cls-2" d="M339.46,282.4c0,2.35-.57,4.25-1.27,4.25s-1.28-1.9-1.28-4.25.57-4.24,1.28-4.24,1.27,1.9,1.27,4.24Z"/>
  <path class="cls-2" d="M348.75,294.1c0,2.34-.56,4.24-1.27,4.24s-1.28-1.9-1.28-4.24.57-4.25,1.28-4.25,1.27,1.9,1.27,4.25Z"/>
  <path class="cls-2" d="M361.29,282.4c0,2.35-.57,4.25-1.28,4.25s-1.27-1.9-1.27-4.25.58-4.24,1.27-4.24,1.28,1.9,1.28,4.24Z"/>
  <path class="cls-2" d="M370.73,294.1c0,2.34-.57,4.24-1.27,4.24s-1.28-1.9-1.28-4.24.57-4.25,1.28-4.25,1.27,1.9,1.27,4.25Z"/>
  <path class="cls-2" d="M383.12,282.4c0,2.35-.57,4.25-1.28,4.25s-1.28-1.9-1.28-4.25.58-4.24,1.28-4.24,1.28,1.9,1.28,4.24Z"/>
  <path class="cls-2" d="M392.72,294.1c0,2.34-.57,4.24-1.28,4.24s-1.28-1.9-1.28-4.24.57-4.25,1.28-4.25,1.28,1.9,1.28,4.25Z"/>
  <path class="cls-2" d="M404.96,282.4c0,2.35-.57,4.25-1.28,4.25s-1.28-1.9-1.28-4.25.58-4.24,1.28-4.24,1.28,1.9,1.28,4.24Z"/>
  <path class="cls-2" d="M426.79,282.4c0,2.35-.57,4.25-1.27,4.25s-1.28-1.9-1.28-4.25.58-4.24,1.28-4.24,1.27,1.9,1.27,4.24Z"/>
  <path class="cls-2" d="M414.71,294.1c0,2.34-.57,4.24-1.28,4.24s-1.28-1.9-1.28-4.24.57-4.25,1.28-4.25,1.28,1.9,1.28,4.25Z"/>
  <path class="cls-1" d="M461.26,202.91c0,3.87-1.83,7.02-4.1,7.02s-4.09-3.14-4.09-7.02,1.83-7.02,4.09-7.02,4.1,3.14,4.1,7.02Z"/>
  <path class="cls-1" d="M308.62,202.91c0,3.87-1.84,7.02-4.1,7.02s-4.1-3.14-4.1-7.02,1.84-7.02,4.1-7.02,4.1,3.14,4.1,7.02Z"/>
  <g>
    <path class="cls-4" d="M278.13,337.15c-26.05-5.64-61.94-23.48-59.11-35.29,2.82-11.81,43.29-13.11,69.34-7.47,26.05,5.64,33.64,17.35,30.81,29.16-2.83,11.81-15,19.24-41.05,13.6Z"/>
    <path class="cls-5" d="M211.72,281.71l2.28.94c.38-2.03,1.53-3.68,3.29-4.39,3.19-1.28,7.2,1.01,8.94,5.11l1.51,3.55c.3.71.45,1.7.49,2.83l8.94-1.01-8.77,30.76-11.92-9.07c-3.13.93-6.59.85-9.83-.47l-6.32-2.59c-7.31-2.98-10.68-11.14-7.54-18.23,3.14-7.08,11.62-10.4,18.93-7.41Z"/>
  </g>
  <g>
    <g>
      <path class="cls-5" d="M356.26,439.75c-.67,2.29-10.97.24-22.89-3.26-11.91-3.51-21.32-8.82-20.65-11.11s11.17-.67,23.09,2.84c11.92,3.51,21.13,9.25,20.46,11.53Z"/>
      <g>
        <path class="cls-4" d="M310.04,331.55s4.65,109.01,16.81,124.02c12.17,15.01,4.07-2.07,59.43-75.33"/>
        <g>
          <path class="cls-5" d="M340.11,458.19c5.19-3.46,10.69-9.75,15.84-20.08-16.35.13-32.86-6.64-43.37-12.03.74,6.02,1.65,12.4,2.66,17.83-15.84-3.33-30.14,1.06-32.37,10.18-2.3,9.43,10.74,14.14,27.24,18.17,16.51,4.03,30.25,5.85,32.55-3.58.84-3.44-.16-7.06-2.55-10.49Z"/>
          <path class="cls-7" d="M320.99,448.2s11.08,2.91,14.31,8.59"/>
        </g>
      </g>
    </g>
    <path d="M317.04,396.98s7.13,23.88,13.87,26.13l6.75,2.24"/>
  </g>
  <g>
    <g>
      <path class="cls-5" d="M417.79,435.56c.57,2.31,10.95.74,23.01-2.22,12.07-2.96,21.7-7.84,21.13-10.15s-11.12-1.18-23.19,1.78c-12.06,2.96-21.52,8.27-20.96,10.58Z"/>
      <g>
        <path class="cls-4" d="M371.71,351.92s54.45,94.55,72.18,102.25c17.72,7.7,2.66-3.72,17.94-94.26"/>
        <g>
          <path class="cls-5" d="M456.86,450.37c3.01-5.47,4.99-13.58,4.78-25.12-14.45,7.66-32.21,9.28-44.02,9.36,3.44,5,7.19,10.24,10.59,14.58-15.59,4.36-26.24,14.86-24,23.97,2.31,9.43,16.04,7.59,32.55,3.54s29.53-8.77,27.22-18.2c-.84-3.43-3.4-6.19-7.11-8.12Z"/>
          <path class="cls-7" d="M435.29,450.34s11.17-2.53,16.65,1.02"/>
        </g>
      </g>
    </g>
    <path d="M449.31,396.98s-7.12,23.88-13.87,26.13l-6.75,2.24"/>
  </g>
  <path class="cls-4" d="M373.15,303.22c-60.92,0-92.21-8.76-108.02-16.57,6.64,74.72,35.05,130.21,114.87,130.21s108.86-56.76,115.08-132.75c-17.91,8.29-54.25,19.11-121.94,19.11Z"/>
  <path class="cls-9" d="M459.09,308.72s24.31-7.51,27.77-9.14c0,0-9.25,73.01-44.57,93.93,0,0,23.65-34.16,16.8-84.8Z"/>
  <path class="cls-9" d="M440.13,395.76s-9.89,6.73-19.66,9.87c-9.77,3.14,19.66-9.87,19.66-9.87Z"/>
  <g>
    <g>
      <g>
        <path class="cls-9" d="M294.78,373.08h.37c.49,0,1.03.1,1.03.73,0,.55-.46.66-.97.66h-.43v-1.39ZM294.22,374.95h1.06c.81,0,1.51-.2,1.51-1.08,0-.59-.38-.95-.92-.99v-.02c.5-.13.81-.41.81-.97,0-.76-.57-1.03-1.39-1.03h-1.08v4.1ZM294.78,371.33h.6c.33,0,.73.13.73.61,0,.6-.47.67-1.01.67h-.32v-1.28Z"/>
        <path class="cls-9" d="M297.67,374.96h.54s0-1.37,0-1.37c0-.76.3-1.22.79-1.22.09,0,.19.01.29.04v-.48c-.12-.03-.19-.04-.36-.04-.3,0-.61.22-.76.53h-.01s0-.46,0-.46h-.5v3Z"/>
        <path class="cls-9" d="M301.17,371.88c.88,0,1.46.67,1.47,1.58,0,.86-.6,1.57-1.47,1.57s-1.48-.71-1.47-1.57c0-.91.59-1.58,1.48-1.58ZM301.17,374.58c.61,0,.89-.59.89-1.12,0-.57-.33-1.13-.89-1.13-.58,0-.91.55-.91,1.13,0,.53.28,1.12.91,1.12Z"/>
        <path class="cls-9" d="M305.07,373.79c0,.45-.28.79-.81.79-.24,0-.53-.17-.53-.48,0-.53.71-.57,1.01-.57.11,0,.22,0,.33,0v.26ZM303.52,372.64c.2-.19.54-.3.84-.3.53,0,.71.27.71.78-.2-.02-.35-.02-.56-.02-.56,0-1.35.24-1.35.99,0,.66.43.94,1.06.94.49,0,.77-.27.9-.46h0v.39s.5,0,.5,0c0-.09-.03-.25-.03-.58v-1.24c0-.82-.33-1.24-1.17-1.24-.36,0-.68.11-.95.28l.03.47Z"/>
        <path class="cls-9" d="M306.88,373.45c-.01-.55.21-1.11.79-1.11s.86.57.86,1.13c0,.5-.25,1.12-.86,1.12-.57,0-.81-.67-.8-1.13ZM308.55,374.95h.52v-4.41s-.53,0-.53,0v1.83h-.02c-.16-.28-.46-.48-.96-.48-.84,0-1.25.72-1.25,1.52s.37,1.62,1.25,1.62c.52,0,.84-.28.98-.49h.01v.42Z"/>
        <path class="cls-9" d="M311.85,372c-.15-.06-.43-.11-.64-.11-.89,0-1.47.66-1.47,1.57,0,.86.6,1.57,1.48,1.57.19,0,.45-.02.67-.12l-.05-.49c-.16.12-.39.17-.57.17-.69,0-.97-.59-.97-1.12,0-.57.34-1.13.94-1.13.16,0,.37.04.57.13l.05-.46Z"/>
        <path class="cls-9" d="M314.21,373.79c0,.45-.28.79-.8.79-.24,0-.54-.17-.54-.49,0-.53.72-.57,1-.57.12,0,.23,0,.34,0v.26ZM312.66,372.64c.21-.19.54-.3.84-.3.52,0,.71.27.71.78-.21-.01-.35-.01-.57-.01-.55,0-1.35.24-1.35.99,0,.66.44.94,1.06.94.49,0,.77-.27.9-.46h0v.38h.51c-.02-.09-.03-.25-.03-.58v-1.24c0-.82-.33-1.24-1.16-1.24-.37,0-.69.11-.96.28l.04.47Z"/>
        <path class="cls-9" d="M315.41,374.86c.24.13.53.16.8.16.52,0,1.01-.3,1.01-.93,0-.96-1.26-.78-1.26-1.39,0-.25.24-.36.51-.36.13,0,.45.08.56.15l.05-.48c-.21-.06-.42-.12-.66-.12-.57,0-1.02.31-1.02.92,0,.85,1.26.79,1.26,1.34,0,.32-.31.43-.55.43-.15,0-.45-.07-.66-.21l-.04.49Z"/>
        <path class="cls-9" d="M319.4,371.96h-.77v-.87s-.53.17-.53.17v.7h-.66v.44h.66v1.76c0,.6.34.87.89.87.17,0,.34-.05.46-.09v-.47c-.08.05-.2.1-.37.1-.24,0-.45-.18-.45-.54v-1.64h.77v-.44Z"/>
        <path class="cls-9" d="M320.13,374.95h.54v-2.99h-.54v2.99ZM320.71,370.67h-.61v.62h.61v-.62Z"/>
        <path class="cls-9" d="M321.65,371.96h.53v.47s0,0,0,0c.16-.34.55-.55.95-.54.75,0,1.09.48,1.09,1.29v1.77h-.53v-1.54c0-.7-.14-1.04-.61-1.07-.61,0-.89.5-.88,1.24v1.38h-.54v-2.99Z"/>
        <path class="cls-9" d="M327.68,374.83c0,.91-.45,1.44-1.48,1.44-.32,0-.58-.04-1.05-.2l.06-.51c.41.19.65.27,1.05.27.55,0,.89-.4.89-1.04v-.28h-.01c-.22.31-.6.45-.97.45-.83,0-1.23-.69-1.23-1.47,0-.77.41-1.6,1.29-1.6.51,0,.79.19.95.51h0v-.44h.49v2.87ZM327.15,373.49c0-.63-.28-1.16-.85-1.16s-.81.6-.81,1.13c0,.56.31,1.05.81,1.05s.85-.46.85-1.02Z"/>
      </g>
      <g>
        <path class="cls-9" d="M332.96,371.53c-.25-.16-.53-.24-.82-.24-.91,0-1.52.69-1.52,1.61s.67,1.61,1.5,1.61c.29,0,.66-.08.86-.2l.04.56c-.3.13-.67.15-.9.15-1.25,0-2.08-.83-2.09-2.14,0-1.27.89-2.11,2.1-2.11.3,0,.61.04.9.18l-.05.58Z"/>
        <path class="cls-9" d="M334,373.46c0-.57.34-1.13.92-1.13s.9.55.9,1.13c0,.53-.28,1.12-.9,1.12-.64,0-.92-.59-.92-1.12ZM333.44,373.46c0,.86.61,1.57,1.49,1.57.87,0,1.46-.71,1.46-1.57,0-.91-.59-1.58-1.47-1.58s-1.48.66-1.48,1.58Z"/>
        <path class="cls-9" d="M337.11,371.96h.5v.47h.01c.16-.34.55-.55.95-.55.76,0,1.09.48,1.09,1.3v1.77s-.53,0-.53,0v-1.54c0-.7-.15-1.04-.62-1.07-.6,0-.88.5-.88,1.24v1.38h-.52v-2.99Z"/>
        <path class="cls-9" d="M342.11,371.96h-.77v-.86l-.53.17v.69h-.65v.44s.65,0,.65,0v1.76c0,.6.34.87.89.87.17,0,.34-.04.46-.08v-.47c-.08.05-.2.11-.37.11-.24,0-.45-.19-.45-.54v-1.64h.77v-.44Z"/>
        <path class="cls-9" d="M343.15,373.17c.04-.39.26-.84.78-.84.46,0,.72.37.72.84h-1.5ZM345,374.28c-.13.12-.54.3-.89.3-.5,0-.95-.41-.95-1h2.07c0-.97-.31-1.7-1.29-1.7-.81,0-1.36.63-1.35,1.52,0,.97.47,1.62,1.5,1.62.47,0,.71-.12.91-.19v-.56Z"/>
        <path class="cls-9" d="M345.93,371.96h.52v.47h0c.16-.34.55-.55.95-.55.75,0,1.09.48,1.09,1.3v1.77h-.53v-1.54c0-.7-.14-1.04-.62-1.07-.61,0-.88.5-.88,1.24v1.38h-.54v-2.99Z"/>
        <path class="cls-9" d="M350.95,371.96h-.77v-.87l-.53.18v.69h-.64v.44h.64v1.76c0,.6.34.87.89.87.17,0,.33-.05.45-.08v-.47c-.08.05-.2.11-.37.1-.24,0-.45-.18-.45-.54v-1.64h.77v-.44Z"/>
      </g>
      <g>
        <path class="cls-9" d="M353.78,371.37h.48c.36,0,.88.19.88.71s-.43.73-.79.73h-.56v-1.44ZM353.21,374.95h.57v-1.63h.56c.72,0,1.4-.32,1.4-1.24s-.68-1.22-1.49-1.22h-1.04v4.1Z"/>
        <path class="cls-9" d="M356.35,374.95h.54v-1.36c0-.76.32-1.22.79-1.22.09,0,.19.01.29.04v-.48c-.11-.03-.19-.04-.35-.04-.31,0-.61.22-.75.53h-.02v-.46h-.5v2.99Z"/>
        <path class="cls-9" d="M358.37,373.46c0,.86.6,1.57,1.48,1.57.86,0,1.47-.71,1.47-1.57,0-.91-.59-1.57-1.47-1.58-.89,0-1.48.66-1.48,1.58ZM358.94,373.46c0-.57.33-1.13.91-1.13.56,0,.9.56.9,1.13,0,.53-.27,1.12-.9,1.12-.63,0-.91-.59-.91-1.12Z"/>
        <path class="cls-9" d="M362.03,374.95h.53v-1.5c0-.56.22-1.11.77-1.11.42,0,.51.47.51.84v1.78h.53v-1.5c0-.56.22-1.11.77-1.11.43,0,.52.46.51.84v1.78h.53v-1.92c0-.65-.27-1.15-1-1.15-.26,0-.7.15-.9.58-.15-.41-.49-.59-.82-.59-.42,0-.72.16-.93.51h0v-.44h-.5v2.99Z"/>
        <path class="cls-9" d="M366.89,373.46c0,.86.6,1.57,1.47,1.57.88,0,1.48-.71,1.48-1.57,0-.91-.6-1.58-1.47-1.58s-1.47.67-1.47,1.58ZM367.45,373.46c0-.57.34-1.13.91-1.13.57,0,.91.55.91,1.13,0,.53-.29,1.12-.91,1.12-.63,0-.91-.59-.91-1.12Z"/>
        <path class="cls-9" d="M372.09,371.96h-.77v-.87l-.53.17v.69h-.65v.44h.65v1.76c0,.6.34.87.89.87.17,0,.34-.05.46-.09v-.47c-.08.05-.2.1-.36.11-.25,0-.46-.19-.46-.54v-1.64h.77v-.44Z"/>
        <path class="cls-9" d="M372.82,371.96h.54v2.99h-.54v-2.99ZM373.39,371.28h-.6v-.62h.6v.62Z"/>
        <path class="cls-9" d="M374.14,373.46c0,.86.61,1.57,1.47,1.57s1.48-.71,1.48-1.57c0-.91-.59-1.58-1.48-1.58s-1.47.66-1.47,1.58ZM374.71,373.46c0-.57.34-1.13.9-1.13.57,0,.91.56.91,1.13,0,.53-.28,1.12-.91,1.12-.63,0-.9-.59-.9-1.12Z"/>
        <path class="cls-9" d="M377.81,371.95h.52v.48h.01c.16-.34.55-.55.94-.55.75,0,1.08.48,1.08,1.29v1.77s-.53,0-.53,0v-1.54c0-.7-.14-1.05-.61-1.07-.61,0-.89.5-.88,1.24v1.38h-.54v-3Z"/>
      </g>
      <g>
        <path class="cls-9" d="M382.87,370.85h2.11v.51h-1.54v1.2h1.47v.51h-1.47v1.87h-.57v-4.1Z"/>
        <path class="cls-9" d="M386.07,373.46c0-.57.33-1.13.9-1.13s.9.55.9,1.13c0,.53-.27,1.12-.9,1.12s-.91-.59-.9-1.12ZM385.5,373.46c0,.86.6,1.57,1.47,1.57.88,0,1.47-.71,1.47-1.57,0-.91-.59-1.58-1.47-1.58s-1.47.66-1.47,1.58Z"/>
        <path class="cls-9" d="M391.72,374.95h-.52v-.47h0c-.17.34-.55.55-.95.55-.74,0-1.08-.48-1.08-1.3v-1.78s.53,0,.53,0v1.55c0,.7.15,1.05.61,1.07.61,0,.89-.51.89-1.24v-1.39h.53s0,2.99,0,2.99Z"/>
        <path class="cls-9" d="M392.63,374.95h.53v-1.38c0-.74.27-1.24.88-1.24.46.03.62.37.62,1.07v1.54h.53v-1.77c0-.81-.34-1.29-1.09-1.29-.4,0-.78.21-.94.55h-.02v-.47h-.52v2.99Z"/>
        <path class="cls-9" d="M396.47,373.44c0-.54.22-1.11.8-1.11s.86.57.86,1.13c0,.5-.24,1.12-.86,1.12-.57,0-.81-.67-.8-1.14ZM398.15,374.95h.5v-4.41h-.53v1.82s0,0,0,0c-.17-.28-.46-.48-.96-.48-.85,0-1.25.72-1.25,1.52s.37,1.62,1.24,1.62c.52,0,.84-.27.99-.49h.02s0,.42,0,.42Z"/>
        <path class="cls-9" d="M401.29,373.78c0,.45-.28.79-.81.8-.24,0-.54-.17-.54-.49,0-.53.72-.57,1.01-.57.11,0,.23,0,.34,0v.26ZM399.73,372.64c.22-.19.54-.3.85-.3.54,0,.71.27.71.78-.21-.01-.35-.01-.57-.01-.55,0-1.34.24-1.34.99,0,.66.44.94,1.06.94.49,0,.78-.28.9-.46h.02v.38h.49c0-.09-.02-.25-.02-.58v-1.24c0-.82-.34-1.24-1.16-1.24-.37,0-.69.12-.95.29l.02.47Z"/>
        <path class="cls-9" d="M404.26,372.4h-.76s0,1.64,0,1.64c0,.35.21.54.44.54.17,0,.29-.05.37-.11v.47c-.12.04-.29.08-.46.08-.54,0-.89-.27-.89-.87v-1.76h-.65v-.44h.65v-.69l.53-.17v.86h.77v.44Z"/>
        <path class="cls-9" d="M405.57,370.66h-.6v.62s.6,0,.6,0v-.62ZM405,374.95h.54v-2.99h-.54v2.99Z"/>
        <path class="cls-9" d="M406.89,373.46c0-.57.34-1.13.91-1.13.56,0,.89.56.89,1.13,0,.53-.27,1.12-.89,1.12s-.91-.59-.91-1.12ZM406.32,373.46c0,.86.6,1.57,1.48,1.57.87,0,1.47-.71,1.47-1.57,0-.91-.59-1.58-1.47-1.58s-1.47.66-1.47,1.58Z"/>
        <path class="cls-9" d="M409.99,371.95h.5v.48h.02c.16-.34.55-.55.95-.55.75,0,1.08.48,1.08,1.29v1.77h-.53v-1.54c0-.7-.15-1.04-.61-1.07-.61,0-.88.5-.88,1.24v1.38h-.53v-3Z"/>
      </g>
    </g>
    <path class="cls-12" d="M297.88,357.47c-.75,0-1.4-.22-1.83-.67-.48-.39-.7-1.06-.7-2.07,0-.9.22-1.57.7-2.01.43-.39,1.08-.61,1.89-.61h33.53c.81,0,1.45.22,1.94.61.43.45.65,1.12.65,2.01,0,1-.22,1.68-.65,2.07-.49.45-1.13.67-1.94.67h-33.59ZM303.92,346.13c-.86,0-1.51-.22-1.94-.78-.48-.5-.7-1.17-.7-1.96,0-.73.22-1.34.7-1.9.43-.45,1.08-.73,1.94-.73h1.46v-10.11h-1.46c-.86,0-1.51-.22-1.94-.78-.48-.5-.7-1.17-.7-1.96,0-.73.22-1.34.7-1.9.43-.45,1.08-.73,1.94-.73h21.67c.81,0,1.46.28,1.94.73.43.56.7,1.17.7,1.9,0,.78-.27,1.45-.7,1.96-.49.56-1.13.78-1.94.78h-1.4v10.11h1.4c.81,0,1.46.28,1.94.73.43.56.7,1.17.7,1.9,0,.78-.27,1.45-.7,1.96-.49.56-1.13.78-1.94.78h-21.67ZM313.08,340.76h3.34v-10.11h-3.34v10.11Z"/>
    <path class="cls-12" d="M357.24,345.06c1.78,0,2.7,1.01,2.7,2.91v6.37h12.51c.81,0,1.46.22,1.94.62.43.45.65,1.12.65,2.01,0,1.01-.22,1.68-.65,2.07-.48.45-1.13.67-1.94.67h-33.59c-.75,0-1.4-.22-1.83-.67-.49-.39-.7-1.06-.7-2.07,0-.89.22-1.56.7-2.01.43-.39,1.08-.62,1.89-.62h12.99v-3.91h-.7c-.86,0-1.51-.22-1.94-.73-.54-.45-.76-1.12-.76-1.96,0-.73.16-1.34.59-1.9.32-.5,1.02-.78,1.99-.78h6.15ZM352.49,333.05v3.3c0,.33.05.61.27.78.11.23.43.28.86.28h9.22c.81,0,1.46.28,1.94.73.43.56.7,1.17.7,1.9,0,1.84-.91,2.74-2.64,2.74h-13.96c-1.56,0-2.7-.28-3.34-.95-.76-.56-1.08-1.79-1.08-3.58v-5.2h-.59c-.65,0-1.13-.28-1.46-.9-.32-.56-.48-1.17-.48-1.84,0-.73.22-1.34.7-1.9.43-.45,1.02-.73,1.89-.73h12.24v-3.46c0-.56-.32-.9-.86-.9h-8.95c-.81,0-1.4-.17-1.83-.61-.43-.39-.65-1.06-.65-2.07,0-1.79.81-2.68,2.48-2.68h13.48c1.73,0,2.86.39,3.5,1.17.54.78.86,2.01.86,3.69v7.49c0,1.01-.27,1.68-.7,2.07-.48.45-1.13.67-1.89.67h-9.7Z"/>
    <path class="cls-12" d="M398.21,345.06c1.78,0,2.7,1.01,2.7,2.91v6.37h12.51c.81,0,1.46.22,1.94.62.43.45.65,1.12.65,2.01,0,1.01-.22,1.68-.65,2.07-.49.45-1.13.67-1.94.67h-33.58c-.76,0-1.4-.22-1.83-.67-.49-.39-.7-1.06-.7-2.07,0-.89.21-1.56.7-2.01.43-.39,1.08-.62,1.89-.62h12.99v-3.91h-.7c-.86,0-1.51-.22-1.94-.73-.54-.45-.76-1.12-.76-1.96,0-.73.16-1.34.59-1.9.32-.5,1.03-.78,2-.78h6.14ZM388.4,342.83c-1.67,0-2.75-.39-3.23-1.29-.54-.78-.81-2.01-.81-3.58v-10.11h-.38c-.86,0-1.45-.22-1.89-.78-.43-.45-.65-1.12-.65-1.96,0-.73.16-1.34.59-1.9.38-.45,1.08-.73,2.05-.73h19.51c1.67,0,2.8.39,3.45,1.12.59.78.92,1.96.92,3.46v11.45c0,1.34-.32,2.4-.86,3.13-.65.78-1.78,1.17-3.4,1.17h-15.31ZM392.39,336.46c0,.34,0,.56.11.67.05.23.32.28.75.28h5.66c.38,0,.65-.05.81-.17.11-.06.22-.34.22-.84v-7.71c0-.28-.05-.5-.16-.67-.11-.11-.38-.17-.76-.17h-5.66c-.43,0-.65.06-.76.17-.16.17-.22.45-.22.84v7.6Z"/>
  </g>
  <g>
    <path class="cls-19" d="M395.15,201.45c.3,4.9-5.27,11.06-12.56,11.54-7.31.47-13.57-4.92-13.87-9.82-.3-4.91,5.38-9.25,12.69-9.73,7.29-.48,13.45,3.11,13.75,8.01Z"/>
    <line class="cls-10" x1="383" y1="219.77" x2="382.42" y2="210.3"/>
  </g>
  <path class="cls-10" d="M383.91,244.82c-2.48,1.28-5.62.58-7.45-1.82-2.1-2.75-1.71-6.69.88-8.8,1.67-1.38,3.87-1.64,5.77-.9"/>
  <path class="cls-10" d="M383.11,232.59c-2.14.4-4.43-.43-5.9-2.35-2.1-2.75-1.7-6.69.88-8.81,2.58-2.11,6.37-1.6,8.47,1.15.1.13.18.25.27.38"/>
  <g>
    <path class="cls-4" d="M466.19,348.34c-14.38,16-41.84,34-49.7,27.29-7.86-6.72,6.84-35.62,21.23-51.61,14.38-16,26.21-16.63,34.08-9.9,7.86,6.72,8.78,18.23-5.61,34.23Z"/>
    <path class="cls-5" d="M398.38,372.67l1.59-1.22c-1.39-1.08-2.2-2.55-2.05-4.07.26-2.75,3.55-4.64,7.34-4.22l3.28.37c.66.07,1.47.36,2.34.79l2.69-6.68,19.93,18.48-11.5,4.72c-.51,2.56-1.91,4.96-4.17,6.7l-4.41,3.39c-5.11,3.93-12.6,3.02-16.76-2.03-4.15-5.05-3.38-12.32,1.72-16.24Z"/>
    <path d="M461.15,318.1s-11.28-5.51-38.45,36.72"/>
  </g>
  <g>
    <g>
      <path class="cls-8" d="M201.12,276.78c.08-.26.03-.56-.15-.79l-16.97-21.19c-.3-.37-.84-.43-1.21-.13-.37.3-.43.84-.13,1.21l16.97,21.19c.3.37.84.43,1.21.13.14-.11.24-.26.29-.43"/>
      <path class="cls-21" d="M183.28,272.68l18.42-8.69c1.63-.77,3.9-.23,5.06,1.19l15.79,19.35c1.17,1.43.8,3.21-.83,3.97l-18.42,8.69c-1.63.77-3.89.23-5.06-1.19l-15.79-19.35c-1.17-1.43-.8-3.21.83-3.97"/>
      <path class="cls-2" d="M194.49,283.46c.85.16,1.67-.39,1.83-1.24.16-.85-.39-1.67-1.24-1.83s-1.67.39-1.83,1.24c-.16.85.39,1.67,1.24,1.83"/>
      <path class="cls-2" d="M198.93,288.82c.85.16,1.67-.39,1.83-1.24.16-.85-.39-1.67-1.24-1.83-.85-.16-1.67.39-1.83,1.24-.16.85.39,1.67,1.24,1.83"/>
    </g>
    <g>
      <path class="cls-21" d="M161.73,250.44c.02.37-.25.43-.45.54-.13.32-.26.65-.36.96.15-.11.31-.18.46-.18.02.36-.63.4-.56.55.18-.07.33-.32.52-.19.02.46-.4.43-.57.64l-.02-.18s-.03.02-.04.03c-.1.37-.15.64-.1.74l.11.07c-.09.03-.11.11-.02.21.06.14.16.3.38.47l-.18.06c.24.13.32.54.75.41.09-.22-.2-.31-.3-.46.13-.1.4.45.72.29-.03-.08-.08-.14-.14-.21.51.11.42,0,.19-.17.29-.2.45-.86.49-1.06.26-.21.28-.88.33-1.23.02-.04.04-.09.04-.13l.05-.06s0,0,0,0c.05.04.09.08.16.09l-.05.04.14.08.1-.28-.18.15.96-1.18c-.12,0-.24.1-.34.06.38-.49.78-.45.91-1.17l-.16.08c-.02-.62.63-.9.88-1.28,0,.15.1.24.18.22.26-1.04,1.05-1.72,1.64-2.75h.51s-.19-.22-.19-.22c.3-.5.37.18.6-.11-.09.11-.11.06-.18.03.68-.27.06-.44.38-.66-.33-.08-.57.46-.74.06.67-.3,1.33-1.11,1.84-.67.71-1.04,2.22-1.58,3.1-2.02.06-.17-.12-.04-.13-.14.52.11,1.04-.91,1.22-.59.13-.17.09-.43.1-.54.31.04.62-.03.93-.13l-.26.02v-.06s.37-.02.37-.02v.02c.8-.18,1.65-.64,2.46-.45-.47-.1-.02-.43-.24-.5.52.42,1.36.19,2.05.04-.02-.11.02-.21-.08-.29l.45.15-.08-.13c.74-.27,1.6.37,2.07.05-.31-.04-.32-.16-.36-.34.54-.05,1.05-.02,1.67.17l-.05-.12c.16-.04.36.1.52.17l.04-.28c.31.12.74.07,1.09.33.09-.14.32-.04.57.09l.11.04.09.12h.1s.01,0,.01,0h0c2.83-.63,1.65-1.13,1.83-1.25h0s.02-.06.02-.06c.06-.14.09-.28.09-.4.1-.17-.39.33-.27-.17.6.04.13-.65.78-.57l-.15-.48.33-.04c-.13-.12-.17-.21-.16-.3v-.02s0,0,0,0c.45-.44-1.33-2.01-1.28-1.94,0-.02.18-.08-.12-.19h0s0,0,0,0h-.01s-.06-.04-.06-.04l-.13-.1c-.16-.14-.35-.34-.69-.3.03.08.09.11.05.15-.2-.1-.68-.21-.28-.32-.35-.08-1.52-.31-1.01.07-.02-.2.44,0,.64.11-.06.28-.56.08-.7.4-.01-.03-.08-.08-.12-.13l-.08.17c-.61-.31-1.25-.12-1.71-.51-.02.09-.13.16-.34.17l-.03-.35-.67.06.35.48c-.7.17-1.28-.38-1.89-.33-.05.6-1.2,0-1.6.61l.49.06c-.99.09-1.03.52-1.96.57.69-.39.7-.31,1.7-1.04-1.05.52-2.03.19-2.91.87.11.1.38.09.2.32-.29-.21-.91.36-.89-.02-.26.22-.19.54-.35.66-.39,0-.77.02-1.16.05l.06.05c-1.27,1.49-3.31,1.07-4.65,2.46l.13.13-.53.04c.4-.06,0,.28.08.43-.4.1-.79.25-1.18.4.09.14.37.39.54.15-.23.43-.82.42-1.14.66l.21.04-.39.15.16.17c-.58.32-.95,1.09-1.39.98l.31.21-.7.28.46-.1c-.52.57-1.47,1.28-1.58,1.42l.15.03c-.03.14-.16.16-.28.23l.22.06c-.81.84-.58,1.4-1.5,2.32-.16.32.17-.12.26-.06.03.24-.36.53-.49.56.33.09.55-.4.54.06-.29.15.36,0,.02.39l-.45-.05c-.07.29.25.22,0,.58-.41.36-.1-.78-.56-.09-.16.36.3,1.06-.01,1.63.08-.04.16-.06.24-.06.01.2-.19.31-.35.38,0,0,0,.02,0,.03.1-.07.19-.12.3-.05,0,.09,0,.15-.04.21.1,0,.18,0,.1.19,0,.02-.02.03-.02.05-.02.04-.05.1-.09.17l.21-.19c-.04.09-.09.2-.13.3,0,.04,0,.08-.02.12.03,0,.06-.02.09-.01.02.16-.11.26-.25.33,0,0,0,.01-.01.02.07-.04.15-.05.23,0M185.46,238.44c-.07-.01-.13-.07-.16-.19h.19c.33-.2.26-.21.24-.24-.03.05-.1.07-.19.08l.12-.62s.01,0,0,0v-.06s.08.03.12.05c-.1.12,0,.31.07.48-.16.2.51-.09-.39.5M185.55,238.09c-.19.02-.46-.04-.6-.09h0c.2.03.4.06.6.09M185.07,235.83s-.01,0-.02,0h0s0,0,0,0h0s0,0,0,0M184.02,238.96l.3.22h-.09s-.21-.22-.21-.22ZM184.79,235.81c-.08-.01-.17-.02-.26-.03.03-.08.04-.17.09-.29.07.16.17.27.29.33-.04,0-.07,0-.1,0-.04-.06-.05-.07-.02-.03h0s0,.01,0,.01v.02h0M180.6,234.08c.16.15.61.15.64.38-.42-.21-.62.46-.75-.02.13.03.2.05.29.01-.08-.13-.37-.31-.18-.38M182.91,235.46c.09.09.24-.02.34.07-.38.19-.34-.16-.56-.26l-.18-.03c.07,0,.13,0,.18.03.19,0,.24-.04.23.19M182.8,235.69s-.01,0-.02,0h-.02s.04,0,.04,0ZM182.44,239.04c-.36.02-.68-.29-.61-.54.32.07.78.04.95.34-.17-.19.08.44-.34.2M182.12,233.93c-.14.06-.24.21-.28,0h.28c.06-.02.12-.03.18,0h-.18M181.74,235.73c-.08.01-.17.01-.25.02-.03-.05-.04-.12,0-.23.04.13.14.19.25.21M180.33,239.08s-.11.07-.18.07l.18-.07c.2-.18.21-.62.55-.21l-.55.21M180.47,238.75c-.43.2-.62-.29-.59-.5-.36-.14-.26.11-.42.19l.07-.32c.5.09.56.31.94.63M179.24,239.16c.16-.08.48-.23.53-.06l-.53.06ZM179.36,238.85c-.14.03-.63-.07-.68-.46-.01.22.6.33.94.46-.11-.03-.18-.04-.26,0M178.12,235.72c-.39.41-.87,0-1.14-.02.22-.04.93.27.68-.23l.15.17-.09.05.4.03M177.38,238.69c-.32-.03-.16-.18-.26-.24h0s0,0,0,0c.14.04.26.11.26.24M177.13,239.32c0,.21-.53.32-.7.25.21-.09.78-.3.7-.25M176.24,239.88c.34-.27.19-.07.18.05l.22.08c-.18.04-.22-.01-.22-.08l-.18-.05ZM176.71,236.71s.08,0,.12.02c-.03,0-.06.02-.09.03l-.03-.04ZM174.68,236.73l.37-.17.36.21-.73-.04ZM173.28,236.46c.12-.44.45-.2.66-.14-.33-.03-.27.41-.66.14M173.02,240.17c-.06-.02-.12-.03-.19-.04.2-.11.41-.21.61-.31-.02.15-.33.3-.42.36M173.57,237.2c-.25.4-.37-.12-.6.07l.14-.13c.03-.27-.32-.02-.44-.17.16-.18.69-.24.55-.12-.37.31.36.23.13.48l.21-.13M171.68,241.8c-.19-.02-.75.05-.7-.18.37-.18.96-.65,1.15-.96-.01-.05,0-.1.05-.15l-.05.15c.01.06.06.12.12.16.07,0,.13,0,.17.03-.04.03-.11.01-.17-.03-.16.03-.34.18-.38.3.12.09.31-.06.43-.03-.12.46-1.31.03-.61.71M171.51,238.38c-.22.11-.47.29-.62.09.13.03.52-.21.4-.35l-.2.04.33-.12-.07.12c.05.07.05.21.16.21l.15-.05c-.07.04-.12.06-.15.05M169.83,243.51c-.06.02-.16.12-.18.01l.32-.24c-.04.08-.34.18-.14.22M170.73,241.52c0,.46-.49.51-.98.59.26-.2.53-.39.79-.58.06,0,.13,0,.19,0M169.66,240.39c-.04-.1.11-.17.15-.38-.04.07.08.12.22.11-.13.09-.25.18-.37.27M168.83,243.19l.14-.28.03.16-.17.12ZM169.85,237.7l.41-.09v.06s-.41.08-.41.08v-.05ZM162.7,247.84s.06,0,.09,0c-.05.08-.11.17-.16.27-.04-.01-.08-.05-.08-.15l.14-.12M167.03,244.61s.11,0,.31-.06c-.49.7-1.17,1.33-1.84,1.96.3-.43.62-.85.95-1.25.19-.08.44-.1.52-.35-.06,0-.13-.01-.21-.02.08-.1.17-.19.25-.28M166.27,246.08l.23-.27.12.31-.34-.04ZM165.25,247.63c-.26.21-.47.25-.63.28.04-.08.09-.16.14-.24.01.02.04.02.04.04.24-.38.69-.88,1.09-.89.02.36-.63.4-.56.55.18-.07.33-.32.52-.19.02.46-.39.43-.58.64l-.02-.18M164.09,249.58s-.1.08-.17.08c.05-.04.11-.07.17-.08M163.77,250.46s0,0-.01,0c.01-.09.03-.14.06-.19,0,.06-.02.13-.05.19M164.05,249.24s-.09-.02-.13-.03c.02-.04.04-.09.06-.13.13-.08.2-.23.25-.4.07,0,.15-.01.26.05-.16.09-.17.53-.34.77.06-.16,0-.22-.08-.26l.03-.08s-.03.04-.06.07M164.79,243.06c-.03-.12.12-.32.31-.4-.06.32-.14.3-.31.4M164.68,242.87c-.13.52-.44.13-.66.32.09-.43.38-.1.66-.32"/>
      <path class="cls-17" d="M168.1,252.52c-.07.54.13-.15-.17.52l.12-.16c-.06.16-.11.32-.15.48,0,.01-.02.03-.02.04,0,0,0-.02.01-.03-.02.09-.05.17-.07.26-.08-.07-.15-.13-.14-.07.06.18.42.34.29.66.03,0,.07.01.11.02-.02.1-.05.19-.07.29l.1.02c0,.05.01.1.05.14h0s.02-.08.08-.1c.01,0,.01-.01.01-.02h.01s-.02.01-.03.02c-.02.03-.06.06-.08.1,0,0,0,.01,0,.02,0,0-.07,0-.07,0-.02.03.02.04,0,.07.12-.02.05.36.26.27h0c.08.21-.02.5.19.47l.16.04s.01.01.02.02c0,.04-.14,0-.14.06.02-.01.17.02.17-.03.24.23.32.91.59.85l.3-.5.09-.04s0,0,.01,0l.14-.13c.04-.2.17-.61.22-.81l.08.06c-.04-.16.05-.58.16-.63.15.08-.05.48-.08.67.24-.81.51-.73.64-1.42l-.09.09c.01-.46.37-.81.54-1.15-.01.11.04.16.09.13.2-.83.7-1.5,1.16-2.33l.32-.12-.1-.1c.2-.37.21-.05.34-.16-.03.03-.04.01-.07.01.44-.33.06-.33.3-.53-.23,0-.41.43-.48.2.45-.34,1.2-.46.83-.93.52-.63,1.58-1.58,2.84-1.74.06-.11-.09,0-.08-.06.38,0,.86-.71.97-.54.12-.11.12-.26.14-.32.23-.02.47-.09.72-.19l-.19.04v-.03s.05-.24.05-.24l.16-.17c.41-.49,1.41-.16,2.05-.1-.36-.02.03-.23-.14-.25.36.17,1.07.02,1.65-.08,0-.06.03-.11-.05-.14l.36.05-.05-.06c.62-.09,1.3.13,1.7.04-.25-.04-.25-.1-.28-.19.44.03.87.04,1.37.15l-.04-.06c.14,0,.29.08.43.13l.04-.13c.13.05.28.07.44.09l.23.05.12.04.05.02h.01s0,0,0,0h0s0,0,0,0c.97.56.63-.45.65-.59,0,.01-.02.01-.04.02l.02-.03c-.42-.54.74-.69.5-1.15.06-.14-.22.28-.13-.12.3,0,.1-.52.43-.49l-.05-.38.18-.05c-.06-.09-.08-.16-.07-.22v-.05s.01,0,.01,0c-.36-.54.48-.7-.68-1.01-.04,0-.03-.05-.05-.07h-.01s-.02-.02-.02-.02l-.1-.05c-.13-.08-.27-.18-.52-.17.03.04.07.06.05.08-.14-.06-.5-.13-.22-.17-.25-.03-1.12-.22-.75,0-.02-.1.33.03.48.08-.03.14-.41.03-.52.17,0-.02-.05-.05-.09-.07l-.06.07c-.46-.17-.95-.07-1.3-.28-.02.04-.1.07-.27.06v-.18s-.52.02-.52.02l.24.24c-.55.08-.96-.17-1.43-.19-.09.27-.92.02-1.27.34l.37.02c-.77.08-1.16.36-1.87.46.56-.26.87-.31,1.72-.69-.87.24-1.56.16-2.31.54.08.05.28.04.11.16-.21-.12-.73.24-.67.04-.22.15-.2.31-.34.39l-.88.11.04.02c-1.13.96-2.34.33-3.66,1.99l.08.06-.37.11c.28-.1-.03.17,0,.25-.29.13-.58.27-.84.43.03.08.19.18.34,0-.2.31-.6.41-.83.61h.13s-.27.15-.27.15l.08.08c-.43.3-.07,1.08-.34,1.09l.18.08-.47.3.3-.15c-.4.45-1.02,1.15-1.11,1.24h.09c-.03.1-.12.14-.19.21h.13c-.3.95-.58.94-1.19,1.75-.1.26.09-.13.16-.1-.01.16-.22.45-.29.5.17,0,.31-.4.29-.06-.17.17.2-.07,0,.28l-.25.05c-.06.22.13.11-.04.42-.26.32,0-.55-.31.03-.14.3-.09.76-.39,1.31M186.63,242.99s.04.01.05.03c-.12.2.19.56-.09.69l.04-.31s-.1.19-.16.38l.15-.8ZM186.81,242.03c.01.06,0,.13-.04.22l.04-.22M185.98,244.84l.25.12h-.07s-.17-.12-.17-.12ZM186.39,241.74s0-.05.05,0c-.02,0-.03,0-.05,0M186.05,241.69c-.1-.02-.21-.02-.31-.03.01-.04.02-.08.06-.14.07.08.15.13.25.17M184.69,244.78c-.3,0-.56-.16-.49-.28.26.04.64.03.77.19-.13-.11.06.21-.28.09M172.16,245.92c.13.45-.4.03-.34-.1.26.05.38-.02.51.14-.13-.11.15-.21-.17-.04M169.9,248.67c.47-.1,0,.4-.12.32.06-.25,0-.38.17-.5-.11.13-.21-.15-.06.18M172.07,245.02c.36.31-.32.25-.33.11.24-.11.3-.23.5-.17-.17-.02,0-.26-.18.06M168.16,253.96c-.2.23-.66-.01-.59-.14.26.05.63.02.76.19-.13-.11.14-.21-.18-.05M168.21,254.52c-.2.23-.46-.32-.83.15.59.11.82-.35,1.01-.11-.13-.11.14-.21-.18-.04M184.71,241.49c-.3.09-.27-.09-.44-.14.15,0,.2-.01.18.1.07.05.19,0,.26.04M182.69,240.7c.12.07.46.07.47.19-.31-.11-.5.23-.58,0,.11.01.16.02.23,0-.05-.06-.27-.15-.12-.19M183.3,241.42c.03.07.12.1.22.11-.07,0-.15,0-.22.01-.03-.03-.04-.07,0-.12M183.88,240.66c-.12.02-.2.09-.22-.02l.22.02ZM182.95,244.75c.17-.09.2-.32.47-.11l-.47.11ZM183.08,244.58c-.36.11-.49-.14-.45-.24-.28-.07-.21.05-.35.08l.08-.16c.39.06.43.15.72.32M182.05,244.79c.14-.06.41-.12.44-.03l-.44.03ZM182.17,244.63c-.11.02-.44,0-.5-.16.08.08.48.09.71.16-.1-.01-.15-.03-.21,0M180.6,244.63c-.25,0-.11-.08-.18-.11h-.01s0,0,.01,0c.1,0,.19.04.18.11M180.36,244.98c-.02.11-.45.21-.58.18.18-.06.64-.22.58-.18M179.59,245.33c.3-.16.15-.04.14.02l.16.03c-.14.03-.17,0-.16-.03l-.14-.02ZM180.63,241.54c-.36.19-.68,0-.89.02.18-.05.69.1.55-.15l.1.09-.07.02.31.02M179.42,242.11s.03,0,.04,0c0,0-.02,0-.03,0h0ZM177.86,242.25l.3-.13.24.08-.54.05ZM177.11,245.87s-.1.01-.15.02c.17-.09.34-.19.52-.27-.02.08-.28.21-.36.25M176.75,242.43c-.31.22.24.09.04.25l.17-.1c-.23.26-.26-.02-.45.11l.12-.09c.06-.16-.56.28-.63.21.14-.12.87-.47.74-.38M176.84,242.21c.15-.25.37-.14.51-.12-.25,0-.26.22-.51.12M169.5,249.34c.15-.25.36-.13.52-.12-.25,0-.27.22-.52.12M175.95,247.03c-.13.02-.53.17-.46.02.26-.19.74-.57.92-.76,0-.03.01-.07.06-.1l-.06.1.06.07c.05-.02.09-.02.13,0-.04.02-.08.02-.13,0-.12.04-.27.15-.31.23.08.03.23-.08.32-.08-.15.26-.95.23-.53.52M175.38,246.92s0,0-.01,0c0,0,.01,0,.02,0h0M175.31,247.04c-.07.26-.41.39-.75.53.2-.17.39-.33.6-.49.05-.01.11-.03.15-.04M175.4,243.36c-.18.1-.65.41-.73.32.09,0,.67-.38.6-.44l-.49-.1.6.03-.07.08s.01.11.09.1M173.83,248.43l.13-.21v.1s-.13.11-.13.11ZM174.48,243.25l-.3.11v-.04s.31-.1.31-.1v.03ZM174.02,244.72c-.1.08-.2.14-.3.22,0-.05.1-.11.15-.24-.03.05.05.05.15.02M172.55,249.73s.03.01.19-.09c-.37.59-.84,1.17-1.27,1.76.48-.88.18-.37.66-1.09.13-.09.29-.16.36-.36-.05.01-.09.02-.14.04.06-.09.13-.18.19-.27M171.96,250.93l.15-.24.05.2-.2.05ZM171.27,252.26c-.16.21-.28.29-.37.33.03-.06.06-.13.09-.2,0,0,.02.01.03.02.16-.32.42-.79.67-.88-.03.25-.38.42-.36.51.1-.08.2-.3.31-.25-.01.33-.25.4-.36.59v-.13M170.58,253.63c-.1.19-.18.37-.25.53.09-.3.19-.6.3-.89.04-.02.1-.07.17-.04-.12.14-.12.71-.35.81l.13-.41ZM169.25,256.19c-.1.18-.18.37-.25.53.09-.3-.13-.37-.02-.67.05-.02.42-.29.5-.27-.12.14-.12.71-.35.82l.13-.41ZM169.71,255.68c-.1.18.07.18,0,.34.08-.3.19-.6.3-.89.04-.02.1-.07.17-.04-.12.14-.12.71-.35.82l-.12-.22ZM170.34,254.29c-.06.11-.1.24-.15.37.03-.1.05-.21.08-.31.03,0,.05-.02.07-.06M170.88,247.75c0-.07.09-.24.22-.34-.07.23-.1.24-.22.34M170.82,247.65c-.12.38-.28.17-.44.34.1-.31.24-.14.44-.34M169.08,251.58s-.04-.02-.04-.09l.1-.12s.03-.01.04-.02c-.03.07-.07.15-.1.23"/>
      <path class="cls-14" d="M173.2,253.93c-.06.28-.64.36-.54.7.12-.11.33-.1.45.01.02.25-.09.69-.22.98.06,0,.12.04.17.02-.03.16,0,.11.04.11.06-.09.15-.18.24-.25,0,.02,0,.04-.01.06h.04s0,.01,0,.01c0,0,.02,0,.02,0,0,.01-.02.03-.03.04.03,0,.06,0,.1-.02.07.02-.02.15.04.15h.1c-.01.06.08-.01.12.03,0,0,0,0,0,0-.02-.04.01-.07.08-.1.01,0,.02-.02.03-.03h.04s-.05.02-.07.03c-.02.03-.05.06-.08.1,0,0,0,0,0,.01,0,0,0,0,0,0-.02.03-.04.06-.06.08.04,0,0,.06.09.05-.01.02.08-.03.06-.02.1.07.37.09.36,0l-.2-.02s.1-.02.08-.03c.08-.02.1,0,.14-.03l.1.12v-.17s-.08.04-.08.04c.01-.01.03-.03.05-.06l.13.02c-.06.34.07.58.11.64.02-.01.03-.02.05-.03l.03.05.04.04.07.07c.09.56.7.48.68.49.22-.03,0-.55.09-.56.04.05.07.1.12-.05,0,0-.02,0-.02-.02.02-.11-.03-.52,0-.62.02,0,.03,0,.06,0-.02-.01-.03-.03-.05-.04.03-.14.08-.27.12-.41.2-.04.65-.11.59-.17.01-.09-.32-.07-.49,0-.03.03-.05.06-.09.1,0,0,0,0,0,.01,0,0,0,0,0-.01h0s0,0,0,0c0-.02.01-.04.02-.05.02-.02.04-.03.07-.04.07-.07.11-.11.07-.07-.02-.08-.05-.12-.06-.14.02-.06.05-.12.07-.19.07-.07.14-.12.21-.16-.02-.06-.06-.09-.11-.11,0-.02.01-.04.02-.07.03.02.05.05.05.06-.06,0,.07.05.07.05-.11-.2-.27-.22-.2-.37l-.05-.02c.03-.08.07-.14.1-.22.1,0,.16,0,.12-.11l.06-.42c.14-.27.44-.16.6-.41.04-.04.09-.08.15-.06l-.05-.1s.03-.04.04-.06c.11.1.18.43.23.33.01-.19.47-.75.73-.99-.05-.03-.09-.08-.14-.09.1-.14.05-.1,0-.12-.07.04-.14.07-.22.09.06-.06.11-.12.17-.19,0,.06.02.08.05.09.12-.08.2-.18.17-.3h0s-.03.06-.09.06c0-.01.02-.02.03-.03.02,0,.04-.02.06-.02t0-.01s0,0,0,.01c.03-.02.06-.04.09-.05-.01,0-.03,0-.05-.01.04-.04.1-.09.14-.12-.02.02-.03.05-.03.09.04-.03.06-.07.05-.1.31-.22.75.22.87-.76.04-.01.09-.02.12-.03l-.03-.05c.07-.05.14-.1.22-.15.04,0,.08,0,.11-.03,0-.01-.01-.01-.02-.03.09-.06.08-.24.17-.3.11-.01.42.02.51-.01h-.04s-.25-.26-.27-.28c.08-.05.38.1.47.06.03.01.05.02.07,0-.01,0-.03-.01-.04-.03.04-.02.09-.04.14-.07.29.07.47-.02.7-.05l-.08-.15s.08-.03.12-.05c.04.08.09.16.22.17.13-.09.34-.02.4-.26-.04.04-.07-.01-.11-.08.04-.02.09-.03.13-.04.04.02.09.03.12,0,0,0-.03-.02-.05-.02.13-.03.25-.07.38-.11h0c.08.04.17.05.22.17l-.18.05c.44-.01.94-.01,1.31-.15l-.13-.16s0-.06,0-.08c.06,0,.11,0,.17-.01.04.08.17.2.02.3.07.01.12.12.17.02.05-.17.01-.27-.06-.34.04,0,.08,0,.13,0-.02.12-.06.25.01.37.21-.19.3,0,.49.03-.03-.07-.02-.15,0-.22-.11.03-.23-.19-.27-.03-.04-.03-.07-.1-.09-.17.11,0,.21,0,.32.01-.01.05,0,.11.05.18.03-.15.14-.25.22-.07l-.13.09c.07.07.15,0,.21.07-.03-.08-.02-.17,0-.26.21.02.43.04.63.06.02,0,.03,0,.05,0,.02,0,.04,0,.06,0l-.07.19c1.79.02.13-.71.99-1.4l-.29-.15h0c.16-.05.23.09.24-.06-.07,0-.17-.07-.21-.13l.02-.09c.1.01.15.24.25.05l-.24-.09v-.02c.2-.02-.02-.24.27-.23-.34-.71-.82-.29-1.1-.61-.11.04-.1.17-.1.27-.09,0-.17-.01-.26-.02,0,0,0-.01,0-.01-.3-.34-.45-.54-.85-.52l.02.1c-.05,0-.11,0-.17,0-.05-.09-.1-.22-.2-.2l.06.2c-.13-.18-.35-.03-.51-.15.07.04.1.11.15.19-.15.02-.65.45-.8.47-.17-.08.02-.99-.13.02,0,0-.01,0-.02,0,0-.03,0-.06.01-.09-.23-.08-.47.23-.62.03l.08.15s-.01,0-.02,0c-.04,0-.07.01-.11.02-.13-.04-.29-.22-.43-.08-.09.05.12.11,0,.18-.25-.07-.52-.06-.72.03.06.07.12.11.16.14-.03,0-.06.02-.1.03h0c-.15-.1-.23.08-.35-.19-.02.16,0,.24-.02.32-.07.02-.13.05-.19.08-.07-.12-.04-.25-.19-.16.02.29-.18-.05-.24.11.02,0,.07-.01.09.05-.2.23-.07-.05-.22.21-.29-.54-.39.29-.65-.11.14.19-.18.14,0,.28-.24-.08-.36.09-.51.11.09.56-.83-.11-.41.61-.11.02-.33-.21-.43-.09.06.05.13.14.07.17-.06.16-.38-.11-.55-.04-.07.14.18.38-.06.36l-.09-.05c0,.2.19.23.31.24-.07.05-.13.1-.19.16.01-.02.03-.04.03-.07-.1.03-.07-.08-.15-.13-.44-.21-.32.12-.62.21.04.03.13.01.13.13-.07.06-.28-.02-.25.09.05,0,.05-.09.12-.02-.03.15-.07.2-.25.2l-.03-.05s0,.08-.04.12l-.07-.1c.11.35-.37.11-.42.3l.25.17c-.63-.16-.28.33-.73.44h.19c-.71.36-1,1.22-1.41,1.7.28.27.19-.09.48-.07-.21-.03.03-.16-.04-.25l.29-.07c-.14-.09-.16-.02-.32-.07.01-.15.33-.04.39-.08h0c.22-.12.02-.51.29-.49l.09.11c-.02-.2.04-.42.24-.48.05.04.11.05.16.04-.28.32-.22.67-.51,1.17l-.53.37s-.02-.06-.04-.07c-.1-.04-.06.07-.12.1.06.04.15.06.24.06-.1.18-.18.36-.27.54h-.05s-.02-.06-.04-.08c-.1-.04-.06.07-.12.1.04.03.11.05.18.05-.08.17-.15.35-.22.52.05-.23.03-.51-.11-.5v.03s-.05-.07-.09-.07l-.04.4c-.02-.05-.06-.03-.09,0-.02-.11.06-.16.11-.29l-.26-.11c0-.29.52.02.43-.25h-.14s.1-.14.1-.14l-.1-.04c-.03-.08.16-.06.14-.08-.25-.22-.16.09-.3.11l.15.14c-.12.1-.39,0-.39.13.07.18-.15.55-.28.87.06,0,.12.03.17.02M185.98,248.8s.02.06.05.09c-.02,0-.04-.02-.06-.02l.02-.08ZM185.83,246.87s0,0,0,0h0M184.52,246.32s-.07,0-.1,0c.04-.05.05-.16.13-.08-.02.03-.03.06-.03.08M184.32,246.32s0-.01,0-.01c0,0,.02,0,.02.01,0,0-.01,0-.02,0M183.18,249.02c-.04.08-.13.07-.19,0,.06,0,.12-.02.18-.03,0,0,0,.01.01.03M182.75,249.14s-.06-.03-.1-.06c.02,0,.04,0,.06-.01.01.03.02.06.04.07M179.5,247.76s-.09.05-.14.07c.03-.04.05-.08.09-.1.01.01.03.02.05.03M178.22,248.32c.19-.02.16-.24.33-.31.06-.02.09.09.16.13-.07.03-.13.08-.17.14-.09.05-.16.1-.25.15l-.07-.1ZM177.35,252.34s-.06-.06-.09-.09c.02-.02.04-.04.05-.06.1.09.26.13.03.15M177.16,252.62c-.04.1-.12.09-.2.06.03-.05.08-.11.11-.15l.09.09M177.34,249.09s-.02.02-.03.02l-.04-.04s.05.01.07.02M176.68,249.64c-.09-.04-.15.02-.31-.07.28,0-.1-.38.29-.15l-.03.03c.12-.01.23-.01.32-.04-.09.08-.18.15-.26.23M176.28,249.99s0,.03,0,.04c-.09.09-.18.19-.26.28-.06-.08-.12-.17-.05-.23h.17c-.1-.05-.16.06-.27-.09,0-.14.22.04.12-.14.07.05.23.16.29.14M175.98,250.35c-.25.22-.42.39-.57.55-.04-.02-.1-.06-.14-.03.27-.1.66-.41.57-.65.12.04.11.09.13.13M173.38,253.5c.07,0,.15.07.17.1,0,.01-.02.02-.02.03,0,0,0,0,0,.02-.13-.08-.37-.02-.14-.15M173.63,254.47s0,0,0,0c0-.04.01-.06.03-.08l-.02.08M173.5,254.9s0,.01,0,.01c-.02,0-.03,0-.03-.02.02,0,.02,0,.04,0M173.38,255.36c-.13-.08-.36-.01-.14-.15.06,0,.12.05.15.08,0,.02-.01.04-.02.06M173.31,254.93s-.02.07-.03.09h0s.01-.07.03-.09M173.11,254.48c-.09,0-.17.07-.25-.01.02-.12.25-.22.37-.07-.16-.17.08-.48.32-.63.03.01.05.02.09.04.01,0,.04.02.06.02.02.01.03.03.04.04,0,0,0-.02.01-.02.03,0,.06.03.08.06,0,0,.02-.03.03-.04-.03.07-.06.15-.09.23,0,0,0,0-.02,0h.01s-.02.07-.03.1c-.13-.09-.26-.25-.26-.17.04.11,0,.41-.08.71-.1-.07-.19-.16-.24-.18,0-.03-.02-.05-.03-.08"/>
      <path class="cls-20" d="M160.01,236.28v.02s0,0,0,0c.24.35.37,1.13.86,1.26h0s0,0,0,0h.02s.05,0,.05,0c-.01-.04-.04-.05-.02-.07.09.04.33.09.13.15.17.02.73.17.49-.04,0,.09-.22-.01-.31-.06.03-.13.27-.05.35-.19l.06.07.05-.08c.29.2.61.08.83.28.02-.04.07-.07.18-.06v.17s.34,0,.34,0l-.17-.25c.36-.05.62.19.93.21.04-.29.6.04.8-.27l-.24-.03c.49-.05.53-.21.99-.23-.35.19-.36.12-.87.47.54-.22,1.01-.04,1.47-.37-.06-.06-.19-.06-.09-.16.14.11.46-.15.44.04.13-.1.1-.27.18-.33h.57s-.03-.02-.03-.02c.67-.7,1.66-.49,2.37-1.13l-.07-.06.27-.02c-.2.03,0-.14-.04-.22l.11-.48c-.04-.08-.17-.2-.27-.09.12-.21.43-.18.58-.31l-.1-.02.19-.07-.07-.09c.28-.17.5-.51.71-.46l-.15-.11.34-.13-.23.05c.24-.3,1.24-.31,1.29-.38l-.07-.02c.01-.07.08-.08.14-.12l-.11-.03c.38-.44.33-.67.76-1.15.08-.16-.08.06-.13.03-.02-.12.18-.26.24-.28-.17-.05-.27.2-.27-.03.14-.08-.18,0-.01-.19l.23.03c.05-.14-.12-.1.01-.28.21-.18.06.39.28.05.09-.2-.22-.61.06-.9.05-.35-.35.02-.13-.37l-.11.09c.06-.13.12-.27.17-.41.22-.04.57-.1.52-.16.02-.08-.28-.07-.46-.01,0-.01,0-.02.01-.03.04-.04.06-.07.03-.03,0-.01,0-.02,0-.02.05-.13.08-.26.13-.39.03-.02.07-.05.1-.06,0-.04-.03-.06-.06-.08,0-.02.02-.03.02-.05,0,0,.01,0,.01.02-.06,0,.07.05.07.05-.11-.2.22-.63.28-.79l-.06-.03c.01-.06.03-.11.04-.17l-.14-.03c.14-.04.41.07.34-.12l-.14-.02.1-.12-.11-.04c-.02-.08.17-.06.14-.08-.25-.22-.16.09-.3.11l.15.14c-.12.1-.37-.57-.37-.44.02.05.02.15,0,.28h-.05c-.06-.04-.08-.21-.09-.29h-.06c.07-.07.11-.13.06-.13-.18.07-.89,0-1.48.39,0,.02-.01.05-.01.07l-.18-.09c.1.04.09.11.18.12,0,.03,0,.05,0,.07-.17-.04-.12,0-.12.04.06.04.06.04.11.11-.06,0-.03.05-.08.05l-.1-.02h-.02s0,0,0,0h-.07c.06-.03.1-.05.12-.07h0s.03-.04.03-.06c0,0,0,0,0,0h0s-.03-.01-.03-.01c-.11-.06-.22-.08-.3-.02h0s.07.02.1.09c.03.02.05.05.07.06h-.05s-.01-.05-.02-.06c-.03-.03-.06-.06-.1-.08,0,0,0,0-.01,0t.01,0s-.05-.04-.08-.06c0,.04.02.1.03.17l-.12-.02.04-.07c-.06.04-.06-.05-.14-.05l-.19-.06s.04-.02.06-.04h.06s.06.03.09.04c0,0-.01,0-.02,0,.02.03.05.03.09.01.03,0,.05.02.07.02-.02,0-.04-.02-.06-.02,0,0,.02,0,.02-.01-.03-.02-.06-.02-.08-.02-.07-.02-.12-.05-.17-.08-.59.43-.26.22-.42.35-.1.1-.17.19-.17.41l.08-.05c.06.29-.24.49-.3.71-.02-.07-.07-.12-.12-.09,0,.53-.4.9-.57,1.45l-.23.05.11.09c-.11.23-.19,0-.27.05.02-.01.03,0,.06.01-.33.15,0,.21-.16.33.18.02.27-.24.37-.06-.34.17-.59.62-.86.42-.29.54-1.03.83-1.42,1.09-.03.08.06.02.06.07-.27-.07-.5.43-.59.28-.06.09-.04.22-.04.27-.15,0-.3.03-.45.08h.12s0,.01,0,.01h-.17s0,0,0,0c-.4.07-.82.25-1.2.18.22.05,0,.22.11.26-.24-.17-.66-.19-1-.11,0,.06-.02.11.03.15l-.22-.09.04.06c-.37.13-.76-.2-.99-.11.14.04.14.1.16.19-.26-.03-.51-.06-.8-.16l.02.06c-.07.01-.14-.03-.2-.07-.02-.01-.03-.02-.05-.03l-.02.07-.02.07h-.03s-.01-.01-.01-.01h0s0,0,0,0c-.55,0-.67.46-.74.51h0s0,0,0,0l-.03.07-.03.14c-.03.1-.06.2-.13.3.14.1-.68.15-.21.7-.05.08.19-.16.14.08-.3-.02-.07.32-.39.28l.07.24-.16.02c.13.12.08.18.01.26l-.12.12-.03.08ZM172.42,230.99s-.04,0-.05,0c.03-.04.05-.08.07-.12.02,0,.05.02.05.07l-.07.06M171.72,233.29c-.06.21-.2.04-.34.13.08-.25.23-.05.34-.13M171.33,233.34c.02.05-.06.15-.15.19.03-.16.06-.15.15-.19M169.74,230.02l-.09.15-.08-.14h.17ZM170.74,227.65s.01.14.01.15c-.04,0-.09.02-.1.06l-.06-.07c.09-.07-.17.07.15-.14M170.75,227.81s-.02.06-.02.08l-.06.03c.01-.07.04-.09.08-.11M170.7,228c-.04.19-.08.37-.14.56-.04,0-.08.05-.19.02.09-.09,0-.45.21-.51l-.06.26c.07-.12.12-.23.18-.33M170.37,229.13s-.02,0-.03-.02c-.03.23-.29.48-.48.52-.04-.17.3-.23.26-.3-.09.05-.16.17-.26.12-.04-.21.2-.22.24-.35l.04.09c.1-.14.2-.18.27-.21-.02.05-.03.09-.05.14M168.54,235.94l.2-.04v.03s-.2.04-.2.04v-.03ZM168.81,234.79s-.06-.07-.14-.06c.07-.05.14-.09.21-.14.02.06-.05.09-.07.2M169.5,230.8s-.06,0-.16.04c.2-.4.5-.77.79-1.15-.12.25-.25.49-.38.72-.09.06-.23.09-.24.25.03,0,.06,0,.1,0-.03.05-.07.1-.11.15M168.01,235.67s-.03-.1-.08-.11c.12-.04.24-.14.31-.04-.07-.01-.26.1-.21.17h.1s-.17.03-.17.03l.04-.06M168.61,231.67l.07-.07-.05.15-.02-.08ZM168.19,231.49s.07-.07.09-.01l-.07.05s.03-.04-.02-.04M168.31,232.16c-.12.11-.23.21-.35.31h-.15c0-.22.25-.26.5-.31M167.79,232.58s.01,0,.02,0c0,0-.02.02-.02.02v-.02ZM167.32,236.25c-.08.1-.35.1-.27.04.2-.14-.18-.13-.05-.24l-.11.06c.13-.19.18.08.3-.01l-.07.06c-.02.13.16.02.21.09M167.01,236.48c-.07.21-.23.08-.33.05.17.03.15-.19.33-.05M167.28,232.74c-.07-.04-.16.02-.22,0,.07-.19.64-.04.28-.36.09,0,.35-.06.34.06-.17.12-.43.38-.53.51,0,.02,0,.05-.03.07l.03-.07-.06-.08c.08-.01.17-.08.19-.14M165.97,236.29l.35.03-.18.08-.17-.11ZM166.86,233.22c-.12.07-.24.12-.36.18,0-.08.16-.17.21-.2.05.01.1.01.15.02M165.31,236.27s-.04,0-.06,0c.02,0,.03-.01.05-.01v.02M164.78,236.76l-.19-.03c.21-.19.44.04.57.05-.11.02-.46-.17-.35.09l-.07-.09.04-.02ZM165.12,233.33c-.17.13-.09.03-.09-.03l-.11-.04c.09-.02.11,0,.11.04l.09.03M164.69,233.62c0-.11.26-.17.34-.14-.1.04-.37.17-.34.14M164.67,234.06c-.06-.02-.11-.07-.11-.13.15.03.09.09.12.13,0,0,0,0,0,0M163.66,233.61c-.08.04-.25.1-.27.01h.27ZM163.32,237.49c-.08-.07-.3-.07-.31-.19.2.11.31-.23.36,0-.06-.02-.09-.02-.14,0,.04.06.18.15.08.19M163.89,233.96c-.07-.08-.29-.15-.43-.21h.12c.06,0,.26.05.31.21M162.92,236.76c-.01-.08-.06-.11-.12-.12.04,0,.08,0,.13,0,.02.03.02.07,0,.13M162.56,237.52c.07-.02.13-.09.14.02l-.14-.02ZM163.47,234.13c-.24-.07-.26-.14-.44-.33.22-.08.29.14.27.26.16.07.13-.06.21-.09l-.04.16M163.12,233.64c-.1.08-.13.3-.28.06l.28-.06M162.21,236.75s-.12.01-.16-.03c.19-.1.17.08.27.13-.1,0-.12.02-.11-.09M162.36,233.81c-.16-.05-.38-.04-.45-.19.07.09-.02-.22.18-.1.18,0,.32.16.27.29M161.36,236.7c-.1-.05-.16-.11-.19-.18.08.01.17.03.25.04-.01.04-.02.08-.05.14M161.2,235.43c.1-.12-.22-.37.04-.43l-.03.19s.09-.11.13-.23l-.09.49s-.04,0-.06-.02M160.8,234.42l.12-.1-.12.15v-.05Z"/>
    </g>
  </g>
  <path class="cls-3" d="M227.9,288.09s2.55-11.68-3.81-15.61c-6.36-3.93-13.93.71-13.45,11.71.48,11,4.51,6.87,4.51,6.87"/>
</svg>