<?xml version="1.0" encoding="UTF-8"?>
<svg id="_레이어_1" data-name="레이어_1" xmlns="http://www.w3.org/2000/svg" viewBox="0 0 500 500">
  <defs>
    <style>
      .cls-1, .cls-2, .cls-3, .cls-4, .cls-5, .cls-6, .cls-7 {
        fill: #fff;
      }

      .cls-1, .cls-8 {
        opacity: .2;
      }

      .cls-9 {
        fill: #231815;
      }

      .cls-3, .cls-10, .cls-11, .cls-4, .cls-6 {
        stroke-miterlimit: 10;
      }

      .cls-3, .cls-12, .cls-13, .cls-7 {
        stroke-linecap: round;
      }

      .cls-3, .cls-4, .cls-5, .cls-6 {
        stroke-width: 1.92px;
      }

      .cls-3, .cls-4, .cls-5, .cls-6, .cls-7 {
        stroke: #231815;
      }

      .cls-14 {
        fill: #221714;
      }

      .cls-10 {
        fill: #5b1311;
      }

      .cls-10, .cls-12 {
        stroke: #221714;
        stroke-width: 2.83px;
      }

      .cls-15, .cls-11, .cls-13 {
        fill: none;
      }

      .cls-11 {
        stroke: #211512;
        stroke-width: .82px;
      }

      .cls-12 {
        fill: #d94e37;
      }

      .cls-12, .cls-5, .cls-13, .cls-7 {
        stroke-linejoin: round;
      }

      .cls-16 {
        fill: #ed1c2e;
      }

      .cls-17 {
        fill: #9c0008;
      }

      .cls-13 {
        stroke: #000;
        stroke-width: 1.59px;
      }

      .cls-18 {
        fill: #211512;
      }

      .cls-6 {
        opacity: .5;
      }

      .cls-7 {
        stroke-width: 1.28px;
      }
    </style>
  </defs>
  <g>
    <path class="cls-4" d="M252.27,347.6c24.18-9.98,55.83-33.8,51.16-45.13-4.68-11.33-43.92-5.89-68.1,4.09-24.18,9.98-29.57,22.95-24.89,34.29,4.68,11.33,17.64,16.73,41.83,6.75Z"/>
    <path class="cls-5" d="M307.14,281.11l-2.04,1.31c-.7-1.96-2.08-3.42-3.9-3.84-3.29-.75-6.78,2.2-7.78,6.59l-.86,3.8c-.17.76-.16,1.77,0,2.92l-8.79.47,13.54,29.28,10-11.05c3.17.41,6.49-.25,9.4-2.11l5.67-3.64c6.56-4.21,8.46-12.93,4.26-19.48-4.21-6.55-12.93-8.46-19.48-4.25Z"/>
    <path d="M219.25,330.47s-1.94-14.7,57.65-28.98"/>
  </g>
  <path class="cls-6" d="M255.14,291.87c1.01-11.87,1.45-24.22,1.45-36.89,0-92.1-24.3-166.75-118.12-166.75S20.36,162.88,20.36,254.98c0,13.56.51,26.75,1.67,39.38,16.02,7.63,47.74,16.21,109.5,16.21,68.61,0,105.45-10.58,123.61-18.69Z"/>
  <path class="cls-9" d="M257.05,288.84c0-11.34-55.6-19.35-120.04-19.35s-117.01,9.5-117.01,20.85c0,.82.16,2.7.69,3.49,6.84,10.17,56.54,16.75,116.32,16.75,64.44,0,120.04-10.38,120.04-21.72Z"/>
  <g>
    <g>
      <path class="cls-16" d="M110.79,150.76c0,26.86-6.22,48.63-13.89,48.63s-13.9,12.97-13.9-13.9,6.22-83.38,13.9-83.38,13.89,21.77,13.89,48.64Z"/>
      <path class="cls-9" d="M104.27,151.49c0,14.25-3.29,25.81-7.37,25.81s-7.38,6.88-7.38-7.38,3.3-44.24,7.38-44.24,7.37,11.55,7.37,25.81Z"/>
    </g>
    <g>
      <path class="cls-16" d="M166.38,150.76c0,26.86,6.22,48.63,13.9,48.63s13.89,12.97,13.89-13.9-6.22-83.38-13.89-83.38-13.9,21.77-13.9,48.64Z"/>
      <path class="cls-9" d="M172.9,151.49c0,14.25,3.3,25.81,7.38,25.81s7.37,6.88,7.37-7.38-3.3-44.24-7.37-44.24-7.38,11.55-7.38,25.81Z"/>
    </g>
  </g>
  <path class="cls-16" d="M232.99,235.9c0,52.13-42.27,94.4-94.4,94.4s-94.4-42.26-94.4-94.4,42.27-94.41,94.4-94.41,94.4,42.26,94.4,94.41Z"/>
  <g class="cls-8">
    <path class="cls-2" d="M57.94,225.24s-12.35,37.37,12.76,57.95c0,0-5.14-4.08-4.63-30.6.51-26.52-8.14-27.35-8.14-27.35Z"/>
    <path class="cls-2" d="M219.23,225.24s12.35,37.37-12.76,57.95c0,0,5.15-4.08,4.63-30.6-.52-26.52,8.13-27.35,8.13-27.35Z"/>
  </g>
  <path class="cls-16" d="M218.65,328.57c0,44.21-35.84,67.69-80.06,67.69s-80.06-23.47-80.06-67.69,35.84-80.06,80.06-80.06,80.06,35.84,80.06,80.06Z"/>
  <path class="cls-17" d="M110.2,312.73s22.71,18.26,35.71,16.06c13-2.2,26.57-16.95,26.2-19.93-.37-2.99-10.3-9.29-25.34-1.09-15.04,8.19-47.97-18.24-36.57,4.97Z"/>
  <g>
    <g>
      <path class="cls-16" d="M135.06,119.49c0,1.92-3.11,3.48-6.95,3.48s-6.95-1.56-6.95-3.48,3.11-3.47,6.95-3.47,6.95,1.56,6.95,3.47Z"/>
      <path class="cls-16" d="M131.31,147.7c0,.88-.72,1.6-1.6,1.6h0c-.88,0-1.6-.72-1.6-1.6v-26.61c0-.88.72-1.6,1.6-1.6h0c.89,0,1.6.72,1.6,1.6v26.61Z"/>
    </g>
    <g>
      <path class="cls-16" d="M156.01,119.49c0,1.92-3.11,3.48-6.94,3.48s-6.95-1.56-6.95-3.48,3.11-3.47,6.95-3.47,6.94,1.56,6.94,3.47Z"/>
      <path class="cls-16" d="M152.27,147.7c0,.88-.72,1.6-1.6,1.6h0c-.89,0-1.6-.72-1.6-1.6v-26.61c0-.88.71-1.6,1.6-1.6h0c.89,0,1.6.72,1.6,1.6v26.61Z"/>
    </g>
  </g>
  <g>
    <g>
      <path class="cls-2" d="M121.45,192.57c0,6.57-5.32,11.89-11.89,11.89s-11.89-5.32-11.89-11.89,5.32-11.88,11.89-11.88,11.89,5.32,11.89,11.88Z"/>
      <path class="cls-9" d="M117.66,192.57c0,4.48-3.62,8.1-8.1,8.1s-8.1-3.63-8.1-8.1,3.63-8.09,8.1-8.09,8.1,3.63,8.1,8.09Z"/>
    </g>
    <g>
      <path class="cls-2" d="M179.49,192.57c0,6.57-5.32,11.89-11.89,11.89s-11.89-5.32-11.89-11.89,5.33-11.88,11.89-11.88,11.89,5.32,11.89,11.88Z"/>
      <path class="cls-9" d="M175.7,192.57c0,4.48-3.62,8.1-8.09,8.1s-8.1-3.63-8.1-8.1,3.63-8.09,8.1-8.09,8.09,3.63,8.09,8.09Z"/>
    </g>
  </g>
  <path class="cls-2" d="M97.67,291.66c0,2.26-.57,4.09-1.27,4.09s-1.27-1.83-1.27-4.09.57-4.08,1.27-4.08,1.27,1.82,1.27,4.08Z"/>
  <path class="cls-2" d="M106.95,302.93c0,2.25-.57,4.08-1.28,4.08s-1.27-1.83-1.27-4.08.57-4.09,1.27-4.09,1.28,1.83,1.28,4.09Z"/>
  <path class="cls-2" d="M119.46,291.66c0,2.26-.57,4.09-1.28,4.09s-1.27-1.83-1.27-4.09.57-4.08,1.27-4.08,1.28,1.82,1.28,4.08Z"/>
  <path class="cls-2" d="M128.89,302.93c0,2.25-.57,4.08-1.28,4.08s-1.27-1.83-1.27-4.08.57-4.09,1.27-4.09,1.28,1.83,1.28,4.09Z"/>
  <path class="cls-2" d="M141.25,291.66c0,2.26-.57,4.09-1.28,4.09s-1.27-1.83-1.27-4.09.57-4.08,1.27-4.08,1.28,1.82,1.28,4.08Z"/>
  <path class="cls-2" d="M150.83,302.93c0,2.25-.57,4.08-1.27,4.08s-1.28-1.83-1.28-4.08.57-4.09,1.28-4.09,1.27,1.83,1.27,4.09Z"/>
  <path class="cls-2" d="M163.04,291.66c0,2.26-.57,4.09-1.27,4.09s-1.27-1.83-1.27-4.09.57-4.08,1.27-4.08,1.27,1.82,1.27,4.08Z"/>
  <path class="cls-2" d="M184.83,291.66c0,2.26-.57,4.09-1.28,4.09s-1.27-1.83-1.27-4.09.57-4.08,1.27-4.08,1.28,1.82,1.28,4.08Z"/>
  <path class="cls-2" d="M172.77,302.93c0,2.25-.57,4.08-1.27,4.08s-1.27-1.83-1.27-4.08.57-4.09,1.27-4.09,1.27,1.83,1.27,4.09Z"/>
  <path class="cls-1" d="M219.25,215.11c0,3.73-1.83,6.76-4.09,6.76s-4.08-3.03-4.08-6.76,1.83-6.76,4.08-6.76,4.09,3.03,4.09,6.76Z"/>
  <path class="cls-1" d="M66.89,215.11c0,3.73-1.83,6.76-4.09,6.76s-4.09-3.03-4.09-6.76,1.83-6.76,4.09-6.76,4.09,3.03,4.09,6.76Z"/>
  <g>
    <path class="cls-5" d="M121.1,436.51c0,2.33-10.6,3.26-23.19,3.26s-23.26-2.39-23.26-4.72,10.67-3.71,23.26-3.71,23.19,2.84,23.19,5.17Z"/>
    <path class="cls-4" d="M49.89,346.3s30.77,102.52,46.35,113.97c15.59,11.44,3.51-2.91,40.43-85.37"/>
    <g>
      <path class="cls-5" d="M109.94,459.68c4.28-4.49,8.19-11.74,10.77-22.75-16.07,3.91-33.95,1.31-45.6-1.37,2.18,5.55,4.6,11.4,6.91,16.33-16.4.51-29.43,8-29.43,17.18s13.97,10.95,31.19,10.95,31.2-1.45,31.2-10.95c0-3.46-1.86-6.67-5.04-9.38Z"/>
      <path class="cls-7" d="M88.71,454.62s11.61.2,16.16,4.85"/>
    </g>
    <path d="M74.64,402.29s7.23,23.36,14.06,25.57l6.84,2.19"/>
  </g>
  <g>
    <path class="cls-5" d="M158.17,436.51c0,2.33,10.6,3.26,23.19,3.26s23.26-2.39,23.26-4.72-10.66-3.71-23.26-3.71-23.19,2.84-23.19,5.17Z"/>
    <path class="cls-4" d="M229.38,346.3s-30.77,102.52-46.36,113.97c-15.59,11.44-3.51-2.91-40.43-85.37"/>
    <g>
      <path class="cls-5" d="M169.33,459.68c-4.28-4.49-8.19-11.74-10.77-22.75,16.08,3.91,33.96,1.31,45.6-1.37-2.18,5.55-4.6,11.4-6.91,16.33,16.4.51,29.42,8,29.42,17.18s-13.96,10.95-31.19,10.95-31.2-1.45-31.2-10.95c0-3.46,1.86-6.67,5.04-9.38Z"/>
      <path class="cls-7" d="M190.56,454.62s-11.61.2-16.15,4.85"/>
    </g>
    <path d="M204.62,402.29s-7.22,23.36-14.06,25.57l-6.84,2.19"/>
  </g>
  <path class="cls-4" d="M131.53,310.57c-61.76,0-93.48-8.57-109.5-16.21,6.74,73.09,35.53,127.37,116.45,127.37s110.36-55.52,116.66-129.86c-18.16,8.11-55,18.69-123.61,18.69Z"/>
  <path class="cls-9" d="M218.65,315.95s24.64-7.34,28.15-8.94c0,0-9.38,71.42-45.19,91.89,0,0,23.97-33.41,17.03-82.95Z"/>
  <path class="cls-9" d="M199.42,401.09s-10.02,6.58-19.93,9.66c-9.9,3.07,19.93-9.66,19.93-9.66Z"/>
  <g>
    <path class="cls-9" d="M78.76,383.49h.38c.49,0,1.04.1,1.04.72,0,.54-.47.65-.98.65h-.44v-1.36ZM78.18,385.32h1.07c.82,0,1.53-.19,1.53-1.05,0-.58-.39-.93-.93-.97v-.02c.51-.13.82-.4.82-.95,0-.75-.57-1.01-1.41-1.01h-1.09v4.01ZM78.76,381.78h.61c.33,0,.74.13.74.6,0,.59-.47.65-1.02.65h-.32v-1.25Z"/>
    <path class="cls-9" d="M81.68,385.33h.54s0-1.34,0-1.34c0-.74.31-1.19.8-1.19.09,0,.2.01.3.04v-.47c-.12-.03-.19-.04-.36-.04-.31,0-.62.21-.77.52h-.01s0-.45,0-.45h-.51v2.94Z"/>
    <path class="cls-9" d="M85.23,382.32c.89,0,1.49.65,1.49,1.54,0,.84-.61,1.53-1.49,1.53s-1.5-.69-1.5-1.53c0-.89.6-1.54,1.5-1.54ZM85.23,384.96c.62,0,.91-.58.91-1.1,0-.56-.34-1.1-.91-1.1-.58,0-.93.54-.92,1.1,0,.52.28,1.09.93,1.09Z"/>
    <path class="cls-9" d="M89.18,384.18c0,.44-.28.77-.82.77-.24,0-.54-.16-.54-.47,0-.52.72-.56,1.02-.56.11,0,.23,0,.34,0v.26ZM87.61,383.06c.21-.19.54-.3.85-.3.54,0,.72.26.72.77-.2-.02-.36-.02-.57-.02-.56,0-1.36.23-1.36.97,0,.65.44.92,1.07.92.49,0,.78-.27.91-.45h.01v.38s.51,0,.51,0c-.01-.08-.03-.24-.03-.57v-1.22c0-.8-.33-1.21-1.18-1.21-.36,0-.69.11-.96.28l.03.46Z"/>
    <path class="cls-9" d="M91.02,383.85c-.02-.54.22-1.09.8-1.09s.87.56.87,1.1c0,.49-.25,1.09-.87,1.09-.58,0-.82-.65-.81-1.11ZM92.71,385.32h.52v-4.31s-.54,0-.54,0v1.79h-.02c-.16-.27-.46-.47-.97-.47-.85,0-1.27.7-1.27,1.48s.38,1.59,1.27,1.59c.52,0,.85-.27.99-.48h.01v.41Z"/>
    <path class="cls-9" d="M96.06,382.43c-.16-.06-.44-.11-.66-.11-.9,0-1.5.64-1.5,1.54,0,.84.61,1.53,1.5,1.53.2,0,.45-.02.68-.12l-.05-.48c-.16.12-.4.17-.58.17-.7,0-.98-.58-.98-1.1,0-.56.34-1.1.95-1.1.17,0,.38.04.58.12l.05-.45Z"/>
    <path class="cls-9" d="M98.45,384.18c0,.44-.28.77-.81.78-.24,0-.55-.17-.55-.48,0-.52.73-.56,1.02-.56.12,0,.23,0,.35,0v.25ZM96.88,383.06c.21-.19.55-.3.85-.3.53,0,.72.26.72.76-.22-.01-.36-.01-.57-.01-.56,0-1.37.24-1.37.97,0,.65.44.92,1.07.92.49,0,.78-.27.91-.45h0v.37h.51c-.02-.08-.03-.24-.03-.57v-1.22c0-.8-.33-1.21-1.18-1.21-.38,0-.7.11-.97.28l.04.46Z"/>
    <path class="cls-9" d="M99.66,385.24c.25.13.54.16.81.16.53,0,1.03-.29,1.02-.91,0-.94-1.27-.77-1.27-1.36,0-.25.24-.36.51-.36.13,0,.46.07.57.15l.05-.47c-.22-.06-.42-.11-.67-.11-.58,0-1.03.3-1.04.9,0,.83,1.28.78,1.28,1.31,0,.32-.31.42-.56.42-.15,0-.46-.07-.67-.21l-.04.48Z"/>
    <path class="cls-9" d="M103.71,382.39h-.78v-.85s-.53.17-.53.17v.68h-.67v.43h.67v1.72c0,.58.34.85.9.85.18,0,.34-.05.46-.08v-.46c-.08.05-.2.1-.37.1-.25,0-.46-.18-.46-.52v-1.61h.78v-.43Z"/>
    <path class="cls-9" d="M104.46,385.32h.55v-2.93h-.55v2.93ZM105.04,381.13h-.62v.6h.62v-.6Z"/>
    <path class="cls-9" d="M105.99,382.39h.53v.46s0,0,0,0c.17-.33.56-.53.96-.53.76,0,1.1.47,1.1,1.26v1.73h-.54v-1.51c0-.69-.15-1.02-.62-1.05-.62,0-.89.49-.89,1.21v1.35h-.55v-2.93Z"/>
    <path class="cls-9" d="M112.1,385.2c0,.89-.46,1.4-1.51,1.4-.32,0-.58-.04-1.06-.2l.06-.5c.42.19.66.27,1.07.27.56,0,.9-.39.9-1.01v-.28h-.02c-.23.3-.61.44-.98.44-.84,0-1.25-.67-1.25-1.44,0-.76.42-1.56,1.31-1.56.52,0,.81.19.97.5h.01v-.43h.5v2.81ZM111.56,383.89c0-.61-.28-1.13-.86-1.13-.55,0-.82.59-.82,1.1,0,.54.31,1.03.82,1.03s.86-.45.86-.99Z"/>
    <path class="cls-9" d="M117.45,381.98c-.25-.16-.54-.23-.83-.23-.93,0-1.54.67-1.54,1.57s.68,1.57,1.52,1.57c.29,0,.67-.08.87-.19l.04.55c-.3.13-.68.15-.92.15-1.27,0-2.11-.81-2.11-2.09,0-1.24.9-2.06,2.12-2.06.31,0,.61.04.91.17l-.05.56Z"/>
    <path class="cls-9" d="M118.51,383.86c0-.56.35-1.1.93-1.1s.92.54.92,1.1c0,.52-.28,1.1-.92,1.09-.64,0-.93-.57-.93-1.09ZM117.94,383.86c0,.84.62,1.53,1.51,1.53.88,0,1.48-.69,1.48-1.53,0-.89-.6-1.54-1.49-1.54s-1.5.65-1.5,1.54Z"/>
    <path class="cls-9" d="M121.67,382.39h.51v.46h.01c.17-.33.55-.53.96-.53.77,0,1.11.47,1.11,1.27v1.73s-.54,0-.54,0v-1.51c0-.69-.15-1.02-.62-1.05-.61,0-.89.49-.9,1.21v1.35h-.53v-2.93Z"/>
    <path class="cls-9" d="M126.73,382.39h-.78v-.84l-.54.17v.68h-.66v.43s.66,0,.66,0v1.72c0,.58.34.85.9.85.17,0,.35-.04.46-.08v-.46c-.08.05-.2.1-.37.1-.24,0-.46-.18-.46-.53v-1.61h.78v-.43Z"/>
    <path class="cls-9" d="M127.79,383.58c.04-.38.26-.82.79-.82.46,0,.73.36.73.82h-1.52ZM129.66,384.66c-.13.11-.55.3-.9.3-.51,0-.97-.4-.97-.98h2.1c0-.95-.31-1.66-1.31-1.66-.82,0-1.37.62-1.37,1.49,0,.95.48,1.59,1.52,1.59.48,0,.72-.11.92-.19v-.54Z"/>
    <path class="cls-9" d="M130.61,382.39h.53v.46h0c.17-.33.56-.53.97-.53.75,0,1.1.47,1.1,1.27v1.73h-.54v-1.51c0-.69-.15-1.02-.62-1.05-.61,0-.89.49-.89,1.21v1.35h-.55v-2.93Z"/>
    <path class="cls-9" d="M135.69,382.39h-.78v-.85l-.54.17v.67s-.65,0-.65,0v.43h.66v1.72c0,.58.34.85.91.85.17,0,.34-.05.46-.08v-.46c-.07.05-.2.1-.37.1-.25,0-.46-.18-.46-.52v-1.61h.78v-.43Z"/>
    <path class="cls-9" d="M138.56,381.81h.48c.36,0,.89.18.89.69s-.44.71-.8.71h-.57v-1.4ZM137.99,385.32h.58v-1.6h.57c.73,0,1.42-.32,1.42-1.21s-.69-1.19-1.51-1.19h-1.06v4.01Z"/>
    <path class="cls-9" d="M141.17,385.32h.55v-1.33c0-.74.32-1.2.81-1.19.09,0,.2.01.29.04v-.47c-.11-.03-.19-.04-.36-.04-.31,0-.62.22-.76.52h-.02v-.45h-.51v2.93Z"/>
    <path class="cls-9" d="M143.21,383.86c0,.84.61,1.53,1.5,1.53.87,0,1.49-.69,1.49-1.53,0-.89-.6-1.54-1.49-1.54-.9,0-1.5.65-1.5,1.54ZM143.79,383.86c0-.56.34-1.1.92-1.1.57,0,.91.54.91,1.1,0,.52-.28,1.09-.91,1.09-.65,0-.92-.57-.92-1.09Z"/>
    <path class="cls-9" d="M146.93,385.32h.54v-1.47c0-.55.22-1.09.78-1.09.43,0,.52.46.52.82v1.74h.54v-1.47c0-.55.22-1.09.78-1.09.43,0,.52.45.52.82v1.74h.54v-1.87c0-.64-.27-1.12-1.01-1.12-.27,0-.71.15-.91.57-.16-.4-.5-.57-.83-.57-.43,0-.73.15-.94.5h0v-.43h-.51v2.93Z"/>
    <path class="cls-9" d="M151.85,383.86c0,.84.61,1.53,1.49,1.53.89,0,1.5-.69,1.5-1.53,0-.89-.6-1.54-1.5-1.54s-1.5.65-1.5,1.54ZM152.42,383.86c0-.56.35-1.1.92-1.1.58,0,.92.54.92,1.1,0,.52-.29,1.09-.92,1.1-.63,0-.92-.58-.92-1.1Z"/>
    <path class="cls-9" d="M157.12,382.39h-.78v-.85l-.54.17v.68h-.66v.43s.66,0,.66,0v1.72c0,.58.35.85.9.85.17,0,.34-.05.47-.08v-.46c-.08.05-.2.1-.37.1-.25,0-.46-.18-.46-.53v-1.61h.78v-.43Z"/>
    <path class="cls-9" d="M157.87,382.39h.55v2.93h-.55v-2.93ZM158.45,381.73h-.61v-.61h.61v.61Z"/>
    <path class="cls-9" d="M159.2,383.86c0,.84.61,1.53,1.49,1.53s1.5-.69,1.5-1.53c0-.89-.6-1.54-1.5-1.54s-1.5.65-1.5,1.54ZM159.78,383.86c0-.56.35-1.1.92-1.1.58,0,.92.54.92,1.1,0,.52-.28,1.1-.92,1.09-.64,0-.91-.57-.92-1.09Z"/>
    <path class="cls-9" d="M162.92,382.39h.53v.47h.01c.16-.33.55-.53.96-.53.76,0,1.09.47,1.09,1.26v1.73s-.54,0-.54,0v-1.51c0-.69-.15-1.03-.62-1.05-.62,0-.89.49-.89,1.21v1.35h-.54v-2.93Z"/>
    <path class="cls-9" d="M168.05,381.31h2.14v.5h-1.56v1.17h1.49v.5h-1.49v1.83s-.57,0-.57,0v-4.01Z"/>
    <path class="cls-9" d="M171.29,383.86c0-.56.33-1.1.92-1.1s.91.54.91,1.1c0,.52-.28,1.1-.91,1.1s-.92-.58-.92-1.1ZM170.72,383.86c0,.84.61,1.53,1.5,1.53.88,0,1.49-.69,1.49-1.53,0-.89-.6-1.54-1.49-1.54s-1.5.65-1.5,1.54Z"/>
    <path class="cls-9" d="M177.03,385.32h-.53v-.46h-.01c-.17.33-.56.53-.97.53-.75,0-1.09-.47-1.09-1.27v-1.74s.54,0,.54,0v1.52c0,.69.15,1.02.62,1.05.62,0,.91-.5.9-1.21v-1.36h.54s0,2.93,0,2.93Z"/>
    <path class="cls-9" d="M177.95,385.32h.54v-1.35c0-.72.27-1.21.89-1.21.47.03.63.36.62,1.05v1.51h.54v-1.73c0-.79-.34-1.26-1.1-1.26-.41,0-.8.2-.95.53h-.02v-.46h-.53v2.93Z"/>
    <path class="cls-9" d="M181.84,383.84c-.01-.53.23-1.08.81-1.08s.87.55.87,1.1c0,.49-.25,1.09-.87,1.09-.58,0-.82-.65-.81-1.11ZM183.54,385.32h.51v-4.31h-.54v1.78s0,0,0,0c-.17-.27-.47-.47-.98-.47-.86,0-1.27.7-1.27,1.48s.37,1.58,1.26,1.58c.53,0,.86-.27,1-.48h.02s0,.41,0,.41Z"/>
    <path class="cls-9" d="M186.72,384.18c0,.44-.28.78-.82.78-.24,0-.55-.17-.55-.48,0-.52.73-.56,1.02-.56.11,0,.23,0,.35,0v.25ZM185.14,383.06c.23-.19.55-.3.86-.3.55,0,.72.26.72.76-.21-.01-.35-.01-.58-.01-.55,0-1.36.23-1.36.97,0,.65.45.92,1.07.92.49,0,.79-.27.91-.45h.02v.37s.5,0,.5,0c0-.08-.02-.24-.02-.57v-1.22c0-.8-.34-1.21-1.18-1.21-.37,0-.7.11-.97.28l.02.46Z"/>
    <path class="cls-9" d="M189.74,382.82h-.78s0,1.61,0,1.61c0,.34.21.53.45.53.17,0,.29-.05.38-.1v.46c-.12.04-.29.08-.46.08-.55,0-.9-.27-.9-.85v-1.72h-.66v-.43h.66v-.68l.54-.17v.84h.78v.43Z"/>
    <path class="cls-9" d="M191.06,381.13h-.61v.61s.61,0,.61,0v-.61ZM190.49,385.32h.54v-2.93h-.54v2.93Z"/>
    <path class="cls-9" d="M192.4,383.86c0-.56.34-1.1.92-1.1.57,0,.91.54.9,1.1,0,.52-.27,1.09-.9,1.09s-.92-.57-.92-1.09ZM191.82,383.86c0,.84.61,1.53,1.5,1.53.88,0,1.49-.69,1.49-1.53,0-.89-.6-1.54-1.49-1.54s-1.5.65-1.5,1.54Z"/>
    <path class="cls-9" d="M195.54,382.39h.51v.47h.02c.16-.33.56-.53.97-.53.75,0,1.09.47,1.09,1.26v1.73h-.53v-1.51c0-.69-.16-1.02-.62-1.05-.62,0-.89.49-.89,1.21v1.35h-.54v-2.93Z"/>
  </g>
  <g>
    <path class="cls-16" d="M91.58,353.06c0,3.44-.98,6.78-2.95,10-2.02,3.28-4.92,6.18-8.69,8.8-.66.44-1.26.66-1.8.66-.66,0-1.26-.27-1.86-.93-.66-.6-.93-1.26-.87-2.02,0-.71.33-1.31.98-1.86,2.51-1.97,4.43-4.48,5.68-7.43h-7.32c-.87,0-1.53-.22-1.97-.76-.49-.49-.71-1.15-.71-1.91,0-.71.22-1.31.71-1.86.44-.44,1.09-.71,1.97-.71h8.58c0-.22.05-.49.11-.76v-6.34h-8.69c-.87,0-1.53-.22-1.97-.71-.49-.44-.71-1.09-.71-1.91,0-.71.22-1.31.71-1.86.44-.49,1.09-.76,1.97-.76h14.1c.93,0,1.64.16,2.08.49.44.33.66.98.66,1.91v7.98ZM100.32,336.34c.93,0,1.64.22,2.08.55.44.38.66.98.66,1.86v11.64h2.79v-8.8h-.22c-.66,0-1.15-.27-1.37-.82-.33-.49-.44-1.09-.44-1.8s.22-1.31.66-1.86c.38-.49.98-.77,1.86-.77h4.92c.93,0,1.64.16,2.08.49.44.38.66,1.04.66,1.97v27.11c0,1.53-.33,2.62-.93,3.39-.66.82-1.86,1.2-3.72,1.2h-1.53c-.71,0-1.2-.16-1.48-.55-.33-.33-.49-.76-.49-1.42v-12.9h-2.79v10.33c0,1.53-.33,2.62-.93,3.39-.66.77-1.86,1.15-3.66,1.15h-1.59c-.71,0-1.2-.16-1.48-.55-.33-.33-.49-.76-.49-1.42v-26.94h-.76c-.87,0-1.48-.22-1.86-.71-.44-.44-.66-1.09-.66-1.91,0-.71.22-1.31.66-1.86.38-.49.98-.77,1.86-.77h6.18Z"/>
    <path class="cls-16" d="M120.87,370.39c-.76,0-1.42-.22-1.86-.66-.49-.38-.71-1.04-.71-2.02,0-.87.22-1.53.71-1.97.44-.38,1.09-.6,1.91-.6h33.99c.82,0,1.48.22,1.97.6.44.44.66,1.09.66,1.97,0,.98-.22,1.64-.66,2.02-.49.44-1.15.66-1.97.66h-34.05ZM140.93,346.07c0,.93-.11,1.8-.33,2.57l10.44,8.36c1.31,1.09,1.37,2.35.16,3.77-.66.76-1.26,1.09-1.86,1.04-.66,0-1.31-.27-1.91-.77l-9.4-7.27c-1.26,1.64-2.84,3.11-4.7,4.32-1.97,1.26-4.04,2.24-6.34,2.95-.33.11-.71.22-1.04.27-.44.11-.82.11-1.15.05-.44,0-.76-.11-1.09-.33-.33-.16-.6-.44-.77-.87-.33-.55-.33-1.15-.11-1.8.22-.55.71-.98,1.59-1.31,2.73-.87,4.81-2.19,6.28-3.99,1.42-1.75,2.19-3.55,2.19-5.41v-4.81h-.27c-.76,0-1.31-.22-1.64-.66-.33-.44-.49-.98-.49-1.75,0-.71.16-1.31.6-1.86.33-.49,1.04-.76,2.08-.76h5.19c.93,0,1.59.16,2.02.49.33.38.55,1.04.55,1.97v5.79Z"/>
    <path class="cls-16" d="M161.7,349.51c-.76,0-1.31-.22-1.75-.76-.49-.44-.71-1.09-.71-1.91,0-.71.22-1.31.66-1.86.38-.44,1.04-.71,2.02-.71h17.05c.82,0,1.48.22,2.02.66.44.44.66,1.09.66,1.91-.05.82-.27,1.48-.71,1.91-.49.55-1.15.76-1.97.76h-8.63v6.39h8.58c.82,0,1.48.27,1.97.71.44.55.71,1.15.71,1.86,0,.76-.27,1.42-.71,1.91-.49.55-1.15.77-1.97.77h-8.58v3.39c0,.44.05.66.22.77.11.11.38.16.71.16h7.65c.82,0,1.48.27,1.97.71.44.55.71,1.15.71,1.86,0,.77-.27,1.42-.71,1.91-.49.55-1.15.77-1.97.77h-12.51c-1.58,0-2.68-.33-3.28-1.09-.66-.71-.93-1.86-.93-3.5v-16.61h-.49ZM195.41,336.34c.93,0,1.64.22,2.08.55.44.38.66.98.66,1.86v29.95c0,1.53-.33,2.62-.93,3.39-.66.76-1.86,1.15-3.66,1.15h-1.58c-.71,0-1.2-.16-1.48-.55-.33-.33-.49-.77-.49-1.42v-29.67h-.76c-.87,0-1.48-.22-1.86-.71-.44-.44-.66-1.09-.66-1.91,0-.71.22-1.31.66-1.86.38-.49.98-.77,1.86-.77h6.18Z"/>
  </g>
  <g>
    <path class="cls-12" d="M157.18,229.68c-.3,12.05-8.02,21.63-17.25,21.41-9.23-.23-16.9-9.81-16.61-21.86.03-1.14-.26-6.73-.26-6.73l17.22,6.22,16.78-5.32s.15,5,.12,6.29Z"/>
    <g>
      <g>
        <path class="cls-14" d="M154.31,211.77c-.13,4.85-6.36,10.42-13.85,10.22-7.49-.2-13.41-6.09-13.28-10.94.13-4.86,6.31-8.62,13.8-8.42,7.49.2,13.46,4.28,13.34,9.14Z"/>
        <line class="cls-13" x1="140.28" y1="228.71" x2="140.53" y2="219.33"/>
        <line class="cls-15" x1="140.28" y1="228.71" x2="123.06" y2="222.49"/>
        <line class="cls-15" x1="140.28" y1="228.71" x2="157.06" y2="223.39"/>
      </g>
      <path class="cls-10" d="M134.2,236.37c-3.2,1.03-6.01,2.65-8.3,4.64,2.96,5.96,8.2,9.91,14.08,10.05,6.28.16,11.85-4.23,14.88-10.83-4.73-4.65-12.76-6.39-20.66-3.86Z"/>
    </g>
  </g>
  <g>
    <path class="cls-4" d="M65.27,342.04c20.37-15.8,44.23-46.69,36.83-56.24-7.4-9.54-31.71-3.65-53.26,10.5-7.03,4.61-14.08,7.62-17.95,11.8-7.4,7.99-6.32,20.01-1.46,26.28,7.4,9.55,15.47,23.45,35.84,7.66Z"/>
    <path class="cls-5" d="M100.05,264.54l-1.6,1.78c-1.18-1.68-2.87-2.71-4.71-2.63-3.32.14-5.86,3.86-5.67,8.3l.16,3.84c.04.77.32,1.72.76,2.77l-8.22,2.74,20.51,24.29,6.61-13.11c3.12-.44,6.11-1.93,8.38-4.46l4.44-4.94c5.13-5.7,4.67-14.48-1.04-19.62-5.71-5.14-14.49-4.67-19.62,1.04Z"/>
    <path d="M36.89,325.5s-13.14-4.57,39.75-33.7"/>
  </g>
  <g>
    <path class="cls-18" d="M324.02,152.45c-2.67-1.06-5.71.25-6.77,2.93l-12.81,32.34c-1.06,2.67.26,5.71,2.93,6.77l18.05,7.15,1.28-3.23-18.04-7.15c-.89-.35-1.33-1.37-.98-2.26l12.81-32.34c.35-.89,1.37-1.33,2.26-.98l19.9,7.89,1.28-3.23-19.9-7.89M388.39,183.56c1.06-2.68-.24-5.71-2.93-6.77l-18.91-7.49-1.28,3.23,18.91,7.49c.89.35,1.33,1.37.97,2.26l-12.81,32.34c-.35.89-1.37,1.33-2.26.98l-21.34-8.45-1.28,3.23,21.35,8.46c2.68,1.06,5.71-.26,6.77-2.93l12.81-32.34"/>
    <g>
      <path class="cls-18" d="M331.62,204.1l-34.45,86.97c-.35.89.09,1.9.97,2.26l9.83,3.9c.89.35,1.91-.09,2.26-.98l34.46-86.97-13.06-5.18Z"/>
      <path class="cls-11" d="M317.25,155.38l-12.81,32.34c-1.06,2.67.26,5.71,2.93,6.77l18.05,7.15,1.28-3.23-18.04-7.15c-.89-.35-1.33-1.37-.98-2.26l12.81-32.34c.35-.89,1.37-1.33,2.26-.98l19.9,7.89,1.28-3.23-19.9-7.89c-2.67-1.06-5.71.25-6.77,2.93ZM385.47,176.79l-18.91-7.49-1.28,3.23,18.91,7.49c.89.35,1.33,1.37.97,2.26l-12.81,32.34c-.35.89-1.37,1.33-2.26.98l-21.34-8.45-1.28,3.23,21.35,8.46c2.68,1.06,5.71-.26,6.77-2.93l12.81-32.34c1.06-2.68-.24-5.71-2.93-6.77Z"/>
      <path class="cls-18" d="M340.83,157.24l-2.56,6.47c-.35.89.09,1.91.98,2.26l25.87,10.25c.91.36,1.91-.09,2.26-.98l2.56-6.46c.35-.89-.07-1.9-.98-2.26l-25.87-10.25c-.89-.35-1.9.09-2.26.97"/>
      <path class="cls-18" d="M325.46,196.04l-2.56,6.47c-.35.89.09,1.91.98,2.26l25.87,10.25c.91.36,1.91-.09,2.26-.98l2.56-6.46c.35-.89-.07-1.9-.98-2.26l-25.87-10.25c-.89-.35-1.9.09-2.26.97"/>
      <path class="cls-18" d="M374.21,191.04l-3.84,9.7c-1.06,2.67.26,5.71,2.93,6.77l3.23,1.28c.91.36,1.91-.09,2.26-.98l6.4-16.17c.35-.89-.07-1.9-.97-2.26l-3.24-1.28c-2.67-1.06-5.71.24-6.77,2.93"/>
    </g>
  </g>
  <path class="cls-3" d="M308.66,294.51s2.55-11.68-3.81-15.61c-6.36-3.93-13.93.71-13.45,11.71.48,11,4.51,6.87,4.51,6.87"/>
</svg>