<?xml version="1.0" encoding="UTF-8"?>
<svg id="_레이어_1" data-name="레이어_1" xmlns="http://www.w3.org/2000/svg" viewBox="0 0 500 500">
  <defs>
    <style>
      .cls-1, .cls-2, .cls-3, .cls-4, .cls-5, .cls-6 {
        fill: #fff;
      }

      .cls-1, .cls-7 {
        opacity: .2;
      }

      .cls-8 {
        fill: #a32424;
        stroke-width: .85px;
      }

      .cls-8, .cls-9, .cls-4, .cls-10, .cls-6 {
        stroke-linejoin: round;
      }

      .cls-8, .cls-9, .cls-10 {
        stroke: #221714;
      }

      .cls-8, .cls-9, .cls-10, .cls-6 {
        stroke-linecap: round;
      }

      .cls-11 {
        fill: #231815;
      }

      .cls-12 {
        fill: #221614;
      }

      .cls-9 {
        fill: none;
      }

      .cls-9, .cls-10 {
        stroke-width: 1.48px;
      }

      .cls-3, .cls-4, .cls-5 {
        stroke-width: 1.92px;
      }

      .cls-3, .cls-4, .cls-5, .cls-6 {
        stroke: #231815;
      }

      .cls-3, .cls-5 {
        stroke-miterlimit: 10;
      }

      .cls-13 {
        fill: #0080ab;
      }

      .cls-14 {
        fill: #00aee7;
      }

      .cls-15 {
        fill: #211512;
      }

      .cls-16 {
        fill: #040000;
      }

      .cls-10 {
        fill: #d94e37;
      }

      .cls-5 {
        opacity: .5;
      }

      .cls-6 {
        stroke-width: 1.28px;
      }
    </style>
  </defs>
  <path class="cls-5" d="M357.64,291.26c1.01-11.91,1.46-24.3,1.46-37.01,0-92.4-24.38-167.3-118.5-167.3s-118.51,74.9-118.51,167.3c0,13.61.51,26.84,1.68,39.51,16.07,7.66,47.9,16.26,109.86,16.26,68.83,0,105.8-10.62,124.01-18.75Z"/>
  <path class="cls-11" d="M359.56,288.22c0-11.38-55.79-19.42-120.43-19.42s-117.4,9.53-117.4,20.91c0,.82.16,2.7.7,3.5,6.87,10.2,56.72,16.8,116.7,16.8,64.65,0,120.43-10.41,120.43-21.79Z"/>
  <path class="cls-11" d="M359.59,287.73c0-11.56-53.23-20.93-118.88-20.93s-118.88,9.37-118.88,20.93,53.23,20.93,118.88,20.93,118.88-9.37,118.88-20.93Z"/>
  <g>
    <g>
      <path class="cls-14" d="M223.69,144.34c0,15.18-12.31,27.49-27.49,27.49s-27.48-12.31-27.48-27.49,12.3-27.49,27.48-27.49,27.49,12.31,27.49,27.49Z"/>
      <path class="cls-11" d="M214.68,144.34c0,10.2-8.27,18.48-18.48,18.48s-18.48-8.28-18.48-18.48,8.28-18.48,18.48-18.48,18.48,8.27,18.48,18.48Z"/>
    </g>
    <g>
      <path class="cls-14" d="M310.04,144.34c0,15.18-12.3,27.49-27.48,27.49s-27.49-12.31-27.49-27.49,12.31-27.49,27.49-27.49,27.48,12.31,27.48,27.49Z"/>
      <path class="cls-11" d="M301.04,144.34c0,10.2-8.27,18.48-18.48,18.48s-18.48-8.28-18.48-18.48,8.27-18.48,18.48-18.48,18.48,8.27,18.48,18.48Z"/>
    </g>
  </g>
  <path class="cls-14" d="M337.02,232.58c0,53.12-43.07,96.2-96.2,96.2s-96.2-43.07-96.2-96.2,43.07-96.2,96.2-96.2,96.2,43.06,96.2,96.2Z"/>
  <g class="cls-7">
    <path class="cls-2" d="M158.64,221.72s-12.6,38.07,13,59.05c0,0-5.24-4.16-4.72-31.18.53-27.02-8.28-27.86-8.28-27.86Z"/>
    <path class="cls-2" d="M322.99,221.72s12.6,38.07-13,59.05c0,0,5.24-4.16,4.72-31.18-.53-27.02,8.29-27.86,8.29-27.86Z"/>
  </g>
  <path class="cls-14" d="M322.4,327.01c0,45.06-36.53,68.97-81.59,68.97s-81.59-23.92-81.59-68.97,36.53-81.59,81.59-81.59,81.59,36.52,81.59,81.59Z"/>
  <path class="cls-13" d="M211.89,310.87s23.14,18.6,36.39,16.36c13.25-2.24,27.07-17.27,26.7-20.31-.38-3.05-10.5-9.46-25.82-1.11-15.32,8.35-48.89-18.59-37.26,5.07Z"/>
  <g>
    <g>
      <path class="cls-14" d="M237.22,113.96c0,1.95-3.17,3.54-7.08,3.54s-7.08-1.59-7.08-3.54,3.17-3.54,7.08-3.54,7.08,1.59,7.08,3.54Z"/>
      <path class="cls-14" d="M233.41,142.7c0,.9-.73,1.63-1.63,1.63h0c-.91,0-1.64-.73-1.64-1.63v-27.11c0-.9.73-1.63,1.64-1.63h0c.9,0,1.63.73,1.63,1.63v27.11Z"/>
    </g>
    <g>
      <path class="cls-14" d="M258.57,113.96c0,1.95-3.17,3.54-7.08,3.54s-7.08-1.59-7.08-3.54,3.17-3.54,7.08-3.54,7.08,1.59,7.08,3.54Z"/>
      <path class="cls-14" d="M254.76,142.7c0,.9-.73,1.63-1.63,1.63h0c-.91,0-1.63-.73-1.63-1.63v-27.11c0-.9.73-1.63,1.63-1.63h0c.9,0,1.63.73,1.63,1.63v27.11Z"/>
    </g>
  </g>
  <g>
    <g>
      <path class="cls-2" d="M223.35,188.42c0,6.69-5.42,12.11-12.11,12.11s-12.11-5.42-12.11-12.11,5.42-12.11,12.11-12.11,12.11,5.42,12.11,12.11Z"/>
      <path class="cls-11" d="M219.49,188.42c0,4.56-3.69,8.25-8.25,8.25s-8.25-3.69-8.25-8.25,3.7-8.25,8.25-8.25,8.25,3.69,8.25,8.25Z"/>
    </g>
    <g>
      <path class="cls-2" d="M282.5,188.42c0,6.69-5.42,12.11-12.11,12.11s-12.11-5.42-12.11-12.11,5.42-12.11,12.11-12.11,12.11,5.42,12.11,12.11Z"/>
      <path class="cls-11" d="M278.64,188.42c0,4.56-3.69,8.25-8.25,8.25s-8.25-3.69-8.25-8.25,3.7-8.25,8.25-8.25,8.25,3.69,8.25,8.25Z"/>
    </g>
  </g>
  <path class="cls-2" d="M199.13,289.4c0,2.31-.58,4.17-1.31,4.17s-1.3-1.86-1.3-4.17.58-4.16,1.3-4.16,1.31,1.86,1.31,4.16Z"/>
  <path class="cls-2" d="M208.57,300.88c0,2.3-.58,4.16-1.3,4.16s-1.3-1.86-1.3-4.16.58-4.17,1.3-4.17,1.3,1.87,1.3,4.17Z"/>
  <path class="cls-2" d="M221.33,289.4c0,2.31-.58,4.17-1.3,4.17s-1.3-1.86-1.3-4.17.58-4.16,1.3-4.16,1.3,1.86,1.3,4.16Z"/>
  <path class="cls-2" d="M230.93,300.88c0,2.3-.58,4.16-1.3,4.16s-1.3-1.86-1.3-4.16.58-4.17,1.3-4.17,1.3,1.87,1.3,4.17Z"/>
  <path class="cls-2" d="M243.54,289.4c0,2.31-.58,4.17-1.3,4.17s-1.3-1.86-1.3-4.17.58-4.16,1.3-4.16,1.3,1.86,1.3,4.16Z"/>
  <path class="cls-2" d="M253.29,300.88c0,2.3-.58,4.16-1.3,4.16s-1.3-1.86-1.3-4.16.58-4.17,1.3-4.17,1.3,1.87,1.3,4.17Z"/>
  <path class="cls-2" d="M265.74,289.4c0,2.31-.58,4.17-1.3,4.17s-1.3-1.86-1.3-4.17.58-4.16,1.3-4.16,1.3,1.86,1.3,4.16Z"/>
  <path class="cls-2" d="M287.94,289.4c0,2.31-.58,4.17-1.3,4.17s-1.3-1.86-1.3-4.17.58-4.16,1.3-4.16,1.3,1.86,1.3,4.16Z"/>
  <path class="cls-2" d="M275.65,300.88c0,2.3-.58,4.16-1.3,4.16s-1.3-1.86-1.3-4.16.58-4.17,1.3-4.17,1.3,1.87,1.3,4.17Z"/>
  <path class="cls-1" d="M323.01,211.4c0,3.8-1.87,6.89-4.17,6.89s-4.17-3.09-4.17-6.89,1.87-6.89,4.17-6.89,4.17,3.08,4.17,6.89Z"/>
  <path class="cls-1" d="M167.75,211.4c0,3.8-1.86,6.89-4.16,6.89s-4.17-3.09-4.17-6.89,1.86-6.89,4.17-6.89,4.16,3.08,4.16,6.89Z"/>
  <g>
    <path class="cls-4" d="M223.16,436.36c0,2.34-10.63,3.27-23.27,3.27s-23.34-2.4-23.34-4.73,10.71-3.72,23.34-3.72,23.27,2.85,23.27,5.19Z"/>
    <path class="cls-3" d="M151.72,345.87s30.87,102.85,46.51,114.34c15.64,11.48,3.53-2.92,40.56-85.65"/>
    <g>
      <path class="cls-4" d="M211.96,459.61c4.29-4.51,8.22-11.78,10.81-22.83-16.13,3.93-34.06,1.32-45.75-1.38,2.19,5.57,4.62,11.44,6.93,16.38-16.45.51-29.52,8.03-29.52,17.24s14.01,10.98,31.29,10.98,31.3-1.46,31.3-10.98c0-3.47-1.86-6.7-5.05-9.41Z"/>
      <path class="cls-6" d="M190.66,454.54s11.65.2,16.21,4.86"/>
    </g>
    <path d="M176.55,402.03s7.25,23.44,14.11,25.65l6.87,2.2"/>
  </g>
  <g>
    <path class="cls-4" d="M260.36,436.36c0,2.34,10.63,3.27,23.27,3.27s23.33-2.4,23.33-4.73-10.7-3.72-23.33-3.72-23.27,2.85-23.27,5.19Z"/>
    <path class="cls-3" d="M331.8,345.87s-30.87,102.85-46.51,114.34c-15.64,11.48-3.52-2.92-40.56-85.65"/>
    <g>
      <path class="cls-4" d="M271.55,459.61c-4.29-4.51-8.22-11.78-10.81-22.83,16.13,3.93,34.07,1.32,45.75-1.38-2.19,5.57-4.62,11.44-6.93,16.38,16.45.51,29.52,8.03,29.52,17.24s-14.01,10.98-31.29,10.98-31.3-1.46-31.3-10.98c0-3.47,1.86-6.7,5.06-9.41Z"/>
      <path class="cls-6" d="M292.85,454.54s-11.64.2-16.2,4.86"/>
    </g>
    <path d="M306.96,402.03s-7.24,23.44-14.11,25.65l-6.86,2.2"/>
  </g>
  <path class="cls-3" d="M233.62,310.01c-61.96,0-93.79-8.6-109.86-16.26,6.76,73.33,35.65,127.79,116.83,127.79s110.72-55.7,117.04-130.28c-18.22,8.13-55.18,18.75-124.01,18.75Z"/>
  <path class="cls-11" d="M321.03,315.42s24.73-7.37,28.24-8.97c0,0-9.41,71.65-45.33,92.19,0,0,24.05-33.52,17.09-83.22Z"/>
  <path class="cls-11" d="M301.74,400.84s-10.06,6.6-19.99,9.69c-9.93,3.08,19.99-9.69,19.99-9.69Z"/>
  <g>
    <path class="cls-14" d="M180.05,370.52c-.77,0-1.43-.22-1.86-.66-.49-.38-.71-1.04-.71-2.03,0-.88.22-1.54.71-1.97.44-.38,1.1-.6,1.92-.6h34.1c.82,0,1.48.22,1.97.6.44.44.66,1.1.66,1.97,0,.99-.22,1.64-.66,2.03-.49.44-1.15.66-1.97.66h-34.16ZM207.84,357.04c0,1.53-.27,2.69-.82,3.45-.55.77-1.75,1.15-3.62,1.15h-13.1c-1.64,0-2.85-.27-3.62-.82-.82-.55-1.21-1.7-1.21-3.46v-13.21h-.38c-.88,0-1.48-.22-1.92-.71-.44-.44-.66-1.04-.66-1.86,0-.71.22-1.32.71-1.86.44-.44,1.1-.71,1.97-.71h5.04c.93,0,1.75.16,2.41.44.66.33.99.93.99,1.86v5.65h6.09v-3.95h-.49c-.49,0-.88-.27-1.15-.88-.33-.55-.49-1.15-.44-1.81,0-.6.22-1.15.66-1.7.38-.44.99-.71,1.86-.71h5.1c.93,0,1.59.22,2.03.55.33.38.55,1.04.55,1.97v16.61ZM198.96,356.65c.27,0,.49,0,.6-.11.11-.06.16-.27.16-.71v-3.62h-6.09v3.62c0,.44.05.66.16.71.06.11.27.11.6.11h4.55Z"/>
    <path class="cls-14" d="M240.42,358.35c1.81,0,2.74.99,2.74,2.85v6.25h12.72c.82,0,1.48.22,1.97.6.44.44.66,1.1.66,1.97,0,.99-.22,1.64-.66,2.03-.49.44-1.15.66-1.97.66h-34.16c-.77,0-1.43-.22-1.86-.66-.49-.39-.71-1.04-.71-2.03,0-.88.22-1.53.71-1.97.44-.38,1.1-.6,1.92-.6h13.21v-3.84h-.71c-.88,0-1.54-.22-1.97-.71-.55-.44-.77-1.1-.77-1.92,0-.71.16-1.32.6-1.86.33-.49,1.04-.77,2.03-.77h6.25ZM235.59,346.57v3.23c0,.33.05.6.27.77.11.22.44.27.88.27h9.38c.82,0,1.48.27,1.97.71.44.55.71,1.15.71,1.86,0,1.81-.93,2.69-2.69,2.69h-14.2c-1.59,0-2.74-.27-3.4-.93-.77-.55-1.1-1.76-1.1-3.51v-5.1h-.6c-.66,0-1.15-.27-1.48-.88-.33-.55-.49-1.15-.49-1.81,0-.71.22-1.32.71-1.86.44-.44,1.04-.71,1.92-.71h12.45v-3.4c0-.55-.33-.88-.88-.88h-9.1c-.82,0-1.43-.16-1.86-.6-.44-.38-.66-1.04-.66-2.03,0-1.76.82-2.63,2.52-2.63h13.71c1.75,0,2.91.38,3.56,1.15.55.77.88,1.97.88,3.62v7.35c0,.99-.27,1.64-.71,2.03-.49.44-1.15.66-1.92.66h-9.87Z"/>
    <path class="cls-14" d="M262.68,349.58c-.77,0-1.32-.22-1.75-.77-.49-.44-.71-1.1-.71-1.92,0-.71.22-1.32.66-1.86.38-.44,1.04-.71,2.03-.71h17.11c.82,0,1.48.22,2.03.66.44.44.66,1.1.66,1.92-.05.82-.27,1.48-.71,1.92-.49.55-1.15.77-1.97.77h-8.66v7.95c0,.44.06.66.22.77.11.11.38.17.71.17h7.68c.82,0,1.48.27,1.97.71.44.55.71,1.15.71,1.86,0,.77-.27,1.43-.71,1.92-.49.55-1.15.77-1.97.77h-12.56c-1.59,0-2.69-.33-3.29-1.1-.66-.71-.93-1.86-.93-3.51v-9.54h-.49ZM296.51,336.37c.93,0,1.64.22,2.08.55.44.38.66.99.66,1.86v30.04c0,1.54-.33,2.63-.93,3.4-.66.77-1.86,1.15-3.67,1.15h-1.59c-.71,0-1.21-.16-1.48-.55-.33-.33-.49-.77-.49-1.43v-29.77h-.77c-.88,0-1.48-.22-1.86-.71-.44-.44-.66-1.1-.66-1.92,0-.71.22-1.32.66-1.86.38-.49.99-.77,1.86-.77h6.2Z"/>
  </g>
  <g>
    <path class="cls-11" d="M179.2,384.44h.38c.49,0,1.05.1,1.05.72,0,.54-.47.65-.99.65h-.44v-1.37ZM178.62,386.27h1.07c.82,0,1.54-.2,1.54-1.06,0-.58-.39-.94-.93-.98v-.02c.51-.12.82-.4.82-.95,0-.75-.58-1.01-1.41-1.01h-1.1v4.02ZM179.2,382.71h.61c.33,0,.74.13.74.61,0,.59-.48.65-1.03.65h-.32v-1.25Z"/>
    <path class="cls-11" d="M182.13,386.27h.55s0-1.34,0-1.34c0-.74.31-1.2.8-1.2.09,0,.2.02.3.04v-.47c-.12-.03-.19-.05-.36-.04-.31,0-.62.22-.77.52h-.01s0-.45,0-.45h-.51v2.95Z"/>
    <path class="cls-11" d="M185.69,383.26c.89,0,1.49.65,1.49,1.55,0,.85-.61,1.54-1.5,1.54s-1.5-.69-1.5-1.54c0-.9.6-1.55,1.51-1.55ZM185.69,385.91c.62,0,.91-.58.91-1.1,0-.56-.34-1.11-.91-1.1-.58,0-.93.54-.93,1.11,0,.52.28,1.1.93,1.1Z"/>
    <path class="cls-11" d="M189.66,385.13c0,.44-.28.78-.82.78-.24,0-.54-.16-.54-.48,0-.52.72-.56,1.03-.56.11,0,.23,0,.34,0v.25ZM188.08,384c.21-.19.55-.3.85-.3.54,0,.72.26.72.77-.21-.02-.36-.02-.57-.02-.57,0-1.37.23-1.37.97,0,.65.44.92,1.08.92.49,0,.78-.27.91-.45h.01v.38s.51,0,.51,0c-.01-.08-.03-.24-.03-.57v-1.22c0-.81-.33-1.22-1.19-1.21-.37,0-.69.11-.96.28l.03.46Z"/>
    <path class="cls-11" d="M191.5,384.79c-.02-.54.22-1.09.8-1.09s.88.56.88,1.11c0,.5-.25,1.09-.87,1.09-.58,0-.83-.65-.81-1.11ZM193.2,386.27h.53v-4.33s-.54,0-.54,0v1.79h-.02c-.16-.27-.46-.48-.97-.47-.85,0-1.27.7-1.27,1.49s.38,1.59,1.27,1.59c.52,0,.85-.27,1-.48h.01v.41Z"/>
    <path class="cls-11" d="M196.56,383.38c-.16-.06-.44-.11-.66-.11-.9,0-1.5.65-1.5,1.54,0,.85.61,1.54,1.5,1.54.2,0,.46-.02.68-.12l-.05-.49c-.16.12-.4.17-.58.17-.71,0-.99-.58-.99-1.1,0-.56.35-1.1.95-1.1.17,0,.38.04.58.13l.05-.45Z"/>
    <path class="cls-11" d="M198.96,385.13c0,.44-.28.78-.82.78-.25,0-.55-.17-.55-.48,0-.52.73-.56,1.02-.56.12,0,.23,0,.35,0v.25ZM197.38,384c.21-.19.55-.3.86-.3.53,0,.72.26.72.77-.22-.02-.36-.02-.58-.02-.56,0-1.37.24-1.37.97,0,.65.44.92,1.08.92.5,0,.79-.27.92-.45h0v.37h.52c-.02-.08-.03-.24-.03-.57v-1.22c0-.81-.33-1.22-1.18-1.21-.38,0-.7.11-.98.28l.04.46Z"/>
    <path class="cls-11" d="M200.17,386.19c.25.12.54.16.81.16.53,0,1.03-.29,1.03-.92,0-.95-1.28-.77-1.28-1.37,0-.25.24-.36.52-.36.13,0,.46.07.57.15l.05-.48c-.22-.06-.42-.12-.68-.12-.58,0-1.04.3-1.04.91,0,.83,1.28.78,1.28,1.32,0,.31-.31.42-.56.42-.15,0-.46-.07-.67-.21l-.04.49Z"/>
    <path class="cls-11" d="M204.23,383.33h-.78v-.85s-.54.17-.54.17v.68h-.67v.44h.67v1.73c0,.58.34.85.9.85.18,0,.34-.05.47-.08v-.46c-.08.06-.2.1-.37.1-.25,0-.46-.18-.46-.52v-1.62h.78v-.44Z"/>
    <path class="cls-11" d="M204.98,386.27h.55v-2.94h-.55v2.94ZM205.56,382.06h-.62v.61h.62v-.61Z"/>
    <path class="cls-11" d="M206.52,383.33h.53v.47s0,0,0,0c.17-.33.56-.54.96-.54.77,0,1.1.47,1.1,1.27v1.74h-.54v-1.52c0-.69-.15-1.02-.62-1.05-.62,0-.9.49-.9,1.21v1.36h-.55v-2.94Z"/>
    <path class="cls-11" d="M212.65,386.15c0,.9-.46,1.41-1.51,1.41-.32,0-.59-.04-1.07-.2l.06-.5c.42.19.67.27,1.07.27.56,0,.91-.39.91-1.02v-.28h-.02c-.23.3-.61.44-.98.44-.84,0-1.25-.68-1.25-1.45,0-.76.42-1.57,1.31-1.57.52,0,.81.19.97.51h.01v-.44h.5v2.82ZM212.11,384.84c0-.62-.28-1.14-.86-1.14-.55,0-.82.59-.82,1.1,0,.55.31,1.03.82,1.03s.86-.45.86-.99Z"/>
    <path class="cls-11" d="M218.02,382.91c-.25-.16-.54-.23-.83-.23-.93,0-1.55.67-1.55,1.58s.68,1.57,1.52,1.57c.29,0,.67-.07.87-.19l.04.56c-.3.13-.68.15-.92.15-1.27,0-2.12-.82-2.12-2.1,0-1.24.9-2.07,2.13-2.07.31,0,.62.04.91.17l-.05.57Z"/>
    <path class="cls-11" d="M219.08,384.8c0-.56.35-1.1.93-1.1s.92.54.92,1.1c0,.52-.28,1.1-.92,1.1-.65,0-.93-.58-.93-1.1ZM218.51,384.8c0,.85.62,1.54,1.51,1.54.88,0,1.49-.69,1.49-1.54,0-.9-.6-1.55-1.49-1.55s-1.51.65-1.51,1.55Z"/>
    <path class="cls-11" d="M222.25,383.33h.51v.47h.01c.17-.33.56-.54.97-.54.77,0,1.11.48,1.11,1.28v1.74s-.54,0-.54,0v-1.52c0-.69-.15-1.02-.63-1.05-.61,0-.9.49-.9,1.21v1.36h-.53v-2.94Z"/>
    <path class="cls-11" d="M227.33,383.33h-.78v-.85l-.54.17v.68h-.66v.44s.66,0,.66,0v1.73c0,.58.34.85.9.85.17,0,.35-.04.47-.08v-.46c-.08.06-.2.1-.37.1-.24,0-.46-.18-.46-.53v-1.62h.78v-.44Z"/>
    <path class="cls-11" d="M228.39,384.52c.04-.39.26-.82.79-.82.46,0,.73.37.73.82h-1.53ZM230.27,385.61c-.13.11-.55.3-.91.3-.51,0-.97-.4-.97-.98h2.11c0-.95-.32-1.67-1.31-1.67-.82,0-1.38.62-1.37,1.49,0,.95.48,1.59,1.53,1.59.48,0,.72-.11.93-.19v-.55Z"/>
    <path class="cls-11" d="M231.22,383.33h.53v.47h0c.17-.33.56-.54.97-.54.76,0,1.1.48,1.1,1.28v1.74h-.54v-1.52c0-.69-.15-1.02-.62-1.05-.62,0-.89.49-.89,1.21v1.36h-.55v-2.94Z"/>
    <path class="cls-11" d="M236.32,383.33h-.79v-.85l-.54.17v.68s-.66,0-.66,0v.44h.66v1.73c0,.58.35.85.91.85.17,0,.34-.04.46-.08v-.47c-.07.06-.2.1-.37.1-.25,0-.46-.18-.46-.52v-1.62h.79v-.44Z"/>
    <path class="cls-11" d="M239.2,382.75h.48c.36,0,.89.19.89.7s-.44.72-.8.72h-.57v-1.41ZM238.62,386.27h.58v-1.6h.57c.73,0,1.42-.32,1.42-1.22s-.69-1.2-1.51-1.2h-1.06v4.02Z"/>
    <path class="cls-11" d="M241.81,386.27h.55v-1.34c0-.74.32-1.2.81-1.2.09,0,.2.02.29.04v-.47c-.11-.03-.19-.05-.36-.05-.31,0-.62.22-.76.52h-.02v-.45h-.51v2.94Z"/>
    <path class="cls-11" d="M243.86,384.8c0,.85.61,1.54,1.5,1.54.87,0,1.49-.69,1.49-1.54,0-.9-.6-1.54-1.49-1.55-.91,0-1.51.65-1.51,1.55ZM244.45,384.8c0-.56.34-1.1.92-1.11.57,0,.91.55.91,1.11,0,.52-.28,1.1-.91,1.1-.65,0-.92-.58-.92-1.1Z"/>
    <path class="cls-11" d="M247.59,386.27h.54v-1.48c0-.55.22-1.09.78-1.09.43,0,.52.46.52.82v1.75h.54v-1.48c0-.55.22-1.1.78-1.09.44,0,.52.46.52.82v1.75h.54v-1.88c0-.64-.27-1.13-1.02-1.13-.27,0-.71.15-.91.57-.16-.4-.5-.58-.83-.58-.43,0-.73.16-.94.5h0v-.43h-.51v2.94Z"/>
    <path class="cls-11" d="M252.53,384.8c0,.85.61,1.54,1.5,1.54.89,0,1.51-.69,1.51-1.54,0-.9-.61-1.55-1.5-1.55s-1.5.65-1.5,1.55ZM253.1,384.8c0-.56.35-1.11.92-1.1.58,0,.93.54.93,1.1,0,.52-.29,1.1-.93,1.1-.64,0-.93-.58-.93-1.1Z"/>
    <path class="cls-11" d="M257.82,383.33h-.79v-.85l-.54.17v.68h-.66v.44s.66,0,.66,0v1.73c0,.58.35.85.91.85.17,0,.35-.04.47-.08v-.46c-.08.06-.2.1-.37.1-.25,0-.46-.18-.46-.53v-1.62h.78v-.44Z"/>
    <path class="cls-11" d="M258.56,383.33h.55v2.94h-.55v-2.94ZM259.15,382.67h-.61v-.61h.61v.61Z"/>
    <path class="cls-11" d="M259.9,384.8c0,.85.62,1.54,1.5,1.54s1.5-.69,1.5-1.54c0-.9-.6-1.55-1.5-1.55s-1.5.65-1.5,1.55ZM260.48,384.8c0-.56.35-1.1.92-1.11.58,0,.92.55.92,1.11,0,.52-.29,1.1-.92,1.1-.64,0-.92-.58-.92-1.1Z"/>
    <path class="cls-11" d="M263.64,383.33h.53v.47h.01c.16-.33.55-.54.96-.54.76,0,1.1.48,1.1,1.27v1.74s-.54,0-.54,0v-1.52c0-.69-.15-1.03-.62-1.05-.62,0-.9.49-.89,1.21v1.36h-.55v-2.94Z"/>
    <path class="cls-11" d="M268.78,382.25h2.14v.5h-1.57v1.18h1.49v.51h-1.49v1.83s-.57,0-.57,0v-4.02Z"/>
    <path class="cls-11" d="M272.04,384.8c0-.56.33-1.1.92-1.1s.91.54.91,1.1c0,.52-.28,1.1-.91,1.1s-.92-.58-.92-1.1ZM271.46,384.8c0,.85.61,1.54,1.5,1.54.89,0,1.49-.69,1.49-1.54,0-.9-.6-1.55-1.49-1.55s-1.5.65-1.5,1.55Z"/>
    <path class="cls-11" d="M277.79,386.27h-.53v-.46h-.01c-.17.33-.56.53-.97.53-.76,0-1.1-.48-1.1-1.27v-1.75s.54,0,.54,0v1.52c0,.69.15,1.03.62,1.05.62,0,.91-.5.91-1.21v-1.36h.54s0,2.94,0,2.94Z"/>
    <path class="cls-11" d="M278.71,386.27h.54v-1.36c0-.72.28-1.21.89-1.22.47.03.63.37.63,1.05v1.52h.54v-1.74c0-.8-.34-1.27-1.1-1.27-.41,0-.8.2-.96.54h-.02v-.47h-.53v2.94Z"/>
    <path class="cls-11" d="M282.62,384.79c-.01-.53.23-1.09.81-1.09s.87.56.87,1.11c0,.5-.25,1.09-.87,1.09-.58,0-.82-.65-.81-1.11ZM284.33,386.27h.51v-4.33h-.54v1.79s0,0,0,0c-.17-.27-.47-.48-.98-.47-.86,0-1.27.7-1.27,1.49s.37,1.59,1.26,1.59c.53,0,.86-.27,1.01-.48h.02s0,.41,0,.41Z"/>
    <path class="cls-11" d="M287.52,385.12c0,.45-.28.78-.82.78-.24,0-.55-.17-.55-.48,0-.52.73-.56,1.02-.56.11,0,.23,0,.35,0v.25ZM285.93,384c.23-.19.55-.3.86-.3.55,0,.73.26.73.77-.22-.01-.35-.01-.58-.01-.55,0-1.36.23-1.36.97,0,.65.45.92,1.08.92.5,0,.79-.27.92-.45h.02v.37s.5,0,.5,0c0-.08-.02-.24-.02-.57v-1.22c0-.81-.34-1.22-1.18-1.22-.37,0-.7.12-.97.28l.02.46Z"/>
    <path class="cls-11" d="M290.54,383.76h-.78s0,1.62,0,1.62c0,.34.21.53.45.53.17,0,.29-.05.38-.1v.46c-.12.04-.29.08-.46.08-.55,0-.91-.27-.91-.85v-1.73h-.67v-.44h.67v-.68l.54-.17v.85h.78v.44Z"/>
    <path class="cls-11" d="M291.87,382.06h-.61v.61s.61,0,.61,0v-.61ZM291.29,386.27h.55v-2.94h-.55v2.94Z"/>
    <path class="cls-11" d="M293.21,384.8c0-.56.35-1.11.93-1.11.57,0,.91.55.91,1.11,0,.52-.27,1.1-.91,1.1s-.93-.58-.93-1.1ZM292.63,384.8c0,.85.61,1.54,1.5,1.54.88,0,1.49-.69,1.49-1.54,0-.9-.6-1.55-1.5-1.55s-1.5.65-1.5,1.55Z"/>
    <path class="cls-11" d="M296.37,383.33h.51v.47h.02c.16-.33.56-.54.97-.54.76,0,1.09.47,1.09,1.27v1.74h-.53v-1.52c0-.69-.16-1.02-.62-1.05-.62,0-.89.5-.89,1.22v1.36h-.54v-2.94Z"/>
  </g>
  <g>
    <path class="cls-2" d="M277.07,228.06c1.67,20.19-13.35,37.92-33.54,39.59-20.19,1.68-37.92-13.34-39.59-33.53-1.67-20.19,13.34-37.92,33.53-39.59,20.19-1.68,37.92,13.33,39.6,33.53Z"/>
    <g>
      <path class="cls-10" d="M256.21,224c.35,12.12-6.9,22.15-16.18,22.42-9.28.27-17.5-8.95-17.85-21.06-.03-1.15-.62-6.75-.62-6.75l17.63,5.33,16.56-6.24s.42,5.02.46,6.31Z"/>
      <g>
        <path class="cls-16" d="M252.38,206.17c.13,4.88-5.83,10.8-13.36,11-7.53.2-13.79-5.39-13.93-10.27-.13-4.89,5.88-9,13.41-9.2,7.53-.2,13.75,3.58,13.88,8.47Z"/>
        <line class="cls-9" x1="239.19" y1="223.94" x2="238.94" y2="214.5"/>
        <line class="cls-9" x1="239.19" y1="223.94" x2="221.57" y2="218.6"/>
        <line class="cls-9" x1="239.19" y1="223.94" x2="255.76" y2="217.7"/>
      </g>
      <path class="cls-8" d="M233.5,231.95c-3.17,1.2-5.89,2.98-8.09,5.1,3.29,5.83,8.76,9.52,14.68,9.35,6.31-.18,11.68-4.88,14.36-11.68-4.99-4.42-13.16-5.74-20.95-2.77Z"/>
    </g>
  </g>
  <g>
    <path class="cls-15" d="M220.92,275.93c0,14.17-11.49,25.65-25.66,25.65h-87.79c-14.16,0-25.65-11.48-25.65-25.65v-22.8c0-14.17,11.49-25.65,25.65-25.65h87.79c14.17,0,25.66,11.48,25.66,25.65v22.8Z"/>
    <polygon class="cls-15" points="101.62 249.26 20 208.89 20 312.77 101.62 283.79 101.62 249.26"/>
    <path class="cls-2" d="M216.72,264.54c0,18.04-14.63,32.66-32.67,32.66s-32.68-14.62-32.68-32.66,14.64-32.68,32.68-32.68,32.67,14.62,32.67,32.68"/>
    <path class="cls-15" d="M150,264.54c0-18.77,15.28-34.05,34.05-34.05s34.05,15.28,34.05,34.05-15.28,34.04-34.05,34.04-34.05-15.27-34.05-34.04M152.74,264.54c0,17.26,14.05,31.29,31.31,31.29s31.3-14.04,31.3-31.29-14.04-31.31-31.3-31.31-31.31,14.05-31.31,31.31"/>
    <path class="cls-15" d="M200.65,264.54c0,9.17-7.44,16.6-16.61,16.6s-16.62-7.43-16.62-16.6,7.45-16.62,16.62-16.62,16.61,7.44,16.61,16.62"/>
    <path class="cls-2" d="M166.73,264.54c0-9.55,7.77-17.32,17.32-17.32s17.31,7.77,17.31,17.32-7.77,17.3-17.31,17.3-17.32-7.76-17.32-17.3M168.13,264.54c0,8.77,7.14,15.9,15.92,15.9s15.91-7.13,15.91-15.9-7.14-15.92-15.91-15.92-15.92,7.14-15.92,15.92"/>
    <path class="cls-12" d="M182.75,244.43v-7.64c-6.69.31-12.76,2.97-17.4,7.2l5.39,5.41c3.24-2.86,7.41-4.68,12-4.97"/>
    <path class="cls-12" d="M168.91,251.23l-5.39-5.4c-4.22,4.64-6.89,10.71-7.2,17.41h7.63c.29-4.59,2.11-8.76,4.96-12.01"/>
    <path class="cls-12" d="M197.35,249.4l5.4-5.4c-4.64-4.23-10.7-6.89-17.4-7.2v7.64c4.59.29,8.75,2.11,12,4.97"/>
    <path class="cls-12" d="M204.14,263.24h7.63c-.31-6.7-2.97-12.77-7.19-17.41l-5.4,5.4c2.84,3.24,4.67,7.42,4.96,12.01"/>
    <path class="cls-12" d="M204.14,265.83c-.28,4.58-2.11,8.76-4.96,12l5.4,5.4c4.22-4.64,6.89-10.71,7.19-17.4h-7.63Z"/>
    <path class="cls-12" d="M185.35,284.63v7.64c6.69-.32,12.76-2.98,17.4-7.2l-5.4-5.4c-3.25,2.85-7.42,4.67-12,4.96"/>
    <path class="cls-12" d="M170.75,279.67l-5.4,5.4c4.64,4.22,10.71,6.89,17.4,7.2v-7.63c-4.6-.3-8.76-2.12-12-4.97"/>
    <path class="cls-12" d="M163.94,265.83h-7.63c.31,6.69,2.98,12.76,7.2,17.4l5.39-5.4c-2.85-3.25-4.67-7.42-4.96-12"/>
    <path class="cls-2" d="M147.76,267.44c0,11.93-9.66,21.6-21.59,21.6s-21.6-9.67-21.6-21.6,9.66-21.59,21.6-21.59,21.59,9.67,21.59,21.59"/>
    <path class="cls-15" d="M103.66,267.44c0-12.41,10.1-22.5,22.5-22.5s22.5,10.09,22.5,22.5-10.09,22.5-22.5,22.5-22.5-10.09-22.5-22.5M105.48,267.44c0,11.41,9.29,20.69,20.69,20.69s20.69-9.28,20.69-20.69-9.28-20.69-20.69-20.69-20.69,9.28-20.69,20.69"/>
    <path class="cls-15" d="M137.15,267.44c0,6.07-4.92,10.98-10.99,10.98s-10.99-4.91-10.99-10.98,4.92-10.97,10.99-10.97,10.99,4.91,10.99,10.97"/>
    <path class="cls-2" d="M114.72,267.44c0-6.3,5.13-11.43,11.45-11.43s11.45,5.13,11.45,11.43-5.13,11.44-11.45,11.44-11.45-5.13-11.45-11.44M115.64,267.44c0,5.8,4.72,10.52,10.53,10.52s10.52-4.72,10.52-10.52-4.72-10.51-10.52-10.51-10.53,4.72-10.53,10.51"/>
    <path class="cls-12" d="M125.31,254.15v-5.05c-4.42.21-8.43,1.98-11.5,4.77l3.57,3.57c2.15-1.89,4.9-3.09,7.94-3.28"/>
    <path class="cls-12" d="M116.16,258.65l-3.57-3.57c-2.8,3.07-4.55,7.07-4.75,11.5h5.03c.19-3.03,1.39-5.78,3.29-7.94"/>
    <path class="cls-12" d="M134.96,257.43l3.57-3.57c-3.07-2.79-7.08-4.56-11.51-4.77v5.05c3.04.2,5.78,1.39,7.94,3.28"/>
    <path class="cls-12" d="M139.45,266.58h5.03c-.2-4.43-1.96-8.44-4.75-11.5l-3.57,3.57c1.89,2.15,3.1,4.91,3.29,7.94"/>
    <path class="cls-12" d="M139.45,268.29c-.19,3.03-1.4,5.79-3.29,7.93l3.57,3.57c2.79-3.07,4.55-7.07,4.75-11.5h-5.03Z"/>
    <path class="cls-12" d="M127.02,280.74v5.04c4.43-.21,8.44-1.97,11.49-4.77l-3.56-3.56c-2.16,1.89-4.9,3.09-7.94,3.29"/>
    <path class="cls-12" d="M117.37,277.45l-3.56,3.57c3.06,2.79,7.07,4.55,11.49,4.76v-5.04c-3.04-.2-5.79-1.4-7.94-3.29"/>
    <path class="cls-12" d="M112.88,268.29h-5.04c.2,4.43,1.95,8.43,4.75,11.5l3.57-3.57c-1.9-2.14-3.1-4.9-3.29-7.93"/>
    <path class="cls-12" d="M102.31,235.89h4.52v-18.82c.02-.06.79-5.91,12.72-5.91h28.21v-4.52h-28.21c-16.37,0-17.21,9.87-17.24,10.29v18.97Z"/>
    <path class="cls-12" d="M159.44,207.47c0,4.67-3.79,8.47-8.48,8.47h-16.32c-4.68,0-8.47-3.8-8.47-8.47s3.79-8.47,8.47-8.47h16.32c4.68,0,8.48,3.79,8.48,8.47"/>
  </g>
  <g>
    <path class="cls-3" d="M282.81,332.94c-25.51-6.18-60.56-24.92-57.66-36.88,2.89-11.95,42.63-12.59,68.15-6.41,25.51,6.18,32.84,18.21,29.95,30.17-2.9,11.95-14.92,19.3-40.43,13.12Z"/>
    <path class="cls-4" d="M218.19,275.46l2.22.99c.4-2.05,1.54-3.71,3.28-4.41,3.15-1.25,7.06,1.14,8.73,5.34l1.45,3.63c.28.73.43,1.74.45,2.89l8.78-.88-8.92,31.12-11.61-9.42c-3.08.89-6.48.75-9.65-.65l-6.18-2.74c-7.15-3.16-10.37-11.51-7.21-18.66,3.16-7.15,11.51-10.38,18.66-7.21Z"/>
    <path d="M312.91,310.89s-.33-14.86-61.61-19.88"/>
  </g>
</svg>