<?xml version="1.0" encoding="UTF-8"?>
<svg id="_레이어_1" data-name="레이어_1" xmlns="http://www.w3.org/2000/svg" viewBox="0 0 500 500">
  <defs>
    <style>
      .cls-1, .cls-2, .cls-3, .cls-4, .cls-5, .cls-6, .cls-7, .cls-8, .cls-9, .cls-10, .cls-11, .cls-12 {
        fill: #fff;
      }

      .cls-1, .cls-13 {
        opacity: .2;
      }

      .cls-14 {
        fill: #e50012;
      }

      .cls-14, .cls-15 {
        opacity: .7;
      }

      .cls-16 {
        stroke-width: .24px;
      }

      .cls-16, .cls-17, .cls-4, .cls-6, .cls-7, .cls-18, .cls-10, .cls-19, .cls-12, .cls-20 {
        stroke: #231815;
      }

      .cls-16, .cls-2, .cls-4, .cls-21, .cls-5, .cls-22, .cls-6, .cls-18, .cls-9, .cls-11, .cls-19, .cls-12 {
        stroke-miterlimit: 10;
      }

      .cls-16, .cls-23, .cls-18, .cls-24, .cls-19, .cls-20 {
        fill: none;
      }

      .cls-25 {
        fill: #231815;
      }

      .cls-17, .cls-2, .cls-4, .cls-23, .cls-11, .cls-24, .cls-19, .cls-20 {
        stroke-linecap: round;
      }

      .cls-17, .cls-21 {
        stroke-width: .84px;
      }

      .cls-17, .cls-23, .cls-7, .cls-10, .cls-24, .cls-20 {
        stroke-linejoin: round;
      }

      .cls-17, .cls-26 {
        fill: #ed1c2e;
      }

      .cls-2 {
        stroke-width: .11px;
      }

      .cls-2, .cls-5, .cls-9, .cls-11 {
        stroke: #e3007f;
      }

      .cls-27 {
        opacity: .3;
      }

      .cls-4, .cls-6, .cls-10, .cls-12 {
        stroke-width: 1.92px;
      }

      .cls-28, .cls-8 {
        opacity: .4;
      }

      .cls-21, .cls-22 {
        fill: #f4b7d2;
        stroke: #f09bc0;
      }

      .cls-5 {
        stroke-width: .76px;
      }

      .cls-29 {
        fill: #ec008c;
      }

      .cls-23 {
        stroke: #000;
        stroke-width: .9px;
      }

      .cls-30 {
        fill: #bed73d;
      }

      .cls-31 {
        fill: #e3007f;
      }

      .cls-22 {
        stroke-width: .43px;
      }

      .cls-32 {
        fill: #9c0008;
      }

      .cls-7 {
        stroke-width: 1.45px;
      }

      .cls-33 {
        fill: #808e02;
      }

      .cls-18 {
        stroke-width: .12px;
      }

      .cls-34 {
        fill: #eaeadd;
      }

      .cls-9 {
        stroke-width: .39px;
      }

      .cls-35 {
        fill: #00aee7;
      }

      .cls-11 {
        stroke-width: .22px;
      }

      .cls-36 {
        fill: #040000;
      }

      .cls-24 {
        stroke: #221714;
        stroke-width: 1.51px;
      }

      .cls-15 {
        fill: #009fe8;
      }

      .cls-19 {
        stroke-width: 1.97px;
      }

      .cls-12 {
        opacity: .5;
      }

      .cls-20 {
        stroke-width: .96px;
      }
    </style>
  </defs>
  <g>
    <g>
      <path class="cls-33" d="M143.96,222.14s-9.33-51.59-45.2-42.15c-35.86,9.44-85.82,56.87-71.22,61.47,14.6,4.59,75.77-45.74,87.34-36.93,11.57,8.81,17.24,37.23,17.24,37.23"/>
      <path class="cls-33" d="M248.05,222.14s9.34-51.59,45.2-42.15c35.87,9.44,85.82,56.87,71.22,61.47-14.6,4.59-75.77-45.74-87.34-36.93-11.56,8.81-17.23,37.23-17.23,37.23"/>
    </g>
    <path class="cls-30" d="M331.97,331.22c0,67.2-54.47,121.67-121.67,121.67h-39.85c-67.2,0-121.67-54.48-121.67-121.67h0c0-67.2,54.48-121.67,121.67-121.67h39.85c67.2,0,121.67,54.48,121.67,121.67h0Z"/>
  </g>
  <path class="cls-30" d="M83.09,396.28h214.57c10.53,0,19.08,8.55,19.08,19.08v43.87c0,10.53-8.55,19.08-19.08,19.08H83.08c-10.53,0-19.08-8.55-19.08-19.08v-43.87c0-10.53,8.55-19.08,19.08-19.08Z"/>
  <path class="cls-33" d="M304.43,407.44c0,27.91-50.8,50.54-113.47,50.54s-113.47-22.63-113.47-50.54,50.8-50.54,113.47-50.54,113.47,22.63,113.47,50.54Z"/>
  <path class="cls-33" d="M182.64,439.18c0,21.38-12.34,38.71-27.57,38.71s-27.57-17.33-27.57-38.71,12.34-38.71,27.57-38.71,27.57,17.33,27.57,38.71Z"/>
  <path class="cls-33" d="M260.38,439.18c0,21.38-12.34,38.71-27.57,38.71s-27.57-17.33-27.57-38.71,12.34-38.71,27.57-38.71,27.57,17.33,27.57,38.71Z"/>
  <path class="cls-12" d="M308.57,318.32c.99-11.69,1.43-23.86,1.43-36.35,0-90.74-23.94-164.31-116.38-164.31s-116.39,73.56-116.39,164.31c0,13.37.51,26.36,1.65,38.81,15.78,7.52,47.04,15.96,107.89,15.96,67.6,0,103.9-10.43,121.8-18.41Z"/>
  <path class="cls-25" d="M310.33,315.68c0-11.18-53.21-19.42-116.7-19.42s-116.64,9.64-116.64,20.82,53.15,19.66,116.64,19.66,116.7-9.88,116.7-21.05Z"/>
  <g class="cls-13">
    <path class="cls-3" d="M114.27,252.67s-12.17,36.81,12.58,57.1c0,0-5.07-4.02-4.56-30.15.51-26.13-8.02-26.94-8.02-26.94Z"/>
    <path class="cls-3" d="M273.19,252.67s12.17,36.81-12.58,57.1c0,0,5.08-4.02,4.57-30.15-.51-26.13,8.01-26.94,8.01-26.94Z"/>
  </g>
  <path class="cls-26" d="M272.71,354.33c0,43.57-35.31,66.7-78.89,66.7s-78.89-23.13-78.89-66.7,35.32-78.89,78.89-78.89,78.89,35.31,78.89,78.89Z"/>
  <path class="cls-8" d="M206.28,232.18s-.72,6.68,2.16,6.68h7.72s-8.08-.42-9.88-6.68Z"/>
  <path class="cls-32" d="M165.76,338.87s22.38,17.99,35.19,15.82c12.81-2.17,26.18-16.7,25.81-19.65-.36-2.94-10.15-9.15-24.97-1.07-14.82,8.07-47.27-17.98-36.03,4.9Z"/>
  <path class="cls-8" d="M248.36,209.22s7.72-1.98,7.72,7v18.86s-.36,2.15-1.62,2.87c0,0-.36-.18-.36-3.23s-.9-18.68-.9-18.68c0,0,.18-6.11-4.85-6.82Z"/>
  <path class="cls-8" d="M176.16,209.22s7.72-1.98,7.72,7v18.86s-.36,2.15-1.61,2.87c0,0-.36-.18-.36-3.23s-.9-18.68-.9-18.68c0,0,.18-6.11-4.85-6.82Z"/>
  <path class="cls-3" d="M153.42,318.11c0,2.23-.56,4.03-1.26,4.03s-1.25-1.8-1.25-4.03.56-4.02,1.25-4.02,1.26,1.8,1.26,4.02Z"/>
  <path class="cls-3" d="M162.56,329.21c0,2.22-.56,4.02-1.26,4.02s-1.26-1.8-1.26-4.02.56-4.03,1.26-4.03,1.26,1.8,1.26,4.03Z"/>
  <path class="cls-3" d="M174.89,318.11c0,2.23-.56,4.03-1.26,4.03s-1.25-1.8-1.25-4.03.56-4.02,1.25-4.02,1.26,1.8,1.26,4.02Z"/>
  <path class="cls-3" d="M184.18,329.21c0,2.22-.56,4.02-1.26,4.02s-1.26-1.8-1.26-4.02.56-4.03,1.26-4.03,1.26,1.8,1.26,4.03Z"/>
  <path class="cls-3" d="M196.36,318.11c0,2.23-.56,4.03-1.26,4.03s-1.25-1.8-1.25-4.03.56-4.02,1.25-4.02,1.26,1.8,1.26,4.02Z"/>
  <path class="cls-3" d="M205.8,329.21c0,2.22-.56,4.02-1.25,4.02s-1.26-1.8-1.26-4.02.57-4.03,1.26-4.03,1.25,1.8,1.25,4.03Z"/>
  <path class="cls-3" d="M217.83,318.11c0,2.23-.56,4.03-1.25,4.03s-1.26-1.8-1.26-4.03.56-4.02,1.26-4.02,1.25,1.8,1.25,4.02Z"/>
  <path class="cls-3" d="M239.3,318.11c0,2.23-.56,4.03-1.26,4.03s-1.25-1.8-1.25-4.03.56-4.02,1.25-4.02,1.26,1.8,1.26,4.02Z"/>
  <path class="cls-3" d="M227.42,329.21c0,2.22-.56,4.02-1.25,4.02s-1.26-1.8-1.26-4.02.56-4.03,1.26-4.03,1.25,1.8,1.25,4.03Z"/>
  <path class="cls-25" d="M272.62,342.04s24.28-7.23,27.74-8.81c0,0-9.24,70.37-44.52,90.54,0,0,23.62-32.93,16.78-81.74Z"/>
  <path class="cls-25" d="M253.68,425.94s-9.88,6.48-19.64,9.51c-9.76,3.03,19.64-9.51,19.64-9.51Z"/>
  <path class="cls-1" d="M273.21,242.68c0,3.68-1.81,6.66-4.03,6.66s-4.02-2.98-4.02-6.66,1.8-6.66,4.02-6.66,4.03,2.99,4.03,6.66Z"/>
  <path class="cls-1" d="M123.09,242.68c0,3.68-1.8,6.66-4.03,6.66s-4.03-2.98-4.03-6.66,1.8-6.66,4.03-6.66,4.03,2.99,4.03,6.66Z"/>
  <g>
    <g>
      <g>
        <path class="cls-21" d="M190.19,294.47c-.51-.87-1.28-1.55-2.19-2.06-.85-.86-1.83-1.39-2.85-1.63-.14-1.09-.45-2.22-.98-3.36-2.68-5.8-9.35-2.47-11.42,2.22-.5-.39-1.02-.75-1.58-1.05-2.15-1.17-4.39-.04-5.21,2.12-.75,1.98-.79,3.75-.33,5.26-.29.45-.54.97-.73,1.59-.05.18-.08.36-.12.54-3.21,1.78-4.95,5.52-1.91,9.47,2.01,2.61,6,3.69,8.73,1.48,1.32.45,2.76.52,4.12.25.16.18.33.36.51.52,3.89,3.5,11.64,1.34,12.49-4.03.2-1.26,0-2.46-.46-3.54,2.46-1.73,3.78-4.61,1.92-7.78Z"/>
        <line class="cls-16" x1="170.47" y1="292.85" x2="173.16" y2="296.26"/>
        <line class="cls-16" x1="183.01" y1="292.85" x2="180.32" y2="296.26"/>
      </g>
      <g>
        <path class="cls-5" d="M181.92,300.1c0,.75-.61,1.36-1.35,1.36h-6.88c-.75,0-1.36-.6-1.36-1.36h0c0-.75.61-1.35,1.36-1.35h6.88c.75,0,1.35.61,1.35,1.35h0Z"/>
        <polyline class="cls-11" points="174 299.32 174.39 300.31 175.03 299.32"/>
        <polyline class="cls-11" points="179.27 299.32 179.65 300.31 180.29 299.32"/>
      </g>
    </g>
    <g class="cls-27">
      <path class="cls-31" d="M169.73,298.29s-.37.57-.84,1.4c-.24.41-.5.89-.73,1.4-.11.25-.21.52-.27.78-.1.26-.1.52-.12.76.02.24.02.47.13.68.04.23.25.4.36.61.19.17.37.34.55.52.21.13.42.27.61.41.38.27.76.44,1,.59.25.14.39.25.39.25,0,0-.17,0-.46,0-.29-.05-.73.01-1.22-.16-.25-.07-.53-.15-.81-.26-.27-.16-.57-.32-.85-.53-.23-.29-.58-.51-.7-.92-.2-.37-.26-.78-.28-1.19.04-.39.08-.8.22-1.13.1-.36.3-.65.46-.94.36-.55.77-1,1.16-1.33.78-.66,1.41-.93,1.41-.93Z"/>
    </g>
    <g class="cls-27">
      <path class="cls-31" d="M174.52,304.11s.38.38.96.79c.57.43,1.32.8,2.09.81.2-.03.39,0,.59-.05.19-.06.4-.04.59-.13.4-.11.77-.27,1.11-.39.34-.13.63-.26.83-.35.21-.08.34-.12.34-.12,0,0-.06.12-.18.31-.14.17-.29.49-.58.76-.28.29-.63.6-1.1.83-.22.14-.5.22-.77.3-.27.09-.58.08-.87.12-.3-.05-.61-.05-.89-.17-.29-.08-.53-.24-.77-.38-.44-.32-.77-.7-.96-1.06-.39-.72-.4-1.27-.4-1.27Z"/>
    </g>
    <g class="cls-27">
      <path class="cls-31" d="M178.43,290.15s.25-.25.71-.42c.45-.17,1.13-.25,1.81.05.33.16.67.41.85.75.2.32.25.68.2.94-.08.54-.35.78-.34.78-.02,0-.15-.34-.38-.64-.1-.16-.24-.29-.37-.39-.13-.1-.28-.19-.48-.27-.37-.17-.87-.33-1.28-.48-.4-.16-.72-.31-.72-.31Z"/>
    </g>
    <g class="cls-27">
      <path class="cls-31" d="M172.1,293.33s.03-.35.26-.78c.23-.42.69-.92,1.4-1.15.35-.1.77-.13,1.13.02.36.12.63.36.76.58.3.46.24.82.26.81-.01.02-.33-.16-.71-.24-.39-.09-.69-.08-1.07.05-.39.11-.87.32-1.28.47-.41.14-.75.24-.75.24Z"/>
    </g>
    <g class="cls-27">
      <path class="cls-31" d="M185.65,296.44s.31.17.61.56c.29.38.56,1.01.48,1.75-.06.36-.2.75-.47,1.02-.25.28-.58.43-.84.46-.54.08-.85-.12-.85-.1-.01-.02.28-.24.51-.56.24-.32.35-.6.39-1.01.06-.4.07-.93.1-1.36.04-.43.09-.78.09-.78Z"/>
    </g>
  </g>
  <g>
    <g>
      <g>
        <path class="cls-22" d="M166.23,295.2c-.26-.44-.65-.79-1.11-1.05-.43-.44-.93-.71-1.45-.83-.07-.55-.23-1.13-.49-1.71-1.36-2.94-4.74-1.25-5.8,1.12-.25-.2-.52-.38-.8-.53-1.1-.59-2.23-.02-2.65,1.08-.38,1.01-.4,1.9-.16,2.67-.15.23-.27.49-.37.81-.03.09-.04.18-.06.28-1.63.91-2.51,2.8-.97,4.81,1.02,1.32,3.05,1.87,4.43.75.67.23,1.4.26,2.09.13.09.09.17.18.26.26,1.98,1.78,5.91.68,6.34-2.04.1-.64,0-1.25-.23-1.8,1.25-.88,1.92-2.34.98-3.95Z"/>
        <line class="cls-18" x1="156.21" y1="294.37" x2="157.58" y2="296.11"/>
        <line class="cls-18" x1="162.58" y1="294.37" x2="161.22" y2="296.11"/>
      </g>
      <g>
        <path class="cls-9" d="M162.03,298.06c0,.38-.31.69-.69.69h-3.49c-.38,0-.69-.31-.69-.69h0c0-.38.31-.69.69-.69h3.49c.38,0,.69.31.69.69h0Z"/>
        <polyline class="cls-2" points="158.01 297.66 158.2 298.17 158.53 297.66"/>
        <polyline class="cls-2" points="160.68 297.66 160.88 298.17 161.2 297.66"/>
      </g>
    </g>
    <g class="cls-27">
      <path class="cls-31" d="M155.84,297.14s-.17.28-.43.71c-.13.2-.25.46-.37.71-.13.25-.2.53-.2.78,0,.12,0,.24.06.35.01.12.13.2.19.31.19.17.38.36.59.47.4.24.71.42.71.42,0,0-.09,0-.23,0-.14-.03-.37,0-.62-.08-.25-.07-.56-.17-.84-.4-.11-.15-.28-.26-.35-.47-.1-.19-.13-.39-.15-.6.07-.83.56-1.39.94-1.72.39-.34.71-.48.71-.48Z"/>
    </g>
    <g class="cls-27">
      <path class="cls-31" d="M158.27,300.09s.19.2.49.4c.12.13.33.18.49.29l.28.09c.09.05.2,0,.29,0,.1,0,.2.05.3,0l.3-.09c.2-.03.4-.11.56-.2.33-.15.6-.22.6-.22,0,0-.13.23-.4.52-.14.14-.29.34-.56.42-.12.05-.25.1-.38.16-.13.06-.29.03-.44.05-.15-.02-.31,0-.44-.08-.13-.06-.27-.12-.39-.18-.21-.17-.39-.36-.48-.54-.21-.36-.21-.64-.21-.64Z"/>
    </g>
    <g class="cls-27">
      <path class="cls-31" d="M160.26,293s.12-.13.36-.21c.23-.09.57-.1.92.02.08.03.16.12.23.17.07.07.15.11.19.21.07.17.14.35.1.48-.06.27-.16.4-.16.4,0,0-.11-.16-.2-.33-.01-.1-.16-.12-.19-.2,0-.04-.08-.05-.11-.07-.05-.02-.07-.05-.13-.06-.1-.04-.19-.11-.32-.13-.11-.03-.22-.1-.33-.12-.2-.08-.36-.15-.36-.15Z"/>
    </g>
    <g class="cls-27">
      <path class="cls-31" d="M157.04,294.62s0-.18.13-.39c.12-.22.36-.45.71-.58.08-.03.2-.02.29-.02.1,0,.19-.02.28.03.17.08.33.17.38.29.13.24.14.41.14.41,0,0-.19-.05-.36-.12-.07-.07-.2.01-.27-.03-.04-.03-.09.02-.13.02-.05.02-.09,0-.14.04-.1.03-.22.04-.32.11-.11.05-.23.07-.33.12-.2.07-.38.12-.38.12Z"/>
    </g>
    <g class="cls-27">
      <path class="cls-31" d="M163.92,296.2s.16.08.31.28c.16.19.26.51.25.89,0,.09-.07.19-.1.27-.05.08-.06.18-.14.24-.14.12-.29.23-.42.23-.28.02-.43-.04-.43-.04,0,0,.12-.16.25-.29.09-.04.07-.19.14-.24.04-.02.02-.09.04-.13,0-.05.03-.08.02-.14.01-.11.05-.22.03-.34,0-.12.03-.24.02-.35.02-.22.04-.39.04-.39Z"/>
    </g>
  </g>
  <path class="cls-8" d="M132.69,232.18s-.72,6.68,2.15,6.68h7.72s-8.08-.42-9.88-6.68Z"/>
  <g>
    <path class="cls-25" d="M206.98,237.03c0,4.74-5.93,10.34-13.25,10.34s-13.25-5.59-13.25-10.34,5.93-8.58,13.25-8.58,13.25,3.83,13.25,8.58Z"/>
    <line class="cls-20" x1="193.73" y1="253.92" x2="193.73" y2="244.76"/>
    <path class="cls-17" d="M193.27,254.43c-3.75-1.07-9.38,1.61-4.29,5.09-9.92,1.07.27,10.99,5.36,6.43"/>
  </g>
  <path class="cls-33" d="M115.08,468.41c0,6.4-8.54,11.59-19.08,11.59h-12.91c-10.54,0-19.08-5.19-19.08-11.59v-37.56c0-6.4,8.54-11.59,19.08-11.59h12.91c10.54,0,19.08,5.19,19.08,11.59v37.56Z"/>
  <path class="cls-33" d="M316.62,468.41c0,6.4-8.54,11.59-19.08,11.59h-12.91c-10.54,0-19.08-5.19-19.08-11.59v-37.56c0-6.4,8.54-11.59,19.08-11.59h12.91c10.54,0,19.08,5.19,19.08,11.59v37.56Z"/>
  <path class="cls-30" d="M78.05,380.03h12.91c10.53,0,19.08,8.55,19.08,19.08v61.81c0,10.53-8.55,19.08-19.08,19.08h-12.91c-10.53,0-19.08-8.55-19.08-19.08v-61.81c0-10.53,8.55-19.08,19.08-19.08Z"/>
  <path class="cls-30" d="M288.44,380.03h12.91c10.53,0,19.08,8.55,19.08,19.08v61.81c0,10.53-8.55,19.08-19.08,19.08h-12.91c-10.53,0-19.08-8.55-19.08-19.08v-61.81c0-10.53,8.55-19.08,19.08-19.08Z"/>
  <g>
    <g>
      <path class="cls-29" d="M276.86,173.32c-1.04,1.64-4.53,1.3-7.82-.78-3.28-2.07-5.11-5.07-4.07-6.72,1.04-1.64,4.53-1.29,7.82.78,3.28,2.07,5.11,5.08,4.07,6.72Z"/>
      <path class="cls-29" d="M258.45,195.44c-.47.76-1.48.99-2.23.51h0c-.76-.48-.99-1.48-.51-2.23l14.35-22.77c.48-.76,1.48-.99,2.24-.51h0c.75.48.98,1.48.5,2.24l-14.35,22.76Z"/>
    </g>
    <g>
      <path class="cls-29" d="M109.67,173.32c1.03,1.64,4.53,1.3,7.82-.78,3.28-2.07,5.11-5.07,4.07-6.72-1.03-1.64-4.54-1.29-7.82.78-3.28,2.07-5.1,5.08-4.07,6.72Z"/>
      <path class="cls-29" d="M128.07,195.44c.48.76,1.48.99,2.24.51h0c.76-.48.98-1.48.5-2.23l-14.35-22.77c-.48-.76-1.48-.99-2.23-.51h0c-.75.48-.99,1.48-.5,2.24l14.34,22.76Z"/>
    </g>
    <path class="cls-29" d="M151.91,178.63c0,4.92-3.75,8.91-8.38,8.91h0c-4.63,0-8.38-3.99-8.38-8.91v-38.57c0-4.92,3.75-8.91,8.38-8.91h0c4.63,0,8.38,3.99,8.38,8.91v38.57Z"/>
    <g>
      <path class="cls-29" d="M288.48,257.05c0,52.74-42.75,95.49-95.49,95.49s-95.5-42.75-95.5-95.49,42.75-95.5,95.5-95.5,95.49,42.75,95.49,95.5Z"/>
      <path class="cls-29" d="M176.64,179.7c0,4.63-3.75,8.38-8.38,8.38h0c-4.63,0-8.38-3.75-8.38-8.38v-36.29c0-4.63,3.76-8.38,8.38-8.38h0c4.63,0,8.38,3.75,8.38,8.38v36.29Z"/>
      <path class="cls-29" d="M250.83,178.63c0,4.92-3.76,8.91-8.38,8.91h0c-4.63,0-8.38-3.99-8.38-8.91v-38.57c0-4.92,3.75-8.91,8.38-8.91h0c4.63,0,8.38,3.99,8.38,8.91v38.57Z"/>
      <path class="cls-29" d="M226.09,180.46c0,4.63-3.75,8.38-8.38,8.38h0c-4.63,0-8.38-3.75-8.38-8.38v-36.29c0-4.63,3.76-8.39,8.38-8.39h0c4.63,0,8.38,3.76,8.38,8.39v36.29Z"/>
      <path class="cls-29" d="M201.37,172.52c0,4.63-3.76,8.38-8.39,8.38h0c-4.63,0-8.38-3.75-8.38-8.38v-36.29c0-4.63,3.75-8.38,8.38-8.38h0c4.63,0,8.39,3.75,8.39,8.38v36.29Z"/>
      <line class="cls-19" x1="141.15" y1="190.74" x2="171.07" y2="183.2"/>
      <line class="cls-19" x1="214.14" y1="183.2" x2="244.07" y2="190.74"/>
      <g>
        <g>
          <path class="cls-3" d="M176.62,213.05c0,6.47-5.25,11.72-11.71,11.72s-11.72-5.25-11.72-11.72,5.24-11.71,11.72-11.71,11.71,5.24,11.71,11.71Z"/>
          <path class="cls-25" d="M172.88,213.05c0,4.41-3.57,7.99-7.98,7.99s-7.98-3.57-7.98-7.99,3.57-7.98,7.98-7.98,7.98,3.57,7.98,7.98Z"/>
        </g>
        <g>
          <path class="cls-3" d="M233.81,213.05c0,6.47-5.24,11.72-11.71,11.72s-11.72-5.25-11.72-11.72,5.25-11.71,11.72-11.71,11.71,5.24,11.71,11.71Z"/>
          <path class="cls-25" d="M230.07,213.05c0,4.41-3.57,7.99-7.97,7.99s-7.98-3.57-7.98-7.99,3.57-7.98,7.98-7.98,7.97,3.57,7.97,7.98Z"/>
        </g>
      </g>
      <g>
        <g>
          <g>
            <path class="cls-15" d="M134.79,192.9h44.54c4.44,0,8.05,3.61,8.05,8.05v24.2c0,4.44-3.61,8.05-8.05,8.05h-44.54c-4.44,0-8.05-3.61-8.05-8.05v-24.2c0-4.44,3.61-8.05,8.05-8.05Z"/>
            <path class="cls-25" d="M179.34,235.22h-44.54c-5.55,0-10.06-4.51-10.06-10.06v-24.21c0-5.55,4.51-10.06,10.06-10.06h44.54c5.55,0,10.06,4.51,10.06,10.06v24.21c0,5.55-4.51,10.06-10.06,10.06ZM134.8,194.92c-3.33,0-6.04,2.7-6.04,6.03v24.21c0,3.33,2.71,6.04,6.04,6.04h44.54c3.33,0,6.04-2.71,6.04-6.04v-24.21c0-3.33-2.71-6.03-6.04-6.03h-44.54Z"/>
          </g>
          <g>
            <path class="cls-14" d="M207.21,192.9h44.54c4.44,0,8.05,3.61,8.05,8.05v24.21c0,4.44-3.61,8.05-8.05,8.05h-44.54c-4.44,0-8.05-3.61-8.05-8.05v-24.2c0-4.44,3.61-8.05,8.05-8.05Z"/>
            <path class="cls-25" d="M251.76,235.22h-44.54c-5.55,0-10.06-4.51-10.06-10.06v-24.21c0-5.55,4.51-10.06,10.06-10.06h44.54c5.55,0,10.06,4.51,10.06,10.06v24.21c0,5.55-4.51,10.06-10.06,10.06ZM207.21,194.92c-3.33,0-6.04,2.7-6.04,6.03v24.21c0,3.33,2.71,6.04,6.04,6.04h44.54c3.33,0,6.04-2.71,6.04-6.04v-24.21c0-3.33-2.71-6.03-6.04-6.03h-44.54Z"/>
          </g>
        </g>
        <path class="cls-25" d="M118.9,197.2h4.24c2.22,0,4.02,1.8,4.02,4.02v10.39c0,2.22-1.8,4.02-4.02,4.02h-4.24c-2.22,0-4.02-1.8-4.02-4.02v-10.39c0-2.22,1.8-4.03,4.03-4.03Z"/>
        <path class="cls-25" d="M199.41,206.36c0,1.41-1.8,2.56-4.02,2.56h-4.24c-2.22,0-4.02-1.14-4.02-2.56v-6.6c0-1.41,1.8-2.56,4.02-2.56h4.24c2.22,0,4.02,1.14,4.02,2.56v6.6Z"/>
        <path class="cls-25" d="M262.8,197.2h4.24c2.22,0,4.02,1.8,4.02,4.02v10.39c0,2.22-1.8,4.02-4.02,4.02h-4.24c-2.22,0-4.02-1.8-4.02-4.02v-10.38c0-2.22,1.8-4.03,4.03-4.03Z"/>
      </g>
      <g>
        <path class="cls-36" d="M207.11,235.14c.18,4.7-5.5,10.46-12.74,10.74-7.25.27-13.35-5.05-13.53-9.75-.17-4.7,5.56-8.73,12.82-9,7.25-.28,13.27,3.3,13.45,8.01Z"/>
        <line class="cls-24" x1="194.61" y1="252.38" x2="194.27" y2="243.31"/>
        <line class="cls-24" x1="194.61" y1="252.38" x2="172.98" y2="248.96"/>
        <line class="cls-24" x1="194.61" y1="252.38" x2="215.89" y2="245.95"/>
      </g>
    </g>
  </g>
  <g class="cls-28">
    <path class="cls-34" d="M337.26,139.76h4.46l-3.61,2.7,1.49,4.33-3.77-2.79-3.65,2.68,1.39-4.3-3.48-2.61h4.39l1.37-4.09,1.42,4.09Z"/>
    <path class="cls-34" d="M334.64,108.18h3.14l-2.54,1.9,1.05,3.04-2.65-1.96-2.57,1.88.98-3.02-2.45-1.84h3.09l.97-2.88,1,2.88Z"/>
    <path class="cls-34" d="M72.8,131.76h5.53l-4.48,3.36,1.85,5.37-4.68-3.47-4.53,3.32,1.72-5.34-4.32-3.25h5.44l1.71-5.08,1.76,5.08Z"/>
    <path class="cls-34" d="M374.02,138.96h5.54l-4.48,3.36,1.85,5.37-4.68-3.47-4.54,3.32,1.72-5.34-4.32-3.25h5.44l1.71-5.08,1.76,5.08Z"/>
    <path class="cls-34" d="M262.71,95.23h5.53l-4.48,3.36,1.85,5.37-4.68-3.47-4.54,3.32,1.73-5.34-4.32-3.25h5.44l1.71-5.08,1.76,5.08Z"/>
    <path class="cls-34" d="M277.16,55.23h5.53l-4.48,3.36,1.85,5.37-4.68-3.47-4.54,3.32,1.73-5.34-4.32-3.24h5.44l1.71-5.08,1.76,5.08Z"/>
    <path class="cls-34" d="M45.25,125.65h4.46l-3.61,2.7,1.49,4.33-3.77-2.79-3.65,2.68,1.39-4.3-3.48-2.61h4.38l1.37-4.09,1.42,4.09Z"/>
    <path class="cls-34" d="M137.7,56.49h4.46l-3.61,2.7,1.49,4.33-3.77-2.79-3.65,2.68,1.39-4.3-3.48-2.61h4.39l1.37-4.09,1.42,4.09Z"/>
    <path class="cls-34" d="M51.88,75.09h1.77l-1.43,1.07.59,1.71-1.49-1.11-1.45,1.06.55-1.7-1.38-1.04h1.74l.55-1.62.56,1.62Z"/>
    <path class="cls-34" d="M333.45,75.47h1.76l-1.43,1.07.59,1.71-1.5-1.11-1.45,1.06.55-1.7-1.38-1.03h1.73l.55-1.62.56,1.62Z"/>
    <path class="cls-34" d="M338.24,45.15h1.76l-1.43,1.07.59,1.71-1.5-1.11-1.45,1.06.55-1.7-1.38-1.04h1.74l.54-1.62.56,1.62Z"/>
    <path class="cls-34" d="M321.57,45.15h1.76l-1.43,1.07.59,1.71-1.49-1.11-1.45,1.06.55-1.7-1.38-1.04h1.74l.54-1.62.56,1.62Z"/>
    <path class="cls-34" d="M285.53,94.27h1.77l-1.43,1.07.59,1.71-1.5-1.11-1.45,1.06.55-1.7-1.38-1.04h1.73l.55-1.62.56,1.62Z"/>
    <path class="cls-34" d="M308.01,112.54h1.77l-1.43,1.07.59,1.71-1.5-1.11-1.45,1.06.55-1.7-1.38-1.04h1.73l.54-1.62.56,1.62Z"/>
    <path class="cls-34" d="M287.83,123.18h1.76l-1.43,1.07.59,1.71-1.49-1.11-1.45,1.06.55-1.7-1.38-1.04h1.74l.54-1.62.56,1.62Z"/>
    <path class="cls-34" d="M266.48,121.82h1.77l-1.43,1.07.59,1.71-1.49-1.11-1.45,1.06.55-1.7-1.38-1.04h1.74l.55-1.62.56,1.62Z"/>
    <path class="cls-34" d="M287.83,147.11h1.76l-1.43,1.07.59,1.71-1.49-1.11-1.45,1.06.55-1.7-1.38-1.04h1.74l.54-1.62.56,1.62Z"/>
    <path class="cls-34" d="M181.34,41.73h1.76l-1.43,1.07.59,1.71-1.49-1.11-1.45,1.06.55-1.7-1.38-1.04h1.74l.54-1.62.56,1.62Z"/>
    <path class="cls-34" d="M220.24,42.16h1.76l-1.43,1.07.59,1.71-1.49-1.11-1.45,1.06.55-1.7-1.38-1.04h1.74l.54-1.62.56,1.62Z"/>
    <path class="cls-34" d="M84.63,33.23h.91l-.74.55.3.88-.77-.57-.75.54.28-.87-.71-.53h.9l.28-.83.29.83Z"/>
    <path class="cls-34" d="M169.8,34.94h.91l-.73.55.3.88-.77-.57-.74.55.28-.88-.71-.53h.89l.28-.83.29.83Z"/>
    <path class="cls-34" d="M248.03,28.11h.91l-.74.55.3.88-.77-.57-.75.55.28-.88-.71-.53h.89l.28-.83.29.83Z"/>
    <path class="cls-34" d="M66.1,47.75h.91l-.74.55.31.88-.77-.57-.74.55.28-.88-.71-.53h.89l.28-.84.29.84Z"/>
    <path class="cls-34" d="M298.25,43.04h.91l-.74.55.31.88-.77-.57-.75.55.28-.88-.71-.53h.9l.28-.83.29.83Z"/>
    <path class="cls-34" d="M304.26,62.08h.91l-.74.55.31.88-.77-.57-.75.55.28-.88-.71-.53h.9l.28-.83.29.83Z"/>
    <path class="cls-34" d="M308.94,96.75h.91l-.74.55.31.88-.77-.57-.75.55.28-.88-.71-.53h.9l.28-.83.29.83Z"/>
    <path class="cls-34" d="M307.75,135.36h.91l-.74.55.31.88-.77-.57-.75.55.28-.88-.71-.53h.9l.28-.83.29.83Z"/>
    <path class="cls-34" d="M79.69,108.91h.91l-.74.55.3.88-.77-.57-.75.55.28-.87-.71-.53h.9l.28-.83.29.83Z"/>
    <path class="cls-34" d="M98.8,121.26h.91l-.74.55.31.88-.77-.57-.75.55.28-.88-.71-.53h.89l.28-.84.29.84Z"/>
    <path class="cls-34" d="M37.17,103.65h.91l-.74.55.31.88-.77-.57-.75.54.28-.87-.71-.53h.89l.28-.83.29.83Z"/>
    <path class="cls-34" d="M21.46,129.93h.91l-.74.55.3.88-.77-.57-.74.55.28-.88-.71-.54h.89l.28-.83.29.83Z"/>
    <path class="cls-34" d="M308.94,26.52h.91l-.74.55.31.88-.77-.57-.75.55.28-.88-.71-.53h.9l.28-.83.29.83Z"/>
    <path class="cls-34" d="M273.88,19.53h.91l-.74.55.3.88-.77-.57-.75.55.28-.88-.71-.53h.89l.28-.83.29.83Z"/>
    <path class="cls-34" d="M78.5,59.29h.91l-.74.55.3.88-.77-.57-.75.55.28-.88-.71-.53h.9l.28-.83.29.83Z"/>
    <path class="cls-34" d="M111.33,40.19h.91l-.74.55.3.88-.77-.57-.75.55.28-.88-.71-.53h.89l.28-.83.29.83Z"/>
    <path class="cls-34" d="M75.94,77.68h.91l-.73.55.3.88-.77-.57-.74.54.28-.87-.71-.53h.89l.28-.83.29.83Z"/>
    <path class="cls-34" d="M62.34,99.93h3.14l-2.54,1.9,1.05,3.04-2.65-1.96-2.57,1.88.98-3.02-2.45-1.84h3.08l.97-2.88,1,2.88Z"/>
    <path class="cls-34" d="M355.16,125.28h3.14l-2.54,1.9,1.05,3.04-2.65-1.97-2.57,1.88.98-3.02-2.45-1.84h3.08l.97-2.88,1,2.88Z"/>
    <path class="cls-34" d="M356.02,81.67h3.14l-2.54,1.9,1.05,3.05-2.65-1.97-2.57,1.88.98-3.02-2.45-1.84h3.08l.97-2.88,1,2.88Z"/>
    <path class="cls-34" d="M186.87,53.89h3.13l-2.54,1.9,1.05,3.04-2.65-1.96-2.57,1.88.98-3.02-2.45-1.84h3.08l.97-2.88,1,2.88Z"/>
    <path class="cls-34" d="M242.45,45.35h3.14l-2.54,1.9,1.05,3.04-2.65-1.96-2.57,1.88.97-3.02-2.45-1.84h3.08l.97-2.88,1,2.88Z"/>
  </g>
  <g>
    <path class="cls-6" d="M315.7,370.93c24.2-9.96,55.87-33.75,51.2-45.09-4.66-11.34-43.91-5.93-68.1,4.03-24.19,9.96-29.59,22.92-24.92,34.27,4.67,11.33,17.63,16.75,41.82,6.79Z"/>
    <path class="cls-10" d="M370.64,304.49l-2.04,1.31c-.7-1.96-2.08-3.42-3.9-3.84-3.29-.75-6.78,2.2-7.79,6.59l-.87,3.8c-.17.76-.16,1.78,0,2.91l-8.78.47,13.51,29.3,10-11.05c3.17.41,6.5-.24,9.4-2.1l5.67-3.64c6.56-4.2,8.47-12.91,4.27-19.47-4.2-6.56-12.92-8.47-19.47-4.27Z"/>
    <path d="M282.71,353.78s-1.93-14.69,57.68-28.93"/>
  </g>
  <g>
    <g>
      <path d="M368.34,310.71c-2.08,2.22-4.38,3.43-5.12,2.74h0c-.75-.71.33-3.07,2.41-5.3l22.6-24.04c2.08-2.21,4.38-3.43,5.13-2.73h0c.75.71-.33,3.07-2.41,5.29l-22.6,24.05Z"/>
      <g>
        <path class="cls-25" d="M390.69,285.4c11.51,10.79,28.37,12.25,31.24,9.19,3.83-4.09-4.33-16.22-15.85-27.02-11.51-10.79-24.15-18.16-27.98-14.07-2.87,3.07,1.07,21.1,12.58,31.89Z"/>
        <path class="cls-6" d="M396.55,279.09c11.51,10.79,22.51,18.56,25.39,15.5,3.83-4.09-4.33-16.22-15.85-27.02-11.51-10.79-24.15-18.16-27.98-14.07-2.87,3.07,6.93,14.79,18.44,25.59Z"/>
        <line class="cls-23" x1="412.49" y1="260.59" x2="398.77" y2="275.21"/>
        <g>
          <line class="cls-23" x1="391.52" y1="269.81" x2="412.49" y2="260.59"/>
          <line class="cls-23" x1="405.12" y1="282.31" x2="412.49" y2="260.59"/>
          <path d="M414.32,262.31c-.95,1.01-2.54,1.06-3.55.11-1.01-.95-1.06-2.54-.11-3.55.95-1.01,2.54-1.06,3.55-.11,1.02.95,1.07,2.54.12,3.55Z"/>
        </g>
      </g>
    </g>
    <g>
      <g>
        <path class="cls-30" d="M421.16,218.06l.05.27c.14-.07.23-.16-.05-.27Z"/>
        <path class="cls-30" d="M417.54,228.42c.03-.14.03-.26,0-.34l-.12.05.12.3Z"/>
        <path class="cls-30" d="M424.76,218.71c.19-.07.4-.18.61-.36-.37-.02-.6.16-.61.36Z"/>
        <path class="cls-30" d="M420.58,228.79h-.5c.18.1.37.08.5,0Z"/>
        <path class="cls-30" d="M456.53,265.25s-.07.03-.11.06c-.16-.62-.51-1.42-.98-1.9,0-.03,0-.06-.02-.08,0,0,0,.02.02.03l.15-.33c.37.54.72.73,1.03.88-.04-.18-.08-.35-.13-.53-.03.03-.07.03-.1.06-.16-.62-.52-1.44-.98-1.92-.12-.32-.3-.66-.48-.95.07.07.13.16.16.24l.15-.34c.37.54.72.73,1.03.88-.05-.18-.08-.35-.13-.53-.03.02-.07.02-.09.06-.19-.69-.59-1.59-1.13-2.03.03.12.06.25.12.37-.03.12-.06.21-.09.29.2.19.38.32.3.43-.12-.09-.22-.25-.32-.38-.16.29-.4.21-.59.14,0,.11.04.21.09.3-.12-.09-.24-.16-.36-.2-.02.07-.03.13-.03.2,0,.03.02.07.02.11.12.48.92.84.75,1.04-.29-.23-.43-.77-.86-.65-.02.06-.02.09-.04.13.01.09.02.17.03.27-.02-.02-.03-.02-.05-.03,0,.13.03.25.09.35.02.12.02.23.04.34.26.25.56.44.45.57-.17-.13-.29-.37-.44-.52.03.37.08.75.11,1.13.07.08.14.16.18.25l.15-.34c.15.21.29.36.42.49-.08.59.95.99.75,1.23-.29-.23-.43-.77-.86-.65-.3.84.49,1.04.72,1.51l.15-.33c.37.54.72.74,1.02.87-.04-.17-.09-.34-.12-.52ZM454.75,261.79l.06-.12c.04.06.08.09.11.15-.05-.02-.1,0-.15,0,0-.02-.01-.03-.02-.04ZM455.46,262.34s.1.07.15.09c0,.01,0,.03-.02.05-.05-.04-.09-.09-.13-.14Z"/>
        <path class="cls-30" d="M455.28,266.88c-.03-.18-.08-.35-.12-.53-.03.02-.07.04-.09.07-.14-.52-.42-1.2-.79-1.68.03.49.04.95.04,1.35.35.48.68.68.96.81Z"/>
        <path class="cls-30" d="M413.03,224.67h0s-.04-.04-.03-.05c0,0,.02.02.03.05Z"/>
        <path class="cls-30" d="M453.6,261.47c.18-.05.32.02.42.13,0-.02,0-.03,0-.05-.22-.21-.4-.47-.28-.77.05,0,.1.05.15.07,0-.08,0-.15.03-.24-.02-.22-.06-.44-.08-.64l.29.48c-.03-.15-.05-.27-.07-.36,0-.04-.02-.07-.02-.11-.03-.38.11-.35.3-.3-.02-.12,0-.25.05-.41.25-.08.39.08.54.27,0-.02.02-.04.03-.05-.27-.23-.58-.54-.44-.91.14.05.28.14.42.25-.26-1.25.98-2.3.89-3.06-.46-1.56-.53.75-1.09-.15-.26-.81.31-.5.33-1.08l-.87-.17c-.4-.89.73-.25.26-.71.24-.88.38.16,1.04.18-.22-.13-.79-.88-.6-1.32.22-.06.58.94.46.26-1.19-2.24-.45-3.16-1.49-5.18l.44.02c-.18-.2-.42-.3-.39-.59l.3.03c-.13-.32-1.52-2.19-2.16-3.54l.81.45-1.14-.91.7-.21c-.88-.04-1.14-1.7-2.05-2.62l.39-.23-.64-.5.41.05c-.46-.62-1.58-.94-1.76-1.87.2.54.86.24,1.1.03-.64-.5-1.29-.99-1.98-1.41.22-.23-.32-1.09.39-.75l-.97-.38.32-.16c-1.73-3.35-5.77-3.72-7.3-7.22l.14-.05c-.71-.28-1.4-.54-2.13-.74-.24-.31.07-.87-.29-1.43-.17.71-1-.69-1.67-.46-.22-.53.27-.36.55-.48-1.26-1.78-3.27-1.71-4.94-3.27,1.47,1.93,1.52,1.79,2.6,2.91-1.71-.61-1.54-1.44-3.34-2.17l.95.16c-.4-1.36-2.89-.89-2.64-2.04-1.1-.43-2.5.28-3.71-.44l.93-.69-1.22-.49-.24.63c-.4-.12-.56-.32-.55-.5-1.09.46-2.18-.26-3.49-.02l-.06-.37c-.11.07-.25.13-.29.18-.09-.68-1.14-.59-1.09-1.14.43-.08,1.42-.2,1.26.16,1.16-.43-1.15-.66-1.85-.71.68.43-.27.37-.7.44-.05-.1.09-.13.18-.25-.6-.27-1.09,0-1.46.17l-.29.11-.13.03h-.05s0,0,0,0c-.63.03-.31.26-.34.29.14-.12-4.08,1.81-3.48,2.89h0v.02s0,.05,0,.05c-.03.16-.16.31-.47.46l.6.26-.55.82c1.25.21,0,1.23,1.14,1.49-.07,1-.7-.21-.6.16-.09.22-.09.5-.06.79v.11s.01.01.01.01h0c.27.33-2.21.61,2.72,3.37h.03s.18.07.18.07l.24-.17h.24c.54-.11,1.01-.17,1.1.14.79-.28,1.57.04,2.21,0l-.08.54c.35-.04.79-.19,1.07-.02l-.16.2c1.26,0,2.24.22,3.22.62-.18.32-.26.53-.86.44.69.86,2.66.16,3.89,1.08l-.22.2.93-.02c-.22.08-.21.3-.31.49,1.22.67,2.65,1.57,3.86,1.08-.46.02.2.88-.74.8,1.63.09,2.97,1.43,4.36,2.22v-.05s.68.24.68.24l-.03.11-.47-.19c.54.37,1.08.66,1.67.77-.05.21-.26.68-.12,1.07.52-.5.9,1.7,1.94,1.79-.07.2-.32-.16-.32.2,1.41,1.32,3.92,3.17,4.66,5.52,1.22-.54,2,1.34,3.07,2.28-.54.64-.69-.49-1.35-.53.47.58-.78.57.33,1.44-.14,0-.21.09-.32-.16.27.67.79-.55,1.06.55l-.47.27.95.32c.53,2.25,1.61,3.96,1.51,6.06.15.08.39-.03.47-.31.26.86,1.31,1.75.93,2.89l-.26-.24c-.17,1.4.59,1.57,1.03,2.69-.2,0-.37-.26-.6-.31l1.14,2.74-.25-.38.02.58.31-.06-.06-.1c.13,0,.24-.04.35-.08t-.02,0l.06.15c0,.09,0,.18,0,.27-.11.69-.45,1.93-.08,2.48-.03.38-.11,1.71.32,2.25-.53.18-.76.34.26.43-.14.08-.28.18-.38.3.52.47,1.33-.4,1.51-.14-.29.23-.86.24-.83.7.74.48,1.11-.25,1.63-.34l-.29-.22c.52-.2.78-.44.98-.66.23-.15.25-.3.09-.41l.25-.06c.15-.16.21-.7.22-1.45-.02-.03-.04-.05-.06-.07l-.15.33c-.21-.47-1.01-.67-.71-1.51.43-.13.57.42.86.64.2-.24-.99-.67-.74-1.34.29.08.55.32.76.6-.03-.63-.07-1.32-.14-2-.3-.33-.78-.58-.54-1.27ZM416.04,225.7c-1.35-1.61-.27-.68-.46-1.15.21-.28.52-.57.4-.85.09-.02.16-.02.23-.04v.12s-.03-.02-.01,0l-.13,1.22c-.16-.06-.27-.15-.3-.25-.07.04-.19.02.3.6l.36.08c-.13.22-.27.28-.4.27ZM416.08,224.99c.39.04.78.1,1.16.16h0c-.3.03-.83-.03-1.17-.16ZM418.24,221.06s0,0,.01,0h0s.02,0,.02,0h0s-.02,0-.03,0ZM417.93,227.8l-.16-.07.68-.25-.52.32ZM418.79,221.17h0v-.03s.01-.01.01-.01h0c.07-.07.04-.05-.06.04-.06-.01-.13-.02-.19-.04.26-.06.51-.2.73-.46.03.27,0,.43,0,.6-.17-.04-.34-.07-.5-.09ZM427.58,220.29c.32.23-.33.4-.55.6.15.11.29.12.56.14-.51.81-.51-.55-1.41-.39.18-.41,1.03-.15,1.41-.35ZM422.49,221.58c.09-.43.17-.32.53-.23.11,0,.22,0,.35.05l-.35-.05c-.46.05-.6.73-1.2.17.23-.12.45.18.67.06ZM422.63,222.09h-.03s-.03,0-.04-.02l.07.02ZM421.34,228.53c-.92.21-.11-.83-.52-.57.47-.47,1.32-.14,1.95-.09,0,.51-.77.91-1.43.66ZM424.81,219.16l-.33-.1c.13-.02.24.03.33.1l.53.16c-.2.38-.3.03-.53-.16ZM424.52,222.75c.22.03.44-.03.59-.25.02.22-.04.34-.13.43-.16-.06-.31-.11-.46-.18ZM425.26,229.79l-.92-.7c.88-.59.65.25.92.7l.3.23c-.13-.04-.23-.13-.3-.23ZM425.18,229.09c.9-.39,1.14-.76,2.12-.65l-.06.63c-.26-.23.06-.65-.68-.59-.06.41-.69,1.23-1.39.6ZM426.3,230.15c.2-.3.71.17.96.4l-.96-.4ZM427.21,229.91c-.13-.12-.25-.14-.48-.16.7-.04,1.92.09,2.01-.32-.32.7-1.28.61-1.53.48ZM431.27,224.76l.75.17-.13-.14.38-.23c-.74.81.76.61,1.14.82-.52-.13-1.63.37-2.14-.61ZM430.99,230.73c.07-.25.33-.33.62-.31h0,0c-.22.06,0,.44-.62.31ZM431.1,232.04c-.11-.13.82.58,1.17.87-.37.03-1.31-.47-1.17-.87ZM432.08,233.59c-.04.12-.14.19-.46.02l.46-.02c.06-.23-.12-.69.37,0h-.37ZM433.28,227.47c-.06-.04-.11-.08-.16-.11.08,0,.15.03.24.04l-.08.07ZM435.77,228.24l.78-.18.6.52-1.38-.34ZM439.91,228.87c-.88.27-.51-.5-1.16-.64.43,0,1.17-.25,1.16.64ZM438.3,235.94c-.15-.15-.64-.61-.59-.9.33.3.65.61.97.93-.13,0-.25-.03-.37-.02ZM438.94,230.08l.32.36c-.29-.58,1.04-.02.52-.81-.2-.32.76.09.95.52-.3.22-.83-.46-.92.07l.2.32c-.31-.48-.84.44-1.07-.46ZM439.9,239.73c1.69-.87-.78-.75-.75-1.67.25,0,.52.39.79.29,0-.26-.26-.64-.55-.78-.14.05-.28.04-.35-.04.11-.05.23,0,.35.04.13-.04.25-.13.31-.23l-.02-.31c.07.11.07.22.02.31.16.69,1.01,1.9,1.6,2.44-.04.46-1.03.01-1.4-.05ZM442.14,233.45c-.07-.02-.15-.07-.26-.19l.26.19c.2.06.29-.2.42-.31l-.07-.27.55.4-.35-.19c-.31.2.3.87.55.89-.39.27-.75-.2-1.11-.53ZM442.39,243.98c.39.03-.1-.33-.14-.5l.47.62c-.1.19-.24-.05-.33-.12ZM441.82,239.74c.11.04.24.08.35.12.39.5.78,1.01,1.15,1.53-.88-.42-1.75-.8-1.51-1.65ZM444.45,238.24c-.18-.24-.36-.48-.55-.71.25.1.51.07.48-.09-.05.43.2.63.07.8ZM444.17,243.62l.14-.29.11.61-.25-.32ZM445.6,233.21l-.71-.38.02-.11.71.39-.03.1ZM453.26,256.07l.2.32c-.06.18-.14.23-.23.23-.05-.2-.1-.4-.15-.59.06,0,.11.02.17.05ZM446.98,247.6c.11.22.22.45.32.68-.14-.03-.27-.06-.4-.08.02.52.46.7.78.96.4.94.77,1.89,1.08,2.87-.88-1.57-1.8-3.11-2.32-4.7.35.22.49.3.54.28ZM446.92,250.66l.39-.51.27.64-.66-.12ZM448.61,254.25l-.15.33c-.23-.48-1.02-.67-.71-1.52.43-.12.57.43.86.65.2-.24-.99-.68-.74-1.34.75.24,1.31,1.43,1.54,2.28.01-.03.06-.03.09-.05.04.17.08.35.12.52-.29-.14-.65-.33-1.01-.87ZM449.69,258.54c.1.06.2.15.27.25-.13-.06-.21-.14-.27-.25ZM449.79,260.37c-.01-.14,0-.27.02-.39.03.09.03.21,0,.38,0,0-.02,0-.03,0ZM449.94,257.92c-.02-.06-.04-.11-.06-.16v.17c-.16.02-.29.11-.27.44-.18-.55.03-1.38-.21-1.63.24-.05.38,0,.51.06.02.34.06.66.25.88.01.09.02.18.04.28-.08-.02-.17-.03-.26-.03ZM452.04,245.96c-.26-.29-.42-.29-.35-.93.3.26.48.72.35.93ZM452.36,245.68c.39.58,1.12.12,1.04.97-.3-.48-1.09.07-1.04-.97Z"/>
        <path class="cls-30" d="M415.78,224.62s0,.08,0,.12c.03-.01.05-.04,0-.12Z"/>
        <polygon class="cls-30" points="434.68 235.75 434.88 235.81 434.69 235.69 434.68 235.75"/>
      </g>
      <g>
        <path class="cls-35" d="M435.36,267.88l.82-.05c-.45-.16-.38.05-.82.05Z"/>
        <path class="cls-35" d="M435.47,267.48l.23.02-.03-.15c.07.27-.62-.2-.57-.36v.12c.53.73.21.2.37.37Z"/>
        <path class="cls-35" d="M414.94,230l.06.13c.11-.04.16-.09-.06-.13Z"/>
        <path class="cls-35" d="M417.67,230.52l.41-.18c-.28-.02-.43.07-.41.18Z"/>
        <path class="cls-35" d="M413.35,238.06h-.42c.17.06.32.04.42,0Z"/>
        <polygon class="cls-35" points="409.99 236.03 409.93 236.09 409.83 236.15 409.97 236.14 410.01 236.14 409.99 236.03"/>
        <path class="cls-35" d="M440.54,261.77c-.26-1.19.1-2.01.01-2.66-.24-1.25-.27.52-.57-.23-.13-.67.15-.36.17-.8l-.44-.23c-.18-.76.37-.1.15-.52.17-.66.19.17.51.27-.12-.13-.34-.79-.26-1.1.14-.02.27.81.24.27-.69-1.86-1.22-2-1.24-3.95l.24.08c-.1-.17-.24-.29-.25-.5l.17.06c-.12-.23-.88-1.87-1.38-2.95l.48.45-.71-.84.38-.05c-.51-.17.6-1.43-.03-2.22l.2-.11-.42-.45.24.1c-.33-.52-1.01-.93-1.21-1.62.17.42.53.32.64.2-.4-.46-.87-.88-1.34-1.29.1-.13-.32-.81.15-.45l-.64-.42.19-.06c-1.52-3.85-4.14-3.36-5.71-5.79l.09-.02-1.57-.69c-.22-.22-.1-.53-.43-.92,0,.42-.78-.55-1.22-.45-.26-.32.13-.18.3-.23-1.2-1.13-2.54-1.36-4.02-2.3,1.36,1.18,1.91,1.46,2.82,2.26-1.26-.59-1.85-1.32-3.23-1.91l.7.18c-.49-.8-2.17-.78-2.19-1.34-.87-.24-1.79.01-2.77-.45l.59-.31-.95-.32-.12.32c-.31-.07-.45-.17-.46-.25-.77.19-1.63-.27-2.59-.2l-.08-.18c-.08.03-.18.06-.21.08-.12-.32-.89-.33-.88-.6.31,0,1.03-.05.94.12.83-.21-.9-.34-1.39-.42.51.24-.19.17-.5.2-.04-.05.06-.06.13-.12-.46-.17-.79-.05-1.07.02l-.21.05h-.05s-.03,0-.03,0h0s-.05.1-.13.09c-2.34-.08-.86.7-1.84,1.5h0s0,.11,0,.11c-.02.12-.09.25-.25.38l.3.19-.31.67c.63.13-.04.98.52,1.16-.07.8-.34-.14-.3.15-.7.71,1.37,1.65.29,2.43v.07h.01s-.05-.04-.05-.07c-.04.28-1.23,1.97.89,1.48h.01s.01,0,.01,0h.03s.12,0,.12,0h.24s.46.04.46.04c.31.05.6.09.87.07v.27c.27-.02.61-.09.87,0l-.11.09c1.01.08,1.8.3,2.64.49-.11.17-.15.27-.63.2.69.41,2.08.37,3.19.89l-.13.08.69.11c-.16.02-.12.13-.17.24,1.03.52,2.26,1.19,3.04,1.09-.34-.05.28.55-.41.38,1.22.26,3.28.2,3.77,1.35l.2.41-.05.47v.07l-.34-.19c.41.32.83.59,1.24.76,0,.12-.08.4.08.67.29-.26.79,1.32,1.51,1.55-.02.12-.24-.17-.18.07,2.26,1.01,3.71,3.38,4.33,4.85-.97.66.38,1.31,1.02,2.19-.27.39-.37-.5-.79-.64.33.5-.38.29.27,1.16-.05,0-.08,0-.13-.06.18.29.37-.32.55.49l-.25.13.53.4c.4,1.82.95,3.35.86,5.01.07.09.2.03.25-.19.13.73.59,1.57.36,2.44l-.12-.23c-.16,1.36.39,1.37.39,3.02.05-.37-.1-1.22.22-1.29.19.15.11.99-.06,1.26l.17-.06c-.02.4,0,1.24-.05,1.64l.19.33s0,0,.02.02l.15.13.29,1.1c.48.25,1.01-.97,1.58-1.26-.02.09.28.13.31.16.04-.09-.25-.13-.22-.19.02,0,.04-.02.05-.03h.32c.38.18.36-.42.62-.76h.02c.33.29.41-.47.63-.36-.02-.06.08-.06.05-.13,0,0-.12-.04-.13-.04,0,0,0-.02.01-.03-.03-.08-.08-.16-.1-.22-.01-.02-.03-.03-.04-.04h.03s0,.02.01.04c.11.08.16.17.1.22h0c.09-.05.14-.13.16-.23l.2.02c.02-.2.03-.39.04-.59.08,0,.15.02.21.02-.07-.67.7-.76.91-1.07.04-.11-.12-.04-.31.05,0-.18,0-.35,0-.53,0,.02.01.04.01.06,0-.02-.01-.05-.02-.08,0-.32,0-.66-.02-.98l.13.36c-.17-1.42-.18-.01-.01-1.06ZM411.12,235.13c0-.38-.07-.73-.08-.8l-.09.6c-.44-.4.33-.91.22-1.35.04-.03.07-.02.12-.03l-.17,1.57ZM411.5,231.64l-.05.44c-.02-.2,0-.34.05-.44ZM411.09,237.5l-.14-.05.52-.09-.39.13ZM412.46,231.36s-.06,0-.1-.01c.13-.08.14-.05.1.01ZM413.12,231.45c.2-.02.39-.07.56-.18.04.13.02.2.03.29-.19-.04-.39-.08-.59-.11ZM413.92,237.98c-.71.03-.17-.46-.47-.33.33-.23,1.03.01,1.54.07.06.28-.5.43-1.06.26ZM436.66,247.16c-.5-.5-.05-.15-.35-.02.33-.24.52-.04,1.03.02.06.28-1.18.77-.68,0ZM439.35,253.58c.47-.53.14-.06,0-.36.26.32.07.52.04,1.03-.26.08-.85-1.12-.04-.67ZM437.35,245.54c-.16-.7.04-.14-.29-.21.41,0,.46.26.84.59-.1.26-1.4-.02-.55-.38ZM439.62,264.44c-.51-.48-.05-.14-.36,0,.33-.23,1.03.02,1.53.08.06.28-.93.47-1.17-.07ZM439.2,265.45c-.5-.49-.05-.14-.35-.02.49-.34.67.64,1.82.77-.44-1.1-1.22-.21-1.47-.75ZM415.73,231.82c.16-.05.36.12.51.07.02-.22.11-.16.39-.08-.34,0-.39.34-.9,0ZM419.94,231.49c.26.14-.2.2-.33.28.13.07.23.09.43.12-.27.4-.45-.34-1.09-.32.08-.21.73-.01.99-.08ZM418.4,232.49c.04.13,0,.19-.07.23-.13-.06-.27-.1-.4-.14.19.03.37.02.47-.09ZM418.17,230.83c-.1.19-.22,0-.42-.09l.42.09ZM416.38,238.43c.6-.24.53.2.81.47l-.81-.47ZM417.03,238.51c.65-.14.76-.29,1.53-.18l.06.33c-.24-.15-.06-.33-.61-.35.01.22-.36.6-.98.2ZM418.02,239.18c.12-.15.59.11.81.3l-.81-.3ZM418.7,239.12c-.11-.08-.2-.08-.39-.11.48,0,1.23.2,1.43.1-.2.26-.84.11-1.03.02ZM421.63,240.01c.02-.14.2-.15.39-.1,0,0,.02,0,.02,0h0-.02c-.13,0,.07.25-.39.09ZM421.9,240.79c-.1-.1.69.46.98.67-.26-.03-1.01-.46-.98-.67ZM422.84,241.84c0,.07-.07.09-.32-.05l.32.05c.01-.12-.19-.42.28.04l-.28-.04ZM423.32,234.22l.59.14-.12-.08.23-.11c-.39.39.65.41.95.59-.39-.14-1.09.02-1.65-.54ZM425.24,235.97s-.04-.03-.05-.04c.02,0,.05.01.07.02l-.02.02ZM427.11,236.7h.5s.49.4.49.4l-.99-.4ZM427.46,244.29c-.12-.12-.53-.51-.53-.68.27.25.54.52.81.79-.09-.04-.19-.09-.28-.12ZM430.06,238.06c-.18-.23.98.83,1.17,1.13-.17.1-1.08-1.08-1.06-.75l.18.23c-.28-.35-.49.17-.78-.45l.27.28c-.28-.41.67.14.21-.45ZM430.03,237.6c-.53.05-.43-.36-.9-.51.28.05.77-.05.9.51ZM439.71,255.06c-.53.06-.43-.35-.9-.51.29.06.77-.05.9.51ZM428.97,247.11c.95-.3-.56-.68-.69-1.26.16.05.39.34.55.32-.04-.17-.26-.46-.46-.6-.08,0-.18-.02-.23-.09.07,0,.14.03.23.09l.16-.1-.06-.21c.07.08.08.15.06.21.22.46.9,1.43,1.29,1.93.04.33-.62-.18-.85-.3ZM430.1,247.23v-.03s.02.02.02.03c-.01,0-.02,0-.02,0ZM430.15,247.47c.08.05.17.11.26.16.29.41.56.83.84,1.25-.55-.45-1.12-.88-1.1-1.41ZM432.06,240.57c.13.07.16-.09.21-.14l-.07-.19,1.13.27-.98-.08c-.16.07.72,1.1.88,1.15-.21.13-.91-.73-1.18-1.01ZM431.97,250.63l.05-.18.13.46-.18-.28ZM433.84,240.81l.5.36v.07s-.51-.37-.51-.37v-.06ZM433.87,243.88c.17.11.33.15.29.04.02.27.17.44.14.54-.14-.2-.29-.38-.44-.58ZM433.79,254.06c.07.2.15.41.21.61-.07-.06-.16-.1-.23-.15.02.41.29.63.48.87.5,1.62.22.49.63,2.4-.49-1.36-1.03-2.71-1.39-4.01.24.27.3.32.31.27ZM433.88,256.42l.2-.34.15.54-.35-.2ZM434.76,259.49l-.08.24c-.11-.42-.5-.68-.34-1.3.23-.04.29.42.44.63.1-.16-.46-.68-.38-1.16.43.31.66,1.32.77,2.02.02-.02.05-.03.06-.03.01.15.03.29.05.43-.15-.13-.33-.34-.51-.83ZM435.29,263.29c-.37-.33-.06-1.4-.2-1.72.16,0,.23.1.3.17.04.61.07,1.22.06,1.84-.05-.34-.1-.73-.17-1.14v.85ZM436.34,268.83c-.37-.34-.05-1.41-.2-1.73.16,0,.7.71.78.78.03.62-.41.63-.42,1.23-.05-.34-.09-.73-.17-1.13v.85ZM435.41,267.12c-.37-.33-.05-1.4-.2-1.73.16,0,.24.11.3.18.04.61.07,1.23.06,1.84-.05-.34.26-.24.18-.64l-.34.35ZM435.36,263.81c.01.08.05.12.09.15,0,.2-.02.41-.03.62-.02-.26-.02-.52-.07-.77ZM438.04,251.3c-.16-.25-.22-.28-.22-.75.18.25.27.62.22.75ZM438.2,251.14c.24.49.61.26.62.89-.19-.41-.6-.11-.62-.89ZM439.23,259.46c-.02-.16-.04-.32-.06-.48.02.01.05.03.07.06l.11.28c-.03.14-.07.17-.12.15Z"/>
        <polygon class="cls-35" points="425 243.58 425.14 243.65 425 243.54 425 243.58"/>
        <path class="cls-35" d="M439.37,266.04s-.01-.02-.08-.06c.01.05.02.1.04.14.01-.03.03-.06.05-.08Z"/>
        <path class="cls-35" d="M439.25,266.35c.08-.03.08-.13.08-.23-.07.07-.13.14-.08.23Z"/>
        <path class="cls-35" d="M438.66,266.64c.34.29.09-.12.08-.23-.06.08-.13.15-.08.23Z"/>
      </g>
      <g>
        <path class="cls-26" d="M416.11,248.18l.22-.26c-.14-.19-.21-.02-.22.26Z"/>
        <polygon class="cls-26" points="412.1 246.32 412.1 246.32 412.11 246.3 412.1 246.32"/>
        <path class="cls-26" d="M429.82,258.43l-.39-.07c-.06.17.44.29.68.22-.09-.1.05-.27-.17-.26-.05.03-.18.05-.12.11Z"/>
        <path class="cls-26" d="M430.22,261.54c.08.05.22.03.33.06-.07-.68-.26-1.48-.04-1.78.07-.24-.49-.21-.66-.47l.36-.18c-.26-.12.08-.65-.51-.38-.06.03.31.09.21.22h-.21s.11.3.11.3l-.27-.05c-.32.45.83.17.66.7l-.54.06c.02.26.13.4.03.6-.03-.07-.08-.15-.15-.06l.16-.77c-.07-.02-.14.02-.21.08l.02-.05c-.26-.09-.45.43-.48.88-.03-.36-.07-.73-.12-1.1.12.03.26.04.36,0-.1-.1.04-.28-.17-.26-.05.04-.18.05-.12.12l-.11-.02c-.06-.39-.12-.77-.2-1.16.15.05.35.07.48.03-.1-.1.05-.28-.17-.26-.05.02-.18.05-.12.11l-.78-.99c-.25-1.1.07-1.72-.28-2.47.08.04.21.05.32.01.34.22.32.68.18,1.03l.23-.17c.52.11-.08.72.26,1.08h0c.09.11.74.07.68.36-.33,0-.33-.14-.65-.04l.51.29c-.19.12.18.51-.22.44.56.13.19.75.86.41-.49-1.13-.54-2.9-1.67-3.96l.35.1c-.78-.45.17-1.18-1.11-1.23l.56-.19c.01-.38-1.02-.19-.63-.79l-.19.15c-.04-.08.03-.17,0-.24l-.08.07c-.33-.09-.38-.22-.35-.51.16-.1.12.06.2.1.11-.19-.33-.15-.42-.31.07-.21.23-.14.32-.16-.51-.34-.11-.89-1.05-.74-.16.06-.17.27-.35.17,0,.06.02.09.02.14-.09-.14-.18-.27-.28-.4.24.06.6.1.71-.27l-.2.05c-.47-.09.14-.41.09-.71-.28-.22-1.04.11-1.05-.23-.09-.09.09-.2.23-.27-.12-.28-.66.03-.86-.07,1.17-1.1-.92-.37-.43-1.36-.27-.12-.42-.49-.9-.49.42-.17-.22-.25.15-.52-.71.61-.45-1-1.28-.16-.13-.56-.05.03-.29-.51.09-.11.16-.05.2-.05-.02-.32-.58.19-.38-.33-.23-.26-.25,0-.45.19-.11-.09-.21-.17-.32-.25.01-.14.09-.29.14-.6-.36.43-.42.05-.76.15h0c-.06-.04-.11-.08-.17-.11.11-.02.22-.06.38-.16-.32-.27-.82-.45-1.33-.46-.17-.2.26-.18.12-.33-.18-.35-.58-.09-.85-.1-.07-.03-.13-.07-.2-.1,0,0-.02-.01-.03-.03l.23-.24c-.4.28-.67-.43-1.15-.41,0,.07-.02.13-.03.18,0,0-.02,0-.03-.02.27-1.98.13-.16-.24-.11-.27-.12-.96-1.21-1.23-1.33.12-.12.24-.24.38-.27-.36.14-.68-.27-1.03,0l.22-.34c-.18-.1-.34.11-.49.26-.11-.04-.22-.07-.32-.1l.09-.18c-.73-.25-1.12.05-1.88.5,0,0,0,.02,0,.02-.16-.04-.32-.07-.49-.1.05-.19.14-.42-.04-.56-.69.44-1.35-.62-2.39.51.54.14,0,.42.36.57v.03s-.5.03-.5.03c.07.41.3,0,.49.05l-.02.17c-.12.1-.32.15-.46.12-.06.29.13.07.42.22v.03l-.63.12c1.23,1.77-2.3,2.21,1.07,3.18l-.02-.39s.08,0,.12.02c.03,0,.06.02.1.02.4.06.81.14,1.22.23-.02.18-.05.36-.15.49.17-.1.27.07.44-.02l-.2-.24c.25-.3.4-.05.38.25.15-.09.2-.2.2-.3.19.06.4.09.59.16-.08.11-.17.23-.27.26.02-.34-.34,0-.52-.11,0,.14-.05.3-.13.41.36.04.64-.27.92.21.2-.2.21-.45.24-.69.08.04.15.07.23.09-.18.09-.3.25-.31.59.04.22.2.04.33.05-.21-.27.09-.43.21-.55.11.04.21.07.32.12.02.03.02.07-.03.15l-.33.23c.6.46,1.55.74,2.36,1.02l-.31-.19c.16-.2.33-.16.5-.17v-.02c.23.13.45.28.67.41-.04,0-.08,0-.11.02.04.06.13.07.22.06.07.05.16.09.23.14-.1.11-.19.19-.25.09-.02.48.41.47.6.71.25.07.39-.06.51-.19.07.05.13.1.19.15l-.23.24c.42.18.71.46,1.29.48.07.08.14.15.22.2-.03.02-.06.02-.09.03.04.03.09.04.14.03.14.12.78.02.91.16-.04.05-.58.32-.65.36h-.09c.15.1.75.21.95.3.14.16.01.49.14.65-.02.02-.04.02-.05.04.04.06.11.09.19.11.11.14.21.28.32.41l-.07.07c.07.04.14.08.22.13-.32,1.91.73,1.33,1.2,1.91-.04.05-.02.14.03.22.02-.07.02-.14,0-.19.07.09.15.2.2.31-.04,0-.08,0-.11,0,.04.04.08.08.13.14,0-.01,0-.02,0-.02,0,0,0,0,0,.03.04.03.07.06.1.08.01.03.02.04.03.07-.1-.03-.16-.08-.14-.15h0c-.13.19-.04.42.14.64.06,0,.1-.04.15-.15.07.15.14.3.21.45-.13-.09-.25-.19-.35-.3-.09,0-.16-.08-.06.23-.1,0-.22.06-.32.09.35.58.88,1.89.8,2.25.04.21.35-.36.62-.49,0,.04.03.08.05.14l-.14.16c.13,0,.18.11.24.2.16.56.78.51.89,1.1l-.13.81c-.13.18-.01.24.17.28.02.16.05.3.06.46h-.12c.03.34-.27.29-.59.59,0,0,.26-.02.16-.06,0-.02.06-.06.12-.08,0,.05.02.1,0,.14-.1,0-.2.04-.26.14.11.11.21.26.31.42,0,.13.03.26.03.39-.05.03-.12.09-.2.22-.06-.11,0,0,.09.17.05.04.09.07.1.12,0,.03,0,.07,0,.11h0v.02h0s-.01,0-.01.02c.01,0,0-.02.01-.03-.04-.09-.07-.17-.1-.23-.28-.22-.89-.43-.91-.26-.14.08.66.47,1.01.65,0,.28,0,.55,0,.83-.04.03-.08.04-.12.06.05,0,.08.02.11.03-.01.2-.33.94-.35,1.15-.02.02-.04.03-.05.03.01.33.1.24.2.17.16.07-.54.91-.14,1.09-.02-.02,1.08.47,1.55-.53l.16-.1.1-.05.09-.08s.05.05.08.09c.11-.08.49-.46.56-1.13l.25.03c.02.06.04.11.06.14l-.13-.11-.09.32.25-.18c.05.07.1.05.24.13-.05.02.08.06.12.11l-.39-.08c-.06.17.45.3.67.21-.03-.03.12.12.11.07.14.07.12-.08.2-.04-.02-.05-.04-.11-.07-.18,0,0-.01.02-.01.02,0,0,0-.02,0-.03-.03-.08-.07-.16-.09-.23-.03-.03-.07-.05-.11-.08h.07s.02.06.04.08c.11.09.15.17.09.23,0,.01,0,0,0,0,.1-.06.23.13.24,0l.19.06c.1.05.02-.25.15-.25.07.04.12.07.17.09-.01-.03-.02-.06-.02-.09,0,0,.02,0,.04,0h0s.08,0,.08,0c0-.05,0-.07,0-.12.13.18.25.39.31.6.09.03.11.14.14-.19.09.06.22.03.34.05-.07-.61-.04-1.49.13-1.94.3-.13.69-.04.86.23.38-.59-.66-1.05-.61-1.61ZM409.23,244.9s-.09,0-.13,0c.07-.06.11-.1.14-.15v.15ZM410.6,241.25h0s0,0,0,0ZM413.36,240.96c0-.05.02-.1,0-.17.2-.1.16.12.2.22-.06-.02-.13-.04-.19-.06ZM413.73,241.06s-.02,0-.03,0c.02,0,.03,0,.05-.01,0,0-.02,0-.02.02ZM414.34,246.75s.03-.03.03-.04c.12.05.22.1.33.15-.15.09-.34.07-.36-.11ZM415.08,247.22s.07-.07.11-.12c.03.02.07.04.11.06-.08.03-.18.07-.22.06ZM421.93,246.47s.08-.02.12-.03c.05.06.08.15.11.23-.08-.06-.15-.13-.23-.2ZM423.82,248.39c-.13-.14-.24-.28-.38-.41-.06-.13-.13-.25-.25-.35.16-.03.27-.23.37-.15.27.23.08.62.44.76l-.19.15ZM423.36,256.23c-.42-.17-.09-.14.14-.26.02.05.05.09.07.14-.07.05-.13.1-.21.12ZM423.57,256.86l.21-.12c.04.1.09.22.13.34-.17.02-.32,0-.34-.22ZM425.22,250.17s.08,0,.13,0l-.1.05s-.03-.04-.04-.06ZM426.13,251.57c-.12-.2-.24-.39-.36-.58.15.11.37.18.58.26l-.05-.08c.87-.21-.06.27.46.44-.35.08-.44-.08-.63-.04ZM426.69,252.45c.11.06.46-.06.63-.1-.28.29.24.07.15.33-.29.22-.35,0-.56.01l.31.1c.08.13-.08.27-.23.39-.11-.22-.21-.45-.33-.67.01-.02.02-.05.03-.07ZM427.05,253.29c.06-.06.07-.15.32-.17-.3.41.26,1.21.7,1.54-.06-.08-.2-.03-.28-.03-.18-.38-.41-.8-.75-1.35ZM430.14,260.62c.35.38-.06.13-.35.2,0-.02,0-.02,0-.03,0-.02-.02-.04-.03-.06.06-.05.24-.12.37-.1ZM429.12,262.31c0-.05,0-.1,0-.16.02.04.03.1,0,.17t0,0ZM429.12,263.18s.04,0,.07.01c0,.02-.03.02-.06.01,0,0,0-.02,0-.03ZM429.08,264.1s0-.09,0-.13c.08-.05.22-.09.34-.07.35.38-.06.12-.34.2ZM429.45,263.35c.02.06.04.11,0,.2h0c0-.06,0-.12,0-.2ZM430.09,262.61c-.03.05-.07.09-.09.14-.1,0-.33.13-.55.2.04-.59.12-1.19.25-1.37.06-.16-.29.07-.58.16,0-.06,0-.12,0-.18l.03-.02s-.02-.02-.04-.03c-.01-.16-.02-.32-.04-.47,0,.03,0,.07.02.09.05-.06.12-.07.19-.07,0,0,0,.03.01.04.03-.03.06-.04.1-.06.04,0,.09,0,.12,0,.06,0,.12,0,.18-.02.35.42.63,1.14.24,1.36.3-.2.67.1.64.34-.2.11-.32-.07-.48-.12Z"/>
        <path class="cls-26" d="M429.25,266.2c.07-.03.09-.12.07-.23-.07.08-.13.15-.07.23Z"/>
        <path class="cls-26" d="M429.03,265.24c-.06-.11,0,0,.09.17.11.08.15.18.1.24h0c.19-.12.21-.37.14-.64-.07-.02-.17,0-.33.24Z"/>
        <path class="cls-26" d="M429.37,265.89s0-.02-.08-.06c0,.06.03.09.03.14.02-.02.03-.05.05-.08Z"/>
        <path class="cls-26" d="M429.21,265.65c-.04-.09-.07-.17-.1-.24-.22-.17-.65-.34-.82-.32,0-.01,0-.03,0-.05-.02.04-.05.06-.07.09,0,.02-.02,0-.02.02-.01,0,0,.02,0,.03,0,.02,0,.02,0,.05h0s0,.04.01.05c.02,0,.02-.02.02-.03.18.16.8.46,1.04.58-.02-.06-.04-.11-.07-.18,0,0,0,0-.02.01.01,0,.01-.02.01-.02Z"/>
        <path class="cls-26" d="M428.26,264.9s.02.1.03.14c.02-.03.04-.06.06-.08.03,0-.01-.01-.09-.06Z"/>
        <path class="cls-26" d="M428.92,264.99c.07-.04.08-.12.07-.23-.06.08-.12.14-.07.23Z"/>
        <path class="cls-26" d="M429.04,264.68s-.02-.02-.09-.06c.01.05.03.09.03.14.02-.03.04-.06.06-.08Z"/>
        <path class="cls-26" d="M422.56,254.42s.02,0,.1,0c-.03-.05-.07-.08-.09-.11,0,.03-.02.06-.02.1Z"/>
        <polygon class="cls-26" points="430.68 261.69 430.56 261.6 430.57 261.82 430.68 261.69"/>
      </g>
      <g>
        <path class="cls-29" d="M448.93,213.61s-.02.01-.05.08c.04,0,.1-.02.14-.02-.04-.03-.06-.05-.09-.06Z"/>
        <path class="cls-29" d="M461.13,237.34l-.03-.13c-.07.05-.11.09.03.13Z"/>
        <polygon class="cls-29" points="464.67 232.28 464.5 232.29 464.52 232.34 464.67 232.28"/>
        <path class="cls-29" d="M459.36,237.09l-.3.21c.19,0,.3-.11.3-.21Z"/>
        <path class="cls-29" d="M462.79,229.54l.25-.02c-.1-.05-.18-.02-.25.02Z"/>
        <path class="cls-29" d="M464.77,235.82l-.15-.29c-.09-.17-.14-.32.16-.47l-.3-.13.27-.4c-.62-.11,0-.62-.57-.75.04-.49.35.11.31-.07,1.18-.77-.32-1.31,0-1.43-.08-.21-.08-.42-.07-.62l.02-.29v-.14s0,0,0,0h0c-.09-.12-.08-1.05-1.09-1.37h-.02s-.03,0-.03,0h-.06s0-.13,0-.13v-.14s-.05.01-.09.03c-.14.03-.29.08-.42.02l.06-.1c-.61.04-1.09-.06-1.59-.15.08-.16.11-.27.4-.28-.38-.31-1.3.08-1.91-.35l.1-.1-.45.04c.11-.05.1-.15.15-.26-.59-.34-1.39-.56-1.93-.37.22-.01-.1-.46.34-.42-.75-.09-1.44-.66-2.14-1.01h0s-.31-.11-.31-.11v-.05s.23.09.23.09c-.25-.19-.5-.34-.79-.41.03-.1.15-.33.09-.53-.25.23-.4-.84-.95-.86.03-.09.16.07.15-.09-.58-.7-1.8-1.66-2.04-2.83-.63.2-.84-.78-1.38-1.28.3-.28.32.26.66.32-.21-.3.42-.23-.11-.7.06,0,.08-.02.12.02-.13-.15-.39.24-.48-.25l.25-.1-.41-.22c0-1.14-.55-2.04-.26-3.04-.06-.06-.19-.02-.27.11.02-.44-.43-.97-.15-1.49l.11.14c.12-.41.04-.61-.08-.85-.24-.33.26.24-.59-.89-.1.02-.22.05-.36.06-.04-.03-.1-.04-.16-.02,0,0,.02.02.03.03-.04,0-.08,0-.13,0,.04,0,.09,0,.15,0,.06.05.11.07.17.03,0-.01-.02-.02-.03-.01.06,0,.12,0,.18,0h.12c.04.06.06.09.09.12h-.39c-.16-.05-.2.12-.29.02l.03.16-.23-.03c.07-.12.11-.21.15-.29-.06.02-.12.05-.19.06t.02.02s-.02,0-.03,0c-.09.03-.16.07-.23.1-.02.03-.05.06-.07.09h-.09s.09-.06.16-.09c.09-.11.17-.16.23-.1h0c-.11-.18-.33-.2-.58-.15h-.06s0,0,0,0c0,0-.01,0-.01,0-.01.04,0,.08.02.12v.02h.01s.08.11.19.18l-.14-.02s.01,0,0-.02h-.05s-.19,0-.19,0c-.09-.02,0-.11-.12-.13.14-.09.13-.1.27-.14.04-.1.14-.13-.19-.15.02-.05.03-.09.04-.14.15.03.17-.11.39-.12l-.39.06s.02-.09.02-.14c-.88-1.04-2.25-1.33-2.54-1.56-.11-.04-.05.11.03.28l-.11-.04c-.06.14-.21.44-.32.46h-.09c.04-.25.09-.45.16-.53.08-.24-.77.87-.93.61l.35-.18c-.25-.12.08-.65-.5-.38-.06.02.31.09.22.23h-.22s.12.29.12.29l-.28-.05c-.23.32.34.26.57.42l-.28-.04c-.01.12-.02.23-.03.35l-.14.02c.02.32.41,1.33.08,1.63,0,0,.27,0,.16-.06,0,0,.02-.01.03-.03,0,.03,0,.07,0,.1-.07.02-.12.05-.16.11.05.05.1.12.15.18,0,.27,0,.54.01.81,0,.01-.02.02-.02.04-.05-.08-.02-.02.03.07,0,.02,0,.04,0,.07-.29-.2-.84-.39-.86-.23-.14.07.49.39.87.59.03.28.05.58.09.86l-.15-.23c.18.86-.34-.06-.45.62.36.7-.46,1.3-.4,1.72.22.77.26-.38.54.07.15.4-.15.25-.13.53l.44.08c.2.44-.36.13-.13.36-.12.44-.18-.08-.51-.08.12.06.39.43.29.65-.12.03-.29-.47-.23-.13.54,1.14.3,1.54.77,2.58h-.22c.09.09.21.15.19.29h-.15c.05.16,1.91.72,2.19,1.42l-.4-.22.56.44-.34.13c.42.02.65.79,1.07,1.25l-.19.13.32.24-.2-.03c.21.33.8.45.91.9-.11-.27-.44-.11-.55.01l-.06.97c-.11.12.16.56-.19.39l.49.18-.16.08c.96,1.6,2.93,1.76,3.79,3.44l-.06.04,1.08.31c.12.15-.04.45.16.72.08-.35.53.31.85.18.13.25-.12.18-.25.25.66.86,1.65.79,2.53,1.51-.76-.94-.83-.81-1.37-1.37.84.29.83.62,1.71.99l-.46-.07c.21.71,1.43.4,1.35.97.58.13,1.21-.17,1.85.13l-.46.37.63.19.1-.32c.2.05.29.13.29.22.53-.25,1.04.16,1.7-.06l.04.18.14-.1c.07.3.56.29.55.55-.2.04-.68.11-.62-.06-.56.24.58.29.9.34-.33-.22.14-.19.33-.21.03.04-.04.06-.08.12l.1.04h.03s0,.02,0,.02h0c.97.03,1.67-1.36,2.31-1.87h0v-.05s-.02-.16-.02-.16ZM444.6,219.13l-.1-.16c.03-.1.09-.11.13-.1.02.09.04.18.07.26-.04,0-.07.01-.1,0ZM444.59,223.82c.17.22.56-.06.56.45-.22-.27-.58-.03-.56-.45ZM445.31,224.13c.14.14.21.13.18.45-.14-.13-.24-.36-.18-.45ZM450.45,218.93l-.23.22-.08-.33.32.11ZM449.61,213.84c.47.58.08.17.2.35l-.15.1c0-.08-.08-.14-.16-.17,0-.02.11-.24.11-.27ZM449.49,214.14c.07.05.1.12.09.25l-.1-.08s0-.11.01-.17ZM449.48,214.52c.05.21.07.46.14.71l.03-.52c.35.23,0,.86.11,1.07-.21,0-.27-.13-.34-.15,0-.38.03-.75.06-1.12ZM449.46,216.81c0-.09,0-.19,0-.29.13.1.28.22.4.54l.12-.15c.01.27.45.41.26.79-.23.03-.28-.24-.42-.38-.12.1.49.4.32.71-.34-.18-.67-.79-.6-1.23-.02.02-.04,0-.07.02ZM449.03,230.61l-.35-.19.02-.06.34.19v.05ZM449.2,228.26c.02-.21-.1-.31-.02-.4.1.14.2.25.31.38-.15-.06-.3-.05-.29.03ZM450.16,220.43c-.04-.13-.08-.23-.12-.35.06.02.12.05.18.07.07-.3-.17-.43-.31-.6-.12-.51-.23-1.02-.31-1.55.34.88.69,1.75.83,2.6-.16-.12-.25-.17-.27-.16ZM450.19,230.36l.04.13-.29-.18.18.08c.14-.1-.16-.42-.29-.44.2-.14.37.1.57.25-.1-.02-.14.1-.2.16ZM451.23,222.69v-.31s.09.17.09.17l-.09.14ZM452.21,222.46c-.09-.01-.08.02-.06.06l-.1-.14c.06-.09.1.04.16.07ZM451.61,223.64c.43.25.89.47.75.89l-.27-.11c-.17-.25-.33-.52-.48-.78ZM452.34,224.75s-.02-.03-.03-.05c.01,0,.03,0,.03,0v.04ZM451.15,231.82c.14-.1.42.22.45-.05l-.11-.15c.16.23.42-.24.55.19l-.17-.17c.17.28-.52.04-.23.41.11.15-.39,0-.49-.24ZM451.6,232.44c.43-.16.26.23.59.27-.21,0-.59.16-.59-.27ZM453.2,225.29c0,.13.14.31.28.38l-.16.11.02.15c-.05-.05-.04-.11-.02-.15-.11-.3-.46-.94-.7-1.25.05-.23.5.03.67.07-.85.39.31.43.33.83-.13,0-.26-.18-.42-.14ZM453.28,232.77l-.29-.26.67.14-.38.12ZM453.72,226.42c.1.02.2.06.3.05.08.08.33.34.27.49-.19-.18-.39-.35-.57-.54ZM454.88,233l.04-.03s.05.03.08.05c-.04,0-.08-.02-.12-.02ZM455.67,234.26l-.18.13c.35-.43-.4-.26-.6-.36.26.06.81-.24,1.09.22l-.38-.05.07.06ZM456.9,227.6h.18c.01-.07.07-.11.22-.02h-.22c-.03.13.06.35-.18.02ZM457.55,228.4c.05.07-.39-.31-.56-.45.17-.02.61.24.56.45ZM457.34,229.22s-.01,0-.01,0c.08-.06,0-.2.29-.18-.03.11-.16.17-.28.18ZM459.97,229.13c-.09.15-.36-.06-.49-.18l.49.18ZM457.92,236.39c-.16-.11.15-.2.26-.3-.08-.06-.14-.06-.27-.07.23-.42.25.28.69.19-.08.21-.49.08-.68.18ZM458.85,229.48c.18-.26.57-.25.69-.21l.23.06c-.29.04-.75.03-.92.14ZM459.09,235.26c-.01-.12.01-.2.06-.24.08.03.16.05.23.08-.12,0-.22.02-.3.16ZM459.05,236.82c.08-.2.15-.03.27.05l-.27-.05ZM459.53,230.03v-.32c.14.11,0,.32.36.28.02-.23.28-.61.64-.33-.43.26-.52.38-1,.38ZM460.47,229.31l.48.27c-.41.35-.34-.06-.48-.27ZM460.41,235.63c-.03.22-.07.16-.26.11.22-.03.29-.36.58-.08-.1.06-.21-.09-.32-.03ZM461.78,230.07c-.02-.26.33-.48.67-.38.43-.13.08.41.27.28-.21.24-.63.11-.95.11ZM462.02,236.01c-.03-.12-.02-.21-.02-.29.16.02.33.04.48.06-.1.1-.26.18-.46.23ZM463.04,233.73s-.08.01-.12.01l.11-.97c0,.24.1.46.11.5l.06-.38c.45.27-.28.56-.16.83ZM464.31,232.18l-.14-.35.17.26-.03.09Z"/>
        <polygon class="cls-29" points="455.78 226.61 455.67 226.58 455.76 226.64 455.78 226.61"/>
      </g>
    </g>
  </g>
  <path class="cls-6" d="M186.78,336.73c-60.85,0-92.11-8.45-107.89-15.96,6.64,72.01,35.01,125.5,114.74,125.5s108.74-54.71,114.95-127.95c-17.89,7.99-54.19,18.41-121.8,18.41Z"/>
  <g>
    <g>
      <g>
        <path class="cls-25" d="M138.44,410.77h.33c.43,0,.91.06.91.6.01.47-.4.57-.84.57h-.38s-.01-1.18-.01-1.18ZM137.96,412.37h.93c.71-.03,1.32-.2,1.32-.95,0-.5-.35-.81-.82-.84h0c.44-.13.71-.37.7-.85,0-.65-.51-.87-1.23-.87h-.95s.04,3.5.04,3.5ZM138.42,409.28h.53c.29-.01.65.09.66.51,0,.51-.41.56-.88.57h-.28s-.01-1.08-.01-1.08Z"/>
        <path class="cls-25" d="M141,412.33h.47s-.01-1.17-.01-1.17c0-.64.26-1.04.69-1.05.08,0,.17.02.26.04v-.41c-.11-.02-.17-.04-.32-.03-.27,0-.54.2-.67.46h0v-.39s-.45,0-.45,0l.03,2.55Z"/>
        <path class="cls-25" d="M144.05,409.69c.78-.01,1.3.55,1.31,1.32.01.73-.51,1.33-1.28,1.35-.78,0-1.31-.59-1.32-1.32,0-.78.5-1.34,1.29-1.35ZM144.08,411.98c.54,0,.78-.51.78-.97,0-.48-.31-.95-.8-.95-.51,0-.8.48-.8.97.01.45.26.95.82.95Z"/>
        <path class="cls-25" d="M147.51,411.26c0,.38-.23.68-.7.68-.22,0-.48-.14-.48-.41,0-.44.61-.49.88-.49.1,0,.2,0,.29,0v.22ZM146.14,410.3c.18-.16.47-.26.74-.27.47,0,.63.22.63.66-.17-.01-.31,0-.49,0-.49,0-1.18.21-1.18.85,0,.57.39.8.94.79.42,0,.68-.24.79-.39h.01s0,.33,0,.33h.44c-.01-.09-.02-.22-.03-.5v-1.05c-.01-.7-.32-1.05-1.05-1.05-.32,0-.6.11-.84.26l.04.4Z"/>
        <path class="cls-25" d="M149.1,410.95c-.02-.46.18-.95.69-.96.51,0,.76.47.77.95,0,.43-.21.95-.74.96-.5,0-.72-.56-.72-.96ZM150.6,412.22h.46s-.05-3.76-.05-3.76h-.47s.02,1.55.02,1.55h0c-.15-.23-.41-.4-.86-.4-.73.01-1.09.62-1.08,1.31,0,.7.34,1.37,1.11,1.36.45,0,.73-.24.85-.43h0s0,.36,0,.36Z"/>
        <path class="cls-25" d="M153.48,409.67c-.14-.05-.39-.09-.57-.09-.78.01-1.29.58-1.28,1.36,0,.73.54,1.32,1.31,1.32.17,0,.4-.02.59-.11l-.05-.42c-.13.1-.34.15-.5.15-.61.01-.86-.49-.86-.94,0-.48.29-.96.81-.97.15,0,.33.03.51.1l.04-.39Z"/>
        <path class="cls-25" d="M155.57,411.17c0,.38-.23.67-.69.67-.22,0-.49-.13-.49-.4,0-.45.63-.49.89-.5.1,0,.2,0,.29,0v.23ZM154.19,410.2c.18-.17.47-.26.74-.27.46,0,.62.22.63.66-.19,0-.31,0-.5,0-.49,0-1.18.22-1.18.85,0,.57.4.8.94.79.43,0,.68-.24.79-.39h0s0,.33,0,.33h.44c-.02-.09-.03-.22-.03-.5v-1.06c-.02-.7-.32-1.05-1.05-1.04-.33,0-.62.11-.85.25l.04.39Z"/>
        <path class="cls-25" d="M156.63,412.07c.22.11.47.14.71.13.46,0,.89-.26.88-.8,0-.82-1.12-.65-1.12-1.17,0-.21.21-.31.45-.32.11,0,.4.06.49.12l.04-.41c-.19-.05-.36-.09-.59-.09-.5,0-.9.27-.89.79,0,.72,1.11.67,1.12,1.13,0,.27-.26.36-.48.36-.14,0-.4-.05-.58-.17l-.02.42Z"/>
        <path class="cls-25" d="M160.13,409.55h-.69s0-.73,0-.73l-.46.16v.59s-.57,0-.57,0v.38s.59-.01.59-.01v1.5c.02.51.32.73.81.73.16,0,.3-.04.4-.07v-.4c-.08.05-.17.09-.33.09-.21,0-.4-.15-.4-.45v-1.4s.66,0,.66,0v-.38Z"/>
        <path class="cls-25" d="M160.8,412.09h.48s-.03-2.56-.03-2.56h-.48s.03,2.56.03,2.56ZM161.26,408.44h-.53s0,.54,0,.54h.54s0-.54,0-.54Z"/>
        <path class="cls-25" d="M162.1,409.53h.47s0,.4,0,.4h0c.14-.3.47-.47.83-.47.66,0,.97.4.97,1.08v1.51s-.46,0-.46,0v-1.32c-.02-.59-.15-.89-.56-.91-.54,0-.77.44-.77,1.06l.02,1.18h-.48s-.03-2.55-.03-2.55Z"/>
        <path class="cls-25" d="M167.45,411.9c.01.78-.38,1.22-1.29,1.24-.29,0-.52-.03-.93-.16l.04-.44c.37.16.58.22.93.22.49,0,.78-.34.78-.89v-.24h-.02c-.18.26-.52.39-.85.4-.73,0-1.09-.59-1.1-1.25-.01-.65.36-1.36,1.12-1.37.45,0,.7.15.84.43h.01v-.38s.43,0,.43,0l.02,2.44ZM166.97,410.78c0-.54-.26-.99-.76-.98-.48,0-.7.52-.7.96,0,.48.28.9.72.88.44,0,.74-.39.74-.87Z"/>
        <path class="cls-25" d="M172.06,409.04c-.22-.13-.47-.19-.72-.19-.81,0-1.34.6-1.33,1.39.01.82.61,1.36,1.34,1.34.25,0,.58-.07.75-.18l.04.48c-.26.12-.58.13-.79.14-1.1,0-1.85-.69-1.86-1.8-.01-1.08.76-1.81,1.82-1.82.27,0,.53.03.79.14l-.04.49Z"/>
        <path class="cls-25" d="M173.01,410.68c0-.48.29-.96.79-.96.51,0,.81.46.82.94,0,.46-.24.96-.79.97-.56,0-.82-.48-.82-.95ZM172.51,410.68c0,.73.56,1.33,1.32,1.32.77,0,1.29-.62,1.27-1.35,0-.77-.53-1.33-1.3-1.32-.79,0-1.3.58-1.29,1.35Z"/>
        <path class="cls-25" d="M175.73,409.37h.45s0,.4,0,.4h.01c.14-.29.48-.47.83-.48.67,0,.97.39.98,1.08l.02,1.51h-.48s-.02-1.31-.02-1.31c0-.59-.14-.89-.55-.9-.53,0-.78.44-.77,1.06l.02,1.17h-.46l-.03-2.54Z"/>
        <path class="cls-25" d="M180.14,409.31h-.68s0-.73,0-.73l-.47.15v.58s-.57,0-.57,0v.38s.58,0,.58,0l.02,1.5c0,.5.31.73.79.73.15,0,.3-.04.4-.07v-.4c-.07.05-.18.09-.32.09-.21,0-.4-.15-.4-.45v-1.4s.66,0,.66,0v-.38Z"/>
        <path class="cls-25" d="M181.08,410.33c.03-.33.21-.71.67-.72.4,0,.64.31.64.7l-1.32.02ZM182.7,411.25c-.11.1-.47.27-.78.27-.45,0-.85-.34-.85-.84l1.82-.02c0-.83-.29-1.44-1.15-1.43-.72,0-1.18.55-1.18,1.3.01.83.43,1.37,1.34,1.36.42,0,.62-.1.8-.17v-.48Z"/>
        <path class="cls-25" d="M183.51,409.27h.46s0,.4,0,.4h0c.13-.29.49-.47.83-.47.66-.01.96.39.97,1.08l.02,1.51h-.47s-.02-1.31-.02-1.31c0-.6-.14-.89-.55-.91-.53,0-.77.44-.77,1.06v1.18s-.46,0-.46,0l-.03-2.55Z"/>
        <path class="cls-25" d="M187.93,409.22h-.68s0-.74,0-.74l-.47.16v.59s-.56,0-.56,0v.38s.57,0,.57,0l.02,1.49c.01.51.31.74.8.73.15,0,.29-.05.39-.07v-.4c-.07.05-.18.09-.32.09-.22,0-.4-.15-.41-.45l-.02-1.4h.69s0-.38,0-.38Z"/>
        <path class="cls-25" d="M190.42,408.69h.42c.31-.01.77.14.78.58,0,.46-.38.63-.69.63h-.49s-.02-1.21-.02-1.21ZM189.95,411.74h.5s-.01-1.39-.01-1.39h.48c.63-.01,1.24-.3,1.23-1.08-.01-.79-.61-1.03-1.32-1.03h-.92s.04,3.5.04,3.5Z"/>
        <path class="cls-25" d="M192.71,411.71h.48s-.02-1.17-.02-1.17c0-.64.27-1.04.69-1.05.07,0,.17.01.26.04v-.42c-.1-.02-.18-.03-.31-.04-.27,0-.54.2-.66.46h-.02v-.39h-.45s.03,2.56.03,2.56Z"/>
        <path class="cls-25" d="M194.48,410.42c0,.73.54,1.32,1.31,1.32.76-.01,1.29-.62,1.28-1.35,0-.77-.53-1.33-1.31-1.31-.78,0-1.29.57-1.29,1.35ZM194.98,410.41c0-.48.28-.96.8-.97.49,0,.79.47.8.95,0,.46-.23.96-.78.96-.56,0-.8-.49-.82-.94Z"/>
        <path class="cls-25" d="M197.72,411.65h.46s-.01-1.29-.01-1.29c0-.47.18-.95.67-.95.37,0,.45.39.46.71l.02,1.51h.47s-.02-1.29-.02-1.29c0-.47.19-.95.67-.95.38,0,.46.39.47.71l.02,1.52h.47s-.02-1.64-.02-1.64c0-.56-.25-.98-.89-.97-.23,0-.62.14-.79.5-.13-.35-.43-.49-.73-.48-.37,0-.61.14-.8.44h0s0-.38,0-.38h-.44s.03,2.56.03,2.56Z"/>
        <path class="cls-25" d="M201.98,410.33c.01.73.55,1.33,1.31,1.31.77,0,1.3-.61,1.29-1.34,0-.78-.54-1.33-1.32-1.32-.78,0-1.29.57-1.28,1.35ZM202.48,410.32c0-.48.29-.96.79-.97.5,0,.81.47.81.95,0,.46-.24.96-.79.96-.56,0-.81-.49-.81-.94Z"/>
        <path class="cls-25" d="M206.56,409h-.68s0-.73,0-.73l-.47.15v.59h-.57s0,.38,0,.38h.56s.02,1.48.02,1.48c0,.51.32.74.8.73.16,0,.3-.05.41-.08v-.39c-.07.04-.19.09-.32.09-.23,0-.4-.14-.41-.45l-.02-1.4h.68s0-.38,0-.38Z"/>
        <path class="cls-25" d="M207.2,408.98h.48s.03,2.55.03,2.55h-.48s-.03-2.55-.03-2.55ZM207.7,408.41h-.53s0-.52,0-.52h.53s0,.52,0,.52Z"/>
        <path class="cls-25" d="M208.38,410.25c0,.73.55,1.33,1.31,1.32.77,0,1.29-.61,1.29-1.35-.01-.77-.53-1.33-1.32-1.32-.77,0-1.29.58-1.28,1.35ZM208.88,410.24c0-.48.29-.96.79-.97.49,0,.8.46.8.95.01.46-.23.95-.78.96-.55,0-.8-.48-.81-.94Z"/>
        <path class="cls-25" d="M211.59,408.93h.46s0,.4,0,.4h0c.13-.3.47-.47.83-.48.66,0,.96.4.96,1.09l.02,1.51h-.47s-.02-1.31-.02-1.31c0-.6-.14-.89-.54-.9-.54,0-.78.44-.77,1.06l.02,1.17h-.47s-.03-2.54-.03-2.54Z"/>
        <path class="cls-25" d="M216.04,407.94l1.86-.02v.43s-1.36.02-1.36.02v1.03s1.31-.02,1.31-.02v.44s-1.29.02-1.29.02l.02,1.58h-.5s-.05-3.48-.05-3.48Z"/>
        <path class="cls-25" d="M218.89,410.12c0-.47.28-.96.78-.96.5-.01.8.47.81.94,0,.46-.23.96-.77.97-.56,0-.81-.49-.82-.95ZM218.38,410.13c.01.73.55,1.33,1.32,1.32.77-.02,1.29-.63,1.28-1.35,0-.77-.53-1.33-1.31-1.32-.78.02-1.29.58-1.29,1.35Z"/>
        <path class="cls-25" d="M223.88,411.34h-.46s0-.39,0-.39h0c-.14.29-.48.46-.84.47-.66,0-.95-.4-.96-1.09l-.02-1.51h.46s.02,1.32.02,1.32c0,.59.14.89.55.9.53,0,.78-.44.77-1.06v-1.18s.46,0,.46,0l.02,2.55Z"/>
        <path class="cls-25" d="M224.68,411.33h.47s0-1.19,0-1.19c-.01-.62.23-1.05.76-1.06.41.02.54.31.55.91l.02,1.31h.47s-.01-1.51-.01-1.51c-.01-.69-.32-1.1-.98-1.09-.35,0-.69.18-.81.47h-.02v-.41s-.47,0-.47,0l.03,2.55Z"/>
        <path class="cls-25" d="M228.06,410c-.01-.46.18-.95.69-.95.51,0,.76.48.77.95,0,.43-.2.95-.74.96-.5,0-.72-.56-.71-.96ZM229.55,411.27h.44s-.05-3.75-.05-3.75h-.46s.02,1.55.02,1.55h-.01c-.15-.24-.41-.41-.85-.4-.74,0-1.1.62-1.09,1.31.01.7.34,1.37,1.12,1.37.45,0,.74-.25.87-.43h0s0,.36,0,.36Z"/>
        <path class="cls-25" d="M232.31,410.25c0,.38-.24.67-.71.68-.21,0-.48-.14-.48-.41,0-.45.62-.49.88-.49.1,0,.21,0,.3,0v.23ZM230.92,409.28c.19-.17.47-.26.74-.27.48,0,.64.22.64.66-.18-.01-.31-.01-.5,0-.49,0-1.18.21-1.18.86,0,.56.39.79.94.78.43,0,.68-.24.79-.39h.02v.32h.43c0-.08-.02-.22-.03-.5v-1.06c-.02-.7-.33-1.05-1.05-1.04-.33,0-.6.1-.83.25l.02.4Z"/>
        <path class="cls-25" d="M234.91,409.04h-.67s.02,1.4.02,1.4c0,.3.18.45.4.45.14,0,.24-.04.31-.09v.4c-.1.03-.24.06-.39.07-.48,0-.78-.22-.8-.73v-1.49s-.59,0-.59,0v-.37s.57-.01.57-.01v-.59s.46-.15.46-.15v.73s.69,0,.69,0v.38Z"/>
        <path class="cls-25" d="M236.05,407.54h-.54s0,.54,0,.54h.54s0-.54,0-.54ZM235.58,411.2h.48l-.03-2.56h-.47s.03,2.56.03,2.56Z"/>
        <path class="cls-25" d="M237.24,409.9c0-.48.28-.96.79-.97.49,0,.79.47.8.95,0,.45-.23.96-.78.96-.56,0-.8-.48-.81-.94ZM236.73,409.91c0,.74.54,1.33,1.31,1.32.77,0,1.29-.62,1.28-1.34,0-.78-.54-1.33-1.31-1.32-.78.01-1.3.58-1.29,1.35Z"/>
        <path class="cls-25" d="M241.2,408.9c-.53,0-.77.44-.76,1.06v1.18s-.45,0-.45,0l-.04-2.55h.45s0,.4,0,.4h.02c.13-.3.47-.47.83-.48.66,0,.95.4.95,1.09l.03,1.51h-.47"/>
      </g>
      <g>
        <path class="cls-25" d="M137.79,400.22c-.28,0-.49-.08-.65-.25-.15-.16-.22-.38-.22-.66l-.06-4.43h1.14s.02,1.68.02,1.68c0,.06,0,.11.04.13.02.02.07.03.15.03l2.37-.03s.09-.01.11-.03c.02-.02.03-.08.03-.16l-.02-1.66h1.11s.06,4.37.06,4.37c0,.28-.06.51-.19.67-.14.2-.34.3-.61.31l-3.29.04ZM140.7,397.78s-.05-.02-.11-.02l-2.36.03c-.09,0-.15,0-.17.03,0,.02-.02.08-.02.17l.02.98c0,.08.02.13.05.16.03.02.07.04.15.04l2.35-.03s.08-.02.1-.04c.03-.04.05-.09.05-.16v-.97c-.01-.1-.02-.15-.05-.18ZM140.45,404.72c-.53-.47-.81-1.02-.81-1.68-.01-.69.24-1.28.76-1.77.51-.47,1.11-.73,1.81-.73.71,0,1.31.22,1.85.68.54.49.82,1.07.83,1.76,0,.65-.26,1.21-.78,1.7-.52.47-1.13.71-1.82.72-.69,0-1.32-.22-1.84-.68ZM141.13,402c-.28.27-.42.6-.41.99,0,.37.16.69.46.96.3.26.66.38,1.08.38.41,0,.76-.13,1.05-.4.3-.27.45-.59.44-.97,0-.37-.16-.7-.46-.97-.3-.26-.67-.39-1.08-.39-.43,0-.79.14-1.07.41ZM144.88,398s-.02.09-.02.2l.03,2.26-1.16.02-.07-5.94h1.15s.02,2.16.02,2.16c0,.09,0,.15.02.17.02.03.09.04.18.04h1.45s0,1.05,0,1.05h-1.48c-.09.01-.13.02-.15.04Z"/>
        <path class="cls-25" d="M148.68,399.26l4.1-.05s.09,0,.1-.03c.02-.02.04-.05.04-.1l-.02-1.38h1.13s.02,1.37.02,1.37c0,.06.01.09.02.09.02.03.05.04.1.03l4.11-.05v1.07s-9.6.11-9.6.11v-1.06ZM155.05,397.73c-.64-.32-1.14-.74-1.5-1.27-.38.54-.89.98-1.53,1.32-.55.3-1.24.55-2.06.72l-.69-1.03c1.06-.11,1.93-.4,2.61-.87.71-.51,1.07-1.12,1.06-1.83v-.39s1.19-.02,1.19-.02v.39c.01.71.34,1.28.98,1.73.64.45,1.5.68,2.59.72l-.65,1.09c-.8-.13-1.47-.33-2-.58ZM151.66,404.64c-.54-.45-.81-1-.81-1.65,0-.69.24-1.26.77-1.71.49-.43,1.08-.65,1.8-.66.72,0,1.32.2,1.85.63.55.44.82,1,.83,1.68,0,.65-.25,1.21-.79,1.67-.51.44-1.11.67-1.81.68-.71,0-1.32-.2-1.83-.63ZM152.32,402.01c-.29.25-.43.56-.43.95,0,.37.16.68.47.92.29.24.66.35,1.09.34.46,0,.82-.13,1.12-.37.29-.23.42-.55.42-.93,0-.38-.15-.7-.46-.94-.31-.22-.67-.33-1.1-.33-.44,0-.81.12-1.09.35Z"/>
        <path class="cls-25" d="M160.79,399.95l3.69-.04s.09-.01.11-.04c.02-.01.03-.05.03-.1l-.02-1.62h1.13s.02,1.61.02,1.61c0,.03.02.08.03.09.03.03.05.04.1.04l4.53-.05v1.06s-9.61.12-9.61.12v-1.07ZM167.91,397.92c0-.1-.01-.17-.05-.2-.03-.02-.1-.04-.2-.04l-5.6.07v-1.08s5.6-.07,5.6-.07c.09,0,.15-.03.2-.08.02-.03.04-.1.03-.2v-.64c0-.11-.02-.17-.06-.2-.04-.03-.11-.05-.2-.05l-5.65.07v-1.08s6.2-.08,6.2-.08c.26,0,.49.09.64.25.15.17.22.39.22.66l.05,4.04h-1.15s-.02-1.38-.02-1.38ZM162.33,404.38c-.14-.18-.22-.41-.22-.69l-.03-2.27,1.19-.02.02,2.03c0,.08,0,.13.02.15.02.03.08.04.18.03l5.8-.07v1.05s-6.29.08-6.29.08c-.28,0-.52-.1-.68-.29Z"/>
        <path class="cls-25" d="M174.57,400.23c-.32,0-.57-.07-.75-.24-.18-.16-.27-.41-.28-.72l-.04-3.94c0-.3.07-.53.24-.67.15-.11.37-.19.66-.18l3.08-.04v1.09s-2.71.03-2.71.03c-.06,0-.1,0-.12.02,0,.02,0,.05,0,.12v.95s.02.08.02.1c.02.02.05.02.12.02l2.42-.03v1.08s-2.41.03-2.41.03c-.06,0-.1,0-.12.02-.01,0,0,.04,0,.11v1.01c.01.08.01.13.04.15.02.02.08.05.17.05h.49c.41-.01.81-.04,1.21-.07.38-.03.81-.09,1.33-.15l.17.97c-.49.1-.97.17-1.46.22-.44.05-.89.08-1.36.09h-.68ZM175.03,404.22c-.14-.17-.22-.4-.22-.68l-.03-2.28h1.13s.02,2.02.02,2.02c0,.08.02.13.05.15.03.02.09.03.19.03l5.85-.07v1.06s-6.32.07-6.32.07c-.29,0-.52-.1-.69-.3ZM178.74,397.97c0-.08-.01-.12-.05-.16-.02-.03-.08-.04-.14-.04h-1.17s-.01-1.01-.01-1.01l1.17-.02c.09,0,.13-.01.16-.05.02-.02.03-.07.03-.15l-.02-2.33h1.12s.09,7.48.09,7.48l-1.12.02-.04-3.75ZM180.68,394.1h1.09s.09,7.71.09,7.71h-1.09s-.09-7.71-.09-7.71Z"/>
        <path class="cls-25" d="M184.96,401.33l9.63-.11v1.05s-9.61.12-9.61.12v-1.05ZM191.31,399.22c-.62-.27-1.13-.63-1.54-1.08-.38.43-.91.83-1.6,1.17-.64.31-1.33.54-2.06.67l-.64-1.05c1.1-.11,2.01-.4,2.71-.87.61-.41.91-.81.92-1.23,0-.05-.02-.09-.04-.1-.01-.02-.04-.03-.09-.04l-2.86.04v-1.07s7.15-.09,7.15-.09v1.07s-2.75.04-2.75.04c-.07,0-.12,0-.13,0-.01.02-.02.06-.02.13,0,.42.3.81.89,1.16.69.43,1.6.67,2.73.73l-.66,1.05c-.76-.11-1.43-.29-2.02-.56ZM187.9,393.86l3.74-.05v1.08s-3.73.05-3.73.05v-1.08Z"/>
        <path class="cls-25" d="M201.44,398.95c-.39-.34-.71-.73-.95-1.17-.3.52-.71.98-1.22,1.43-.51.44-1.08.82-1.74,1.14l-.71-.91c.94-.34,1.69-.83,2.23-1.48.55-.66.82-1.38.81-2.18v-.31c0-.08,0-.13-.03-.15-.01,0-.04-.02-.09-.02l-2.14.03v-1.04s5.63-.07,5.63-.07l.02,1.04-2.11.03c-.06,0-.08,0-.1.01,0,0-.01.03-.01.07v.09s.02.3.02.3c0,.79.21,1.43.63,1.94.42.52,1.07.93,1.96,1.23l-.74.92c-.58-.27-1.06-.58-1.46-.91ZM199.18,403.94c-.14-.18-.21-.41-.21-.69l-.04-2.62h1.15s.03,2.36.03,2.36c0,.08.02.13.04.16.02.02.08.03.18.03l5.71-.07v1.06s-6.21.08-6.21.08c-.3,0-.52-.1-.66-.3ZM204.62,393.81l1.19-.02.09,7.74-1.19.02-.09-7.74Z"/>
        <path class="cls-25" d="M209.12,399.05l9.61-.11v1.06s-9.6.11-9.6.11v-1.06ZM210.14,395.05l7.4-.09v1.03s-1.79.02-1.79.02c.09.13.15.27.21.43.05.16.08.32.08.51,0,.58-.22,1.05-.67,1.4-.4.31-.89.46-1.49.47-.6,0-1.12-.15-1.56-.45-.47-.34-.72-.79-.72-1.37,0-.19.02-.36.05-.51.05-.16.12-.3.21-.42l-1.71.02v-1.02ZM212.14,404c-.55-.39-.83-.93-.84-1.59,0-.68.25-1.22.77-1.65.49-.39,1.1-.59,1.83-.6.71,0,1.33.17,1.83.55.55.41.83.96.84,1.63,0,.66-.27,1.19-.82,1.6-.49.39-1.09.59-1.8.6-.7,0-1.33-.17-1.81-.55ZM212.07,393.57l3.63-.05v1.11s-3.62.04-3.62.04v-1.11ZM212.79,401.5c-.29.22-.43.51-.42.89,0,.36.15.64.46.84.29.18.66.27,1.13.27.46,0,.83-.1,1.08-.3.28-.21.42-.48.42-.85,0-.37-.16-.67-.46-.87-.29-.21-.66-.31-1.1-.3-.46,0-.83.12-1.11.33ZM212.99,396.29c-.23.17-.34.39-.33.67,0,.28.12.49.35.64.22.13.51.2.85.2.34,0,.61-.08.82-.23.22-.16.34-.37.34-.64-.01-.29-.12-.51-.36-.67-.22-.14-.51-.21-.85-.21-.34,0-.61.08-.81.23Z"/>
        <path class="cls-25" d="M224.77,399.49c-.3-.41-.53-.86-.73-1.35-.21.5-.48.98-.85,1.47-.36.48-.79.95-1.28,1.4l-.8-.81c.82-.62,1.43-1.31,1.82-2.07.36-.7.54-1.45.53-2.26v-.54c0-.06-.03-.09-.09-.11-.05,0-.11-.01-.17-.01l-1.56.02v-1.1s4.64-.05,4.64-.05v1.11s-1.46.01-1.46.01c-.09,0-.14,0-.18.01-.02.02-.04.06-.03.12v.54c.01.82.16,1.53.45,2.15.34.74.9,1.39,1.69,1.96l-.74.9c-.5-.44-.91-.9-1.23-1.37ZM229.06,397.76c0-.06,0-.09-.03-.11,0-.01-.03,0-.04,0h-.94s-.08.01-.08.03c0,.02,0,.06-.01.13l.06,4.82h-1.15s-.11-8.99-.11-8.99l1.15-.02.03,2.89s0,.07.02.08c0,.02.04.03.08.02h.93s.05-.01.06-.04c.01-.02.01-.03.01-.04l-.03-3.01h1.1s.12,9.24.12,9.24h-1.11s-.06-5-.06-5Z"/>
        <path class="cls-25" d="M234.75,399.35c-.29,0-.54-.09-.71-.29-.16-.17-.25-.4-.25-.68l-.05-3.82c0-.26.08-.46.22-.6.15-.14.35-.21.6-.21l4.12-.05v1.08s-3.67.04-3.67.04c-.06,0-.1,0-.09.02-.01.01-.03.03-.03.07l.02.04.03,3.14c0,.06.02.11.04.14.02.03.07.05.13.05l1.62-.02c.41,0,.85-.03,1.32-.07.42-.05.89-.1,1.42-.17l.17,1c-.48.08-.96.16-1.47.21-.54.07-1.02.11-1.42.12l-1.99.02ZM235.09,403.51c-.13-.17-.2-.41-.2-.69l-.04-2.62h1.14s.03,2.36.03,2.36c0,.08.02.13.05.15.02.02.08.04.19.04l5.73-.07v1.06s-6.21.07-6.21.07c-.31,0-.53-.1-.69-.3ZM241.57,397.42s0,.08,0,.19l.04,3.62-1.17.02-.09-7.85h1.18s.03,2.75.03,2.75c0,.08,0,.13.03.16.02.02.09.04.17.04h1.45s.02,1.04.02,1.04l-1.51.02c-.07,0-.11.01-.14.02Z"/>
      </g>
    </g>
    <g>
      <path class="cls-29" d="M132.85,378.66c-.78.01-1.38-.18-1.77-.67-.45-.44-.65-1.02-.66-1.72,0-.64.18-1.18.62-1.67.39-.4.98-.65,1.76-.66h.84s-.12-10.92-.12-10.92h-.84c-.78.02-1.38-.18-1.78-.66-.45-.44-.65-1.02-.66-1.71,0-.64.19-1.19.62-1.68.39-.4.98-.65,1.77-.65l17.8-.2c.74,0,1.33.23,1.78.62.4.49.65,1.03.66,1.66,0,.69-.23,1.28-.62,1.73-.44.5-1.03.7-1.76.71h-.79s.12,10.93.12,10.93h.79c.73-.01,1.33.22,1.78.61.4.49.65,1.03.66,1.67,0,.69-.23,1.28-.62,1.73-.44.5-1.03.7-1.77.7l-17.8.19ZM140.66,373.86l2.07-.02-.12-10.92-2.07.02.12,10.92ZM161.22,350.67c.84,0,1.48.18,1.88.47.4.35.59.88.61,1.67l.11,10.47,5.16-.05c.74,0,1.33.23,1.78.62.4.49.65,1.03.65,1.67,0,.69-.23,1.28-.61,1.73-.44.49-1.03.7-1.77.71l-5.16.05.13,11.75c.01,1.37-.27,2.36-.8,3.06-.58.7-1.66,1.05-3.29,1.07l-1.42.02c-.64,0-1.08-.14-1.33-.43-.3-.34-.45-.73-.46-1.32l-.29-26.7h-.69c-.79.02-1.33-.18-1.68-.62-.39-.38-.6-.97-.61-1.71,0-.64.18-1.18.57-1.68.34-.44.88-.7,1.66-.7l5.56-.06Z"/>
      <path class="cls-29" d="M194.73,369.88l.05,5.07c.02,1.37-.27,2.41-.8,3.1-.58.79-1.66,1.15-3.28,1.17h-1.42c-1.18.03-1.78-.56-1.79-1.79l-.08-7.47-12.39.13c-.69,0-1.28-.18-1.68-.57-.44-.34-.65-.93-.66-1.81,0-.79.18-1.38.62-1.77.39-.35.97-.56,1.71-.56l30.59-.33c.73,0,1.33.18,1.77.52.4.39.6.98.61,1.76,0,.88-.18,1.48-.57,1.82-.44.4-1.03.6-1.76.61l-10.92.11ZM190.22,343.86c.84,0,1.43.23,1.83.62.3.44.51,1.08.52,1.91l.02,2.31c1.58.47,2.82,1.3,3.72,2.37.85,1.17,1.3,2.49,1.32,4.07.02,2.11-.74,3.84-2.21,5.14-1.51,1.39-3.62,2.05-6.27,2.08-2.7.03-4.83-.59-6.32-1.95-1.54-1.26-2.3-2.97-2.32-5.09-.02-1.52.36-2.85,1.19-4,.78-1.09,2-1.94,3.56-2.5v-.93s-.41,0-.41,0c-.54,0-.94-.19-1.19-.63-.3-.39-.45-.83-.46-1.32-.05-.54.09-1.04.48-1.43.29-.4.78-.59,1.47-.6l5.06-.06ZM182.83,388.26c-1.43.02-2.46-.27-3.06-.85-.65-.59-.95-1.66-.97-3.14l-.06-5.75h-.93c-.79.02-1.33-.18-1.73-.66-.45-.39-.65-.97-.66-1.71,0-.64.18-1.18.62-1.68.39-.39.93-.65,1.71-.66l5.61-.06c.83-.01,1.47.23,1.97.62.45.44.7,1.07.71,1.91l.07,6.44c0,.19,0,.39.1.59.05.1.24.19.64.19l7.38-.08c.74,0,1.28.18,1.68.67.35.39.55.93.56,1.62,0,.69-.18,1.23-.52,1.73-.39.45-.93.7-1.66.71l-11.46.12ZM187.73,355.25c.02,1.81.47,2.7,1.36,2.69.89-.01,1.32-.9,1.3-2.72-.02-1.77-.47-2.65-1.36-2.64-.89,0-1.32.9-1.3,2.67Z"/>
      <path class="cls-29" d="M211.65,360.01c-.69,0-1.18-.18-1.58-.67-.45-.39-.65-.98-.66-1.71,0-.64.18-1.18.57-1.68.34-.4.93-.65,1.81-.66l15.34-.16c.74,0,1.33.18,1.83.57.4.39.6.98.61,1.72-.04.74-.23,1.33-.62,1.73-.44.5-1.02.7-1.77.71l-7.77.09.08,7.13c0,.39.06.59.2.69.1.1.35.15.64.14l6.88-.07c.74,0,1.33.23,1.78.62.4.49.65,1.02.66,1.66,0,.69-.23,1.28-.62,1.73-.44.5-1.02.7-1.76.71l-11.26.12c-1.43.02-2.41-.27-2.96-.95-.6-.63-.85-1.66-.87-3.14l-.09-8.56h-.44ZM242.25,347.83c1.28-.01,1.98.67,1.99,2.05l.29,26.95c.01,1.38-.27,2.41-.8,3.11-.58.79-1.66,1.15-3.29,1.17h-1.42c-1.18.03-1.78-.56-1.79-1.78l-.15-13.38-8.11.09c-.78,0-1.38-.18-1.77-.67-.45-.39-.65-.98-.66-1.66,0-.64.19-1.19.62-1.68.39-.45.97-.7,1.76-.71l8.11-.09-.09-8.6h-.44c-.78.01-1.38-.18-1.78-.62-.44-.39-.65-.97-.66-1.71,0-.64.19-1.19.62-1.68.39-.44.98-.7,1.77-.71l5.8-.06Z"/>
    </g>
  </g>
  <g>
    <path class="cls-7" d="M174.83,441.19c0,16.81-7.46,28.43-19.8,28.43s-20.63-11.62-20.63-28.43,9.98-32.46,22.33-32.46,18.11,15.64,18.11,32.46Z"/>
    <path class="cls-7" d="M166.73,427.24c0,.36-.29.65-.64.65h-21.02c-.36,0-.65-.29-.65-.65h0c0-.36.29-.65.65-.65h21.02c.36,0,.64.29.64.65h0Z"/>
    <path class="cls-7" d="M166.73,435.98c0,.36-.29.65-.64.65h-21.02c-.36,0-.65-.29-.65-.65h0c0-.35.29-.64.65-.64h21.02c.36,0,.64.29.64.64h0Z"/>
    <path class="cls-7" d="M166.73,446.03c0,.36-.29.65-.64.65h-21.02c-.36,0-.65-.29-.65-.65h0c0-.36.29-.65.65-.65h21.02c.36,0,.64.29.64.65h0Z"/>
    <path class="cls-7" d="M166.73,456.98c0,.36-.29.65-.64.65h-21.02c-.36,0-.65-.29-.65-.65h0c0-.36.29-.65.65-.65h21.02c.36,0,.64.29.64.65h0Z"/>
  </g>
  <g>
    <path class="cls-7" d="M213.24,441.19c0,16.81,7.46,28.43,19.81,28.43s20.63-11.62,20.63-28.43-9.98-32.46-22.33-32.46-18.11,15.64-18.11,32.46Z"/>
    <path class="cls-7" d="M221.35,427.24c0,.36.29.65.64.65h21.02c.36,0,.65-.29.65-.65h0c0-.36-.29-.65-.65-.65h-21.02c-.36,0-.64.29-.64.65h0Z"/>
    <path class="cls-7" d="M221.35,435.98c0,.36.29.65.64.65h21.02c.36,0,.65-.29.65-.65h0c0-.35-.29-.64-.65-.64h-21.02c-.36,0-.64.29-.64.64h0Z"/>
    <path class="cls-7" d="M221.35,446.03c0,.36.29.65.64.65h21.02c.36,0,.65-.29.65-.65h0c0-.36-.29-.65-.65-.65h-21.02c-.36,0-.64.29-.64.65h0Z"/>
    <path class="cls-7" d="M221.35,456.98c0,.36.29.65.64.65h21.02c.36,0,.65-.29.65-.65h0c0-.36-.29-.65-.65-.65h-21.02c-.36,0-.64.29-.64.65h0Z"/>
  </g>
  <path class="cls-4" d="M368.7,311.96s2.55-11.68-3.81-15.61c-6.36-3.93-13.93.71-13.45,11.71.48,11,4.51,6.87,4.51,6.87"/>
  <g>
    <path class="cls-6" d="M112.09,359.19c20.37-15.8,44.23-46.69,36.83-56.24-7.4-9.54-31.71-3.65-53.26,10.5-7.03,4.61-14.08,7.62-17.95,11.8-7.4,7.99-6.32,20.01-1.46,26.28,7.4,9.55,15.47,23.45,35.84,7.66Z"/>
    <path class="cls-10" d="M146.87,281.69l-1.6,1.78c-1.18-1.68-2.87-2.71-4.71-2.63-3.32.14-5.86,3.86-5.67,8.3l.16,3.84c.04.77.32,1.72.76,2.77l-8.22,2.74,20.51,24.29,6.61-13.11c3.12-.44,6.11-1.93,8.38-4.46l4.44-4.94c5.13-5.7,4.67-14.48-1.04-19.62-5.71-5.14-14.49-4.67-19.62,1.04Z"/>
    <path d="M83.71,342.65s-13.14-4.57,39.75-33.7"/>
  </g>
</svg>